<svg width="601" height="641" viewBox="0 0 601 641" fill="none" xmlns="http://www.w3.org/2000/svg">
<mask id="mask0_626_2296" style="mask-type:alpha" maskUnits="userSpaceOnUse" x="0" y="0" width="601" height="641">
<rect width="601" height="641" fill="url(#paint0_linear_626_2296)"/>
</mask>
<g mask="url(#mask0_626_2296)">
<g clip-path="url(#clip0_626_2296)">
<path d="M345.805 322.993L341.283 406.701H373.76L395.549 315.182L451.087 305.727L442.152 367.814H446.263L442.152 385.68H502.132V377.118L480.873 370.08C476.984 368.793 474.696 364.775 475.573 360.772L491.336 288.872L495.036 269.961L486.403 262.972H437.893L416.926 249.817L419.393 207.062H461.737L473.248 197.606L461.737 152.796H443.237L447.348 182.807L422.682 175.407L397.251 170.725L392.561 175.02L390.454 175.407L373.76 168.007L341.283 175.407L296.472 212.406L279.341 272.74C278.304 276.389 279.973 280.263 283.336 282.018L288.397 284.658C292.677 286.892 297.946 284.853 299.608 280.32L314.561 239.539L333.883 216.928H341.283L354.027 258.039L348.159 305.727L345.805 322.993Z" fill="url(#paint1_linear_626_2296)" fill-opacity="0.3"/>
<path fill-rule="evenodd" clip-rule="evenodd" d="M415.992 481.369H223.057C223.038 481.463 223.014 481.557 222.983 481.651L221.153 491.154C220.519 494.321 217.704 496.574 214.536 496.574L214.606 496.644C214.255 496.644 213.903 496.644 213.48 496.574L205.878 495.307C204.118 495.025 202.57 494.04 201.514 492.561C200.458 491.083 200.106 489.323 200.388 487.493L201.513 481.369H81.9391C81.9187 481.487 81.8905 481.604 81.8514 481.721L80.0212 491.224C79.3885 494.387 76.5795 496.638 73.417 496.644C73.0841 496.644 72.7479 496.64 72.3488 496.573L64.7467 495.306C62.9869 495.025 61.4384 494.039 60.3825 492.561C59.3267 491.083 58.9747 489.323 59.2563 487.493L60.381 481.369H-59.122C-59.1309 481.42 -59.1413 481.472 -59.1534 481.523C-59.1557 481.533 -59.1581 481.542 -59.1606 481.552C-59.1641 481.566 -59.1677 481.58 -59.1715 481.594C-59.183 481.637 -59.1956 481.679 -59.2097 481.721L-61.0399 491.224C-61.6725 494.387 -64.4816 496.638 -67.6441 496.644C-67.9769 496.644 -68.3132 496.64 -68.7123 496.573L-76.3144 495.306C-78.0742 495.025 -79.6227 494.039 -80.6786 492.561C-81.7344 491.083 -82.0864 489.323 -81.8048 487.493L-80.6801 481.369H-150.857C-166.906 481.369 -183.096 476.231 -196.47 466.939C-203.509 462.012 -211.392 456.381 -216.179 451.594C-225.33 442.444 -242.927 415.836 -248.347 407.249L-249.403 405.63H-154.343C-150.276 394.144 -147.294 384.888 -144.672 376.751C-144.359 375.78 -144.052 374.825 -143.748 373.884C-143.308 372.431 -142.84 371.034 -142.379 369.657C-142.103 368.832 -141.829 368.014 -141.566 367.197C-137.131 353.401 -129.67 338.196 -127.277 334.114C-125.134 330.382 -105.89 310.159 -95.3988 304.03C-95.4948 300.246 -96.3691 294.377 -97.4313 290.261C-98.6984 288.783 -100.528 284.208 -100.528 275.198C-100.528 266.188 -92.705 255.981 -82.7199 255.981H-60.0544L-55.2679 261.472V267.173L-50.1998 290.684H-55.2679V310.604H-68.0084V321.725H-67.8676V334.466L-40.9788 398.802H-36.7554C-33.0951 398.802 -30.0684 401.829 -30.0684 405.489V405.63H-13.2818C-9.21448 394.144 -6.23245 384.888 -3.61082 376.75L-3.60419 376.73C-3.29372 375.766 -2.98831 374.818 -2.68674 373.884C-2.24673 372.432 -1.77922 371.035 -1.3186 369.659L-1.31805 369.657C-1.04198 368.832 -0.768372 368.015 -0.504654 367.197C3.9299 353.401 11.3912 338.196 13.7845 334.114C15.9318 330.373 35.2556 310.07 45.7316 303.99C45.6306 300.197 44.7586 294.297 43.7001 290.261C42.4331 288.783 40.603 284.208 40.603 275.198C40.603 266.188 47.8531 255.981 58.4116 255.981H81.0771L85.8636 261.472V267.173L90.9316 290.684H85.8636V310.604H73.123V321.725H73.1935V334.466L100.082 398.802H104.306C107.966 398.802 110.993 401.829 110.993 405.489V405.63H127.849C132.311 392.964 135.467 383.11 138.274 374.347L138.445 373.814C138.885 372.361 139.353 370.964 139.813 369.587L139.813 369.587C140.089 368.762 140.363 367.944 140.627 367.127C145.132 353.33 152.523 338.126 154.916 334.044C157.068 330.295 176.407 309.906 186.932 303.878C186.826 300.092 185.956 294.277 184.902 290.191C183.635 288.713 181.805 284.208 181.805 275.128C181.805 266.047 188.473 255.911 199.613 255.911H222.279L227.065 261.402V267.103L232.133 290.613H227.065V310.534H214.325L214.325 321.655V334.396L241.214 398.732H245.437C249.097 398.732 252.124 401.759 252.124 405.419V405.63H341.238L345.743 322.077L348.84 304.832L353.837 258.445C353.837 257.811 353.837 257.178 353.626 256.615L342.505 220.646C341.942 218.745 340.182 217.408 338.141 217.408H337.507C336.17 217.408 334.903 217.971 334.058 219.027L317.094 238.877C316.742 239.299 316.46 239.792 316.249 240.284L300.764 282.518C300.13 284.348 298.722 285.756 296.892 286.46C296.399 286.671 295.907 286.812 295.344 286.882L293.302 291.81C293.373 292.091 293.443 292.373 293.513 292.725L294.499 299.834C294.71 301.594 294.288 303.354 293.232 304.761L289.501 309.759C287.882 312.012 285.067 312.927 282.392 312.223L275.212 310.252C272.537 309.548 270.637 307.295 270.285 304.621L270.074 302.861C269.933 301.594 270.144 300.256 270.707 299.13L278.098 284.208V284.137L277.394 283.785L279.576 278.999C278.661 277.45 278.38 275.55 278.872 273.79L295.977 213.466C296.329 212.128 297.103 211.002 298.159 210.158L340.463 175.174C341.238 174.54 342.223 174.048 343.209 173.836L372.491 167.149C372.983 167.009 373.476 167.009 373.969 167.009C374.075 166.373 374.301 165.537 374.556 164.593L374.556 164.592L374.556 164.591L374.556 164.591L374.557 164.589L374.558 164.584C374.619 164.36 374.681 164.13 374.743 163.895C374.767 163.807 374.79 163.719 374.814 163.63C375.588 160.814 376.503 157.295 376.503 155.254C376.503 152.368 374.743 144.695 373.476 140.049C372.139 138.501 370.731 134.348 370.731 126.957C370.731 115.906 380.867 110.204 386.287 110.204H405.996L410.22 115.061V120.059L411.698 126.957H441.473C441.965 124.986 443.725 123.578 445.837 123.578H453.369C455.48 123.578 457.451 124.564 458.648 126.183L560.572 124.634V136.6L460.056 133.996V147.088H461.111V152.508C462.73 153.353 463.927 154.902 464.42 156.732L473.922 193.757C474.556 196.291 473.711 198.966 471.67 200.585L464.49 206.497C463.294 207.483 461.815 208.046 460.267 208.046H425.353C422.96 208.046 420.919 209.946 420.778 212.34L418.807 246.338C418.737 248.027 419.511 249.576 420.919 250.491L437.672 260.979C438.376 261.401 439.22 261.683 440.135 261.683H484.903C486.452 261.683 487.93 262.246 489.126 263.161L493.561 266.751C495.462 268.299 496.377 270.763 495.884 273.227L492.857 288.783L476.668 362.622C476.175 364.945 477.442 367.197 479.694 367.971L499.051 374.377C501.797 375.292 503.627 377.826 503.627 380.712V384.02H529.882L529.601 385.287C528.193 391.27 522.28 408.375 498.207 437.235C486.17 451.665 473.922 460.815 465.757 466.517C451.468 476.372 433.73 481.792 415.851 481.792L415.992 481.369ZM202.114 323.225L202.429 323.626H202.451L202.57 323.767H212.143V334.607V405.348H193.067L197.291 351.289C197.291 350.726 196.868 350.163 196.305 350.163C195.742 350.163 195.179 350.585 195.179 351.148L190.815 406.334V406.616V406.756V406.897L211.72 452.932L199.965 459.337C199.613 459.478 199.262 459.408 199.05 459.126L162.166 406.123L156.746 351.148C156.746 350.585 156.183 350.233 155.62 350.233C155.057 350.233 154.705 350.796 154.705 351.36L159.984 405.419H130.139C133.756 395.093 136.502 386.605 138.94 379.072L138.941 379.069L138.941 379.067C139.444 377.512 139.934 375.999 140.416 374.518C141.19 372.195 141.894 370.013 142.598 367.831C147.032 354.175 154.353 339.112 156.676 335.17C158.365 332.214 177.089 312.223 187.577 305.958L202.114 323.225ZM203.508 321.514H212.072V308.563H224.813V288.642H229.388L224.813 267.455V262.317L221.153 258.164H199.473C194.123 258.164 183.776 264.217 183.776 275.268C183.776 286.32 185.746 288.361 186.45 288.994L186.662 289.205V289.487C187.908 293.779 188.881 300.044 188.913 304.134L203.508 321.514ZM415.992 479.258H223.124V473.275C223.124 472.148 222.842 471.022 222.279 470.037L216.225 459.197C216.242 459.164 216.262 459.127 216.284 459.088L216.284 459.087C216.354 458.96 216.437 458.811 216.437 458.704C216.648 458.211 216.577 457.578 216.296 457.085L214.114 452.932L193.585 407.742H227.285L231.359 418.652C232.345 421.257 234.808 423.016 237.624 423.016H243.044C246.071 423.016 248.745 420.975 249.52 418.019L251.913 409.009C252.019 408.586 252.085 408.164 252.111 407.742H387.554C397.901 407.742 407.615 403.729 414.936 396.409C421.834 389.44 431.055 385.639 440.839 385.639H448.582C449.004 385.78 449.427 385.78 449.919 385.78H503.768V385.639H527.348C525.448 392.467 518.972 408.797 496.729 435.475C484.903 449.694 472.796 458.774 464.701 464.335C450.764 473.978 433.448 479.258 415.992 479.258ZM202.288 477.146L201.9 479.258H81.9922V473.345C81.9922 472.219 81.7106 471.092 81.1475 470.107L75.094 459.267C75.1106 459.234 75.1312 459.196 75.1529 459.157C75.223 459.03 75.3051 458.882 75.3051 458.774C75.5163 458.281 75.4459 457.648 75.1643 457.155L72.9823 453.002L52.4221 407.742H86.1274L90.2278 418.722C91.2132 421.327 93.6768 423.086 96.4925 423.086H101.912C104.939 423.086 107.614 421.045 108.388 418.089L110.782 409.079C110.893 408.633 110.96 408.187 110.984 407.742H160.835L197.431 460.323C197.994 461.238 199.05 461.66 200.036 461.52L201.936 464.969C202.218 465.461 202.64 465.813 203.133 465.954L202.288 477.146ZM375.94 405.63H387.484C397.268 405.63 406.489 401.829 413.387 394.86C420.708 387.54 430.421 383.528 440.769 383.528H444.851C444.816 383.492 444.781 383.439 444.746 383.387C444.711 383.334 444.675 383.281 444.64 383.246C443.373 381.627 442.88 379.586 443.373 377.615L445.414 368.746C445.414 368.464 445.414 368.323 445.274 368.183C445.203 368.112 445.063 367.971 444.781 367.971C444.007 367.971 443.232 367.619 442.669 366.986C442.177 366.352 441.895 365.578 442.036 364.804L450.483 306.24L400.154 314.827C398.324 315.109 396.916 316.516 396.494 318.276L375.869 405.63H375.94ZM373.828 405.419H343.775L348.206 322.359L351.233 305.184L356.231 258.656C356.301 257.741 356.231 256.826 355.949 255.981L344.828 220.012C343.912 217.197 341.378 215.296 338.422 215.296H337.789C335.818 215.296 333.987 216.141 332.72 217.619L315.757 237.469C315.264 238.102 314.841 238.736 314.56 239.51L299.074 281.744C298.581 282.941 297.596 283.926 296.399 284.419C295.132 284.911 293.795 284.841 292.598 284.208L282.814 279.069C281.266 277.943 280.632 275.972 281.125 274.142L298.229 213.818C298.441 212.973 299.004 212.128 299.708 211.565L342.012 176.582C342.575 176.159 343.209 175.807 343.912 175.667L373.195 168.98C374.18 168.768 375.166 168.839 376.081 169.261L389.243 175.103C389.414 175.217 389.63 175.285 389.818 175.344C389.863 175.358 389.907 175.371 389.947 175.385L393.044 176.793L396.775 172.992L398.535 171.373L423.312 175.948L449.427 183.761L445.274 153.353H458.155C460.267 153.353 462.097 154.761 462.59 156.802L472.092 193.827C472.515 195.516 471.881 197.347 470.544 198.473L463.364 204.315C462.59 205.019 461.534 205.371 460.478 205.371H425.565C422.045 205.371 419.089 208.187 418.878 211.706L416.907 245.704C416.766 248.168 417.962 250.491 420.004 251.758L436.757 262.246C437.812 262.95 439.009 263.302 440.276 263.302H485.044C486.1 263.302 487.085 263.654 487.93 264.287L492.364 267.877C493.702 268.933 494.335 270.622 493.983 272.312L490.957 287.797L474.767 361.636C474.063 364.945 475.964 368.323 479.202 369.379L498.559 375.785C500.459 376.418 501.726 378.178 501.726 380.149V383.457H448.864C447.878 383.176 447.033 382.612 446.4 381.838C445.555 380.712 445.274 379.304 445.555 377.967L447.597 369.098C447.737 368.253 447.597 367.479 447.033 366.775C446.47 366.071 445.696 365.719 444.851 365.719C444.57 365.719 444.429 365.578 444.359 365.508C444.288 365.437 444.218 365.297 444.218 365.015L453.087 303.565L399.943 312.645C397.268 313.138 395.156 315.109 394.523 317.713L373.828 405.419ZM272.537 299.905L279.886 285.066L287.953 289.064L289.149 289.628C290.346 290.402 291.12 291.599 291.331 292.936L292.317 300.045C292.528 301.242 292.176 302.439 291.472 303.424L287.741 308.422C286.615 309.97 284.715 310.604 282.885 310.111L275.705 308.14C273.875 307.647 272.537 306.099 272.326 304.269L272.115 302.509C271.974 301.594 272.115 300.679 272.537 299.905ZM290.205 287.727L292.176 288.783L292.95 286.953L289.501 285.123L282.181 281.322C281.899 281.181 281.618 281.04 281.406 280.829L280.984 280.618L280.069 282.589L289.712 287.516L290.135 287.727H290.205ZM398.676 169.261L423.805 173.907L446.822 180.805L442.81 151.312H444.57V146.736L439.291 137.093C438.727 136.108 438.446 134.981 438.446 133.855V133.714H413.387L414.795 140.331H410.36V157.647H398.676V169.261ZM390.581 173.344C391.355 173.555 392.129 173.625 392.904 173.484L395.156 171.443L396.494 170.106V155.535H408.178V138.219H412.12L408.178 119.847V115.554L405.081 112.034H386.357C381.782 112.034 372.913 117.243 372.913 126.675C372.913 136.108 374.602 137.938 375.165 138.501L375.377 138.712V138.994C375.588 139.486 378.615 150.749 378.615 154.972C378.615 158.14 378.06 159.922 377.456 161.863C377.255 162.509 377.048 163.173 376.855 163.911C376.573 165.038 376.292 166.094 376.081 166.868L390.44 173.414L390.581 173.344ZM446.682 151.171H459.141V148.707H446.682V151.171ZM458.085 146.596H446.924L441.121 136.037C440.769 135.404 440.558 134.629 440.558 133.855V133.574C442.317 133.081 443.655 131.462 443.655 129.561V127.661C443.655 126.394 444.711 125.338 445.978 125.338H453.509C456.043 125.338 458.085 127.379 458.085 129.913V146.596ZM460.267 131.462L558.531 134.066V126.394L460.267 127.942V131.462ZM412.965 131.532H439.502C440.628 131.532 441.543 130.617 441.543 129.491V128.646H412.402L413.035 131.462L412.965 131.532ZM60.7703 322.889L60.7344 322.922L61.368 323.626H61.3904L61.5087 323.766H71.0818V334.607V405.348H52.0061L56.2295 351.289C56.2295 350.726 55.8072 350.163 55.244 350.163C54.6809 350.163 54.1178 350.585 54.1178 351.148L49.7536 406.334V406.615V406.756V406.897L70.6594 452.932L58.9043 459.337C58.5524 459.478 58.2004 459.408 57.9893 459.126L21.105 406.122L15.685 351.148C15.685 350.585 15.1219 350.233 14.5587 350.233C13.9956 350.233 13.6437 350.796 13.6437 351.359L18.9229 405.419H-10.9223C-7.30499 395.092 -4.55815 386.602 -2.12059 379.069L-2.11981 379.067L-2.11963 379.066L-2.11615 379.055C-1.61444 377.505 -1.12582 375.995 -0.645416 374.518C0.128235 372.197 0.831589 370.016 1.53491 367.836L1.53665 367.83C5.97121 354.175 13.2917 339.182 15.6146 335.17C17.3021 332.216 35.9873 312.266 46.4818 305.978C50.2037 310.559 57.4457 319.167 60.6641 322.922L60.7426 322.857L60.7703 322.889ZM62.3336 321.534L62.3534 321.514H71.0114V308.562H83.7519V288.642H88.3272L83.7519 267.455V262.316L80.0916 258.163H58.4116C53.062 258.163 42.7147 264.217 42.7147 275.268C42.7147 286.319 44.6856 288.361 45.3895 288.994L45.6006 289.205V289.487C46.8625 293.833 47.845 300.204 47.8531 304.289L62.3336 321.534ZM61.1568 477.146L60.7689 479.258H-59.0689V473.345C-59.0689 472.219 -59.3505 471.092 -59.9136 470.107L-65.9671 459.267C-65.9505 459.234 -65.93 459.196 -65.9083 459.157C-65.8381 459.03 -65.756 458.882 -65.756 458.774C-65.5448 458.281 -65.6152 457.648 -65.8967 457.155L-68.0788 453.002L-88.639 407.742H-54.9337L-50.8333 418.722C-49.8479 421.327 -47.3842 423.086 -44.5686 423.086H-39.1486C-36.1219 423.086 -33.4471 421.045 -32.6728 418.089L-30.2795 409.079C-30.1681 408.633 -30.1008 408.187 -30.0775 407.742H19.7035L56.2999 460.323C56.863 461.238 57.9189 461.66 58.9043 461.519L60.8048 464.968C61.0864 465.461 61.5087 465.813 62.0015 465.954L61.1568 477.146ZM-80.3612 322.889L-80.397 322.922L-79.7635 323.626H-79.7411L-79.6227 323.766H-70.0497V334.607V405.348H-89.1254L-84.902 351.289C-84.902 350.726 -85.3243 350.163 -85.8874 350.163C-86.4505 350.163 -87.0137 350.585 -87.0137 351.148L-91.3778 406.334V406.615V406.756V406.897L-70.4721 452.932L-82.2272 459.337C-82.5791 459.478 -82.9311 459.408 -83.1422 459.126L-120.026 406.122L-125.446 351.148C-125.446 350.585 -126.01 350.233 -126.573 350.233C-127.136 350.233 -127.488 350.796 -127.488 351.359L-122.209 405.419H-152.054C-148.436 395.091 -145.689 386.601 -143.251 379.067L-143.249 379.061C-142.747 377.508 -142.258 375.996 -141.777 374.518C-141.003 372.195 -140.299 370.013 -139.595 367.83C-135.16 354.175 -127.84 339.182 -125.517 335.17C-123.829 332.216 -105.144 312.266 -94.6497 305.978C-90.9277 310.559 -83.6858 319.167 -80.4674 322.922L-80.3888 322.857L-80.3612 322.889ZM-78.744 321.514H-70.1201V308.562H-57.3796V288.642H-52.8042L-57.3796 267.455V262.316L-61.0398 258.163H-82.7199C-88.0695 258.163 -98.4168 264.217 -98.4168 275.268C-98.4168 286.319 -96.4459 288.361 -95.742 288.994L-95.5308 289.205V289.487C-94.2776 293.803 -93.2999 300.117 -93.2787 304.205L-78.744 321.514ZM-79.9043 477.146L-80.2922 479.258H-150.787C-166.413 479.258 -182.181 474.26 -195.203 465.25C-202.171 460.393 -209.914 454.832 -214.63 450.116C-223.147 441.669 -239.196 417.596 -245.531 407.742H-121.358L-84.7612 460.323C-84.1981 461.238 -83.1422 461.66 -82.1568 461.519L-80.2563 464.968C-79.9747 465.461 -79.5524 465.813 -79.0596 465.954L-79.9043 477.146ZM-77.863 477.498L-76.9505 465.565L-67.7973 460.534L-61.8141 471.163C-61.4622 471.867 -61.251 472.641 -61.251 473.415V480.524C-61.251 480.665 -61.2686 480.806 -61.2862 480.947L-61.2863 480.947C-61.3038 481.088 -61.3214 481.228 -61.3214 481.369L-63.1516 490.872C-63.6443 493.335 -65.9671 494.954 -68.4308 494.532L-76.0329 493.265C-77.2295 493.054 -78.2854 492.35 -78.9892 491.365C-79.7635 490.379 -79.9747 489.112 -79.7635 487.915L-77.863 477.498ZM-80.2563 460.675L-78.4965 463.913H-78.3557L-67.938 458.141L-69.6274 454.903L-80.397 460.745L-80.2563 460.675ZM-53.2266 406.334L-48.9328 417.948C-48.2993 419.708 -46.5396 420.904 -44.639 420.904H-39.219C-37.1777 420.904 -35.3476 419.497 -34.7845 417.526L-32.3912 408.516C-32.3208 408.164 -32.2504 407.741 -32.2504 407.319V405.419C-32.2504 402.885 -34.2917 400.843 -36.8258 400.843H-41.7531H-48.5809C-51.1149 400.843 -53.1562 402.885 -53.1562 405.419V406.263L-53.2266 406.334ZM-68.0084 405.419H-55.3383C-55.3383 401.758 -52.3115 398.732 -48.6513 398.732H-43.372L-68.0084 339.886V405.419ZM63.2685 477.498L64.181 465.565L73.3342 460.534L79.3173 471.163C79.6693 471.867 79.8805 472.641 79.8805 473.415V480.524C79.8805 480.665 79.8629 480.806 79.8453 480.947C79.8328 481.046 79.8204 481.146 79.8141 481.246C79.8116 481.287 79.8101 481.328 79.8101 481.369L77.9799 490.872C77.4872 493.335 75.1643 494.954 72.7007 494.532L65.0986 493.265C63.902 493.054 62.8461 492.35 62.1422 491.365C61.368 490.379 61.1568 489.112 61.368 487.915L63.2685 477.498ZM60.8752 460.675L62.635 463.913H62.7757L73.1935 458.141L71.5041 454.903L60.7344 460.745L60.8752 460.675ZM87.9049 406.334L92.1987 417.948C92.8322 419.708 94.5919 420.904 96.4925 420.904H101.912C103.954 420.904 105.784 419.497 106.347 417.526L108.74 408.516C108.811 408.164 108.881 407.741 108.881 407.319V405.419C108.881 402.885 106.84 400.843 104.306 400.843H99.3784H92.5506C90.0166 400.843 87.9753 402.885 87.9753 405.419V406.263L87.9049 406.334ZM73.123 405.419H85.7932C85.7932 401.758 88.8199 398.732 92.4802 398.732H97.7595L73.123 339.886V405.419ZM204.33 477.498L205.242 465.565L214.395 460.534L220.378 471.163C220.73 471.867 220.942 472.641 220.942 473.415V480.525C220.942 480.665 220.924 480.806 220.906 480.947C220.889 481.088 220.871 481.229 220.871 481.369L219.041 490.872C218.548 493.336 216.225 494.955 213.762 494.532L206.16 493.265C204.963 493.054 203.907 492.35 203.203 491.365C202.429 490.379 202.218 489.112 202.429 487.916L204.33 477.498ZM201.936 460.675L203.696 463.913H203.837L214.255 458.141L212.565 454.903L201.796 460.745L201.936 460.675ZM228.966 406.334L233.26 417.948C233.893 419.708 235.653 420.905 237.553 420.905H242.974C245.015 420.905 246.845 419.497 247.408 417.526L249.801 408.516C249.872 408.164 249.942 407.742 249.942 407.319V405.419C249.942 402.885 247.901 400.844 245.367 400.844H233.541C231.007 400.844 228.966 402.885 228.966 405.419V406.264V406.334ZM214.184 405.419H226.854C226.854 401.759 229.881 398.732 233.541 398.732H238.821L214.184 339.886V405.419Z" fill="url(#paint2_linear_626_2296)"/>
<path fill-rule="evenodd" clip-rule="evenodd" d="M394.477 194.773L394.796 207.535L402.351 204.191C407.514 202.267 408.574 198.445 408.51 195.072L408.389 188.691L394.477 194.773ZM392.483 195.432L382.986 199.514C378.902 201.304 377.081 204.343 377.158 208.423C377.158 208.423 376.66 214.727 380.313 217.332C378.657 215.532 381.492 213.013 384.479 211.723L392.777 208.22L392.483 195.432ZM380.979 248.399L381.08 253.76L387.234 251.153C391.601 249.362 393.581 246.558 393.355 240.047L393.288 236.542L389.384 238.332C382.977 241.097 381.169 244.868 380.979 248.399ZM379.125 234.832C379.024 229.497 382.228 226.061 386.978 224.112L402.491 229.192C401.532 230.215 400.212 231.161 398.376 232.055L387.787 236.898C380.817 239.9 379.302 244.141 379.374 247.933L379.125 234.832ZM387.538 222.017C385.388 221.265 383.724 220.381 382.495 219.364C380.787 217.539 383.699 215.02 386.763 213.703L393.759 210.779L396.974 211.973C399.201 212.725 400.865 213.609 402.12 214.652C402.069 214.652 402.043 214.626 402.016 214.6C402.173 214.762 402.291 214.931 402.375 215.105L402.393 215.117L402.55 215.343C402.943 215.765 403.264 216.231 403.525 216.748L403.625 216.892L403.609 216.921C404.324 218.446 404.554 220.409 404.604 223.016C404.632 224.533 404.403 225.998 403.708 227.386L390.009 222.928L390.051 222.911L387.538 222.017Z" fill="url(#paint3_linear_626_2296)"/>
<rect x="-0.258073" y="2.10556" width="49.6604" height="68.1568" rx="6.5" transform="matrix(-0.787879 0.61583 0.61583 0.787879 527.915 442.819)" fill="url(#paint4_linear_626_2296)" fill-opacity="0.6" stroke="url(#paint5_linear_626_2296)" stroke-width="3"/>
<rect x="-0.258073" y="2.10556" width="49.6604" height="68.1568" rx="6.5" transform="matrix(-0.787879 0.61583 0.61583 0.787879 422.604 442.819)" fill="url(#paint6_linear_626_2296)" fill-opacity="0.6" stroke="url(#paint7_linear_626_2296)" stroke-width="3"/>
<rect x="-0.258073" y="2.10556" width="49.6604" height="68.1568" rx="6.5" transform="matrix(-0.787879 0.61583 0.61583 0.787879 317.293 442.819)" fill="url(#paint8_linear_626_2296)" fill-opacity="0.6" stroke="url(#paint9_linear_626_2296)" stroke-width="3"/>
</g>
</g>
<defs>
<linearGradient id="paint0_linear_626_2296" x1="-38.0923" y1="499.928" x2="765.255" y2="495.941" gradientUnits="userSpaceOnUse">
<stop stop-color="#737373" stop-opacity="0"/>
<stop offset="0.215" stop-color="#D9D9D9"/>
<stop offset="0.77" stop-color="#D9D9D9"/>
<stop offset="1" stop-color="#737373" stop-opacity="0"/>
</linearGradient>
<linearGradient id="paint1_linear_626_2296" x1="389.847" y1="152.796" x2="389.847" y2="413.848" gradientUnits="userSpaceOnUse">
<stop stop-color="#3742F5"/>
<stop offset="1" stop-color="#D6357F"/>
</linearGradient>
<linearGradient id="paint2_linear_626_2296" x1="529.625" y1="125.243" x2="-52.7213" y2="402.689" gradientUnits="userSpaceOnUse">
<stop stop-color="#D6357F"/>
<stop offset="1" stop-color="#3742F5"/>
</linearGradient>
<linearGradient id="paint3_linear_626_2296" x1="398.154" y1="185.948" x2="380.057" y2="253.486" gradientUnits="userSpaceOnUse">
<stop stop-color="#5141E3"/>
<stop offset="1" stop-color="#C83685"/>
</linearGradient>
<linearGradient id="paint4_linear_626_2296" x1="26.3302" y1="0" x2="26.3302" y2="71.1568" gradientUnits="userSpaceOnUse">
<stop offset="1" stop-color="#D6357F" stop-opacity="0"/>
<stop stop-color="#D6357F"/>
</linearGradient>
<linearGradient id="paint5_linear_626_2296" x1="26.3302" y1="0" x2="26.3302" y2="71.1568" gradientUnits="userSpaceOnUse">
<stop stop-color="#D6357F" stop-opacity="0.2"/>
<stop offset="0.567708" stop-color="#D6357F"/>
<stop offset="1" stop-color="#D6357F" stop-opacity="0.24"/>
</linearGradient>
<linearGradient id="paint6_linear_626_2296" x1="26.3302" y1="0" x2="26.3302" y2="71.1568" gradientUnits="userSpaceOnUse">
<stop stop-color="#733EC9"/>
<stop offset="1" stop-color="#733EC9" stop-opacity="0"/>
</linearGradient>
<linearGradient id="paint7_linear_626_2296" x1="26.3302" y1="0" x2="26.3302" y2="71.1568" gradientUnits="userSpaceOnUse">
<stop stop-color="#733EC9" stop-opacity="0.2"/>
<stop offset="0.567708" stop-color="#733EC9"/>
<stop offset="1" stop-color="#733EC9" stop-opacity="0.24"/>
</linearGradient>
<linearGradient id="paint8_linear_626_2296" x1="26.3302" y1="0" x2="26.3302" y2="71.1568" gradientUnits="userSpaceOnUse">
<stop stop-color="#5240E2"/>
<stop offset="1" stop-color="#5240E2" stop-opacity="0"/>
</linearGradient>
<linearGradient id="paint9_linear_626_2296" x1="26.3302" y1="0" x2="26.3302" y2="71.1568" gradientUnits="userSpaceOnUse">
<stop stop-color="#5240E2" stop-opacity="0.2"/>
<stop offset="0.567708" stop-color="#5240E2"/>
<stop offset="1" stop-color="#5240E2" stop-opacity="0.24"/>
</linearGradient>
<clipPath id="clip0_626_2296">
<rect width="906" height="455" fill="white" transform="translate(-249.483 109.5)"/>
</clipPath>
</defs>
</svg>
