<svg width="560" height="596" viewBox="0 0 560 596" fill="none" xmlns="http://www.w3.org/2000/svg">
<rect opacity="0.4" width="560" height="565.889" rx="16" fill="url(#paint0_linear_194_5371)"/>
<rect x="25.3105" y="35" width="32" height="24" rx="12" fill="#373B98"/>
<path opacity="0.5" d="M71.1657 46.9332V48.7727H64.7168V46.9332H71.1657Z" fill="#94969C"/>
<path d="M83.0725 40.842V54H80.7685V40.842H83.0725ZM87.8613 54H85.6653V45.108H87.6993L87.8793 46.26C88.4373 45.36 89.5173 44.838 90.7233 44.838C92.9553 44.838 94.1073 46.224 94.1073 48.528V54H91.9113V49.05C91.9113 47.556 91.1733 46.836 90.0393 46.836C88.6893 46.836 87.8613 47.772 87.8613 49.212V54ZM95.4754 51.3H97.5634C97.5814 52.074 98.1574 52.56 99.1654 52.56C100.191 52.56 100.749 52.146 100.749 51.498C100.749 51.048 100.515 50.724 99.7234 50.544L98.1214 50.166C96.5194 49.806 95.7454 49.05 95.7454 47.628C95.7454 45.882 97.2214 44.838 99.2734 44.838C101.271 44.838 102.621 45.99 102.639 47.718H100.551C100.533 46.962 100.029 46.476 99.1834 46.476C98.3194 46.476 97.8154 46.872 97.8154 47.538C97.8154 48.042 98.2114 48.366 98.9674 48.546L100.569 48.924C102.063 49.266 102.819 49.95 102.819 51.318C102.819 53.118 101.289 54.234 99.0934 54.234C96.8794 54.234 95.4754 53.046 95.4754 51.3ZM110.521 45.108H112.717V54H110.683L110.521 52.812C109.981 53.658 108.829 54.234 107.641 54.234C105.589 54.234 104.383 52.848 104.383 50.67V45.108H106.579V49.896C106.579 51.588 107.245 52.272 108.469 52.272C109.855 52.272 110.521 51.462 110.521 49.77V45.108ZM120.566 45.072V47.106H119.756C118.172 47.106 117.182 47.952 117.182 49.68V54H114.986V45.126H117.056L117.182 46.422C117.56 45.54 118.406 44.946 119.594 44.946C119.9 44.946 120.206 44.982 120.566 45.072ZM125.731 54.234C123.085 54.234 121.231 52.308 121.231 49.554C121.231 46.764 123.049 44.838 125.659 44.838C128.323 44.838 130.015 46.62 130.015 49.392V50.058L123.319 50.076C123.481 51.642 124.309 52.434 125.767 52.434C126.973 52.434 127.765 51.966 128.017 51.12H130.051C129.673 53.064 128.053 54.234 125.731 54.234ZM125.677 46.638C124.381 46.638 123.589 47.34 123.373 48.672H127.837C127.837 47.448 126.991 46.638 125.677 46.638ZM135.427 54.234C132.853 54.234 131.251 52.344 131.251 49.59C131.251 46.818 132.871 44.838 135.553 44.838C136.795 44.838 137.893 45.36 138.451 46.242V40.608H140.629V54H138.613L138.469 52.614C137.929 53.64 136.777 54.234 135.427 54.234ZM135.913 52.218C137.443 52.218 138.433 51.12 138.433 49.518C138.433 47.916 137.443 46.8 135.913 46.8C134.383 46.8 133.447 47.934 133.447 49.518C133.447 51.102 134.383 52.218 135.913 52.218ZM150.397 40.842V51.876H155.905V54H148.093V40.842H150.397ZM156.757 49.536C156.757 46.764 158.755 44.856 161.509 44.856C164.263 44.856 166.261 46.764 166.261 49.536C166.261 52.308 164.263 54.216 161.509 54.216C158.755 54.216 156.757 52.308 156.757 49.536ZM158.953 49.536C158.953 51.156 159.997 52.254 161.509 52.254C163.021 52.254 164.065 51.156 164.065 49.536C164.065 47.916 163.021 46.818 161.509 46.818C159.997 46.818 158.953 47.916 158.953 49.536ZM167.317 51.3H169.405C169.423 52.074 169.999 52.56 171.007 52.56C172.033 52.56 172.591 52.146 172.591 51.498C172.591 51.048 172.357 50.724 171.565 50.544L169.963 50.166C168.361 49.806 167.587 49.05 167.587 47.628C167.587 45.882 169.063 44.838 171.115 44.838C173.113 44.838 174.463 45.99 174.481 47.718H172.393C172.375 46.962 171.871 46.476 171.025 46.476C170.161 46.476 169.657 46.872 169.657 47.538C169.657 48.042 170.053 48.366 170.809 48.546L172.411 48.924C173.905 49.266 174.661 49.95 174.661 51.318C174.661 53.118 173.131 54.234 170.935 54.234C168.721 54.234 167.317 53.046 167.317 51.3ZM175.649 51.3H177.737C177.755 52.074 178.331 52.56 179.339 52.56C180.365 52.56 180.923 52.146 180.923 51.498C180.923 51.048 180.689 50.724 179.897 50.544L178.295 50.166C176.693 49.806 175.919 49.05 175.919 47.628C175.919 45.882 177.395 44.838 179.447 44.838C181.445 44.838 182.795 45.99 182.813 47.718H180.725C180.707 46.962 180.203 46.476 179.357 46.476C178.493 46.476 177.989 46.872 177.989 47.538C177.989 48.042 178.385 48.366 179.141 48.546L180.743 48.924C182.237 49.266 182.993 49.95 182.993 51.318C182.993 53.118 181.463 54.234 179.267 54.234C177.053 54.234 175.649 53.046 175.649 51.3ZM188.643 54.234C185.997 54.234 184.143 52.308 184.143 49.554C184.143 46.764 185.961 44.838 188.571 44.838C191.235 44.838 192.927 46.62 192.927 49.392V50.058L186.231 50.076C186.393 51.642 187.221 52.434 188.679 52.434C189.885 52.434 190.677 51.966 190.929 51.12H192.963C192.585 53.064 190.965 54.234 188.643 54.234ZM188.589 46.638C187.293 46.638 186.501 47.34 186.285 48.672H190.749C190.749 47.448 189.903 46.638 188.589 46.638ZM194.001 51.3H196.089C196.107 52.074 196.683 52.56 197.691 52.56C198.717 52.56 199.275 52.146 199.275 51.498C199.275 51.048 199.041 50.724 198.249 50.544L196.647 50.166C195.045 49.806 194.271 49.05 194.271 47.628C194.271 45.882 195.747 44.838 197.799 44.838C199.797 44.838 201.147 45.99 201.165 47.718H199.077C199.059 46.962 198.555 46.476 197.709 46.476C196.845 46.476 196.341 46.872 196.341 47.538C196.341 48.042 196.737 48.366 197.493 48.546L199.095 48.924C200.589 49.266 201.345 49.95 201.345 51.318C201.345 53.118 199.815 54.234 197.619 54.234C195.405 54.234 194.001 53.046 194.001 51.3Z" fill="#94969C"/>
<rect x="222.311" y="35" width="32" height="24" rx="12" fill="#9D3894"/>
<path opacity="0.5" d="M268.166 46.9332V48.7727H261.717V46.9332H268.166Z" fill="#94969C"/>
<path d="M276.617 42.966V40.842H286.625V42.966H282.773V54H280.469V42.966H276.617ZM286.028 49.536C286.028 46.764 288.026 44.856 290.78 44.856C293.534 44.856 295.532 46.764 295.532 49.536C295.532 52.308 293.534 54.216 290.78 54.216C288.026 54.216 286.028 52.308 286.028 49.536ZM288.224 49.536C288.224 51.156 289.268 52.254 290.78 52.254C292.292 52.254 293.336 51.156 293.336 49.536C293.336 47.916 292.292 46.818 290.78 46.818C289.268 46.818 288.224 47.916 288.224 49.536ZM300.209 54H298.013V46.944H296.303V45.108H298.013V42.336H300.209V45.108H301.937V46.944H300.209V54ZM305.895 54.234C304.005 54.234 302.853 53.136 302.853 51.462C302.853 49.824 304.041 48.798 306.147 48.636L308.811 48.438V48.24C308.811 47.034 308.091 46.548 306.975 46.548C305.679 46.548 304.959 47.088 304.959 48.024H303.087C303.087 46.098 304.671 44.838 307.083 44.838C309.477 44.838 310.953 46.134 310.953 48.6V54H309.027L308.865 52.686C308.487 53.604 307.281 54.234 305.895 54.234ZM306.615 52.578C307.965 52.578 308.829 51.768 308.829 50.4V49.932L306.975 50.076C305.607 50.202 305.085 50.652 305.085 51.372C305.085 52.182 305.625 52.578 306.615 52.578ZM315.325 54H313.147V40.608H315.325V54ZM325.108 40.842V51.876H330.616V54H322.804V40.842H325.108ZM331.467 49.536C331.467 46.764 333.465 44.856 336.219 44.856C338.973 44.856 340.971 46.764 340.971 49.536C340.971 52.308 338.973 54.216 336.219 54.216C333.465 54.216 331.467 52.308 331.467 49.536ZM333.663 49.536C333.663 51.156 334.707 52.254 336.219 52.254C337.731 52.254 338.775 51.156 338.775 49.536C338.775 47.916 337.731 46.818 336.219 46.818C334.707 46.818 333.663 47.916 333.663 49.536ZM342.028 51.3H344.116C344.134 52.074 344.71 52.56 345.718 52.56C346.744 52.56 347.302 52.146 347.302 51.498C347.302 51.048 347.068 50.724 346.276 50.544L344.674 50.166C343.072 49.806 342.298 49.05 342.298 47.628C342.298 45.882 343.774 44.838 345.826 44.838C347.824 44.838 349.174 45.99 349.192 47.718H347.104C347.086 46.962 346.582 46.476 345.736 46.476C344.872 46.476 344.368 46.872 344.368 47.538C344.368 48.042 344.764 48.366 345.52 48.546L347.122 48.924C348.616 49.266 349.372 49.95 349.372 51.318C349.372 53.118 347.842 54.234 345.646 54.234C343.432 54.234 342.028 53.046 342.028 51.3ZM350.36 51.3H352.448C352.466 52.074 353.042 52.56 354.05 52.56C355.076 52.56 355.634 52.146 355.634 51.498C355.634 51.048 355.4 50.724 354.608 50.544L353.006 50.166C351.404 49.806 350.63 49.05 350.63 47.628C350.63 45.882 352.106 44.838 354.158 44.838C356.156 44.838 357.506 45.99 357.524 47.718H355.436C355.418 46.962 354.914 46.476 354.068 46.476C353.204 46.476 352.7 46.872 352.7 47.538C352.7 48.042 353.096 48.366 353.852 48.546L355.454 48.924C356.948 49.266 357.704 49.95 357.704 51.318C357.704 53.118 356.174 54.234 353.978 54.234C351.764 54.234 350.36 53.046 350.36 51.3ZM363.354 54.234C360.708 54.234 358.854 52.308 358.854 49.554C358.854 46.764 360.672 44.838 363.282 44.838C365.946 44.838 367.638 46.62 367.638 49.392V50.058L360.942 50.076C361.104 51.642 361.932 52.434 363.39 52.434C364.596 52.434 365.388 51.966 365.64 51.12H367.674C367.296 53.064 365.676 54.234 363.354 54.234ZM363.3 46.638C362.004 46.638 361.212 47.34 360.996 48.672H365.46C365.46 47.448 364.614 46.638 363.3 46.638ZM368.712 51.3H370.8C370.818 52.074 371.394 52.56 372.402 52.56C373.428 52.56 373.986 52.146 373.986 51.498C373.986 51.048 373.752 50.724 372.96 50.544L371.358 50.166C369.756 49.806 368.982 49.05 368.982 47.628C368.982 45.882 370.458 44.838 372.51 44.838C374.508 44.838 375.858 45.99 375.876 47.718H373.788C373.77 46.962 373.266 46.476 372.42 46.476C371.556 46.476 371.052 46.872 371.052 47.538C371.052 48.042 371.448 48.366 372.204 48.546L373.806 48.924C375.3 49.266 376.056 49.95 376.056 51.318C376.056 53.118 374.526 54.234 372.33 54.234C370.116 54.234 368.712 53.046 368.712 51.3Z" fill="#94969C"/>
<mask id="mask0_194_5371" style="mask-type:alpha" maskUnits="userSpaceOnUse" x="0" y="128" width="560" height="438">
<rect y="128.174" width="560" height="437.715" fill="url(#paint1_linear_194_5371)"/>
</mask>
<g mask="url(#mask0_194_5371)">
<line opacity="0.1" x1="66.8965" y1="128.174" x2="66.8965" y2="565.889" stroke="white"/>
<line opacity="0.1" x1="560" y1="128.674" x2="-5.08162e-08" y2="128.674" stroke="white" stroke-dasharray="10 10"/>
<line opacity="0.1" x1="560" y1="201.734" x2="-5.15442e-08" y2="201.734" stroke="white" stroke-dasharray="10 10"/>
<line opacity="0.1" x1="560" y1="274.794" x2="-5.15442e-08" y2="274.794" stroke="white" stroke-dasharray="10 10"/>
<line opacity="0.1" x1="560" y1="347.854" x2="-5.15442e-08" y2="347.853" stroke="white" stroke-dasharray="10 10"/>
<line opacity="0.1" x1="560" y1="420.913" x2="-5.15442e-08" y2="420.913" stroke="white" stroke-dasharray="10 10"/>
<line opacity="0.1" x1="560" y1="493.972" x2="-5.15442e-08" y2="493.972" stroke="white" stroke-dasharray="10 10"/>
<line opacity="0.1" x1="129.071" y1="128.174" x2="129.071" y2="565.889" stroke="white"/>
<line opacity="0.1" x1="191.245" y1="128.174" x2="191.245" y2="565.889" stroke="white"/>
<line opacity="0.1" x1="253.419" y1="128.174" x2="253.419" y2="565.889" stroke="white"/>
<line opacity="0.1" x1="315.594" y1="128.174" x2="315.594" y2="565.889" stroke="white"/>
<line opacity="0.1" x1="377.768" y1="128.174" x2="377.768" y2="565.889" stroke="white"/>
<line opacity="0.1" x1="439.941" y1="128.174" x2="439.941" y2="565.889" stroke="white"/>
<line opacity="0.1" x1="502.116" y1="128.174" x2="502.116" y2="565.889" stroke="white"/>
<path d="M-1.75879 337.925V557.889C-1.75879 562.307 1.82296 565.889 6.24124 565.889H552C556.418 565.889 560 562.307 560 557.889V428.07C560 425.857 559.083 423.743 557.468 422.23L505.976 374.009C505.028 373.121 504.31 372.016 503.885 370.788L448.241 210.115C445.735 202.88 435.477 202.959 433.082 210.23L377.478 379.07C377.214 379.869 376.827 380.621 376.329 381.299L318.45 460.194C316.696 462.584 313.766 463.808 310.833 463.376L255.206 455.181C254.728 455.111 254.258 454.997 253.8 454.842L193.298 434.301C191.956 433.845 190.759 433.041 189.83 431.971L131.709 365.039C130.917 364.127 130.342 363.048 130.027 361.882L73.8215 153.961C71.7494 146.296 60.9819 146.006 58.4997 153.548L-1.35783 335.424C-1.62344 336.231 -1.75879 337.076 -1.75879 337.925Z" fill="url(#paint2_linear_194_5371)" fill-opacity="0.4"/>
<path d="M0.878906 336.694L58.5705 155.466C60.9939 147.853 71.8512 148.104 73.9206 155.82L129.138 361.724C129.459 362.922 130.055 364.029 130.877 364.958L189.837 431.491C190.762 432.535 191.944 433.319 193.266 433.765L253.803 454.197C254.259 454.351 254.727 454.463 255.202 454.533L310.852 462.683C313.775 463.111 316.695 461.894 318.449 459.518L376.325 381.093C376.825 380.415 377.215 379.663 377.481 378.863L433.188 211.012C435.595 203.76 445.827 203.687 448.337 210.904L503.854 370.545C504.299 371.825 505.062 372.971 506.071 373.875L560 422.211" stroke="url(#paint3_linear_194_5371)" stroke-width="2"/>
<path d="M0.878906 526.625V565.87H560V526.625L504.346 505.006C503.642 504.732 502.98 504.36 502.38 503.901L447.952 462.236C444.656 459.712 439.977 460.129 437.179 463.196L381.302 524.433C380.012 525.848 378.257 526.752 376.356 526.983L255.648 541.632C254.879 541.725 254.1 541.706 253.336 541.575L131.563 520.752C130.321 520.54 129.147 520.037 128.136 519.284L72.5828 477.946C69.6894 475.793 65.7131 475.842 62.8739 478.066L0.878906 526.625Z" fill="url(#paint4_linear_194_5371)" fill-opacity="0.8"/>
</g>
<path d="M19.5341 492.364V504H17.7727V494.125H17.7045L14.9205 495.943V494.261L17.8239 492.364H19.5341ZM26.733 504.193C25.8352 504.189 25.0682 503.953 24.4318 503.483C23.7955 503.013 23.3087 502.33 22.9716 501.432C22.6345 500.534 22.4659 499.453 22.4659 498.188C22.4659 496.926 22.6345 495.848 22.9716 494.955C23.3125 494.061 23.8011 493.379 24.4375 492.909C25.0777 492.439 25.8428 492.205 26.733 492.205C27.6231 492.205 28.3864 492.441 29.0227 492.915C29.6591 493.384 30.1458 494.066 30.483 494.96C30.8239 495.85 30.9943 496.926 30.9943 498.188C30.9943 499.456 30.8258 500.54 30.4886 501.438C30.1515 502.331 29.6648 503.015 29.0284 503.489C28.392 503.958 27.6269 504.193 26.733 504.193ZM26.733 502.676C27.5208 502.676 28.1364 502.292 28.5795 501.523C29.0265 500.754 29.25 499.642 29.25 498.188C29.25 497.222 29.1477 496.405 28.9432 495.739C28.7424 495.068 28.4527 494.561 28.0739 494.216C27.6989 493.867 27.2519 493.693 26.733 493.693C25.9489 493.693 25.3333 494.08 24.8864 494.852C24.4394 495.625 24.214 496.737 24.2102 498.188C24.2102 499.157 24.3106 499.977 24.5114 500.648C24.7159 501.314 25.0057 501.82 25.3807 502.165C25.7557 502.506 26.2064 502.676 26.733 502.676ZM37.0611 504.193C36.1634 504.189 35.3963 503.953 34.7599 503.483C34.1236 503.013 33.6368 502.33 33.2997 501.432C32.9626 500.534 32.794 499.453 32.794 498.188C32.794 496.926 32.9626 495.848 33.2997 494.955C33.6406 494.061 34.1293 493.379 34.7656 492.909C35.4058 492.439 36.1709 492.205 37.0611 492.205C37.9512 492.205 38.7145 492.441 39.3509 492.915C39.9872 493.384 40.474 494.066 40.8111 494.96C41.152 495.85 41.3224 496.926 41.3224 498.188C41.3224 499.456 41.1539 500.54 40.8168 501.438C40.4796 502.331 39.9929 503.015 39.3565 503.489C38.7202 503.958 37.955 504.193 37.0611 504.193ZM37.0611 502.676C37.849 502.676 38.4645 502.292 38.9077 501.523C39.3546 500.754 39.5781 499.642 39.5781 498.188C39.5781 497.222 39.4759 496.405 39.2713 495.739C39.0705 495.068 38.7808 494.561 38.402 494.216C38.027 493.867 37.58 493.693 37.0611 493.693C36.277 493.693 35.6615 494.08 35.2145 494.852C34.7675 495.625 34.5421 496.737 34.5384 498.188C34.5384 499.157 34.6387 499.977 34.8395 500.648C35.044 501.314 35.3338 501.82 35.7088 502.165C36.0838 502.506 36.5346 502.676 37.0611 502.676Z" fill="#94969C"/>
<path d="M15.1193 431V429.727L19.0568 425.648C19.4773 425.205 19.8239 424.816 20.0966 424.483C20.3731 424.146 20.5795 423.826 20.7159 423.523C20.8523 423.22 20.9205 422.898 20.9205 422.557C20.9205 422.17 20.8295 421.837 20.6477 421.557C20.4659 421.273 20.2178 421.055 19.9034 420.903C19.589 420.748 19.2348 420.67 18.8409 420.67C18.4242 420.67 18.0606 420.756 17.75 420.926C17.4394 421.097 17.2008 421.337 17.0341 421.648C16.8674 421.958 16.7841 422.322 16.7841 422.739H15.108C15.108 422.03 15.2708 421.411 15.5966 420.881C15.9223 420.35 16.3693 419.939 16.9375 419.648C17.5057 419.352 18.1515 419.205 18.875 419.205C19.6061 419.205 20.25 419.35 20.8068 419.642C21.3674 419.93 21.8049 420.324 22.1193 420.824C22.4337 421.32 22.5909 421.881 22.5909 422.506C22.5909 422.938 22.5095 423.36 22.3466 423.773C22.1875 424.186 21.9091 424.646 21.5114 425.153C21.1136 425.657 20.5606 426.269 19.8523 426.989L17.5398 429.409V429.494H22.7784V431H15.1193ZM28.983 431.193C28.0852 431.189 27.3182 430.953 26.6818 430.483C26.0455 430.013 25.5587 429.33 25.2216 428.432C24.8845 427.534 24.7159 426.453 24.7159 425.188C24.7159 423.926 24.8845 422.848 25.2216 421.955C25.5625 421.061 26.0511 420.379 26.6875 419.909C27.3277 419.439 28.0928 419.205 28.983 419.205C29.8731 419.205 30.6364 419.441 31.2727 419.915C31.9091 420.384 32.3958 421.066 32.733 421.96C33.0739 422.85 33.2443 423.926 33.2443 425.188C33.2443 426.456 33.0758 427.54 32.7386 428.438C32.4015 429.331 31.9148 430.015 31.2784 430.489C30.642 430.958 29.8769 431.193 28.983 431.193ZM28.983 429.676C29.7708 429.676 30.3864 429.292 30.8295 428.523C31.2765 427.754 31.5 426.642 31.5 425.188C31.5 424.222 31.3977 423.405 31.1932 422.739C30.9924 422.068 30.7027 421.561 30.3239 421.216C29.9489 420.867 29.5019 420.693 28.983 420.693C28.1989 420.693 27.5833 421.08 27.1364 421.852C26.6894 422.625 26.464 423.737 26.4602 425.188C26.4602 426.157 26.5606 426.977 26.7614 427.648C26.9659 428.314 27.2557 428.82 27.6307 429.165C28.0057 429.506 28.4564 429.676 28.983 429.676ZM39.3111 431.193C38.4134 431.189 37.6463 430.953 37.0099 430.483C36.3736 430.013 35.8868 429.33 35.5497 428.432C35.2126 427.534 35.044 426.453 35.044 425.188C35.044 423.926 35.2126 422.848 35.5497 421.955C35.8906 421.061 36.3793 420.379 37.0156 419.909C37.6558 419.439 38.4209 419.205 39.3111 419.205C40.2012 419.205 40.9645 419.441 41.6009 419.915C42.2372 420.384 42.724 421.066 43.0611 421.96C43.402 422.85 43.5724 423.926 43.5724 425.188C43.5724 426.456 43.4039 427.54 43.0668 428.438C42.7296 429.331 42.2429 430.015 41.6065 430.489C40.9702 430.958 40.205 431.193 39.3111 431.193ZM39.3111 429.676C40.099 429.676 40.7145 429.292 41.1577 428.523C41.6046 427.754 41.8281 426.642 41.8281 425.188C41.8281 424.222 41.7259 423.405 41.5213 422.739C41.3205 422.068 41.0308 421.561 40.652 421.216C40.277 420.867 39.83 420.693 39.3111 420.693C38.527 420.693 37.9115 421.08 37.4645 421.852C37.0175 422.625 36.7921 423.737 36.7884 425.188C36.7884 426.157 36.8887 426.977 37.0895 427.648C37.294 428.314 37.5838 428.82 37.9588 429.165C38.3338 429.506 38.7846 429.676 39.3111 429.676Z" fill="#94969C"/>
<path d="M19.1705 358.159C18.3902 358.159 17.6932 358.025 17.0795 357.756C16.4697 357.487 15.9867 357.114 15.6307 356.636C15.2784 356.155 15.089 355.598 15.0625 354.966H16.8466C16.8693 355.311 16.9848 355.61 17.1932 355.864C17.4053 356.114 17.6818 356.307 18.0227 356.443C18.3636 356.58 18.7424 356.648 19.1591 356.648C19.6174 356.648 20.0227 356.568 20.375 356.409C20.7311 356.25 21.0095 356.028 21.2102 355.744C21.411 355.456 21.5114 355.125 21.5114 354.75C21.5114 354.36 21.411 354.017 21.2102 353.722C21.0133 353.422 20.7235 353.187 20.3409 353.017C19.9621 352.847 19.5038 352.761 18.9659 352.761H17.983V351.33H18.9659C19.3977 351.33 19.7765 351.252 20.1023 351.097C20.4318 350.941 20.6894 350.725 20.875 350.449C21.0606 350.169 21.1534 349.841 21.1534 349.466C21.1534 349.106 21.072 348.794 20.9091 348.528C20.75 348.259 20.5227 348.049 20.2273 347.898C19.9356 347.746 19.5909 347.67 19.1932 347.67C18.8144 347.67 18.4602 347.741 18.1307 347.881C17.8049 348.017 17.5398 348.214 17.3352 348.472C17.1307 348.725 17.0208 349.03 17.0057 349.386H15.3068C15.3258 348.758 15.5114 348.205 15.8636 347.727C16.2197 347.25 16.6894 346.877 17.2727 346.608C17.8561 346.339 18.5038 346.205 19.2159 346.205C19.9621 346.205 20.6061 346.35 21.1477 346.642C21.6932 346.93 22.1136 347.314 22.4091 347.795C22.7083 348.277 22.8561 348.803 22.8523 349.375C22.8561 350.027 22.6742 350.58 22.3068 351.034C21.9432 351.489 21.4583 351.794 20.8523 351.949V352.04C21.625 352.157 22.2235 352.464 22.6477 352.96C23.0758 353.456 23.2879 354.072 23.2841 354.807C23.2879 355.447 23.1098 356.021 22.75 356.528C22.3939 357.036 21.9072 357.436 21.2898 357.727C20.6723 358.015 19.9659 358.159 19.1705 358.159ZM29.483 358.193C28.5852 358.189 27.8182 357.953 27.1818 357.483C26.5455 357.013 26.0587 356.33 25.7216 355.432C25.3845 354.534 25.2159 353.453 25.2159 352.188C25.2159 350.926 25.3845 349.848 25.7216 348.955C26.0625 348.061 26.5511 347.379 27.1875 346.909C27.8277 346.439 28.5928 346.205 29.483 346.205C30.3731 346.205 31.1364 346.441 31.7727 346.915C32.4091 347.384 32.8958 348.066 33.233 348.96C33.5739 349.85 33.7443 350.926 33.7443 352.188C33.7443 353.456 33.5758 354.54 33.2386 355.438C32.9015 356.331 32.4148 357.015 31.7784 357.489C31.142 357.958 30.3769 358.193 29.483 358.193ZM29.483 356.676C30.2708 356.676 30.8864 356.292 31.3295 355.523C31.7765 354.754 32 353.642 32 352.188C32 351.222 31.8977 350.405 31.6932 349.739C31.4924 349.068 31.2027 348.561 30.8239 348.216C30.4489 347.867 30.0019 347.693 29.483 347.693C28.6989 347.693 28.0833 348.08 27.6364 348.852C27.1894 349.625 26.964 350.737 26.9602 352.188C26.9602 353.157 27.0606 353.977 27.2614 354.648C27.4659 355.314 27.7557 355.82 28.1307 356.165C28.5057 356.506 28.9564 356.676 29.483 356.676ZM39.8111 358.193C38.9134 358.189 38.1463 357.953 37.5099 357.483C36.8736 357.013 36.3868 356.33 36.0497 355.432C35.7126 354.534 35.544 353.453 35.544 352.188C35.544 350.926 35.7126 349.848 36.0497 348.955C36.3906 348.061 36.8793 347.379 37.5156 346.909C38.1558 346.439 38.9209 346.205 39.8111 346.205C40.7012 346.205 41.4645 346.441 42.1009 346.915C42.7372 347.384 43.224 348.066 43.5611 348.96C43.902 349.85 44.0724 350.926 44.0724 352.188C44.0724 353.456 43.9039 354.54 43.5668 355.438C43.2296 356.331 42.7429 357.015 42.1065 357.489C41.4702 357.958 40.705 358.193 39.8111 358.193ZM39.8111 356.676C40.599 356.676 41.2145 356.292 41.6577 355.523C42.1046 354.754 42.3281 353.642 42.3281 352.188C42.3281 351.222 42.2259 350.405 42.0213 349.739C41.8205 349.068 41.5308 348.561 41.152 348.216C40.777 347.867 40.33 347.693 39.8111 347.693C39.027 347.693 38.4115 348.08 37.9645 348.852C37.5175 349.625 37.2921 350.737 37.2884 352.188C37.2884 353.157 37.3887 353.977 37.5895 354.648C37.794 355.314 38.0838 355.82 38.4588 356.165C38.8338 356.506 39.2846 356.676 39.8111 356.676Z" fill="#94969C"/>
<path d="M14.875 282.727V281.307L19.9034 273.364H21.0227V275.455H20.3125L16.7159 281.148V281.239H23.608V282.727H14.875ZM20.392 285V282.295L20.4034 281.648V273.364H22.0682V285H20.392ZM29.6392 285.193C28.7415 285.189 27.9744 284.953 27.3381 284.483C26.7017 284.013 26.215 283.33 25.8778 282.432C25.5407 281.534 25.3722 280.453 25.3722 279.188C25.3722 277.926 25.5407 276.848 25.8778 275.955C26.2188 275.061 26.7074 274.379 27.3438 273.909C27.9839 273.439 28.7491 273.205 29.6392 273.205C30.5294 273.205 31.2926 273.441 31.929 273.915C32.5653 274.384 33.0521 275.066 33.3892 275.96C33.7301 276.85 33.9006 277.926 33.9006 279.188C33.9006 280.456 33.732 281.54 33.3949 282.438C33.0578 283.331 32.571 284.015 31.9347 284.489C31.2983 284.958 30.5331 285.193 29.6392 285.193ZM29.6392 283.676C30.4271 283.676 31.0426 283.292 31.4858 282.523C31.9328 281.754 32.1562 280.642 32.1562 279.188C32.1562 278.222 32.054 277.405 31.8494 276.739C31.6487 276.068 31.3589 275.561 30.9801 275.216C30.6051 274.867 30.1581 274.693 29.6392 274.693C28.8551 274.693 28.2396 275.08 27.7926 275.852C27.3456 276.625 27.1203 277.737 27.1165 279.188C27.1165 280.157 27.2169 280.977 27.4176 281.648C27.6222 282.314 27.9119 282.82 28.2869 283.165C28.6619 283.506 29.1127 283.676 29.6392 283.676ZM39.9673 285.193C39.0696 285.189 38.3026 284.953 37.6662 284.483C37.0298 284.013 36.5431 283.33 36.206 282.432C35.8688 281.534 35.7003 280.453 35.7003 279.188C35.7003 277.926 35.8688 276.848 36.206 275.955C36.5469 275.061 37.0355 274.379 37.6719 273.909C38.312 273.439 39.0772 273.205 39.9673 273.205C40.8575 273.205 41.6207 273.441 42.2571 273.915C42.8935 274.384 43.3802 275.066 43.7173 275.96C44.0582 276.85 44.2287 277.926 44.2287 279.188C44.2287 280.456 44.0601 281.54 43.723 282.438C43.3859 283.331 42.8991 284.015 42.2628 284.489C41.6264 284.958 40.8613 285.193 39.9673 285.193ZM39.9673 283.676C40.7552 283.676 41.3707 283.292 41.8139 282.523C42.2609 281.754 42.4844 280.642 42.4844 279.188C42.4844 278.222 42.3821 277.405 42.1776 276.739C41.9768 276.068 41.687 275.561 41.3082 275.216C40.9332 274.867 40.4863 274.693 39.9673 274.693C39.1832 274.693 38.5677 275.08 38.1207 275.852C37.6738 276.625 37.4484 277.737 37.4446 279.188C37.4446 280.157 37.545 280.977 37.7457 281.648C37.9503 282.314 38.2401 282.82 38.6151 283.165C38.9901 283.506 39.4408 283.676 39.9673 283.676Z" fill="#94969C"/>
<path d="M18.9602 212.159C18.2481 212.159 17.608 212.023 17.0398 211.75C16.4754 211.473 16.0246 211.095 15.6875 210.614C15.3504 210.133 15.1705 209.583 15.1477 208.966H16.8523C16.8939 209.466 17.1155 209.877 17.517 210.199C17.9186 210.521 18.3996 210.682 18.9602 210.682C19.4072 210.682 19.803 210.58 20.1477 210.375C20.4962 210.167 20.7689 209.881 20.9659 209.517C21.1667 209.153 21.267 208.739 21.267 208.273C21.267 207.799 21.1648 207.377 20.9602 207.006C20.7557 206.634 20.4735 206.343 20.1136 206.131C19.7576 205.919 19.3485 205.811 18.8864 205.807C18.5341 205.807 18.1799 205.867 17.8239 205.989C17.4678 206.11 17.1799 206.269 16.9602 206.466L15.3523 206.227L16.0057 200.364H22.4034V201.869H17.4659L17.0966 205.125H17.1648C17.392 204.905 17.6932 204.722 18.0682 204.574C18.447 204.426 18.8523 204.352 19.2841 204.352C19.9924 204.352 20.6231 204.521 21.1761 204.858C21.733 205.195 22.1705 205.655 22.4886 206.239C22.8106 206.818 22.9697 207.485 22.9659 208.239C22.9697 208.992 22.7992 209.665 22.4545 210.256C22.1136 210.847 21.6402 211.312 21.0341 211.653C20.4318 211.991 19.7405 212.159 18.9602 212.159ZM29.0923 212.193C28.1946 212.189 27.4276 211.953 26.7912 211.483C26.1548 211.013 25.6681 210.33 25.331 209.432C24.9938 208.534 24.8253 207.453 24.8253 206.188C24.8253 204.926 24.9938 203.848 25.331 202.955C25.6719 202.061 26.1605 201.379 26.7969 200.909C27.437 200.439 28.2022 200.205 29.0923 200.205C29.9825 200.205 30.7457 200.441 31.3821 200.915C32.0185 201.384 32.5052 202.066 32.8423 202.96C33.1832 203.85 33.3537 204.926 33.3537 206.188C33.3537 207.456 33.1851 208.54 32.848 209.438C32.5109 210.331 32.0241 211.015 31.3878 211.489C30.7514 211.958 29.9863 212.193 29.0923 212.193ZM29.0923 210.676C29.8802 210.676 30.4957 210.292 30.9389 209.523C31.3859 208.754 31.6094 207.642 31.6094 206.188C31.6094 205.222 31.5071 204.405 31.3026 203.739C31.1018 203.068 30.812 202.561 30.4332 202.216C30.0582 201.867 29.6113 201.693 29.0923 201.693C28.3082 201.693 27.6927 202.08 27.2457 202.852C26.7988 203.625 26.5734 204.737 26.5696 206.188C26.5696 207.157 26.67 207.977 26.8707 208.648C27.0753 209.314 27.3651 209.82 27.7401 210.165C28.1151 210.506 28.5658 210.676 29.0923 210.676ZM39.4205 212.193C38.5227 212.189 37.7557 211.953 37.1193 211.483C36.483 211.013 35.9962 210.33 35.6591 209.432C35.322 208.534 35.1534 207.453 35.1534 206.188C35.1534 204.926 35.322 203.848 35.6591 202.955C36 202.061 36.4886 201.379 37.125 200.909C37.7652 200.439 38.5303 200.205 39.4205 200.205C40.3106 200.205 41.0739 200.441 41.7102 200.915C42.3466 201.384 42.8333 202.066 43.1705 202.96C43.5114 203.85 43.6818 204.926 43.6818 206.188C43.6818 207.456 43.5133 208.54 43.1761 209.438C42.839 210.331 42.3523 211.015 41.7159 211.489C41.0795 211.958 40.3144 212.193 39.4205 212.193ZM39.4205 210.676C40.2083 210.676 40.8239 210.292 41.267 209.523C41.714 208.754 41.9375 207.642 41.9375 206.188C41.9375 205.222 41.8352 204.405 41.6307 203.739C41.4299 203.068 41.1402 202.561 40.7614 202.216C40.3864 201.867 39.9394 201.693 39.4205 201.693C38.6364 201.693 38.0208 202.08 37.5739 202.852C37.1269 203.625 36.9015 204.737 36.8977 206.188C36.8977 207.157 36.9981 207.977 37.1989 208.648C37.4034 209.314 37.6932 209.82 38.0682 210.165C38.4432 210.506 38.8939 210.676 39.4205 210.676Z" fill="#94969C"/>
<path d="M19.1818 139.159C18.6629 139.152 18.1515 139.057 17.6477 138.875C17.1477 138.693 16.6932 138.39 16.2841 137.966C15.875 137.542 15.5473 136.972 15.3011 136.256C15.0587 135.54 14.9375 134.646 14.9375 133.574C14.9375 132.559 15.0379 131.657 15.2386 130.869C15.4432 130.081 15.7367 129.417 16.1193 128.875C16.5019 128.33 16.964 127.915 17.5057 127.631C18.0473 127.347 18.6553 127.205 19.3295 127.205C20.0227 127.205 20.6383 127.341 21.1761 127.614C21.714 127.886 22.1496 128.263 22.483 128.744C22.8201 129.225 23.0341 129.773 23.125 130.386H21.392C21.2746 129.902 21.0417 129.506 20.6932 129.199C20.3447 128.892 19.8902 128.739 19.3295 128.739C18.4773 128.739 17.8125 129.11 17.3352 129.852C16.8617 130.595 16.6231 131.627 16.6193 132.949H16.7045C16.9053 132.619 17.1515 132.339 17.4432 132.108C17.7386 131.873 18.0682 131.693 18.4318 131.568C18.7992 131.439 19.1856 131.375 19.5909 131.375C20.2652 131.375 20.875 131.54 21.4205 131.869C21.9697 132.195 22.4072 132.646 22.733 133.222C23.0587 133.797 23.2216 134.456 23.2216 135.199C23.2216 135.941 23.053 136.614 22.7159 137.216C22.3826 137.818 21.9129 138.295 21.3068 138.648C20.7008 138.996 19.9924 139.167 19.1818 139.159ZM19.1761 137.682C19.6231 137.682 20.0227 137.572 20.375 137.352C20.7273 137.133 21.0057 136.837 21.2102 136.466C21.4148 136.095 21.517 135.68 21.517 135.222C21.517 134.775 21.4167 134.367 21.2159 134C21.0189 133.633 20.7462 133.341 20.3977 133.125C20.053 132.909 19.6591 132.801 19.2159 132.801C18.8788 132.801 18.5663 132.866 18.2784 132.994C17.9943 133.123 17.7443 133.301 17.5284 133.528C17.3125 133.756 17.142 134.017 17.017 134.312C16.8958 134.604 16.8352 134.913 16.8352 135.239C16.8352 135.674 16.9356 136.078 17.1364 136.449C17.3409 136.82 17.6193 137.119 17.9716 137.347C18.3277 137.57 18.7292 137.682 19.1761 137.682ZM29.3423 139.193C28.4446 139.189 27.6776 138.953 27.0412 138.483C26.4048 138.013 25.9181 137.33 25.581 136.432C25.2438 135.534 25.0753 134.453 25.0753 133.188C25.0753 131.926 25.2438 130.848 25.581 129.955C25.9219 129.061 26.4105 128.379 27.0469 127.909C27.687 127.439 28.4522 127.205 29.3423 127.205C30.2325 127.205 30.9957 127.441 31.6321 127.915C32.2685 128.384 32.7552 129.066 33.0923 129.96C33.4332 130.85 33.6037 131.926 33.6037 133.188C33.6037 134.456 33.4351 135.54 33.098 136.438C32.7609 137.331 32.2741 138.015 31.6378 138.489C31.0014 138.958 30.2363 139.193 29.3423 139.193ZM29.3423 137.676C30.1302 137.676 30.7457 137.292 31.1889 136.523C31.6359 135.754 31.8594 134.642 31.8594 133.188C31.8594 132.222 31.7571 131.405 31.5526 130.739C31.3518 130.068 31.062 129.561 30.6832 129.216C30.3082 128.867 29.8613 128.693 29.3423 128.693C28.5582 128.693 27.9427 129.08 27.4957 129.852C27.0488 130.625 26.8234 131.737 26.8196 133.188C26.8196 134.157 26.92 134.977 27.1207 135.648C27.3253 136.314 27.6151 136.82 27.9901 137.165C28.3651 137.506 28.8158 137.676 29.3423 137.676ZM39.6705 139.193C38.7727 139.189 38.0057 138.953 37.3693 138.483C36.733 138.013 36.2462 137.33 35.9091 136.432C35.572 135.534 35.4034 134.453 35.4034 133.188C35.4034 131.926 35.572 130.848 35.9091 129.955C36.25 129.061 36.7386 128.379 37.375 127.909C38.0152 127.439 38.7803 127.205 39.6705 127.205C40.5606 127.205 41.3239 127.441 41.9602 127.915C42.5966 128.384 43.0833 129.066 43.4205 129.96C43.7614 130.85 43.9318 131.926 43.9318 133.188C43.9318 134.456 43.7633 135.54 43.4261 136.438C43.089 137.331 42.6023 138.015 41.9659 138.489C41.3295 138.958 40.5644 139.193 39.6705 139.193ZM39.6705 137.676C40.4583 137.676 41.0739 137.292 41.517 136.523C41.964 135.754 42.1875 134.642 42.1875 133.188C42.1875 132.222 42.0852 131.405 41.8807 130.739C41.6799 130.068 41.3902 129.561 41.0114 129.216C40.6364 128.867 40.1894 128.693 39.6705 128.693C38.8864 128.693 38.2708 129.08 37.8239 129.852C37.3769 130.625 37.1515 131.737 37.1477 133.188C37.1477 134.157 37.2481 134.977 37.4489 135.648C37.6534 136.314 37.9432 136.82 38.3182 137.165C38.6932 137.506 39.1439 137.676 39.6705 137.676Z" fill="#94969C"/>
<path d="M49.1359 590V588.727L53.0734 584.648C53.4939 584.205 53.8405 583.816 54.1132 583.483C54.3897 583.146 54.5962 582.826 54.7325 582.523C54.8689 582.22 54.9371 581.898 54.9371 581.557C54.9371 581.17 54.8462 580.837 54.6643 580.557C54.4825 580.273 54.2344 580.055 53.92 579.903C53.6056 579.748 53.2515 579.67 52.8575 579.67C52.4408 579.67 52.0772 579.756 51.7666 579.926C51.456 580.097 51.2174 580.337 51.0507 580.648C50.884 580.958 50.8007 581.322 50.8007 581.739H49.1246C49.1246 581.03 49.2874 580.411 49.6132 579.881C49.939 579.35 50.3859 578.939 50.9541 578.648C51.5223 578.352 52.1681 578.205 52.8916 578.205C53.6227 578.205 54.2666 578.35 54.8234 578.642C55.384 578.93 55.8215 579.324 56.1359 579.824C56.4503 580.32 56.6075 580.881 56.6075 581.506C56.6075 581.938 56.5261 582.36 56.3632 582.773C56.2041 583.186 55.9257 583.646 55.528 584.153C55.1302 584.657 54.5772 585.269 53.8689 585.989L51.5564 588.409V588.494H56.795V590H49.1359ZM62.9996 590.193C62.1018 590.189 61.3348 589.953 60.6984 589.483C60.0621 589.013 59.5753 588.33 59.2382 587.432C58.9011 586.534 58.7325 585.453 58.7325 584.188C58.7325 582.926 58.9011 581.848 59.2382 580.955C59.5791 580.061 60.0677 579.379 60.7041 578.909C61.3443 578.439 62.1094 578.205 62.9996 578.205C63.8897 578.205 64.653 578.441 65.2893 578.915C65.9257 579.384 66.4124 580.066 66.7496 580.96C67.0905 581.85 67.2609 582.926 67.2609 584.188C67.2609 585.456 67.0924 586.54 66.7552 587.438C66.4181 588.331 65.9314 589.015 65.295 589.489C64.6587 589.958 63.8935 590.193 62.9996 590.193ZM62.9996 588.676C63.7874 588.676 64.403 588.292 64.8462 587.523C65.2931 586.754 65.5166 585.642 65.5166 584.188C65.5166 583.222 65.4143 582.405 65.2098 581.739C65.009 581.068 64.7193 580.561 64.3405 580.216C63.9655 579.867 63.5185 579.693 62.9996 579.693C62.2155 579.693 61.5999 580.08 61.153 580.852C60.706 581.625 60.4806 582.737 60.4768 584.188C60.4768 585.157 60.5772 585.977 60.778 586.648C60.9825 587.314 61.2723 587.82 61.6473 588.165C62.0223 588.506 62.473 588.676 62.9996 588.676ZM73.6913 578.364V590H71.93V580.125H71.8618L69.0777 581.943V580.261L71.9811 578.364H73.6913ZM81.2538 578.364V590H79.4925V580.125H79.4243L76.6402 581.943V580.261L79.5436 578.364H81.2538Z" fill="#94969C"/>
<path d="M173.128 590V588.727L177.066 584.648C177.486 584.205 177.833 583.816 178.106 583.483C178.382 583.146 178.588 582.826 178.725 582.523C178.861 582.22 178.929 581.898 178.929 581.557C178.929 581.17 178.838 580.837 178.657 580.557C178.475 580.273 178.227 580.055 177.912 579.903C177.598 579.748 177.244 579.67 176.85 579.67C176.433 579.67 176.07 579.756 175.759 579.926C175.448 580.097 175.21 580.337 175.043 580.648C174.876 580.958 174.793 581.322 174.793 581.739H173.117C173.117 581.03 173.28 580.411 173.606 579.881C173.931 579.35 174.378 578.939 174.946 578.648C175.515 578.352 176.16 578.205 176.884 578.205C177.615 578.205 178.259 578.35 178.816 578.642C179.376 578.93 179.814 579.324 180.128 579.824C180.443 580.32 180.6 580.881 180.6 581.506C180.6 581.938 180.518 582.36 180.356 582.773C180.196 583.186 179.918 583.646 179.52 584.153C179.123 584.657 178.57 585.269 177.861 585.989L175.549 588.409V588.494H180.787V590H173.128ZM186.992 590.193C186.094 590.189 185.327 589.953 184.691 589.483C184.054 589.013 183.568 588.33 183.231 587.432C182.893 586.534 182.725 585.453 182.725 584.188C182.725 582.926 182.893 581.848 183.231 580.955C183.571 580.061 184.06 579.379 184.696 578.909C185.337 578.439 186.102 578.205 186.992 578.205C187.882 578.205 188.645 578.441 189.282 578.915C189.918 579.384 190.405 580.066 190.742 580.96C191.083 581.85 191.253 582.926 191.253 584.188C191.253 585.456 191.085 586.54 190.748 587.438C190.41 588.331 189.924 589.015 189.287 589.489C188.651 589.958 187.886 590.193 186.992 590.193ZM186.992 588.676C187.78 588.676 188.395 588.292 188.838 587.523C189.285 586.754 189.509 585.642 189.509 584.188C189.509 583.222 189.407 582.405 189.202 581.739C189.001 581.068 188.712 580.561 188.333 580.216C187.958 579.867 187.511 579.693 186.992 579.693C186.208 579.693 185.592 580.08 185.145 580.852C184.698 581.625 184.473 582.737 184.469 584.188C184.469 585.157 184.57 585.977 184.77 586.648C184.975 587.314 185.265 587.82 185.64 588.165C186.015 588.506 186.465 588.676 186.992 588.676ZM197.684 578.364V590H195.922V580.125H195.854L193.07 581.943V580.261L195.973 578.364H197.684ZM204.882 590.159C204.102 590.159 203.405 590.025 202.792 589.756C202.182 589.487 201.699 589.114 201.343 588.636C200.99 588.155 200.801 587.598 200.775 586.966H202.559C202.581 587.311 202.697 587.61 202.905 587.864C203.117 588.114 203.394 588.307 203.735 588.443C204.076 588.58 204.454 588.648 204.871 588.648C205.329 588.648 205.735 588.568 206.087 588.409C206.443 588.25 206.722 588.028 206.922 587.744C207.123 587.456 207.223 587.125 207.223 586.75C207.223 586.36 207.123 586.017 206.922 585.722C206.725 585.422 206.436 585.187 206.053 585.017C205.674 584.847 205.216 584.761 204.678 584.761H203.695V583.33H204.678C205.11 583.33 205.489 583.252 205.814 583.097C206.144 582.941 206.401 582.725 206.587 582.449C206.773 582.169 206.865 581.841 206.865 581.466C206.865 581.106 206.784 580.794 206.621 580.528C206.462 580.259 206.235 580.049 205.939 579.898C205.648 579.746 205.303 579.67 204.905 579.67C204.526 579.67 204.172 579.741 203.843 579.881C203.517 580.017 203.252 580.214 203.047 580.472C202.843 580.725 202.733 581.03 202.718 581.386H201.019C201.038 580.758 201.223 580.205 201.576 579.727C201.932 579.25 202.401 578.877 202.985 578.608C203.568 578.339 204.216 578.205 204.928 578.205C205.674 578.205 206.318 578.35 206.86 578.642C207.405 578.93 207.826 579.314 208.121 579.795C208.42 580.277 208.568 580.803 208.564 581.375C208.568 582.027 208.386 582.58 208.019 583.034C207.655 583.489 207.17 583.794 206.564 583.949V584.04C207.337 584.157 207.936 584.464 208.36 584.96C208.788 585.456 209 586.072 208.996 586.807C209 587.447 208.822 588.021 208.462 588.528C208.106 589.036 207.619 589.436 207.002 589.727C206.384 590.015 205.678 590.159 204.882 590.159Z" fill="#94969C"/>
<path d="M296.713 590V588.727L300.651 584.648C301.071 584.205 301.418 583.816 301.691 583.483C301.967 583.146 302.174 582.826 302.31 582.523C302.446 582.22 302.514 581.898 302.514 581.557C302.514 581.17 302.424 580.837 302.242 580.557C302.06 580.273 301.812 580.055 301.497 579.903C301.183 579.748 300.829 579.67 300.435 579.67C300.018 579.67 299.655 579.756 299.344 579.926C299.033 580.097 298.795 580.337 298.628 580.648C298.461 580.958 298.378 581.322 298.378 581.739H296.702C296.702 581.03 296.865 580.411 297.191 579.881C297.516 579.35 297.963 578.939 298.532 578.648C299.1 578.352 299.746 578.205 300.469 578.205C301.2 578.205 301.844 578.35 302.401 578.642C302.961 578.93 303.399 579.324 303.713 579.824C304.028 580.32 304.185 580.881 304.185 581.506C304.185 581.938 304.104 582.36 303.941 582.773C303.782 583.186 303.503 583.646 303.105 584.153C302.708 584.657 302.155 585.269 301.446 585.989L299.134 588.409V588.494H304.372V590H296.713ZM310.577 590.193C309.679 590.189 308.912 589.953 308.276 589.483C307.639 589.013 307.153 588.33 306.816 587.432C306.479 586.534 306.31 585.453 306.31 584.188C306.31 582.926 306.479 581.848 306.816 580.955C307.157 580.061 307.645 579.379 308.282 578.909C308.922 578.439 309.687 578.205 310.577 578.205C311.467 578.205 312.23 578.441 312.867 578.915C313.503 579.384 313.99 580.066 314.327 580.96C314.668 581.85 314.838 582.926 314.838 584.188C314.838 585.456 314.67 586.54 314.333 587.438C313.996 588.331 313.509 589.015 312.872 589.489C312.236 589.958 311.471 590.193 310.577 590.193ZM310.577 588.676C311.365 588.676 311.98 588.292 312.424 587.523C312.871 586.754 313.094 585.642 313.094 584.188C313.094 583.222 312.992 582.405 312.787 581.739C312.586 581.068 312.297 580.561 311.918 580.216C311.543 579.867 311.096 579.693 310.577 579.693C309.793 579.693 309.177 580.08 308.73 580.852C308.283 581.625 308.058 582.737 308.054 584.188C308.054 585.157 308.155 585.977 308.355 586.648C308.56 587.314 308.85 587.82 309.225 588.165C309.6 588.506 310.05 588.676 310.577 588.676ZM321.269 578.364V590H319.507V580.125H319.439L316.655 581.943V580.261L319.559 578.364H321.269ZM328.257 590.159C327.545 590.159 326.905 590.023 326.337 589.75C325.773 589.473 325.322 589.095 324.985 588.614C324.648 588.133 324.468 587.583 324.445 586.966H326.149C326.191 587.466 326.413 587.877 326.814 588.199C327.216 588.521 327.697 588.682 328.257 588.682C328.704 588.682 329.1 588.58 329.445 588.375C329.793 588.167 330.066 587.881 330.263 587.517C330.464 587.153 330.564 586.739 330.564 586.273C330.564 585.799 330.462 585.377 330.257 585.006C330.053 584.634 329.771 584.343 329.411 584.131C329.055 583.919 328.646 583.811 328.184 583.807C327.831 583.807 327.477 583.867 327.121 583.989C326.765 584.11 326.477 584.269 326.257 584.466L324.649 584.227L325.303 578.364H331.701V579.869H326.763L326.394 583.125H326.462C326.689 582.905 326.99 582.722 327.365 582.574C327.744 582.426 328.149 582.352 328.581 582.352C329.29 582.352 329.92 582.521 330.473 582.858C331.03 583.195 331.468 583.655 331.786 584.239C332.108 584.818 332.267 585.485 332.263 586.239C332.267 586.992 332.096 587.665 331.752 588.256C331.411 588.847 330.937 589.312 330.331 589.653C329.729 589.991 329.038 590.159 328.257 590.159Z" fill="#94969C"/>
<path d="M421.618 590V588.727L425.556 584.648C425.976 584.205 426.323 583.816 426.595 583.483C426.872 583.146 427.078 582.826 427.215 582.523C427.351 582.22 427.419 581.898 427.419 581.557C427.419 581.17 427.328 580.837 427.146 580.557C426.965 580.273 426.717 580.055 426.402 579.903C426.088 579.748 425.734 579.67 425.34 579.67C424.923 579.67 424.559 579.756 424.249 579.926C423.938 580.097 423.699 580.337 423.533 580.648C423.366 580.958 423.283 581.322 423.283 581.739H421.607C421.607 581.03 421.77 580.411 422.095 579.881C422.421 579.35 422.868 578.939 423.436 578.648C424.004 578.352 424.65 578.205 425.374 578.205C426.105 578.205 426.749 578.35 427.306 578.642C427.866 578.93 428.304 579.324 428.618 579.824C428.932 580.32 429.09 580.881 429.09 581.506C429.09 581.938 429.008 582.36 428.845 582.773C428.686 583.186 428.408 583.646 428.01 584.153C427.612 584.657 427.059 585.269 426.351 585.989L424.038 588.409V588.494H429.277V590H421.618ZM435.482 590.193C434.584 590.189 433.817 589.953 433.181 589.483C432.544 589.013 432.057 588.33 431.72 587.432C431.383 586.534 431.215 585.453 431.215 584.188C431.215 582.926 431.383 581.848 431.72 580.955C432.061 580.061 432.55 579.379 433.186 578.909C433.826 578.439 434.592 578.205 435.482 578.205C436.372 578.205 437.135 578.441 437.771 578.915C438.408 579.384 438.895 580.066 439.232 580.96C439.573 581.85 439.743 582.926 439.743 584.188C439.743 585.456 439.574 586.54 439.237 587.438C438.9 588.331 438.413 589.015 437.777 589.489C437.141 589.958 436.376 590.193 435.482 590.193ZM435.482 588.676C436.27 588.676 436.885 588.292 437.328 587.523C437.775 586.754 437.999 585.642 437.999 584.188C437.999 583.222 437.896 582.405 437.692 581.739C437.491 581.068 437.201 580.561 436.823 580.216C436.448 579.867 436.001 579.693 435.482 579.693C434.698 579.693 434.082 580.08 433.635 580.852C433.188 581.625 432.963 582.737 432.959 584.188C432.959 585.157 433.059 585.977 433.26 586.648C433.465 587.314 433.754 587.82 434.129 588.165C434.504 588.506 434.955 588.676 435.482 588.676ZM446.173 578.364V590H444.412V580.125H444.344L441.56 581.943V580.261L444.463 578.364H446.173ZM449.713 590L454.793 579.955V579.869H448.918V578.364H456.611V579.92L451.548 590H449.713Z" fill="#94969C"/>
<defs>
<linearGradient id="paint0_linear_194_5371" x1="279.617" y1="-16.6627" x2="279.885" y2="565.889" gradientUnits="userSpaceOnUse">
<stop stop-color="#141414"/>
<stop offset="1" stop-color="#51638C"/>
</linearGradient>
<linearGradient id="paint1_linear_194_5371" x1="560" y1="409.516" x2="-1.93803e-08" y2="409.516" gradientUnits="userSpaceOnUse">
<stop stop-color="#51638C" stop-opacity="0"/>
<stop offset="0.115" stop-color="#161B26"/>
<stop offset="0.89" stop-color="#161B26"/>
<stop offset="1" stop-color="#51638C" stop-opacity="0"/>
</linearGradient>
<linearGradient id="paint2_linear_194_5371" x1="285.275" y1="128.174" x2="285.275" y2="690.281" gradientUnits="userSpaceOnUse">
<stop stop-color="#3742F5"/>
<stop offset="1" stop-color="#D6357F"/>
</linearGradient>
<linearGradient id="paint3_linear_194_5371" x1="285.275" y1="129.456" x2="285.275" y2="564.588" gradientUnits="userSpaceOnUse">
<stop stop-color="#3742F5" stop-opacity="0.24"/>
<stop offset="0.432292" stop-color="#3742F5"/>
<stop offset="0.6875" stop-color="#D6357F"/>
<stop offset="1" stop-color="#D6357F" stop-opacity="0.2"/>
</linearGradient>
<linearGradient id="paint4_linear_194_5371" x1="291.021" y1="357.264" x2="285.99" y2="602.085" gradientUnits="userSpaceOnUse">
<stop stop-color="#3742F5"/>
<stop offset="1" stop-color="#D6357F"/>
</linearGradient>
</defs>
</svg>
