<svg width="601" height="641" viewBox="0 0 601 641" fill="none" xmlns="http://www.w3.org/2000/svg">
<mask id="mask0_194_5855" style="mask-type:alpha" maskUnits="userSpaceOnUse" x="0" y="0" width="601" height="641">
<rect width="601" height="641" fill="url(#paint0_linear_194_5855)"/>
</mask>
<g mask="url(#mask0_194_5855)">
<path d="M62.7097 99.2397L62.1133 99.8628L62.3518 100.692L213.843 627.14L193.658 632.221L42.0243 105.279L41.8083 104.528L41.0694 104.275C35.1914 102.259 30.4757 97.715 28.752 91.7251C25.9483 81.982 32.0935 71.8227 42.7324 69.145C53.4015 66.4598 64.2513 72.3969 67.0681 82.1856C68.8556 88.3973 67.0167 94.7398 62.7097 99.2397Z" fill="url(#paint1_linear_194_5855)" fill-opacity="0.2" stroke="url(#paint2_linear_194_5855)" stroke-width="3"/>
<path d="M424.662 146.739L566.506 314.193C550.498 318.421 519.163 326.228 504.995 328.056C498.058 328.95 490.964 325.833 484.869 321.248C478.794 316.679 473.952 310.83 471.577 306.726L471.144 305.977H470.279C465.965 305.977 453.473 307.115 422.66 316.317C416.269 318.226 409.793 320.416 403.402 322.578C400.157 323.676 396.933 324.766 393.754 325.808C384.271 328.917 375.136 331.614 366.698 332.936C358.254 334.258 350.638 334.18 344.143 331.857C337.701 329.554 332.224 324.993 328.101 317.062C318.723 299.026 298.799 296.249 278.773 298.77C260.795 301.033 242.091 307.633 229.369 312.121C227.861 312.653 226.438 313.155 225.11 313.617L225.096 313.622L225.083 313.626L160.981 337.252L98.089 120.194C106.73 115.463 120.288 108.835 134.14 103.642C141.352 100.938 148.617 98.6341 155.291 97.1862C161.987 95.7335 167.983 95.1671 172.701 95.8548C177.413 96.5415 182.953 98.8181 188.888 102.163C194.804 105.497 201.016 109.836 207.056 114.551C219.135 123.982 230.424 134.84 237.115 141.949L237.952 142.838L238.992 142.2C254.994 132.388 297.505 117.845 339.035 138.337C380.265 158.681 412.38 152.871 424.662 146.739Z" fill="url(#paint3_linear_194_5855)" fill-opacity="0.2" stroke="url(#paint4_linear_194_5855)" stroke-width="3"/>
<mask id="path-4-inside-1_194_5855" fill="white">
<path fill-rule="evenodd" clip-rule="evenodd" d="M309.363 175.112L321.282 199.108L333.828 186.175C342.72 178.022 341.521 169.831 338.412 163.47L332.532 151.438L309.363 175.112ZM305.854 178.102L289.975 194.13C283.178 201.089 282.124 208.455 285.884 216.147C285.884 216.147 290.426 228.572 300.218 230.348C295.233 228.365 298.825 221.107 303.813 216.054L317.744 202.17L305.854 178.102ZM329.007 288.862L333.947 298.971L344.269 288.657C351.646 281.45 353.233 274.393 347.021 262.205L343.792 255.597L337.363 262.399C326.66 273.234 326.281 281.98 329.007 288.862ZM313.229 264.666C308.312 254.607 311.851 245.285 319.875 237.444L356.182 233.608C355.118 236.388 353.244 239.335 350.267 242.634L332.82 261.061C321.173 272.835 321.808 282.221 325.303 289.371L313.229 264.666ZM319.175 232.971C314.1 233.412 309.906 233.178 306.488 232.314C301.374 230.327 305.124 223.002 310.246 217.832L322.018 206.183L329.665 205.656C334.898 205.148 339.092 205.382 342.587 206.272C342.482 206.318 342.405 206.291 342.328 206.264C342.792 206.437 343.183 206.655 343.508 206.912L343.556 206.919L344.084 207.216C345.259 207.676 346.325 208.28 347.314 209.034L347.65 209.223L347.643 209.293C350.457 211.571 352.661 215.105 355.064 220.022C356.462 222.882 357.284 225.869 357.085 229.113L325.048 232.554L325.119 232.485L319.175 232.971Z"/>
</mask>
<path d="M321.282 199.108L318.587 200.385L320.51 204.258L323.471 201.205L321.282 199.108ZM309.363 175.112L307.182 173.007L305.726 174.494L306.668 176.389L309.363 175.112ZM333.828 186.175L331.761 183.959L331.698 184.017L331.639 184.078L333.828 186.175ZM338.412 163.47L335.708 164.729L335.708 164.729L338.412 163.47ZM332.532 151.438L335.235 150.179L333.333 146.286L330.351 149.332L332.532 151.438ZM289.975 194.13L287.807 192.011L287.8 192.019L287.793 192.026L289.975 194.13ZM305.854 178.102L308.552 176.831L306.654 172.989L303.686 175.984L305.854 178.102ZM285.884 216.147L288.711 215.179L288.657 215.03L288.587 214.888L285.884 216.147ZM300.218 230.348L299.737 233.288L301.287 227.576L300.218 230.348ZM303.813 216.054L301.658 213.922L301.65 213.93L301.642 213.939L303.813 216.054ZM317.744 202.17L319.899 204.302L321.389 202.817L320.442 200.899L317.744 202.17ZM333.947 298.971L331.244 300.23L333.124 304.078L336.105 301.1L333.947 298.971ZM329.007 288.862L326.208 289.906L326.252 290.015L326.303 290.121L329.007 288.862ZM344.269 288.657L342.135 286.505L342.123 286.517L342.111 286.528L344.269 288.657ZM347.021 262.205L344.318 263.464L344.329 263.487L344.341 263.51L347.021 262.205ZM343.792 255.597L346.496 254.338L344.558 250.373L341.576 253.528L343.792 255.597ZM337.363 262.399L339.534 264.514L339.557 264.491L339.579 264.468L337.363 262.399ZM319.875 237.444L319.495 234.471L318.47 234.58L317.741 235.292L319.875 237.444ZM313.229 264.666L310.525 265.926L313.229 264.666ZM356.182 233.608L359 234.72L360.763 230.112L355.802 230.636L356.182 233.608ZM350.267 242.634L352.481 244.705L352.505 244.68L352.528 244.654L350.267 242.634ZM332.82 261.061L334.99 263.178L335.012 263.155L335.034 263.132L332.82 261.061ZM306.488 232.314L305.442 235.095L305.619 235.164L305.803 235.21L306.488 232.314ZM319.175 232.971L318.866 229.992L318.859 229.993L318.852 229.994L319.175 232.971ZM310.246 217.832L308.099 215.693L308.089 215.703L308.078 215.713L310.246 217.832ZM322.018 206.183L321.748 203.201L320.646 203.276L319.871 204.044L322.018 206.183ZM329.665 205.656L329.935 208.638L329.978 208.635L330.02 208.631L329.665 205.656ZM342.587 206.272L343.826 209.022L351.893 205.573L343.279 203.378L342.587 206.272ZM342.328 206.264L343.273 203.446L341.318 209.059L342.328 206.264ZM343.508 206.912L341.663 209.236L342.314 209.75L343.131 209.869L343.508 206.912ZM343.556 206.919L344.999 204.326L344.499 204.044L343.933 203.962L343.556 206.919ZM344.084 207.216L342.641 209.809L342.829 209.915L343.031 209.994L344.084 207.216ZM347.314 209.034L345.512 211.391L345.683 211.521L345.87 211.627L347.314 209.034ZM347.65 209.223L350.646 209.588L350.849 207.618L349.094 206.63L347.65 209.223ZM347.643 209.293L344.648 208.928L344.481 210.55L345.77 211.593L347.643 209.293ZM355.064 220.022L357.768 218.762L355.064 220.022ZM357.085 229.113L357.47 232.085L359.939 231.82L360.09 229.356L357.085 229.113ZM325.048 232.554L322.92 230.396L316.668 236.468L325.433 235.526L325.048 232.554ZM325.119 232.485L327.247 234.643L333.248 228.816L324.81 229.506L325.119 232.485ZM323.976 197.831L312.058 173.835L306.668 176.389L318.587 200.385L323.976 197.831ZM331.639 184.078L319.092 197.012L323.471 201.205L336.017 188.271L331.639 184.078ZM335.708 164.729C337.115 167.607 337.968 170.657 337.627 173.766C337.293 176.813 335.774 180.28 331.761 183.959L335.895 188.39C340.774 183.917 343.101 179.212 343.613 174.535C344.119 169.92 342.818 165.695 341.116 162.211L335.708 164.729ZM329.828 152.698L335.708 164.729L341.116 162.211L335.235 150.179L329.828 152.698ZM311.543 177.218L334.712 153.544L330.351 149.332L307.182 173.007L311.543 177.218ZM292.143 196.248L308.022 180.221L303.686 175.984L287.807 192.011L292.143 196.248ZM288.587 214.888C286.933 211.503 286.421 208.38 286.937 205.435C287.456 202.473 289.064 199.401 292.157 196.234L287.793 192.026C284.088 195.819 281.772 199.908 281.004 204.292C280.233 208.693 281.075 213.099 283.18 217.406L288.587 214.888ZM300.699 227.407C296.975 226.732 294.006 223.965 291.829 220.895C290.771 219.403 289.98 217.948 289.454 216.864C289.192 216.325 289 215.885 288.876 215.589C288.814 215.44 288.769 215.328 288.742 215.258C288.728 215.223 288.719 215.198 288.714 215.185C288.711 215.178 288.71 215.174 288.709 215.173C288.709 215.173 288.709 215.173 288.709 215.174C288.71 215.174 288.71 215.175 288.71 215.176C288.71 215.176 288.711 215.177 288.711 215.177C288.711 215.178 288.711 215.179 285.884 216.147C283.056 217.115 283.056 217.116 283.057 217.117C283.057 217.117 283.057 217.118 283.057 217.119C283.058 217.121 283.059 217.123 283.059 217.125C283.061 217.129 283.063 217.133 283.065 217.139C283.069 217.15 283.074 217.164 283.08 217.18C283.093 217.214 283.11 217.259 283.132 217.316C283.176 217.428 283.239 217.585 283.32 217.78C283.483 218.17 283.722 218.715 284.039 219.368C284.671 220.669 285.627 222.432 286.929 224.268C289.471 227.854 293.669 232.187 299.737 233.288L300.699 227.407ZM301.642 213.939C298.969 216.647 296.505 220.094 295.416 223.36C294.874 224.984 294.565 226.882 295.073 228.722C295.632 230.75 297.071 232.293 299.149 233.119L301.287 227.576C300.873 227.411 300.892 227.303 300.878 227.255C300.813 227.018 300.779 226.414 301.136 225.344C301.844 223.222 303.67 220.514 305.985 218.168L301.642 213.939ZM315.589 200.039L301.658 213.922L305.968 218.185L319.899 204.302L315.589 200.039ZM303.156 179.374L315.046 203.441L320.442 200.899L308.552 176.831L303.156 179.374ZM336.651 297.711L331.711 287.603L326.303 290.121L331.244 300.23L336.651 297.711ZM342.111 286.528L331.79 296.842L336.105 301.1L346.426 290.786L342.111 286.528ZM344.341 263.51C347.312 269.341 348.188 273.511 347.755 276.857C347.328 280.15 345.567 283.152 342.135 286.505L346.403 290.809C350.348 286.956 353.069 282.825 353.727 277.74C354.379 272.709 352.942 267.257 349.702 260.9L344.341 263.51ZM341.088 256.857L344.318 263.464L349.725 260.946L346.496 254.338L341.088 256.857ZM339.579 264.468L346.007 257.667L341.576 253.528L335.148 260.33L339.579 264.468ZM331.806 287.818C330.636 284.865 330.152 281.596 331.073 277.884C332.005 274.128 334.436 269.675 339.534 264.514L335.193 260.283C329.587 265.958 326.477 271.295 325.225 276.341C323.962 281.431 324.652 285.976 326.208 289.906L331.806 287.818ZM317.741 235.292C313.489 239.447 310.248 244.162 308.796 249.371C307.325 254.649 307.749 260.245 310.525 265.926L315.932 263.407C313.792 259.028 313.527 254.934 314.602 251.076C315.697 247.148 318.237 243.282 322.01 239.595L317.741 235.292ZM355.802 230.636L319.495 234.471L320.255 240.416L356.562 236.581L355.802 230.636ZM352.528 244.654C355.669 241.174 357.772 237.927 359 234.72L353.365 232.496C352.465 234.849 350.82 237.496 348.006 240.614L352.528 244.654ZM335.034 263.132L352.481 244.705L348.054 240.563L330.606 258.99L335.034 263.132ZM328.006 288.112C326.468 284.965 325.626 281.485 326.346 277.542C327.072 273.566 329.449 268.779 334.99 263.178L330.651 258.944C324.544 265.117 321.415 270.91 320.42 276.358C319.42 281.839 320.642 286.627 322.599 290.631L328.006 288.112ZM310.525 265.926L322.599 290.631L328.006 288.112L315.932 263.407L310.525 265.926ZM305.803 235.21C309.655 236.184 314.212 236.408 319.499 235.949L318.852 229.994C313.989 230.416 310.158 230.172 307.174 229.418L305.803 235.21ZM308.078 215.713C305.35 218.467 302.811 221.954 301.677 225.248C301.114 226.884 300.782 228.806 301.294 230.671C301.861 232.734 303.337 234.277 305.442 235.095L307.535 229.534C307.082 229.358 307.11 229.241 307.101 229.21C307.038 228.981 307.005 228.375 307.38 227.286C308.123 225.127 310.021 222.366 312.414 219.95L308.078 215.713ZM319.871 204.044L308.099 215.693L312.394 219.97L324.166 208.321L319.871 204.044ZM329.395 202.674L321.748 203.201L322.289 209.165L329.935 208.638L329.395 202.674ZM343.279 203.378C339.341 202.375 334.773 202.15 329.31 202.681L330.02 208.631C335.024 208.145 338.844 208.389 341.896 209.167L343.279 203.378ZM341.384 209.082C341.519 209.129 342.59 209.55 343.826 209.022L341.349 203.523C341.773 203.342 342.243 203.274 342.702 203.323C343.068 203.361 343.359 203.476 343.273 203.446L341.384 209.082ZM345.353 204.588C344.744 204.107 344.063 203.74 343.338 203.469L341.318 209.059C341.52 209.134 341.622 209.203 341.663 209.236L345.353 204.588ZM343.933 203.962L343.885 203.955L343.131 209.869L343.179 209.876L343.933 203.962ZM345.527 204.623L344.999 204.326L342.113 209.512L342.641 209.809L345.527 204.623ZM349.116 206.677C347.902 205.752 346.585 205.004 345.137 204.438L343.031 209.994C343.933 210.347 344.748 210.808 345.512 211.391L349.116 206.677ZM349.094 206.63L348.757 206.441L345.87 211.627L346.207 211.816L349.094 206.63ZM350.639 209.658L350.646 209.588L344.655 208.858L344.648 208.928L350.639 209.658ZM357.768 218.762C355.341 213.796 352.893 209.726 349.517 206.992L345.77 211.593C348.02 213.415 349.982 216.415 352.361 221.281L357.768 218.762ZM360.09 229.356C360.329 225.468 359.33 221.96 357.768 218.762L352.361 221.281C353.593 223.804 354.24 226.269 354.08 228.87L360.09 229.356ZM325.433 235.526L357.47 232.085L356.7 226.141L324.662 229.583L325.433 235.526ZM322.991 230.327L322.92 230.396L327.175 234.712L327.247 234.643L322.991 230.327ZM319.484 235.951L325.428 235.464L324.81 229.506L318.866 229.992L319.484 235.951Z" fill="url(#paint5_linear_194_5855)" mask="url(#path-4-inside-1_194_5855)"/>
</g>
<defs>
<linearGradient id="paint0_linear_194_5855" x1="300.5" y1="418.441" x2="300.5" y2="641" gradientUnits="userSpaceOnUse">
<stop stop-color="#D9D9D9"/>
<stop offset="0.75" stop-color="#737373" stop-opacity="0"/>
</linearGradient>
<linearGradient id="paint1_linear_194_5855" x1="121.143" y1="67" x2="121.143" y2="634.029" gradientUnits="userSpaceOnUse">
<stop stop-color="#3742F5"/>
<stop offset="1" stop-color="#D6357F"/>
</linearGradient>
<linearGradient id="paint2_linear_194_5855" x1="121.143" y1="67" x2="121.143" y2="634.029" gradientUnits="userSpaceOnUse">
<stop stop-color="#3742F5" stop-opacity="0.24"/>
<stop offset="0.432292" stop-color="#3742F5"/>
<stop offset="0.6875" stop-color="#D6357F"/>
<stop offset="1" stop-color="#D6357F" stop-opacity="0.2"/>
</linearGradient>
<linearGradient id="paint3_linear_194_5855" x1="332.749" y1="94.064" x2="332.749" y2="339.216" gradientUnits="userSpaceOnUse">
<stop stop-color="#3742F5"/>
<stop offset="1" stop-color="#D6357F"/>
</linearGradient>
<linearGradient id="paint4_linear_194_5855" x1="332.749" y1="94.064" x2="332.749" y2="339.216" gradientUnits="userSpaceOnUse">
<stop stop-color="#3742F5" stop-opacity="0.24"/>
<stop offset="0.432292" stop-color="#3742F5"/>
<stop offset="0.6875" stop-color="#D6357F"/>
<stop offset="1" stop-color="#D6357F" stop-opacity="0.2"/>
</linearGradient>
<linearGradient id="paint5_linear_194_5855" x1="309.115" y1="155.128" x2="331.832" y2="299.304" gradientUnits="userSpaceOnUse">
<stop stop-color="#3742F5" stop-opacity="0.24"/>
<stop offset="0.432292" stop-color="#3742F5"/>
<stop offset="0.6875" stop-color="#D6357F"/>
<stop offset="1" stop-color="#D6357F" stop-opacity="0.2"/>
</linearGradient>
</defs>
</svg>
