<svg width="470" height="254" viewBox="0 0 470 254" fill="none" xmlns="http://www.w3.org/2000/svg">
<rect x="-1.41421" width="150.356" height="203.87" rx="15" transform="matrix(-0.707107 -0.707107 -0.707107 0.707107 250.89 107.08)" stroke="url(#paint0_linear_321_1002)" stroke-width="2"/>
<rect x="-1.41421" width="150.356" height="203.87" rx="15" transform="matrix(-0.707107 -0.707107 -0.707107 0.707107 357.195 107.08)" fill="url(#paint1_linear_321_1002)" fill-opacity="0.6" stroke="url(#paint2_linear_321_1002)" stroke-width="2"/>
<rect x="-1.41421" width="150.356" height="203.87" rx="15" transform="matrix(-0.707107 -0.707107 -0.707107 0.707107 463.499 107.08)" fill="url(#paint3_linear_321_1002)" fill-opacity="0.6" stroke="url(#paint4_linear_321_1002)" stroke-width="2"/>
<rect x="-1.41421" width="150.356" height="203.87" rx="15" transform="matrix(-0.707107 -0.707107 -0.707107 0.707107 569.803 107.08)" stroke="url(#paint5_linear_321_1002)" stroke-width="2"/>
<rect x="-1.41421" width="150.356" height="203.87" rx="15" transform="matrix(-0.707107 -0.707107 -0.707107 0.707107 676.107 107.08)" stroke="url(#paint6_linear_321_1002)" stroke-width="2"/>
<defs>
<linearGradient id="paint0_linear_321_1002" x1="76.1782" y1="0" x2="76.1782" y2="205.87" gradientUnits="userSpaceOnUse">
<stop stop-color="#202020" stop-opacity="0.75"/>
<stop offset="0.51" stop-color="#808080" stop-opacity="0.24"/>
<stop offset="1" stop-color="#202020" stop-opacity="0.2"/>
</linearGradient>
<linearGradient id="paint1_linear_321_1002" x1="76.1782" y1="0" x2="76.1782" y2="205.87" gradientUnits="userSpaceOnUse">
<stop offset="1" stop-color="#D6357F" stop-opacity="0"/>
<stop stop-color="#D6357F"/>
</linearGradient>
<linearGradient id="paint2_linear_321_1002" x1="76.1782" y1="0" x2="76.1782" y2="205.87" gradientUnits="userSpaceOnUse">
<stop stop-color="#D6357F" stop-opacity="0.2"/>
<stop offset="0.567708" stop-color="#D6357F"/>
<stop offset="1" stop-color="#D6357F" stop-opacity="0.24"/>
</linearGradient>
<linearGradient id="paint3_linear_321_1002" x1="76.1782" y1="0" x2="76.1782" y2="205.87" gradientUnits="userSpaceOnUse">
<stop stop-color="#3742F5"/>
<stop offset="1" stop-color="#3742F5" stop-opacity="0"/>
</linearGradient>
<linearGradient id="paint4_linear_321_1002" x1="76.1782" y1="0" x2="76.1782" y2="205.87" gradientUnits="userSpaceOnUse">
<stop stop-color="#3742F5" stop-opacity="0.24"/>
<stop offset="0.432292" stop-color="#757DFC"/>
<stop offset="1" stop-color="#3742F5" stop-opacity="0.24"/>
</linearGradient>
<linearGradient id="paint5_linear_321_1002" x1="76.1782" y1="0" x2="76.1782" y2="205.87" gradientUnits="userSpaceOnUse">
<stop stop-color="#35D675" stop-opacity="0.2"/>
<stop offset="0.6875" stop-color="#35D675"/>
<stop offset="1" stop-color="#35D675" stop-opacity="0.2"/>
</linearGradient>
<linearGradient id="paint6_linear_321_1002" x1="56.1278" y1="26.2347" x2="56.1278" y2="205.871" gradientUnits="userSpaceOnUse">
<stop stop-color="#F5D737" stop-opacity="0.24"/>
<stop offset="0.58" stop-color="#F5D737"/>
<stop offset="1" stop-color="#F5D737" stop-opacity="0.2"/>
</linearGradient>
</defs>
</svg>
