<svg width="257" height="190" viewBox="0 0 257 190" fill="none" xmlns="http://www.w3.org/2000/svg">
<path d="M47.6865 131.85L27.929 156.036C22.3309 162.888 30.3556 172.415 38.0597 168.062L48.9106 161.932C50.9894 160.757 53.484 160.572 55.713 161.428L67.9187 166.114C69.909 166.878 72.122 166.816 74.0664 165.942L100.142 154.218C103.9 152.529 108.326 153.969 110.369 157.547L110.727 158.174C113.35 162.767 119.627 163.596 123.352 159.843L146.446 136.576C148.736 134.269 152.195 133.577 155.196 134.825L162.281 137.771C163.254 138.176 164.299 138.385 165.353 138.385H191.899C193.982 138.385 195.983 137.572 197.477 136.12L224.211 110.12C225.704 108.667 227.705 107.855 229.788 107.855H248C252.418 107.855 256 104.273 256 99.8547V1L228.935 32.7379C227.415 34.5203 225.191 35.547 222.848 35.547H198.951C196.545 35.547 194.266 36.6303 192.747 38.4966L168.113 68.7586C165.609 71.8338 161.231 72.6113 157.822 70.5859L157.241 70.2404C153.392 67.9537 148.416 69.2704 146.201 73.1614L120.062 119.095C118.01 122.701 113.062 123.306 110.202 120.301C108.196 118.194 104.995 117.768 102.508 119.277L75.2909 135.797C72.6819 137.381 69.3991 137.342 66.8283 135.697L58.1936 130.173C54.7731 127.984 50.2555 128.705 47.6865 131.85Z" fill="url(#paint0_linear_305_24510)" fill-opacity="0.1"/>
<path d="M1 189L47.6865 131.85C50.2555 128.705 54.7731 127.984 58.1936 130.173L66.8283 135.697C69.3992 137.342 72.6819 137.381 75.2909 135.797L102.508 119.277C104.995 117.768 108.196 118.194 110.202 120.301V120.301C113.062 123.306 118.01 122.701 120.062 119.095L146.201 73.1614C148.416 69.2704 153.392 67.9537 157.241 70.2404L157.822 70.5859C161.231 72.6113 165.609 71.8338 168.113 68.7586L192.747 38.4966C194.266 36.6303 196.545 35.547 198.951 35.547H222.848C225.191 35.547 227.415 34.5203 228.935 32.7379L256 1" stroke="url(#paint1_linear_305_24510)" stroke-width="2"/>
<defs>
<linearGradient id="paint0_linear_305_24510" x1="128.5" y1="85" x2="128.5" y2="189" gradientUnits="userSpaceOnUse">
<stop stop-color="white"/>
<stop offset="1" stop-color="white" stop-opacity="0"/>
</linearGradient>
<linearGradient id="paint1_linear_305_24510" x1="128.5" y1="1" x2="128.5" y2="189" gradientUnits="userSpaceOnUse">
<stop stop-color="#656565"/>
<stop offset="1" stop-color="#838383" stop-opacity="0"/>
</linearGradient>
</defs>
</svg>
