<svg width="156" height="190" viewBox="0 0 156 190" fill="none" xmlns="http://www.w3.org/2000/svg">
<path d="M26.9767 135.021L16.7191 155.546C13.3209 162.345 21.8908 168.783 27.4752 163.626C29.7434 161.531 33.1339 161.216 35.7492 162.857L38.2338 164.417C41.0143 166.161 44.5786 166.031 47.2237 164.087L59.3606 155.167C62.017 153.214 65.8046 154.388 66.8918 157.5C68.2583 161.412 73.5598 161.969 75.7102 158.428L87.2779 139.377C89.4626 135.779 94.2159 134.746 97.6969 137.113C98.9162 137.941 100.357 138.385 101.831 138.385H114.354C117.104 138.385 119.661 136.972 121.126 134.644L135.624 111.595C137.089 109.267 139.646 107.855 142.396 107.855H148C152.418 107.855 156 104.273 156 99.8547V1L140.22 31.2472C138.842 33.8899 136.108 35.547 133.128 35.547H123.726C120.691 35.547 117.918 37.2642 116.565 39.9808L101.963 69.3014C100.778 71.681 97.6207 72.2198 95.7137 70.3677C93.6541 68.3676 90.2145 69.1821 89.2705 71.8934L72.6181 119.727C71.7143 122.323 68.1815 122.664 66.7982 120.288C65.7386 118.468 63.2457 118.14 61.7508 119.623L47.783 133.481C45.0685 136.175 40.6724 136.117 38.0297 133.353C34.7609 129.934 29.0912 130.79 26.9767 135.021Z" fill="url(#paint0_linear_193_4252)" fill-opacity="0.1"/>
<path d="M0 189L26.9767 135.021C29.0912 130.79 34.7609 129.934 38.0297 133.353V133.353C40.6724 136.117 45.0685 136.175 47.783 133.481L61.7509 119.623C63.2457 118.14 65.7386 118.468 66.7982 120.288V120.288C68.1815 122.664 71.7143 122.323 72.6181 119.727L89.2706 71.8934C90.2145 69.1821 93.6541 68.3676 95.7137 70.3677V70.3677C97.6207 72.2198 100.778 71.681 101.963 69.3014L116.565 39.9808C117.918 37.2642 120.691 35.547 123.726 35.547H133.128C136.108 35.547 138.842 33.8899 140.22 31.2472L156 1" stroke="url(#paint1_linear_193_4252)" stroke-width="2"/>
<defs>
<linearGradient id="paint0_linear_193_4252" x1="78" y1="85" x2="78" y2="189" gradientUnits="userSpaceOnUse">
<stop stop-color="white"/>
<stop offset="1" stop-color="white" stop-opacity="0"/>
</linearGradient>
<linearGradient id="paint1_linear_193_4252" x1="78" y1="1" x2="78" y2="189" gradientUnits="userSpaceOnUse">
<stop stop-color="#656565"/>
<stop offset="1" stop-color="#838383" stop-opacity="0"/>
</linearGradient>
</defs>
</svg>
