<svg width="106" height="326" viewBox="0 0 106 326" fill="none" xmlns="http://www.w3.org/2000/svg">
<rect x="1.19209e-07" y="-1.41421" width="61.1885" height="83.3828" rx="15" transform="matrix(0.707107 -0.707107 -0.707107 -0.707107 60.3193 102.891)" stroke="url(#paint0_linear_193_4237)" stroke-width="2"/>
<rect x="1.19209e-07" y="-1.41421" width="61.1885" height="83.3828" rx="15" transform="matrix(0.707107 -0.707107 -0.707107 -0.707107 60.3193 146.98)" fill="url(#paint1_linear_193_4237)" fill-opacity="0.6" stroke="url(#paint2_linear_193_4237)" stroke-width="2"/>
<rect x="1.19209e-07" y="-1.41421" width="61.1885" height="83.3828" rx="15" transform="matrix(0.707107 -0.707107 -0.707107 -0.707107 60.3193 191.069)" fill="url(#paint3_linear_193_4237)" fill-opacity="0.6" stroke="url(#paint4_linear_193_4237)" stroke-width="2"/>
<rect x="1.19209e-07" y="-1.41421" width="61.1885" height="83.3828" rx="15" transform="matrix(0.707107 -0.707107 -0.707107 -0.707107 60.3193 235.158)" stroke="url(#paint5_linear_193_4237)" stroke-width="2"/>
<rect x="1.19209e-07" y="-1.41421" width="61.1885" height="83.3828" rx="15" transform="matrix(0.707107 -0.707107 -0.707107 -0.707107 60.3193 279.246)" stroke="url(#paint6_linear_193_4237)" stroke-width="2"/>
<rect x="1.19209e-07" y="-1.41421" width="61.1885" height="83.3828" rx="15" transform="matrix(0.707107 -0.707107 -0.707107 -0.707107 60.3193 323.336)" stroke="url(#paint7_linear_193_4237)" stroke-width="2"/>
<defs>
<linearGradient id="paint0_linear_193_4237" x1="31.5943" y1="0" x2="31.5943" y2="85.3828" gradientUnits="userSpaceOnUse">
<stop stop-color="#202020" stop-opacity="0.75"/>
<stop offset="0.51" stop-color="#808080" stop-opacity="0.24"/>
<stop offset="1" stop-color="#202020" stop-opacity="0.2"/>
</linearGradient>
<linearGradient id="paint1_linear_193_4237" x1="31.5943" y1="0" x2="31.5943" y2="85.3828" gradientUnits="userSpaceOnUse">
<stop offset="1" stop-color="#D6357F" stop-opacity="0"/>
<stop stop-color="#D6357F"/>
</linearGradient>
<linearGradient id="paint2_linear_193_4237" x1="31.5943" y1="0" x2="31.5943" y2="85.3828" gradientUnits="userSpaceOnUse">
<stop stop-color="#D6357F" stop-opacity="0.2"/>
<stop offset="0.567708" stop-color="#D6357F"/>
<stop offset="1" stop-color="#D6357F" stop-opacity="0.24"/>
</linearGradient>
<linearGradient id="paint3_linear_193_4237" x1="31.5943" y1="0" x2="31.5943" y2="85.3828" gradientUnits="userSpaceOnUse">
<stop stop-color="#3742F5"/>
<stop offset="1" stop-color="#3742F5" stop-opacity="0"/>
</linearGradient>
<linearGradient id="paint4_linear_193_4237" x1="31.5943" y1="0" x2="31.5943" y2="85.3828" gradientUnits="userSpaceOnUse">
<stop stop-color="#3742F5" stop-opacity="0.24"/>
<stop offset="0.432292" stop-color="#757DFC"/>
<stop offset="1" stop-color="#3742F5" stop-opacity="0.24"/>
</linearGradient>
<linearGradient id="paint5_linear_193_4237" x1="31.5943" y1="0" x2="31.5943" y2="85.3828" gradientUnits="userSpaceOnUse">
<stop stop-color="#35D675" stop-opacity="0.2"/>
<stop offset="0.6875" stop-color="#35D675"/>
<stop offset="1" stop-color="#35D675" stop-opacity="0.2"/>
</linearGradient>
<linearGradient id="paint6_linear_193_4237" x1="23.2785" y1="10.8806" x2="23.2785" y2="85.383" gradientUnits="userSpaceOnUse">
<stop stop-color="#F5D737" stop-opacity="0.24"/>
<stop offset="0.58" stop-color="#F5D737"/>
<stop offset="1" stop-color="#F5D737" stop-opacity="0.2"/>
</linearGradient>
<linearGradient id="paint7_linear_193_4237" x1="31.5943" y1="0" x2="31.5943" y2="85.3828" gradientUnits="userSpaceOnUse">
<stop stop-color="#202020"/>
<stop offset="0.49" stop-color="#808080" stop-opacity="0.24"/>
<stop offset="1" stop-color="#202020" stop-opacity="0.51"/>
</linearGradient>
</defs>
</svg>
