<svg width="601" height="641" viewBox="0 0 601 641" fill="none" xmlns="http://www.w3.org/2000/svg">
<mask id="mask0_593_2813" style="mask-type:alpha" maskUnits="userSpaceOnUse" x="0" y="0" width="601" height="641">
<rect width="601" height="641" fill="url(#paint0_linear_593_2813)"/>
</mask>
<g mask="url(#mask0_593_2813)">
<mask id="mask1_593_2813" style="mask-type:alpha" maskUnits="userSpaceOnUse" x="54" y="355" width="67" height="178">
<path d="M54.4573 363.334C54.4573 358.916 58.039 355.334 62.4573 355.334H112.413C116.831 355.334 120.413 358.916 120.413 363.334V524.551C120.413 528.969 116.831 532.551 112.413 532.551H62.4573C58.039 532.551 54.4573 528.969 54.4573 524.551V363.334Z" fill="url(#paint1_linear_593_2813)"/>
</mask>
<g mask="url(#mask1_593_2813)">
<path d="M120.134 570.457L93.4291 529.828C90.2689 525.02 83.2187 525.02 80.0586 529.828L53.354 570.457" stroke="#A83472" stroke-width="3"/>
<path d="M120.134 551.656L93.4291 511.027C90.2689 506.219 83.2187 506.219 80.0586 511.027L53.354 551.656" stroke="#A83472" stroke-width="3"/>
<path d="M120.134 532.855L93.4291 492.226C90.2689 487.418 83.2187 487.418 80.0586 492.226L53.354 532.855" stroke="#A83472" stroke-width="3"/>
<path d="M120.134 514.055L93.4291 473.425C90.2689 468.617 83.2187 468.617 80.0586 473.425L53.354 514.055" stroke="#A83472" stroke-width="3"/>
<path d="M120.134 495.254L93.4291 454.624C90.2689 449.816 83.2187 449.816 80.0586 454.624L53.354 495.254" stroke="#A83472" stroke-width="3"/>
<path d="M120.134 476.453L93.4291 435.824C90.2689 431.016 83.2187 431.016 80.0586 435.824L53.354 476.453" stroke="#A83472" stroke-width="3"/>
<path d="M120.134 457.652L93.4291 417.023C90.2689 412.215 83.2187 412.215 80.0586 417.023L53.354 457.652" stroke="#A83472" stroke-width="3"/>
<path d="M120.134 438.852L93.4291 398.222C90.2689 393.414 83.2187 393.414 80.0586 398.222L53.354 438.852" stroke="#A83472" stroke-width="3"/>
<path d="M120.134 420.051L93.4291 379.421C90.2689 374.613 83.2187 374.613 80.0586 379.421L53.354 420.051" stroke="#A83472" stroke-width="3"/>
<path d="M120.134 401.25L93.4291 360.62C90.2689 355.812 83.2187 355.813 80.0586 360.62L53.354 401.25" stroke="#A83472" stroke-width="3"/>
<path d="M120.134 382.449L93.4291 341.82C90.2689 337.012 83.2187 337.012 80.0586 341.82L53.354 382.449" stroke="#A83472" stroke-width="3"/>
<path d="M106.286 459.537V354.864H121.111V459.537H106.286Z" fill="#2E2E2E"/>
</g>
<g clip-path="url(#clip0_593_2813)">
<mask id="mask2_593_2813" style="mask-type:alpha" maskUnits="userSpaceOnUse" x="383" y="388" width="66" height="146">
<path d="M383.022 388.854H448.978V526C448.978 530.418 445.396 534 440.978 534H391.022C386.604 534 383.022 530.418 383.022 526V388.854Z" fill="url(#paint2_linear_593_2813)"/>
</mask>
<g mask="url(#mask2_593_2813)">
<path d="M449.213 572.049L422.509 531.419C419.349 526.611 412.298 526.611 409.138 531.419L382.434 572.049" stroke="#A83472" stroke-width="3"/>
<path d="M449.213 553.248L422.509 512.619C419.349 507.811 412.298 507.811 409.138 512.619L382.434 553.248" stroke="#A83472" stroke-width="3"/>
<path d="M449.213 534.447L422.509 493.818C419.349 489.01 412.298 489.01 409.138 493.818L382.434 534.447" stroke="#A83472" stroke-width="3"/>
<path d="M449.213 515.646L422.509 475.017C419.349 470.209 412.298 470.209 409.138 475.017L382.434 515.646" stroke="#A83472" stroke-width="3"/>
<path d="M449.213 496.846L422.509 456.216C419.349 451.408 412.298 451.408 409.138 456.216L382.434 496.846" stroke="#A83472" stroke-width="3"/>
<path d="M449.213 478.045L422.509 437.415C419.349 432.607 412.298 432.607 409.138 437.415L382.434 478.045" stroke="#A83472" stroke-width="3"/>
<path d="M449.213 459.244L422.509 418.615C419.349 413.807 412.298 413.807 409.138 418.615L382.434 459.244" stroke="#A83472" stroke-width="3"/>
<path d="M449.213 440.443L422.509 399.814C419.349 395.006 412.298 395.006 409.138 399.814L382.434 440.443" stroke="#A83472" stroke-width="3"/>
<path d="M449.213 421.643L422.509 381.013C419.349 376.205 412.298 376.205 409.138 381.013L382.434 421.643" stroke="#A83472" stroke-width="3"/>
<path d="M449.213 402.842L422.509 362.212C419.349 357.404 412.298 357.404 409.138 362.212L382.434 402.842" stroke="#A83472" stroke-width="3"/>
</g>
</g>
<path fill-rule="evenodd" clip-rule="evenodd" d="M352.014 131.33C389.193 163.243 444.098 163.243 481.277 131.33L483.356 129.545L481.518 127.404L479.439 129.189C443.318 160.195 389.973 160.195 353.852 129.189L351.773 127.404L349.935 129.545L352.014 131.33Z" fill="url(#paint3_linear_593_2813)" fill-opacity="0.2"/>
<path fill-rule="evenodd" clip-rule="evenodd" d="M106.343 330.169C106.343 287.833 140.663 253.513 182.999 253.513H221.983C264.318 253.513 298.638 287.833 298.638 330.169V451.509H106.343V330.169ZM182.999 256.335C142.221 256.335 109.165 289.391 109.165 330.169V448.688H295.817V330.169C295.817 289.391 262.76 256.335 221.983 256.335H182.999Z" fill="url(#paint4_linear_593_2813)" fill-opacity="0.2"/>
<path fill-rule="evenodd" clip-rule="evenodd" d="M366.853 325.07C366.853 299.23 387.8 278.282 413.641 278.282C439.481 278.282 460.428 299.23 460.428 325.07V380.006C460.428 384.941 456.428 388.941 451.493 388.941H375.788C370.853 388.941 366.853 384.941 366.853 380.006V325.07ZM413.641 281.104C389.359 281.104 369.674 300.788 369.674 325.07V380.006C369.674 383.382 372.411 386.12 375.788 386.12H451.493C454.87 386.12 457.607 383.382 457.607 380.006V325.07C457.607 300.788 437.922 281.104 413.641 281.104Z" fill="url(#paint5_linear_593_2813)" fill-opacity="0.2"/>
<path fill-rule="evenodd" clip-rule="evenodd" d="M432.043 105.223C421.841 103.62 411.451 103.62 401.248 105.223L393.443 106.449C376.921 109.044 361.547 116.502 349.281 127.871C340.244 136.247 329.423 142.461 317.635 146.045L297.023 152.31C290.089 154.417 285.35 160.812 285.35 168.058V192.088C285.35 198.352 288.905 204.072 294.52 206.846L328.123 223.444C332.36 225.537 335.212 229.675 335.66 234.38L344.308 325.324H368.264V325.07C368.264 324.209 368.288 323.352 368.335 322.503H346.874L338.469 234.113C337.929 228.434 334.487 223.44 329.372 220.914L295.77 204.316C291.117 202.018 288.172 197.278 288.172 192.088V168.058C288.172 162.054 292.099 156.756 297.843 155.01L318.455 148.744C330.653 145.037 341.849 138.607 351.199 129.941C363.054 118.952 377.913 111.744 393.881 109.236L401.686 108.01C411.598 106.453 421.693 106.453 431.605 108.01L439.41 109.236C455.378 111.744 470.238 118.952 482.093 129.941C491.442 138.607 502.638 145.037 514.836 148.744L535.448 155.01C541.193 156.756 545.12 162.054 545.12 168.058V192.088C545.12 197.278 542.174 202.018 537.521 204.316L503.919 220.914C498.805 223.44 495.363 228.434 494.823 234.113L486.417 322.503H458.947C458.994 323.352 459.018 324.209 459.018 325.07V325.324H488.983L497.632 234.38C498.079 229.675 500.931 225.537 505.169 223.444L538.771 206.846C544.387 204.072 547.941 198.352 547.941 192.088V168.058C547.941 160.812 543.202 154.417 536.268 152.31L515.656 146.045C503.868 142.461 493.047 136.247 484.011 127.871C471.745 116.502 456.37 109.044 439.848 106.449L432.043 105.223Z" fill="url(#paint6_linear_593_2813)" fill-opacity="0.2"/>
<path fill-rule="evenodd" clip-rule="evenodd" d="M416.645 181.229C397.989 181.229 382.926 195.967 382.926 214.073C382.926 232.178 397.989 246.916 416.645 246.916C435.302 246.916 450.364 232.178 450.364 214.073C450.364 195.967 435.302 181.229 416.645 181.229ZM380.105 214.073C380.105 194.342 396.498 178.407 416.645 178.407C436.792 178.407 453.186 194.342 453.186 214.073C453.186 233.804 436.792 249.738 416.645 249.738C396.498 249.738 380.105 233.804 380.105 214.073Z" fill="url(#paint7_linear_593_2813)" fill-opacity="0.2"/>
<path fill-rule="evenodd" clip-rule="evenodd" d="M368.335 322.503L342.374 322.502C316.661 322.502 295.816 343.347 295.816 369.06V451.509H380.663V448.688H298.638V369.06C298.638 344.905 318.219 325.324 342.374 325.324L368.264 325.324V325.07C368.264 324.209 368.288 323.352 368.335 322.503ZM459.018 325.324V325.07C459.018 324.209 458.994 323.352 458.947 322.503L486.158 322.502C511.871 322.502 532.716 343.347 532.716 369.06V451.509H446.618V448.688H529.894V369.06C529.894 344.905 510.313 325.324 486.158 325.324L459.018 325.324Z" fill="url(#paint8_linear_593_2813)" fill-opacity="0.2"/>
<path fill-rule="evenodd" clip-rule="evenodd" d="M269.263 178.323C269.263 173.884 272.862 170.285 277.3 170.285H288.009V186.36H277.3C272.862 186.36 269.263 182.761 269.263 178.323ZM277.3 173.107C274.42 173.107 272.085 175.442 272.085 178.323C272.085 181.203 274.42 183.538 277.3 183.538H285.187V173.107H277.3Z" fill="url(#paint9_linear_593_2813)" fill-opacity="0.2"/>
<path fill-rule="evenodd" clip-rule="evenodd" d="M563.954 178.323C563.954 182.761 560.355 186.36 555.916 186.36H545.208V170.285H555.916C560.355 170.285 563.954 173.884 563.954 178.323ZM555.916 183.538C558.797 183.538 561.132 181.203 561.132 178.323C561.132 175.442 558.797 173.107 555.916 173.107H548.03V183.538H555.916Z" fill="url(#paint10_linear_593_2813)" fill-opacity="0.2"/>
<path fill-rule="evenodd" clip-rule="evenodd" d="M108.348 353.962H61.9817C57.0469 353.962 53.0464 357.963 53.0464 362.898V525.065C53.0464 530 57.0469 534 61.9817 534H112.889C117.823 534 121.824 530 121.824 525.065V450.012H119.002V525.065C119.002 528.441 116.265 531.179 112.889 531.179H61.9817C58.6052 531.179 55.8681 528.441 55.8681 525.065V362.898C55.8681 359.521 58.6052 356.784 61.9817 356.784H108.348V353.962Z" fill="url(#paint11_linear_593_2813)" fill-opacity="0.2"/>
<path fill-rule="evenodd" clip-rule="evenodd" d="M379.164 385.987H447.942V525.019C447.942 529.954 443.941 533.954 439.006 533.954H388.1C383.165 533.954 379.164 529.954 379.164 525.019V385.987ZM381.986 388.809V525.019C381.986 528.396 384.723 531.133 388.1 531.133H439.006C442.383 531.133 445.12 528.396 445.12 525.019V388.809H381.986Z" fill="url(#paint12_linear_593_2813)" fill-opacity="0.2"/>
<path d="M368.264 325.324V325.07C368.264 324.209 368.288 323.352 368.335 322.503M368.264 325.324L342.374 325.324C318.219 325.324 298.638 344.905 298.638 369.06V448.688H380.663V451.509H295.816V369.06C295.816 343.347 316.661 322.502 342.374 322.502L368.335 322.503M368.264 325.324H344.308L335.66 234.38C335.212 229.675 332.36 225.537 328.123 223.444L294.52 206.846C288.905 204.072 285.35 198.352 285.35 192.088V168.058C285.35 160.812 290.089 154.417 297.023 152.31L317.635 146.045C329.423 142.461 340.244 136.247 349.281 127.871C361.547 116.502 376.921 109.044 393.443 106.449L401.248 105.223C411.451 103.62 421.841 103.62 432.043 105.223L439.848 106.449C456.37 109.044 471.745 116.502 484.011 127.871C493.047 136.247 503.868 142.461 515.656 146.045L536.268 152.31C543.202 154.417 547.941 160.812 547.941 168.058V192.088C547.941 198.352 544.387 204.072 538.771 206.846L505.169 223.444C500.931 225.537 498.079 229.675 497.632 234.38L488.983 325.324H459.018M368.335 322.503H346.874L338.469 234.113C337.929 228.434 334.487 223.44 329.372 220.914L295.77 204.316C291.117 202.018 288.172 197.278 288.172 192.088V168.058C288.172 162.054 292.099 156.756 297.843 155.01L318.455 148.744C330.653 145.037 341.849 138.607 351.199 129.941C363.054 118.952 377.913 111.744 393.881 109.236L401.686 108.01C411.598 106.453 421.693 106.453 431.605 108.01L439.41 109.236C455.378 111.744 470.238 118.952 482.093 129.941C491.442 138.607 502.638 145.037 514.836 148.744L535.448 155.01C541.193 156.756 545.12 162.054 545.12 168.058V192.088C545.12 197.278 542.174 202.018 537.521 204.316L503.919 220.914C498.805 223.44 495.363 228.434 494.823 234.113L486.417 322.503H458.947M458.947 322.503C458.994 323.352 459.018 324.209 459.018 325.07V325.324M458.947 322.503L486.158 322.502C511.871 322.502 532.716 343.347 532.716 369.06V451.509H446.618V448.688H529.894V369.06C529.894 344.905 510.313 325.324 486.158 325.324L459.018 325.324M481.277 131.33C444.098 163.243 389.193 163.243 352.014 131.33L349.935 129.545L351.773 127.404L353.852 129.189C389.973 160.195 443.318 160.195 479.439 129.189L481.518 127.404L483.356 129.545L481.277 131.33ZM182.999 253.513C140.663 253.513 106.343 287.833 106.343 330.169V451.509H298.638V330.169C298.638 287.833 264.318 253.513 221.983 253.513H182.999ZM109.165 330.169C109.165 289.391 142.221 256.335 182.999 256.335H221.983C262.76 256.335 295.817 289.391 295.817 330.169V448.688H109.165V330.169ZM413.64 278.282C387.8 278.282 366.852 299.23 366.852 325.07V380.006C366.852 384.941 370.853 388.941 375.788 388.941H451.493C456.428 388.941 460.428 384.941 460.428 380.006V325.07C460.428 299.23 439.481 278.282 413.64 278.282ZM369.674 325.07C369.674 300.788 389.359 281.104 413.64 281.104C437.922 281.104 457.607 300.788 457.607 325.07V380.006C457.607 383.382 454.87 386.12 451.493 386.12H375.788C372.411 386.12 369.674 383.382 369.674 380.006V325.07ZM382.926 214.073C382.926 195.967 397.989 181.229 416.645 181.229C435.302 181.229 450.364 195.967 450.364 214.073C450.364 232.178 435.302 246.916 416.645 246.916C397.989 246.916 382.926 232.178 382.926 214.073ZM416.645 178.407C396.498 178.407 380.105 194.342 380.105 214.073C380.105 233.804 396.498 249.738 416.645 249.738C436.792 249.738 453.186 233.804 453.186 214.073C453.186 194.342 436.792 178.407 416.645 178.407ZM277.3 170.285C272.862 170.285 269.263 173.884 269.263 178.323C269.263 182.761 272.862 186.36 277.3 186.36H288.009V170.285H277.3ZM272.085 178.323C272.085 175.442 274.42 173.107 277.3 173.107H285.187V183.538H277.3C274.42 183.538 272.085 181.203 272.085 178.323ZM555.916 186.36C560.355 186.36 563.954 182.761 563.954 178.323C563.954 173.884 560.355 170.285 555.916 170.285H545.208V186.36H555.916ZM561.132 178.323C561.132 181.203 558.797 183.538 555.916 183.538H548.03V173.107H555.916C558.797 173.107 561.132 175.442 561.132 178.323ZM61.9817 353.962H108.348V356.784H61.9817C58.6052 356.784 55.8681 359.521 55.8681 362.898V525.065C55.8681 528.441 58.6052 531.179 61.9817 531.179H112.889C116.265 531.179 119.002 528.441 119.002 525.065V450.012H121.824V525.065C121.824 530 117.823 534 112.889 534H61.9817C57.0469 534 53.0464 530 53.0464 525.065V362.898C53.0464 357.963 57.0469 353.962 61.9817 353.962ZM379.164 385.987H447.942V525.019C447.942 529.954 443.941 533.954 439.006 533.954H388.1C383.165 533.954 379.164 529.954 379.164 525.019V385.987ZM381.986 525.019V388.809H445.12V525.019C445.12 528.395 442.383 531.133 439.006 531.133H388.1C384.723 531.133 381.986 528.395 381.986 525.019Z" stroke="url(#paint13_linear_593_2813)" stroke-width="3"/>
<path fill-rule="evenodd" clip-rule="evenodd" d="M298.577 152.985C291.837 155.033 287.23 161.249 287.23 168.293V191.027C287.23 197.116 290.686 202.677 296.145 205.373L328.742 221.474C333.713 223.929 337.059 228.784 337.584 234.305L346.061 323.443H345.696C319.282 323.443 297.851 344.779 297.697 371.156V334.454C297.697 290.271 261.88 254.454 217.697 254.454H188.223C144.04 254.454 108.223 290.271 108.223 334.454V354.903H62.9265C58.5082 354.903 54.9265 358.485 54.9265 362.903V524.119C54.9265 528.538 58.5082 532.119 62.9265 532.119H112.882C117.301 532.119 120.882 528.538 120.882 524.119V449.628H297.696V449.629H381.044V524.073C381.044 528.492 384.625 532.073 389.044 532.073H438.999C443.418 532.073 446.999 528.492 446.999 524.073V449.629H531.774V371.443C531.774 344.988 510.372 323.532 483.938 323.443H488.17L496.647 234.305C497.172 228.784 500.517 223.929 505.489 221.474L538.086 205.373C543.545 202.677 547 197.116 547 191.027V168.293C547 161.249 542.393 155.033 535.653 152.985L515.716 146.924C503.723 143.279 492.714 136.957 483.521 128.436C471.461 117.257 456.344 109.924 440.099 107.373L433.253 106.297C422.56 104.618 411.67 104.618 400.978 106.297L394.132 107.373C377.887 109.924 362.77 117.257 350.709 128.436C341.516 136.957 330.508 143.279 318.515 146.924L298.577 152.985ZM271.144 171.226H287.068V184.479H271.144V171.226ZM547.088 184.479H563.012V171.226H547.088V184.479Z" fill="url(#paint14_linear_593_2813)" fill-opacity="0.2"/>
<path fill-rule="evenodd" clip-rule="evenodd" d="M202.796 320.451L203.235 338.006L213.628 333.407C220.73 330.76 222.188 325.503 222.1 320.862L221.934 312.084L202.796 320.451ZM200.053 321.358L186.989 326.973C181.37 329.436 178.865 333.617 178.972 339.229C178.972 339.229 178.286 347.901 183.311 351.484C181.033 349.008 184.933 345.543 189.042 343.768L200.458 338.95L200.053 321.358ZM184.227 394.222L184.367 401.597L192.832 398.011C198.84 395.547 201.563 391.689 201.252 382.732L201.161 377.911L195.79 380.373C186.975 384.177 184.489 389.365 184.227 394.222ZM181.678 375.558C181.539 368.219 185.945 363.493 192.48 360.811L213.821 367.8C212.502 369.207 210.686 370.508 208.16 371.738L193.593 378.401C184.005 382.53 181.921 388.365 182.019 393.581L181.678 375.558ZM193.251 357.93C190.293 356.895 188.004 355.678 186.313 354.28C183.964 351.769 187.97 348.303 192.184 346.492L201.809 342.47L206.231 344.112C209.295 345.147 211.584 346.363 213.311 347.797C213.24 347.797 213.204 347.761 213.168 347.726C213.383 347.949 213.545 348.181 213.661 348.42L213.686 348.436L213.905 348.752C214.443 349.33 214.883 349.968 215.241 350.677L215.381 350.878L215.359 350.918C216.343 353.016 216.659 355.717 216.727 359.304C216.766 361.39 216.451 363.406 215.495 365.316L196.649 359.183L196.708 359.159L193.251 357.93Z" fill="url(#paint15_linear_593_2813)"/>
</g>
<defs>
<linearGradient id="paint0_linear_593_2813" x1="300.5" y1="418.441" x2="300.5" y2="641" gradientUnits="userSpaceOnUse">
<stop stop-color="#D9D9D9"/>
<stop offset="0.75" stop-color="#737373" stop-opacity="0"/>
</linearGradient>
<linearGradient id="paint1_linear_593_2813" x1="87.4352" y1="355.334" x2="87.4352" y2="532.551" gradientUnits="userSpaceOnUse">
<stop offset="0.6" stop-color="#D9D9D9"/>
<stop offset="1" stop-color="#737373" stop-opacity="0"/>
</linearGradient>
<linearGradient id="paint2_linear_593_2813" x1="416" y1="388.854" x2="416" y2="534" gradientUnits="userSpaceOnUse">
<stop offset="0.55" stop-color="#D9D9D9"/>
<stop offset="1" stop-color="#737373" stop-opacity="0"/>
</linearGradient>
<linearGradient id="paint3_linear_593_2813" x1="308.5" y1="104.021" x2="308.5" y2="534" gradientUnits="userSpaceOnUse">
<stop stop-color="#3742F5"/>
<stop offset="1" stop-color="#D6357F"/>
</linearGradient>
<linearGradient id="paint4_linear_593_2813" x1="308.5" y1="104.021" x2="308.5" y2="534" gradientUnits="userSpaceOnUse">
<stop stop-color="#3742F5"/>
<stop offset="1" stop-color="#D6357F"/>
</linearGradient>
<linearGradient id="paint5_linear_593_2813" x1="308.5" y1="104.021" x2="308.5" y2="534" gradientUnits="userSpaceOnUse">
<stop stop-color="#3742F5"/>
<stop offset="1" stop-color="#D6357F"/>
</linearGradient>
<linearGradient id="paint6_linear_593_2813" x1="308.5" y1="104.021" x2="308.5" y2="534" gradientUnits="userSpaceOnUse">
<stop stop-color="#3742F5"/>
<stop offset="1" stop-color="#D6357F"/>
</linearGradient>
<linearGradient id="paint7_linear_593_2813" x1="308.5" y1="104.021" x2="308.5" y2="534" gradientUnits="userSpaceOnUse">
<stop stop-color="#3742F5"/>
<stop offset="1" stop-color="#D6357F"/>
</linearGradient>
<linearGradient id="paint8_linear_593_2813" x1="308.5" y1="104.021" x2="308.5" y2="534" gradientUnits="userSpaceOnUse">
<stop stop-color="#3742F5"/>
<stop offset="1" stop-color="#D6357F"/>
</linearGradient>
<linearGradient id="paint9_linear_593_2813" x1="308.5" y1="104.021" x2="308.5" y2="534" gradientUnits="userSpaceOnUse">
<stop stop-color="#3742F5"/>
<stop offset="1" stop-color="#D6357F"/>
</linearGradient>
<linearGradient id="paint10_linear_593_2813" x1="308.5" y1="104.021" x2="308.5" y2="534" gradientUnits="userSpaceOnUse">
<stop stop-color="#3742F5"/>
<stop offset="1" stop-color="#D6357F"/>
</linearGradient>
<linearGradient id="paint11_linear_593_2813" x1="308.5" y1="104.021" x2="308.5" y2="534" gradientUnits="userSpaceOnUse">
<stop stop-color="#3742F5"/>
<stop offset="1" stop-color="#D6357F"/>
</linearGradient>
<linearGradient id="paint12_linear_593_2813" x1="308.5" y1="104.021" x2="308.5" y2="534" gradientUnits="userSpaceOnUse">
<stop stop-color="#3742F5"/>
<stop offset="1" stop-color="#D6357F"/>
</linearGradient>
<linearGradient id="paint13_linear_593_2813" x1="308.5" y1="104.021" x2="308.5" y2="534" gradientUnits="userSpaceOnUse">
<stop stop-color="#3742F5" stop-opacity="0.24"/>
<stop offset="0.432292" stop-color="#3742F5"/>
<stop offset="0.6875" stop-color="#D6357F"/>
<stop offset="1" stop-color="#D6357F" stop-opacity="0.2"/>
</linearGradient>
<linearGradient id="paint14_linear_593_2813" x1="308.969" y1="105.038" x2="308.969" y2="532.119" gradientUnits="userSpaceOnUse">
<stop stop-color="#3742F5"/>
<stop offset="1" stop-color="#D6357F"/>
</linearGradient>
<linearGradient id="paint15_linear_593_2813" x1="207.854" y1="308.311" x2="182.959" y2="401.22" gradientUnits="userSpaceOnUse">
<stop stop-color="#5141E3"/>
<stop offset="1" stop-color="#C83685"/>
</linearGradient>
<clipPath id="clip0_593_2813">
<rect width="65.9558" height="145.145" fill="white" transform="translate(383.022 388.854)"/>
</clipPath>
</defs>
</svg>
