<svg width="1032" height="838" viewBox="0 0 1032 838" fill="none" xmlns="http://www.w3.org/2000/svg">
<g opacity="0.9" filter="url(#filter0_b_194_5856)">
<rect y="0.900879" width="390" height="836.164" rx="64" fill="#1F222A"/>
</g>
<rect opacity="0.5" x="1.5" y="2.40088" width="387" height="833.164" rx="62.5" stroke="url(#paint0_linear_194_5856)" stroke-width="3"/>
<rect opacity="0.5" x="-1.41492" width="85.1845" height="115.807" rx="15" transform="matrix(-0.70746 -0.706753 -0.70746 0.706753 260.646 171.014)" fill="url(#paint1_linear_194_5856)" fill-opacity="0.5" stroke="url(#paint2_linear_194_5856)" stroke-width="2"/>
<rect opacity="0.5" x="-1.41492" width="85.1845" height="115.807" rx="15" transform="matrix(-0.70746 -0.706753 -0.70746 0.706753 220.622 171.014)" stroke="url(#paint3_linear_194_5856)" stroke-width="2"/>
<rect opacity="0.2" x="-1.41492" width="85.1845" height="115.807" rx="15" transform="matrix(-0.70746 -0.706753 -0.70746 0.706753 180.599 171.014)" stroke="url(#paint4_linear_194_5856)" stroke-width="2"/>
<rect x="-1.41492" width="85.1845" height="115.807" rx="15" transform="matrix(-0.70746 -0.706753 -0.70746 0.706753 300.669 170.724)" fill="url(#paint5_linear_194_5856)" fill-opacity="0.5" stroke="url(#paint6_linear_194_5856)" stroke-width="2"/>
<rect opacity="0.5" x="-1.41492" width="85.1845" height="115.807" rx="15" transform="matrix(-0.70746 -0.706753 -0.70746 0.706753 340.692 170.724)" fill="url(#paint7_linear_194_5856)" fill-opacity="0.5" stroke="url(#paint8_linear_194_5856)" stroke-width="2"/>
<rect opacity="0.5" x="-1.41492" width="85.1845" height="115.807" rx="15" transform="matrix(-0.70746 -0.706753 -0.70746 0.706753 260.646 351.832)" fill="url(#paint9_linear_194_5856)" fill-opacity="0.5" stroke="url(#paint10_linear_194_5856)" stroke-width="2"/>
<rect opacity="0.5" x="-1.41492" width="85.1845" height="115.807" rx="15" transform="matrix(-0.70746 -0.706753 -0.70746 0.706753 220.622 351.832)" stroke="url(#paint11_linear_194_5856)" stroke-width="2"/>
<rect opacity="0.2" x="-1.41492" width="85.1845" height="115.807" rx="15" transform="matrix(-0.70746 -0.706753 -0.70746 0.706753 180.599 351.833)" stroke="url(#paint12_linear_194_5856)" stroke-width="2"/>
<rect x="-1.41492" width="85.1845" height="115.807" rx="15" transform="matrix(-0.70746 -0.706753 -0.70746 0.706753 300.669 351.543)" fill="url(#paint13_linear_194_5856)" fill-opacity="0.5" stroke="url(#paint14_linear_194_5856)" stroke-width="2"/>
<rect opacity="0.5" x="-1.41492" width="85.1845" height="115.807" rx="15" transform="matrix(-0.70746 -0.706753 -0.70746 0.706753 340.692 351.543)" fill="url(#paint15_linear_194_5856)" fill-opacity="0.5" stroke="url(#paint16_linear_194_5856)" stroke-width="2"/>
<rect opacity="0.5" x="-1.41492" width="85.1845" height="115.807" rx="15" transform="matrix(-0.70746 -0.706753 -0.70746 0.706753 260.646 532.964)" fill="url(#paint17_linear_194_5856)" fill-opacity="0.6" stroke="url(#paint18_linear_194_5856)" stroke-width="2"/>
<rect opacity="0.5" x="-1.41492" width="85.1845" height="115.807" rx="15" transform="matrix(-0.70746 -0.706753 -0.70746 0.706753 220.622 532.964)" stroke="url(#paint19_linear_194_5856)" stroke-width="2"/>
<rect opacity="0.2" x="-1.41492" width="85.1845" height="115.807" rx="15" transform="matrix(-0.70746 -0.706753 -0.70746 0.706753 180.599 532.964)" stroke="url(#paint20_linear_194_5856)" stroke-width="2"/>
<rect x="-1.41492" width="85.1845" height="115.807" rx="15" transform="matrix(-0.70746 -0.706753 -0.70746 0.706753 300.669 532.675)" fill="url(#paint21_linear_194_5856)" fill-opacity="0.6" stroke="url(#paint22_linear_194_5856)" stroke-width="2"/>
<rect opacity="0.5" x="-1.41492" width="85.1845" height="115.807" rx="15" transform="matrix(-0.70746 -0.706753 -0.70746 0.706753 340.692 532.675)" fill="url(#paint23_linear_194_5856)" fill-opacity="0.6" stroke="url(#paint24_linear_194_5856)" stroke-width="2"/>
<rect opacity="0.5" x="-1.41492" width="85.1845" height="115.807" rx="15" transform="matrix(-0.70746 -0.706753 -0.70746 0.706753 260.646 714.097)" fill="url(#paint25_linear_194_5856)" fill-opacity="0.6" stroke="url(#paint26_linear_194_5856)" stroke-width="2"/>
<rect opacity="0.5" x="-1.41492" width="85.1845" height="115.807" rx="15" transform="matrix(-0.70746 -0.706753 -0.70746 0.706753 220.622 714.097)" stroke="url(#paint27_linear_194_5856)" stroke-width="2"/>
<rect opacity="0.5" x="-1.41492" width="85.1845" height="115.807" rx="15" transform="matrix(-0.70746 -0.706753 -0.70746 0.706753 180.599 714.097)" stroke="url(#paint28_linear_194_5856)" stroke-width="2"/>
<rect x="-1.41492" width="85.1845" height="115.807" rx="15" transform="matrix(-0.70746 -0.706753 -0.70746 0.706753 300.669 713.807)" fill="url(#paint29_linear_194_5856)" fill-opacity="0.6" stroke="url(#paint30_linear_194_5856)" stroke-width="2"/>
<rect opacity="0.5" x="-1.41492" width="85.1845" height="115.807" rx="15" transform="matrix(-0.70746 -0.706753 -0.70746 0.706753 340.692 713.807)" fill="url(#paint31_linear_194_5856)" fill-opacity="0.6" stroke="url(#paint32_linear_194_5856)" stroke-width="2"/>
<g opacity="0.9" filter="url(#filter1_b_194_5856)">
<rect x="469" y="0.900879" width="563" height="836.164" rx="64" fill="#1F222A"/>
</g>
<rect opacity="0.5" x="470.5" y="2.40088" width="560" height="833.164" rx="62.5" stroke="url(#paint33_linear_194_5856)" stroke-width="3"/>
<rect x="-1.41421" width="85.2281" height="115.866" rx="15" transform="matrix(-0.707107 -0.707107 -0.707107 0.707107 667.609 265.304)" stroke="url(#paint34_linear_194_5856)" stroke-width="2"/>
<rect x="-1.41421" width="85.2281" height="115.866" rx="15" transform="matrix(-0.707107 -0.707107 -0.707107 0.707107 728.633 265.304)" fill="url(#paint35_linear_194_5856)" fill-opacity="0.5" stroke="url(#paint36_linear_194_5856)" stroke-width="2"/>
<rect x="-1.41421" width="85.2281" height="115.866" rx="15" transform="matrix(-0.707107 -0.707107 -0.707107 0.707107 789.656 265.304)" fill="url(#paint37_linear_194_5856)" fill-opacity="0.5" stroke="url(#paint38_linear_194_5856)" stroke-width="2"/>
<rect x="-1.41421" width="85.2281" height="115.866" rx="15" transform="matrix(-0.707107 -0.707107 -0.707107 0.707107 850.68 265.304)" fill="url(#paint39_linear_194_5856)" fill-opacity="0.6" stroke="url(#paint40_linear_194_5856)" stroke-width="2"/>
<rect x="-1.41421" width="85.2281" height="115.866" rx="15" transform="matrix(-0.707107 -0.707107 -0.707107 0.707107 911.703 265.304)" fill="url(#paint41_linear_194_5856)" fill-opacity="0.6" stroke="url(#paint42_linear_194_5856)" stroke-width="2"/>
<rect x="-1.41421" width="85.2281" height="115.866" rx="15" transform="matrix(-0.707107 -0.707107 -0.707107 0.707107 972.726 265.304)" stroke="url(#paint43_linear_194_5856)" stroke-width="2"/>
<path d="M162.5 72.6847C162.5 77.0247 159.68 80.0847 155.68 80.0847C151.66 80.0847 148.86 77.0247 148.86 72.6847C148.86 68.3447 151.68 65.2647 155.68 65.2647C159.7 65.2647 162.5 68.3247 162.5 72.6847ZM161.02 72.6847C161.02 69.1047 158.84 66.6647 155.68 66.6647C152.52 66.6647 150.36 69.1047 150.36 72.6847C150.36 76.2647 152.52 78.7047 155.68 78.7047C158.84 78.7047 161.02 76.2447 161.02 72.6847ZM164.811 84.0647V70.1647H166.011L166.151 72.1247C166.831 70.6247 168.191 69.9047 169.811 69.9047C172.611 69.9047 174.291 72.0447 174.291 74.9647C174.291 77.8847 172.671 80.0847 169.811 80.0847C168.171 80.0847 166.871 79.3847 166.191 77.9847V84.0647H164.811ZM166.211 75.0047C166.211 77.2247 167.451 78.8447 169.571 78.8447C171.671 78.8447 172.891 77.2247 172.891 75.0047C172.891 72.7647 171.671 71.1647 169.571 71.1647C167.451 71.1647 166.211 72.7647 166.211 75.0047ZM175.811 75.0047C175.811 72.0447 177.891 69.9047 180.731 69.9047C183.571 69.9047 185.651 72.0447 185.651 75.0047C185.651 77.9447 183.571 80.0847 180.731 80.0847C177.891 80.0847 175.811 77.9447 175.811 75.0047ZM177.211 74.9847C177.211 77.2647 178.651 78.8447 180.731 78.8447C182.791 78.8447 184.251 77.2647 184.251 74.9847C184.251 72.7447 182.791 71.1447 180.731 71.1447C178.651 71.1447 177.211 72.7447 177.211 74.9847ZM192.918 70.0447V71.2847H192.158C190.378 71.2847 189.238 72.4847 189.238 74.3247V79.8447H187.858V70.1647H189.158L189.258 71.6647C189.638 70.6247 190.658 69.9447 192.018 69.9447C192.318 69.9447 192.578 69.9647 192.918 70.0447ZM197.363 79.8447H196.003V71.3247H194.063V70.1647H196.003V67.1047H197.363V70.1647H199.303V71.3247H197.363V79.8447ZM207.9 70.1647H209.28V79.8447H208.08L207.9 78.2047C207.36 79.3247 206.02 80.0847 204.5 80.0847C202.22 80.0847 200.98 78.5247 200.98 76.1647V70.1447H202.38V75.7247C202.38 78.0247 203.4 78.8447 204.94 78.8447C206.8 78.8447 207.9 77.6047 207.9 75.3047V70.1647ZM213.535 79.8447H212.155V70.1647H213.355L213.555 71.8447C214.195 70.6047 215.475 69.9047 216.875 69.9047C219.535 69.9047 220.635 71.4847 220.635 73.9247V79.8447H219.255V74.2247C219.255 71.9647 218.235 71.1647 216.635 71.1647C214.655 71.1647 213.535 72.6047 213.535 74.7847V79.8447ZM224.065 67.5047C223.505 67.5047 223.045 67.0447 223.045 66.4847C223.045 65.9247 223.505 65.4447 224.065 65.4447C224.625 65.4447 225.105 65.9247 225.105 66.4847C225.105 67.0447 224.625 67.5047 224.065 67.5047ZM223.385 79.8447V70.1647H224.765V79.8447H223.385ZM229.863 79.8447H228.503V71.3247H226.563V70.1647H228.503V67.1047H229.863V70.1647H231.803V71.3247H229.863V79.8447ZM234.28 67.5047C233.72 67.5047 233.26 67.0447 233.26 66.4847C233.26 65.9247 233.72 65.4447 234.28 65.4447C234.84 65.4447 235.32 65.9247 235.32 66.4847C235.32 67.0447 234.84 67.5047 234.28 67.5047ZM233.6 79.8447V70.1647H234.98V79.8447H233.6ZM241.918 80.0847C239.078 80.0847 237.178 78.0447 237.178 75.0047C237.178 71.9847 239.058 69.9047 241.818 69.9047C244.438 69.9047 246.218 71.7647 246.218 74.5047V75.1847H238.518C238.618 77.5447 239.858 78.9047 241.938 78.9047C243.518 78.9047 244.538 78.2247 244.898 76.9447H246.218C245.698 78.9847 244.198 80.0847 241.918 80.0847ZM241.818 71.0847C239.998 71.0847 238.798 72.2847 238.558 74.1847H244.838C244.838 72.3247 243.638 71.0847 241.818 71.0847ZM247.604 77.1247H248.924C248.924 78.2447 249.764 78.9447 251.124 78.9447C252.624 78.9447 253.504 78.3047 253.504 77.2647C253.504 76.4647 253.104 76.0047 251.964 75.7247L250.304 75.3047C248.624 74.8847 247.804 74.0047 247.804 72.6847C247.804 70.9847 249.224 69.9047 251.304 69.9047C253.344 69.9047 254.664 71.0247 254.724 72.8247H253.384C253.344 71.7047 252.564 71.0447 251.264 71.0447C249.904 71.0447 249.144 71.6247 249.144 72.6647C249.144 73.4047 249.664 73.9247 250.724 74.1847L252.384 74.6047C254.064 75.0247 254.824 75.8047 254.824 77.2047C254.824 78.9447 253.344 80.0847 251.144 80.0847C248.964 80.0847 247.604 78.9247 247.604 77.1247Z" fill="white"/>
<path d="M679.18 65.5247V79.8447H677.74V65.5247H679.18ZM683.742 79.8447H682.362V70.1647H683.562L683.762 71.8447C684.402 70.6047 685.682 69.9047 687.082 69.9047C689.742 69.9047 690.842 71.4847 690.842 73.9247V79.8447H689.462V74.2247C689.462 71.9647 688.442 71.1647 686.842 71.1647C684.862 71.1647 683.742 72.6047 683.742 74.7847V79.8447ZM696.097 79.8447L692.137 70.1647H693.617L696.117 76.4047C696.377 77.1047 696.637 77.7647 696.817 78.4047C696.997 77.7447 697.257 77.1047 697.537 76.4047L700.077 70.1647H701.497L697.477 79.8447H696.097ZM706.754 80.0847C703.914 80.0847 702.014 78.0447 702.014 75.0047C702.014 71.9847 703.894 69.9047 706.654 69.9047C709.274 69.9047 711.054 71.7647 711.054 74.5047V75.1847H703.354C703.454 77.5447 704.694 78.9047 706.774 78.9047C708.354 78.9047 709.374 78.2247 709.734 76.9447H711.054C710.534 78.9847 709.034 80.0847 706.754 80.0847ZM706.654 71.0847C704.834 71.0847 703.634 72.2847 703.394 74.1847H709.674C709.674 72.3247 708.474 71.0847 706.654 71.0847ZM712.44 77.1247H713.76C713.76 78.2447 714.6 78.9447 715.96 78.9447C717.46 78.9447 718.34 78.3047 718.34 77.2647C718.34 76.4647 717.94 76.0047 716.8 75.7247L715.14 75.3047C713.46 74.8847 712.64 74.0047 712.64 72.6847C712.64 70.9847 714.06 69.9047 716.14 69.9047C718.18 69.9047 719.5 71.0247 719.56 72.8247H718.22C718.18 71.7047 717.4 71.0447 716.1 71.0447C714.74 71.0447 713.98 71.6247 713.98 72.6647C713.98 73.4047 714.5 73.9247 715.56 74.1847L717.22 74.6047C718.9 75.0247 719.66 75.8047 719.66 77.2047C719.66 78.9447 718.18 80.0847 715.98 80.0847C713.8 80.0847 712.44 78.9247 712.44 77.1247ZM724.152 79.8447H722.792V71.3247H720.852V70.1647H722.792V67.1047H724.152V70.1647H726.092V71.3247H724.152V79.8447ZM727.112 75.0047C727.112 72.0447 729.192 69.9047 732.032 69.9047C734.872 69.9047 736.952 72.0447 736.952 75.0047C736.952 77.9447 734.872 80.0847 732.032 80.0847C729.192 80.0847 727.112 77.9447 727.112 75.0047ZM728.512 74.9847C728.512 77.2647 729.952 78.8447 732.032 78.8447C734.092 78.8447 735.552 77.2647 735.552 74.9847C735.552 72.7447 734.092 71.1447 732.032 71.1447C729.952 71.1447 728.512 72.7447 728.512 74.9847ZM744.219 70.0447V71.2847H743.459C741.679 71.2847 740.539 72.4847 740.539 74.3247V79.8447H739.159V70.1647H740.459L740.559 71.6647C740.939 70.6247 741.959 69.9447 743.319 69.9447C743.619 69.9447 743.879 69.9647 744.219 70.0447ZM751.6 84.0647V70.1647H752.8L752.94 72.1247C753.62 70.6247 754.98 69.9047 756.6 69.9047C759.4 69.9047 761.08 72.0447 761.08 74.9647C761.08 77.8847 759.46 80.0847 756.6 80.0847C754.96 80.0847 753.66 79.3847 752.98 77.9847V84.0647H751.6ZM753 75.0047C753 77.2247 754.24 78.8447 756.36 78.8447C758.46 78.8447 759.68 77.2247 759.68 75.0047C759.68 72.7647 758.46 71.1647 756.36 71.1647C754.24 71.1647 753 72.7647 753 75.0047ZM762.6 75.0047C762.6 72.0447 764.68 69.9047 767.52 69.9047C770.36 69.9047 772.44 72.0447 772.44 75.0047C772.44 77.9447 770.36 80.0847 767.52 80.0847C764.68 80.0847 762.6 77.9447 762.6 75.0047ZM764 74.9847C764 77.2647 765.44 78.8447 767.52 78.8447C769.58 78.8447 771.04 77.2647 771.04 74.9847C771.04 72.7447 769.58 71.1447 767.52 71.1447C765.44 71.1447 764 72.7447 764 74.9847ZM779.707 70.0447V71.2847H778.947C777.167 71.2847 776.027 72.4847 776.027 74.3247V79.8447H774.647V70.1647H775.947L776.047 71.6647C776.427 70.6247 777.447 69.9447 778.807 69.9447C779.107 69.9447 779.367 69.9647 779.707 70.0447ZM784.152 79.8447H782.792V71.3247H780.852V70.1647H782.792V67.1047H784.152V70.1647H786.092V71.3247H784.152V79.8447ZM786.887 70.1647H788.367V68.2847C788.367 66.1047 789.567 65.2647 791.047 65.2647C791.387 65.2647 791.787 65.2847 792.107 65.3447V66.5247H791.287C790.067 66.5247 789.747 67.1447 789.747 68.2847V70.1647H792.027V71.3247H789.747V79.8447H788.367V71.3247H786.887V70.1647ZM792.932 75.0047C792.932 72.0447 795.012 69.9047 797.852 69.9047C800.692 69.9047 802.772 72.0447 802.772 75.0047C802.772 77.9447 800.692 80.0847 797.852 80.0847C795.012 80.0847 792.932 77.9447 792.932 75.0047ZM794.332 74.9847C794.332 77.2647 795.772 78.8447 797.852 78.8447C799.912 78.8447 801.372 77.2647 801.372 74.9847C801.372 72.7447 799.912 71.1447 797.852 71.1447C795.772 71.1447 794.332 72.7447 794.332 74.9847ZM806.419 79.8447H805.039V65.2647H806.419V79.8447ZM810.034 67.5047C809.474 67.5047 809.014 67.0447 809.014 66.4847C809.014 65.9247 809.474 65.4447 810.034 65.4447C810.594 65.4447 811.074 65.9247 811.074 66.4847C811.074 67.0447 810.594 67.5047 810.034 67.5047ZM809.354 79.8447V70.1647H810.734V79.8447H809.354ZM812.932 75.0047C812.932 72.0447 815.012 69.9047 817.852 69.9047C820.692 69.9047 822.772 72.0447 822.772 75.0047C822.772 77.9447 820.692 80.0847 817.852 80.0847C815.012 80.0847 812.932 77.9447 812.932 75.0047ZM814.332 74.9847C814.332 77.2647 815.772 78.8447 817.852 78.8447C819.912 78.8447 821.372 77.2647 821.372 74.9847C821.372 72.7447 819.912 71.1447 817.852 71.1447C815.772 71.1447 814.332 72.7447 814.332 74.9847Z" fill="white"/>
<path d="M349.667 171.73C349.667 174.675 352.054 177.063 355 177.063C357.946 177.063 360.333 174.675 360.333 171.73C360.333 168.784 357.946 166.397 355 166.397C352.054 166.397 349.667 168.784 349.667 171.73ZM490 283.618L480 277.845V289.392L490 283.618ZM355 172.73H400.061V170.73H355V172.73ZM431.061 203.73V251.618H433.061V203.73H431.061ZM464.061 284.618H481V282.618H464.061V284.618ZM431.061 251.618C431.061 269.844 445.836 284.618 464.061 284.618V282.618C446.94 282.618 433.061 268.739 433.061 251.618H431.061ZM400.061 172.73C417.182 172.73 431.061 186.609 431.061 203.73H433.061C433.061 185.505 418.287 170.73 400.061 170.73V172.73Z" fill="#3742F5"/>
<path d="M349.667 349.552C349.667 346.607 352.054 344.219 355 344.219C357.946 344.219 360.333 346.607 360.333 349.552C360.333 352.498 357.946 354.886 355 354.886C352.054 354.886 349.667 352.498 349.667 349.552ZM355 348.552H400V350.552H355V348.552ZM431 317.552V313.588H433V317.552H431ZM400 348.552C417.121 348.552 431 334.673 431 317.552H433C433 335.778 418.225 350.552 400 350.552V348.552Z" fill="#3742F5"/>
<path d="M349.667 537.606C349.667 534.661 352.054 532.273 355 532.273C357.946 532.273 360.333 534.661 360.333 537.606C360.333 540.552 357.946 542.94 355 542.94C352.054 542.94 349.667 540.552 349.667 537.606ZM355 536.606H399.899V538.606H355V536.606ZM430.899 505.606V501.631H432.899V505.606H430.899ZM399.899 536.606C417.02 536.606 430.899 522.727 430.899 505.606H432.899C432.899 523.832 418.124 538.606 399.899 538.606V536.606Z" fill="#3742F5"/>
<path d="M349.667 715.187C349.667 712.241 352.054 709.853 355 709.853C357.946 709.853 360.333 712.241 360.333 715.187C360.333 718.132 357.946 720.52 355 720.52C352.054 720.52 349.667 718.132 349.667 715.187ZM355 714.187H400.061V716.187H355V714.187ZM431.061 683.187V315.618H433.061V683.187H431.061ZM464.061 282.618H490V284.618H464.061V282.618ZM431.061 315.618C431.061 297.393 445.836 282.618 464.061 282.618V284.618C446.94 284.618 433.061 298.497 433.061 315.618H431.061ZM400.061 714.187C417.182 714.187 431.061 700.307 431.061 683.187H433.061C433.061 701.412 418.287 716.187 400.061 716.187V714.187Z" fill="#3742F5"/>
<rect x="758.5" y="493.408" width="257.5" height="327.672" rx="48" fill="#141414"/>
<rect x="837.5" y="762.122" width="100" height="36" rx="18" fill="#61646C"/>
<g clip-path="url(#clip0_194_5856)">
<path d="M857.5 783.455C858.234 783.455 858.834 782.855 858.834 782.121C858.834 781.388 858.234 780.788 857.5 780.788C856.767 780.788 856.167 781.388 856.167 782.121C856.167 782.855 856.767 783.455 857.5 783.455ZM861.5 777.455H860.834V776.121C860.834 774.281 859.34 772.788 857.5 772.788C855.66 772.788 854.167 774.281 854.167 776.121V777.455H853.5C852.767 777.455 852.167 778.055 852.167 778.788V785.455C852.167 786.188 852.767 786.788 853.5 786.788H861.5C862.234 786.788 862.834 786.188 862.834 785.455V778.788C862.834 778.055 862.234 777.455 861.5 777.455ZM855.434 776.121C855.434 774.981 856.36 774.055 857.5 774.055C858.64 774.055 859.567 774.981 859.567 776.121V777.455H855.434V776.121ZM861.5 785.455H853.5V778.788H861.5V785.455Z" fill="white"/>
</g>
<path d="M876.426 774.888V783.47H880.71V785.122H874.634V774.888H876.426ZM881.372 781.65C881.372 779.494 882.926 778.01 885.068 778.01C887.21 778.01 888.764 779.494 888.764 781.65C888.764 783.806 887.21 785.29 885.068 785.29C882.926 785.29 881.372 783.806 881.372 781.65ZM883.08 781.65C883.08 782.91 883.892 783.764 885.068 783.764C886.244 783.764 887.056 782.91 887.056 781.65C887.056 780.39 886.244 779.536 885.068 779.536C883.892 779.536 883.08 780.39 883.08 781.65ZM889.712 781.65C889.712 779.508 891.126 777.996 893.17 777.996C895.06 777.996 896.348 779.046 896.53 780.712H894.822C894.626 779.928 894.052 779.522 893.24 779.522C892.148 779.522 891.42 780.348 891.42 781.65C891.42 782.952 892.092 783.764 893.184 783.764C894.038 783.764 894.64 783.344 894.822 782.588H896.544C896.334 784.198 894.99 785.304 893.184 785.304C891.084 785.304 889.712 783.848 889.712 781.65ZM899.538 785.122H897.844V774.706H899.538V781.104L902.226 778.206H904.368L901.736 780.95L904.312 785.122H902.352L900.546 782.21L899.538 783.26V785.122ZM908.128 785.304C906.07 785.304 904.628 783.806 904.628 781.664C904.628 779.494 906.042 777.996 908.072 777.996C910.144 777.996 911.46 779.382 911.46 781.538V782.056L906.252 782.07C906.378 783.288 907.022 783.904 908.156 783.904C909.094 783.904 909.71 783.54 909.906 782.882H911.488C911.194 784.394 909.934 785.304 908.128 785.304ZM908.086 779.396C907.078 779.396 906.462 779.942 906.294 780.978H909.766C909.766 780.026 909.108 779.396 908.086 779.396ZM915.669 785.304C913.667 785.304 912.421 783.834 912.421 781.692C912.421 779.536 913.681 777.996 915.767 777.996C916.733 777.996 917.587 778.402 918.021 779.088V774.706H919.715V785.122H918.147L918.035 784.044C917.615 784.842 916.719 785.304 915.669 785.304ZM916.047 783.736C917.237 783.736 918.007 782.882 918.007 781.636C918.007 780.39 917.237 779.522 916.047 779.522C914.857 779.522 914.129 780.404 914.129 781.636C914.129 782.868 914.857 783.736 916.047 783.736Z" fill="white"/>
<path d="M854.08 548.596C850.08 548.596 847.36 545.616 847.36 541.216C847.36 536.816 850.12 533.816 854.16 533.816C857.24 533.816 859.66 535.676 860.24 538.516H858.7C858.1 536.456 856.34 535.196 854.1 535.196C850.96 535.196 848.86 537.596 848.86 541.216C848.86 544.816 850.96 547.216 854.1 547.216C856.36 547.216 858.16 545.996 858.78 544.076H860.32C859.66 546.776 857.16 548.596 854.08 548.596ZM861.83 543.536C861.83 540.576 863.91 538.436 866.75 538.436C869.59 538.436 871.67 540.576 871.67 543.536C871.67 546.476 869.59 548.616 866.75 548.616C863.91 548.616 861.83 546.476 861.83 543.536ZM863.23 543.516C863.23 545.796 864.67 547.376 866.75 547.376C868.81 547.376 870.27 545.796 870.27 543.516C870.27 541.276 868.81 539.676 866.75 539.676C864.67 539.676 863.23 541.276 863.23 543.516ZM875.318 548.376H873.938V533.796H875.318V548.376ZM879.693 548.376H878.313V533.796H879.693V548.376ZM885.408 548.616C883.348 548.616 882.128 547.456 882.128 545.756C882.128 543.976 883.488 542.856 885.748 542.676L888.948 542.416V542.096C888.948 540.196 887.808 539.596 886.388 539.596C884.708 539.596 883.708 540.356 883.708 541.656H882.448C882.448 539.696 884.048 538.436 886.428 538.436C888.668 538.436 890.308 539.556 890.308 542.116V548.376H889.148L888.968 546.676C888.368 547.896 887.048 548.616 885.408 548.616ZM885.728 547.496C887.768 547.496 888.948 546.076 888.948 543.976V543.456L886.088 543.676C884.268 543.836 883.528 544.636 883.528 545.716C883.528 546.896 884.408 547.496 885.728 547.496ZM895.121 548.376H893.761V539.856H891.821V538.696H893.761V535.636H895.121V538.696H897.061V539.856H895.121V548.376ZM902.82 548.616C899.98 548.616 898.08 546.576 898.08 543.536C898.08 540.516 899.96 538.436 902.72 538.436C905.34 538.436 907.12 540.296 907.12 543.036V543.716H899.42C899.52 546.076 900.76 547.436 902.84 547.436C904.42 547.436 905.44 546.756 905.8 545.476H907.12C906.6 547.516 905.1 548.616 902.82 548.616ZM902.72 539.616C900.9 539.616 899.7 540.816 899.46 542.716H905.74C905.74 540.856 904.54 539.616 902.72 539.616ZM914.387 538.576V539.816H913.627C911.847 539.816 910.707 541.016 910.707 542.856V548.376H909.327V538.696H910.627L910.727 540.196C911.107 539.156 912.127 538.476 913.487 538.476C913.787 538.476 914.047 538.496 914.387 538.576ZM918.611 548.616C916.551 548.616 915.331 547.456 915.331 545.756C915.331 543.976 916.691 542.856 918.951 542.676L922.151 542.416V542.096C922.151 540.196 921.011 539.596 919.591 539.596C917.911 539.596 916.911 540.356 916.911 541.656H915.651C915.651 539.696 917.251 538.436 919.631 538.436C921.871 538.436 923.511 539.556 923.511 542.116V548.376H922.351L922.171 546.676C921.571 547.896 920.251 548.616 918.611 548.616ZM918.931 547.496C920.971 547.496 922.151 546.076 922.151 543.976V543.456L919.291 543.676C917.471 543.836 916.731 544.636 916.731 545.716C916.731 546.896 917.611 547.496 918.931 547.496ZM927.72 548.376H926.34V533.796H927.72V548.376Z" fill="white"/>
<path d="M846.511 690.126C836.992 690.052 828.451 687.724 822.339 684.071C816.205 680.404 812.686 675.523 812.749 670.363C812.812 665.204 816.448 660.378 822.671 656.807C828.87 653.25 837.466 651.055 846.985 651.129C856.504 651.203 865.045 653.531 871.156 657.184C877.291 660.851 880.81 665.732 880.747 670.892C880.684 676.051 877.047 680.877 870.825 684.448C864.626 688.005 856.029 690.2 846.511 690.126Z" fill="url(#paint44_linear_194_5856)" fill-opacity="0.6" stroke="url(#paint45_linear_194_5856)" stroke-width="2"/>
<path d="M846.511 699.667C836.992 699.593 828.451 697.265 822.339 693.612C816.205 689.945 812.686 685.064 812.749 679.905C812.812 674.745 816.448 669.919 822.671 666.348C828.87 662.791 837.466 660.596 846.985 660.67C856.504 660.744 865.045 663.072 871.156 666.725C877.291 670.392 880.81 675.273 880.747 680.433C880.684 685.592 877.047 690.418 870.825 693.989C864.626 697.546 856.029 699.741 846.511 699.667Z" fill="url(#paint46_linear_194_5856)" fill-opacity="0.4" stroke="url(#paint47_linear_194_5856)" stroke-width="2"/>
<path opacity="0.6" d="M846.511 709.208C836.992 709.134 828.451 706.805 822.339 703.153C816.205 699.486 812.686 694.604 812.749 689.445C812.812 684.286 816.448 679.46 822.671 675.889C828.87 672.332 837.466 670.137 846.985 670.211C856.504 670.284 865.045 672.613 871.156 676.266C877.291 679.932 880.81 684.814 880.747 689.973C880.684 695.132 877.047 699.958 870.825 703.529C864.626 707.086 856.029 709.282 846.511 709.208Z" stroke="url(#paint48_linear_194_5856)" stroke-width="2"/>
<path d="M928.008 661.505C918.489 661.431 909.948 659.102 903.836 655.449C897.702 651.783 894.183 646.901 894.246 641.742C894.309 636.583 897.945 631.757 904.168 628.186C910.367 624.629 918.963 622.433 928.482 622.507C938.001 622.581 946.542 624.91 952.653 628.562C958.788 632.229 962.307 637.111 962.244 642.27C962.181 647.429 958.545 652.255 952.322 655.826C946.123 659.383 937.526 661.578 928.008 661.505Z" fill="url(#paint49_linear_194_5856)" fill-opacity="0.6" stroke="url(#paint50_linear_194_5856)" stroke-width="2"/>
<path d="M928.008 671.046C918.489 670.972 909.948 668.643 903.836 664.99C897.702 661.324 894.183 656.442 894.246 651.283C894.309 646.124 897.945 641.298 904.168 637.727C910.367 634.17 918.963 631.974 928.482 632.048C938.001 632.122 946.542 634.451 952.653 638.103C958.788 641.77 962.307 646.652 962.244 651.811C962.181 656.97 958.545 661.796 952.322 665.367C946.123 668.924 937.526 671.119 928.008 671.046Z" fill="url(#paint51_linear_194_5856)" fill-opacity="0.2" stroke="url(#paint52_linear_194_5856)" stroke-width="2"/>
<path d="M928.008 680.586C918.489 680.512 909.948 678.184 903.836 674.531C897.702 670.864 894.183 665.983 894.246 660.823C894.309 655.664 897.945 650.838 904.168 647.267C910.367 643.71 918.963 641.515 928.482 641.589C938.001 641.663 946.542 643.991 952.653 647.644C958.788 651.311 962.307 656.192 962.244 661.352C962.181 666.511 958.545 671.337 952.322 674.908C946.123 678.465 937.526 680.66 928.008 680.586Z" stroke="url(#paint53_linear_194_5856)" stroke-width="2"/>
<path opacity="0.6" d="M928.008 690.127C918.489 690.053 909.948 687.724 903.836 684.072C897.702 680.405 894.183 675.523 894.246 670.364C894.309 665.205 897.945 660.379 904.168 656.808C910.367 653.251 918.963 651.056 928.482 651.129C938.001 651.203 946.542 653.532 952.653 657.185C958.788 660.851 962.307 665.733 962.244 670.892C962.181 676.051 958.545 680.877 952.322 684.448C946.123 688.005 937.526 690.201 928.008 690.127Z" stroke="url(#paint54_linear_194_5856)" stroke-width="2"/>
<path opacity="0.4" d="M928.008 699.667C918.489 699.593 909.948 697.265 903.836 693.612C897.702 689.945 894.183 685.064 894.246 679.905C894.309 674.745 897.945 669.919 904.168 666.348C910.367 662.791 918.963 660.596 928.482 660.67C938.001 660.744 946.542 663.072 952.653 666.725C958.788 670.392 962.307 675.273 962.244 680.433C962.181 685.592 958.545 690.418 952.322 693.989C946.123 697.546 937.526 699.741 928.008 699.667Z" stroke="url(#paint55_linear_194_5856)" stroke-width="2"/>
<path opacity="0.2" d="M928.008 709.208C918.489 709.134 909.948 706.805 903.836 703.153C897.702 699.486 894.183 694.604 894.246 689.445C894.309 684.286 897.945 679.46 904.168 675.889C910.367 672.332 918.963 670.137 928.482 670.211C938.001 670.284 946.542 672.613 952.653 676.266C958.788 679.932 962.307 684.814 962.244 689.973C962.181 695.132 958.545 699.958 952.322 703.529C946.123 707.086 937.526 709.282 928.008 709.208Z" stroke="url(#paint56_linear_194_5856)" stroke-width="2"/>
<rect x="485" y="493.408" width="257.5" height="327.672" rx="48" fill="#141414"/>
<rect x="557" y="762.122" width="114" height="36" rx="18" fill="#17B26A"/>
<g clip-path="url(#clip1_194_5856)">
<path d="M577 783.455C577.734 783.455 578.334 782.855 578.334 782.121C578.334 781.388 577.734 780.788 577 780.788C576.267 780.788 575.667 781.388 575.667 782.121C575.667 782.855 576.267 783.455 577 783.455ZM581 777.455H580.334V776.121C580.334 774.281 578.84 772.788 577 772.788C575.16 772.788 573.667 774.281 573.667 776.121H574.934C574.934 774.981 575.86 774.055 577 774.055C578.14 774.055 579.067 774.981 579.067 776.121V777.455H573C572.267 777.455 571.667 778.055 571.667 778.788V785.455C571.667 786.188 572.267 786.788 573 786.788H581C581.734 786.788 582.334 786.188 582.334 785.455V778.788C582.334 778.055 581.734 777.455 581 777.455ZM581 785.455H573V778.788H581V785.455Z" fill="white"/>
</g>
<path d="M594.064 781.384V774.888H595.856V781.272C595.856 782.742 596.654 783.554 598.11 783.554C599.566 783.554 600.378 782.728 600.378 781.272V774.888H602.17V781.384C602.17 783.778 600.602 785.29 598.11 785.29C595.632 785.29 594.064 783.792 594.064 781.384ZM605.83 785.122H604.122V778.206H605.704L605.844 779.102C606.278 778.402 607.118 777.996 608.056 777.996C609.792 777.996 610.688 779.074 610.688 780.866V785.122H608.98V781.272C608.98 780.11 608.406 779.55 607.524 779.55C606.474 779.55 605.83 780.278 605.83 781.398V785.122ZM614.088 785.122H612.394V774.706H614.088V785.122ZM615.474 781.65C615.474 779.494 617.028 778.01 619.17 778.01C621.312 778.01 622.866 779.494 622.866 781.65C622.866 783.806 621.312 785.29 619.17 785.29C617.028 785.29 615.474 783.806 615.474 781.65ZM617.182 781.65C617.182 782.91 617.994 783.764 619.17 783.764C620.346 783.764 621.158 782.91 621.158 781.65C621.158 780.39 620.346 779.536 619.17 779.536C617.994 779.536 617.182 780.39 617.182 781.65ZM623.814 781.65C623.814 779.508 625.228 777.996 627.272 777.996C629.162 777.996 630.45 779.046 630.632 780.712H628.924C628.728 779.928 628.154 779.522 627.342 779.522C626.25 779.522 625.522 780.348 625.522 781.65C625.522 782.952 626.194 783.764 627.286 783.764C628.14 783.764 628.742 783.344 628.924 782.588H630.646C630.436 784.198 629.092 785.304 627.286 785.304C625.186 785.304 623.814 783.848 623.814 781.65ZM633.639 785.122H631.945V774.706H633.639V781.104L636.327 778.206H638.469L635.837 780.95L638.413 785.122H636.453L634.647 782.21L633.639 783.26V785.122ZM642.23 785.304C640.172 785.304 638.73 783.806 638.73 781.664C638.73 779.494 640.144 777.996 642.174 777.996C644.246 777.996 645.562 779.382 645.562 781.538V782.056L640.354 782.07C640.48 783.288 641.124 783.904 642.258 783.904C643.196 783.904 643.812 783.54 644.008 782.882H645.59C645.296 784.394 644.036 785.304 642.23 785.304ZM642.188 779.396C641.18 779.396 640.564 779.942 640.396 780.978H643.868C643.868 780.026 643.21 779.396 642.188 779.396ZM649.771 785.304C647.769 785.304 646.523 783.834 646.523 781.692C646.523 779.536 647.783 777.996 649.869 777.996C650.835 777.996 651.689 778.402 652.123 779.088V774.706H653.817V785.122H652.249L652.137 784.044C651.717 784.842 650.821 785.304 649.771 785.304ZM650.149 783.736C651.339 783.736 652.109 782.882 652.109 781.636C652.109 780.39 651.339 779.522 650.149 779.522C648.959 779.522 648.231 780.404 648.231 781.636C648.231 782.868 648.959 783.736 650.149 783.736Z" fill="white"/>
<path d="M582.2 543.116H578.18V548.376H576.74V534.056H582.2C584.96 534.056 586.7 535.856 586.7 538.556C586.7 541.156 584.94 543.116 582.2 543.116ZM582 535.356H578.18V541.816H581.92C584 541.816 585.2 540.496 585.2 538.536C585.2 536.556 583.98 535.356 582 535.356ZM593.785 538.576V539.816H593.025C591.245 539.816 590.105 541.016 590.105 542.856V548.376H588.725V538.696H590.025L590.125 540.196C590.505 539.156 591.525 538.476 592.885 538.476C593.185 538.476 593.445 538.496 593.785 538.576ZM599.309 548.616C596.469 548.616 594.569 546.576 594.569 543.536C594.569 540.516 596.449 538.436 599.209 538.436C601.829 538.436 603.609 540.296 603.609 543.036V543.716H595.909C596.009 546.076 597.249 547.436 599.329 547.436C600.909 547.436 601.929 546.756 602.289 545.476H603.609C603.089 547.516 601.589 548.616 599.309 548.616ZM599.209 539.616C597.389 539.616 596.189 540.816 595.949 542.716H602.229C602.229 540.856 601.029 539.616 599.209 539.616ZM607.195 548.376H605.815V538.696H607.015L607.175 540.076C607.655 539.056 608.735 538.436 610.095 538.436C611.615 538.436 612.755 539.236 613.215 540.496C613.655 539.236 614.835 538.436 616.395 538.436C618.495 538.436 619.875 539.796 619.875 542.036V548.376H618.535V542.316C618.535 540.656 617.615 539.676 616.135 539.676C614.515 539.676 613.555 540.896 613.555 542.396V548.376H612.195V542.296C612.195 540.656 611.255 539.696 609.795 539.696C608.175 539.696 607.195 540.896 607.195 542.376V548.376ZM623.331 536.036C622.771 536.036 622.311 535.576 622.311 535.016C622.311 534.456 622.771 533.976 623.331 533.976C623.891 533.976 624.371 534.456 624.371 535.016C624.371 535.576 623.891 536.036 623.331 536.036ZM622.651 548.376V538.696H624.031V548.376H622.651ZM633.103 538.696H634.483V548.376H633.283L633.103 546.736C632.563 547.856 631.223 548.616 629.703 548.616C627.423 548.616 626.183 547.056 626.183 544.696V538.676H627.583V544.256C627.583 546.556 628.603 547.376 630.143 547.376C632.003 547.376 633.103 546.136 633.103 543.836V538.696ZM638.738 548.376H637.358V538.696H638.558L638.718 540.076C639.198 539.056 640.278 538.436 641.638 538.436C643.158 538.436 644.298 539.236 644.758 540.496C645.198 539.236 646.378 538.436 647.938 538.436C650.038 538.436 651.418 539.796 651.418 542.036V548.376H650.078V542.316C650.078 540.656 649.158 539.676 647.678 539.676C646.058 539.676 645.098 540.896 645.098 542.396V548.376H643.738V542.296C643.738 540.656 642.798 539.696 641.338 539.696C639.718 539.696 638.738 540.896 638.738 542.376V548.376Z" fill="white"/>
<path d="M573.011 632.519C563.492 632.445 554.951 630.117 548.839 626.464C542.705 622.797 539.186 617.916 539.249 612.757C539.312 607.597 542.948 602.771 549.171 599.201C555.37 595.643 563.966 593.448 573.485 593.522C583.004 593.596 591.545 595.924 597.656 599.577C603.791 603.244 607.31 608.125 607.247 613.285C607.184 618.444 603.547 623.27 597.325 626.841C591.126 630.398 582.529 632.593 573.011 632.519Z" fill="url(#paint57_linear_194_5856)" fill-opacity="0.6" stroke="url(#paint58_linear_194_5856)" stroke-width="2"/>
<path d="M573.011 642.06C563.492 641.986 554.951 639.658 548.839 636.005C542.705 632.338 539.186 627.457 539.249 622.298C539.312 617.138 542.948 612.312 549.171 608.742C555.37 605.184 563.966 602.989 573.485 603.063C583.004 603.137 591.545 605.465 597.656 609.118C603.791 612.785 607.31 617.666 607.247 622.826C607.184 627.985 603.547 632.811 597.325 636.382C591.126 639.939 582.529 642.134 573.011 642.06Z" fill="url(#paint59_linear_194_5856)" fill-opacity="0.2" stroke="url(#paint60_linear_194_5856)" stroke-width="2"/>
<path d="M573.011 651.601C563.492 651.527 554.951 649.198 548.839 645.546C542.705 641.879 539.186 636.997 539.249 631.838C539.312 626.679 542.948 621.853 549.171 618.282C555.37 614.725 563.966 612.53 573.485 612.604C583.004 612.678 591.545 615.006 597.656 618.659C603.791 622.326 607.31 627.207 607.247 632.366C607.184 637.525 603.547 642.351 597.325 645.922C591.126 649.479 582.529 651.675 573.011 651.601Z" fill="url(#paint61_linear_194_5856)" fill-opacity="0.2" stroke="url(#paint62_linear_194_5856)" stroke-width="2"/>
<path d="M573.011 661.141C563.492 661.067 554.951 658.739 548.839 655.086C542.705 651.419 539.186 646.538 539.249 641.379C539.312 636.219 542.948 631.394 549.171 627.823C555.37 624.265 563.966 622.07 573.485 622.144C583.004 622.218 591.545 624.546 597.656 628.199C603.791 631.866 607.31 636.747 607.247 641.907C607.184 647.066 603.547 651.892 597.325 655.463C591.126 659.02 582.529 661.215 573.011 661.141Z" stroke="url(#paint63_linear_194_5856)" stroke-width="2"/>
<path opacity="0.8" d="M573.011 670.682C563.492 670.608 554.951 668.279 548.839 664.627C542.705 660.96 539.186 656.078 539.249 650.919C539.312 645.76 542.948 640.934 549.171 637.363C555.37 633.806 563.966 631.611 573.485 631.685C583.004 631.759 591.545 634.087 597.656 637.74C603.791 641.407 607.31 646.288 607.247 651.447C607.184 656.607 603.547 661.432 597.325 665.003C591.126 668.56 582.529 670.756 573.011 670.682Z" stroke="url(#paint64_linear_194_5856)" stroke-width="2"/>
<path opacity="0.6" d="M573.011 680.222C563.492 680.148 554.951 677.82 548.839 674.167C542.705 670.5 539.186 665.619 539.249 660.46C539.312 655.3 542.948 650.475 549.171 646.904C555.37 643.347 563.966 641.151 573.485 641.225C583.004 641.299 591.545 643.627 597.656 647.28C603.791 650.947 607.31 655.829 607.247 660.988C607.184 666.147 603.547 670.973 597.325 674.544C591.126 678.101 582.529 680.296 573.011 680.222Z" stroke="url(#paint65_linear_194_5856)" stroke-width="2"/>
<path opacity="0.6" d="M573.011 689.763C563.492 689.689 554.951 687.361 548.839 683.708C542.705 680.041 539.186 675.159 539.249 670C539.312 664.841 542.948 660.015 549.171 656.444C555.37 652.887 563.966 650.692 573.485 650.766C583.004 650.84 591.545 653.168 597.656 656.821C603.791 660.488 607.31 665.369 607.247 670.528C607.184 675.688 603.547 680.513 597.325 684.084C591.126 687.641 582.529 689.837 573.011 689.763Z" stroke="url(#paint66_linear_194_5856)" stroke-width="2"/>
<path opacity="0.4" d="M573.011 699.303C563.492 699.229 554.951 696.901 548.839 693.248C542.705 689.581 539.186 684.7 539.249 679.541C539.312 674.381 542.948 669.556 549.171 665.985C555.37 662.428 563.966 660.232 573.485 660.306C583.004 660.38 591.545 662.709 597.656 666.361C603.791 670.028 607.31 674.91 607.247 680.069C607.184 685.228 603.547 690.054 597.325 693.625C591.126 697.182 582.529 699.377 573.011 699.303Z" stroke="url(#paint67_linear_194_5856)" stroke-width="2"/>
<path opacity="0.2" d="M573.011 708.844C563.492 708.77 554.951 706.442 548.839 702.789C542.705 699.122 539.186 694.241 539.249 689.081C539.312 683.922 542.948 679.096 549.171 675.525C555.37 671.968 563.966 669.773 573.485 669.847C583.004 669.921 591.545 672.249 597.656 675.902C603.791 679.569 607.31 684.45 607.247 689.609C607.184 694.769 603.547 699.594 597.325 703.165C591.126 706.723 582.529 708.918 573.011 708.844Z" stroke="url(#paint68_linear_194_5856)" stroke-width="2"/>
<path d="M654.508 670.682C644.989 670.608 636.448 668.279 630.336 664.627C624.202 660.96 620.683 656.078 620.746 650.919C620.809 645.76 624.445 640.934 630.668 637.363C636.867 633.806 645.463 631.611 654.982 631.685C664.501 631.759 673.042 634.087 679.153 637.74C685.288 641.407 688.807 646.288 688.744 651.447C688.681 656.607 685.045 661.432 678.822 665.003C672.623 668.56 664.026 670.756 654.508 670.682Z" fill="url(#paint69_linear_194_5856)" fill-opacity="0.6" stroke="url(#paint70_linear_194_5856)" stroke-width="2"/>
<path d="M654.508 680.223C644.989 680.149 636.448 677.82 630.336 674.168C624.202 670.501 620.683 665.619 620.746 660.46C620.809 655.301 624.445 650.475 630.668 646.904C636.867 643.347 645.463 641.152 654.982 641.226C664.501 641.3 673.042 643.628 679.153 647.281C685.288 650.948 688.807 655.829 688.744 660.988C688.681 666.148 685.045 670.973 678.822 674.544C672.623 678.101 664.026 680.297 654.508 680.223Z" fill="url(#paint71_linear_194_5856)" fill-opacity="0.4" stroke="url(#paint72_linear_194_5856)" stroke-width="2"/>
<path opacity="0.8" d="M654.508 689.763C644.989 689.689 636.448 687.361 630.336 683.708C624.202 680.041 620.683 675.16 620.746 670.001C620.809 664.841 624.445 660.016 630.668 656.445C636.867 652.888 645.463 650.692 654.982 650.766C664.501 650.84 673.042 653.169 679.153 656.821C685.288 660.488 688.807 665.37 688.744 670.529C688.681 675.688 685.045 680.514 678.822 684.085C672.623 687.642 664.026 689.837 654.508 689.763Z" fill="url(#paint73_linear_194_5856)" fill-opacity="0.2" stroke="url(#paint74_linear_194_5856)" stroke-width="2"/>
<path opacity="0.6" d="M654.508 699.304C644.989 699.23 636.448 696.902 630.336 693.249C624.202 689.582 620.683 684.7 620.746 679.541C620.809 674.382 624.445 669.556 630.668 665.985C636.867 662.428 645.463 660.233 654.982 660.307C664.501 660.381 673.042 662.709 679.153 666.362C685.288 670.029 688.807 674.91 688.744 680.069C688.681 685.229 685.045 690.054 678.822 693.625C672.623 697.182 664.026 699.378 654.508 699.304Z" stroke="url(#paint75_linear_194_5856)" stroke-width="2"/>
<path opacity="0.4" d="M654.508 708.844C644.989 708.77 636.448 706.442 630.336 702.789C624.202 699.122 620.683 694.241 620.746 689.082C620.809 683.922 624.445 679.097 630.668 675.526C636.867 671.969 645.463 669.773 654.982 669.847C664.501 669.921 673.042 672.25 679.153 675.902C685.288 679.569 688.807 684.451 688.744 689.61C688.681 694.769 685.045 699.595 678.822 703.166C672.623 706.723 664.026 708.918 654.508 708.844Z" stroke="url(#paint76_linear_194_5856)" stroke-width="2"/>
<defs>
<filter id="filter0_b_194_5856" x="-12" y="-11.0991" width="414" height="860.164" filterUnits="userSpaceOnUse" color-interpolation-filters="sRGB">
<feFlood flood-opacity="0" result="BackgroundImageFix"/>
<feGaussianBlur in="BackgroundImageFix" stdDeviation="6"/>
<feComposite in2="SourceAlpha" operator="in" result="effect1_backgroundBlur_194_5856"/>
<feBlend mode="normal" in="SourceGraphic" in2="effect1_backgroundBlur_194_5856" result="shape"/>
</filter>
<filter id="filter1_b_194_5856" x="457" y="-11.0991" width="587" height="860.164" filterUnits="userSpaceOnUse" color-interpolation-filters="sRGB">
<feFlood flood-opacity="0" result="BackgroundImageFix"/>
<feGaussianBlur in="BackgroundImageFix" stdDeviation="6"/>
<feComposite in2="SourceAlpha" operator="in" result="effect1_backgroundBlur_194_5856"/>
<feBlend mode="normal" in="SourceGraphic" in2="effect1_backgroundBlur_194_5856" result="shape"/>
</filter>
<linearGradient id="paint0_linear_194_5856" x1="195" y1="0.900879" x2="195" y2="837.065" gradientUnits="userSpaceOnUse">
<stop stop-color="#3742F5" stop-opacity="0.24"/>
<stop offset="0.432292" stop-color="#3742F5"/>
<stop offset="0.6875" stop-color="#D6357F"/>
<stop offset="1" stop-color="#D6357F" stop-opacity="0.2"/>
</linearGradient>
<linearGradient id="paint1_linear_194_5856" x1="43.5923" y1="0" x2="43.5923" y2="117.807" gradientUnits="userSpaceOnUse">
<stop offset="1" stop-color="#35D675" stop-opacity="0"/>
<stop stop-color="#35D675"/>
</linearGradient>
<linearGradient id="paint2_linear_194_5856" x1="43.5923" y1="0" x2="43.5923" y2="117.807" gradientUnits="userSpaceOnUse">
<stop stop-color="#35D675" stop-opacity="0.2"/>
<stop offset="0.6875" stop-color="#35D675"/>
<stop offset="1" stop-color="#35D675" stop-opacity="0.2"/>
</linearGradient>
<linearGradient id="paint3_linear_194_5856" x1="43.5923" y1="0" x2="43.5923" y2="117.807" gradientUnits="userSpaceOnUse">
<stop stop-color="#35D675" stop-opacity="0.2"/>
<stop offset="0.6875" stop-color="#35D675"/>
<stop offset="1" stop-color="#35D675" stop-opacity="0.2"/>
</linearGradient>
<linearGradient id="paint4_linear_194_5856" x1="43.5923" y1="0" x2="43.5923" y2="117.807" gradientUnits="userSpaceOnUse">
<stop stop-color="#35D675" stop-opacity="0.2"/>
<stop offset="0.6875" stop-color="#35D675"/>
<stop offset="1" stop-color="#35D675" stop-opacity="0.2"/>
</linearGradient>
<linearGradient id="paint5_linear_194_5856" x1="43.5923" y1="0" x2="43.5923" y2="117.807" gradientUnits="userSpaceOnUse">
<stop offset="1" stop-color="#35D675" stop-opacity="0"/>
<stop stop-color="#35D675"/>
</linearGradient>
<linearGradient id="paint6_linear_194_5856" x1="43.5923" y1="0" x2="43.5923" y2="117.807" gradientUnits="userSpaceOnUse">
<stop stop-color="#35D675" stop-opacity="0.2"/>
<stop offset="0.6875" stop-color="#35D675"/>
<stop offset="1" stop-color="#35D675" stop-opacity="0.2"/>
</linearGradient>
<linearGradient id="paint7_linear_194_5856" x1="43.5923" y1="0" x2="43.5923" y2="117.807" gradientUnits="userSpaceOnUse">
<stop offset="1" stop-color="#35D675" stop-opacity="0"/>
<stop stop-color="#35D675"/>
</linearGradient>
<linearGradient id="paint8_linear_194_5856" x1="43.5923" y1="0" x2="43.5923" y2="117.807" gradientUnits="userSpaceOnUse">
<stop stop-color="#35D675" stop-opacity="0.2"/>
<stop offset="0.6875" stop-color="#35D675"/>
<stop offset="1" stop-color="#35D675" stop-opacity="0.2"/>
</linearGradient>
<linearGradient id="paint9_linear_194_5856" x1="32.1186" y1="15.0126" x2="32.1186" y2="117.807" gradientUnits="userSpaceOnUse">
<stop stop-color="#F5D737"/>
<stop offset="1" stop-color="#F5D737" stop-opacity="0.2"/>
</linearGradient>
<linearGradient id="paint10_linear_194_5856" x1="32.1186" y1="15.0126" x2="32.1186" y2="117.807" gradientUnits="userSpaceOnUse">
<stop stop-color="#F5D737" stop-opacity="0.24"/>
<stop offset="0.58" stop-color="#F5D737"/>
<stop offset="1" stop-color="#F5D737" stop-opacity="0.2"/>
</linearGradient>
<linearGradient id="paint11_linear_194_5856" x1="32.1186" y1="15.0126" x2="32.1186" y2="117.807" gradientUnits="userSpaceOnUse">
<stop stop-color="#F5D737" stop-opacity="0.24"/>
<stop offset="0.58" stop-color="#F5D737"/>
<stop offset="1" stop-color="#F5D737" stop-opacity="0.2"/>
</linearGradient>
<linearGradient id="paint12_linear_194_5856" x1="32.1186" y1="15.0126" x2="32.1186" y2="117.807" gradientUnits="userSpaceOnUse">
<stop stop-color="#F5D737" stop-opacity="0.24"/>
<stop offset="0.58" stop-color="#F5D737"/>
<stop offset="1" stop-color="#F5D737" stop-opacity="0.2"/>
</linearGradient>
<linearGradient id="paint13_linear_194_5856" x1="32.1186" y1="15.0126" x2="32.1186" y2="117.807" gradientUnits="userSpaceOnUse">
<stop stop-color="#F5D737"/>
<stop offset="1" stop-color="#F5D737" stop-opacity="0.2"/>
</linearGradient>
<linearGradient id="paint14_linear_194_5856" x1="32.1186" y1="15.0126" x2="32.1186" y2="117.807" gradientUnits="userSpaceOnUse">
<stop stop-color="#F5D737" stop-opacity="0.24"/>
<stop offset="0.58" stop-color="#F5D737"/>
<stop offset="1" stop-color="#F5D737" stop-opacity="0.2"/>
</linearGradient>
<linearGradient id="paint15_linear_194_5856" x1="32.1186" y1="15.0126" x2="32.1186" y2="117.807" gradientUnits="userSpaceOnUse">
<stop stop-color="#F5D737"/>
<stop offset="1" stop-color="#F5D737" stop-opacity="0.2"/>
</linearGradient>
<linearGradient id="paint16_linear_194_5856" x1="32.1186" y1="15.0126" x2="32.1186" y2="117.807" gradientUnits="userSpaceOnUse">
<stop stop-color="#F5D737" stop-opacity="0.24"/>
<stop offset="0.58" stop-color="#F5D737"/>
<stop offset="1" stop-color="#F5D737" stop-opacity="0.2"/>
</linearGradient>
<linearGradient id="paint17_linear_194_5856" x1="43.5923" y1="0" x2="43.5923" y2="117.807" gradientUnits="userSpaceOnUse">
<stop offset="1" stop-color="#D6357F" stop-opacity="0"/>
<stop stop-color="#D6357F"/>
</linearGradient>
<linearGradient id="paint18_linear_194_5856" x1="43.5923" y1="0" x2="43.5923" y2="117.807" gradientUnits="userSpaceOnUse">
<stop stop-color="#D6357F" stop-opacity="0.2"/>
<stop offset="0.567708" stop-color="#D6357F"/>
<stop offset="1" stop-color="#D6357F" stop-opacity="0.24"/>
</linearGradient>
<linearGradient id="paint19_linear_194_5856" x1="43.5923" y1="0" x2="43.5923" y2="117.807" gradientUnits="userSpaceOnUse">
<stop stop-color="#D6357F" stop-opacity="0.2"/>
<stop offset="0.567708" stop-color="#D6357F"/>
<stop offset="1" stop-color="#D6357F" stop-opacity="0.24"/>
</linearGradient>
<linearGradient id="paint20_linear_194_5856" x1="43.5923" y1="0" x2="43.5923" y2="117.807" gradientUnits="userSpaceOnUse">
<stop stop-color="#D6357F" stop-opacity="0.2"/>
<stop offset="0.567708" stop-color="#D6357F"/>
<stop offset="1" stop-color="#D6357F" stop-opacity="0.24"/>
</linearGradient>
<linearGradient id="paint21_linear_194_5856" x1="43.5923" y1="0" x2="43.5923" y2="117.807" gradientUnits="userSpaceOnUse">
<stop offset="1" stop-color="#D6357F" stop-opacity="0"/>
<stop stop-color="#D6357F"/>
</linearGradient>
<linearGradient id="paint22_linear_194_5856" x1="43.5923" y1="0" x2="43.5923" y2="117.807" gradientUnits="userSpaceOnUse">
<stop stop-color="#D6357F" stop-opacity="0.2"/>
<stop offset="0.567708" stop-color="#D6357F"/>
<stop offset="1" stop-color="#D6357F" stop-opacity="0.24"/>
</linearGradient>
<linearGradient id="paint23_linear_194_5856" x1="43.5923" y1="0" x2="43.5923" y2="117.807" gradientUnits="userSpaceOnUse">
<stop offset="1" stop-color="#D6357F" stop-opacity="0"/>
<stop stop-color="#D6357F"/>
</linearGradient>
<linearGradient id="paint24_linear_194_5856" x1="43.5923" y1="0" x2="43.5923" y2="117.807" gradientUnits="userSpaceOnUse">
<stop stop-color="#D6357F" stop-opacity="0.2"/>
<stop offset="0.567708" stop-color="#D6357F"/>
<stop offset="1" stop-color="#D6357F" stop-opacity="0.24"/>
</linearGradient>
<linearGradient id="paint25_linear_194_5856" x1="43.5923" y1="0" x2="43.5923" y2="117.807" gradientUnits="userSpaceOnUse">
<stop stop-color="#3742F5"/>
<stop offset="1" stop-color="#3742F5" stop-opacity="0"/>
</linearGradient>
<linearGradient id="paint26_linear_194_5856" x1="43.5923" y1="0" x2="43.5923" y2="117.807" gradientUnits="userSpaceOnUse">
<stop stop-color="#3742F5" stop-opacity="0.24"/>
<stop offset="0.432292" stop-color="#3742F5"/>
<stop offset="1" stop-color="#3742F5" stop-opacity="0.24"/>
</linearGradient>
<linearGradient id="paint27_linear_194_5856" x1="43.5923" y1="0" x2="43.5923" y2="117.807" gradientUnits="userSpaceOnUse">
<stop stop-color="#3742F5" stop-opacity="0.24"/>
<stop offset="0.432292" stop-color="#3742F5"/>
<stop offset="1" stop-color="#3742F5" stop-opacity="0.24"/>
</linearGradient>
<linearGradient id="paint28_linear_194_5856" x1="43.5923" y1="0" x2="43.5923" y2="117.807" gradientUnits="userSpaceOnUse">
<stop stop-color="#3742F5" stop-opacity="0.24"/>
<stop offset="0.432292" stop-color="#3742F5"/>
<stop offset="1" stop-color="#3742F5" stop-opacity="0.24"/>
</linearGradient>
<linearGradient id="paint29_linear_194_5856" x1="43.5923" y1="0" x2="43.5923" y2="117.807" gradientUnits="userSpaceOnUse">
<stop stop-color="#3742F5"/>
<stop offset="1" stop-color="#3742F5" stop-opacity="0"/>
</linearGradient>
<linearGradient id="paint30_linear_194_5856" x1="43.5923" y1="0" x2="43.5923" y2="117.807" gradientUnits="userSpaceOnUse">
<stop stop-color="#3742F5" stop-opacity="0.24"/>
<stop offset="0.432292" stop-color="#3742F5"/>
<stop offset="1" stop-color="#3742F5" stop-opacity="0.24"/>
</linearGradient>
<linearGradient id="paint31_linear_194_5856" x1="43.5923" y1="0" x2="43.5923" y2="117.807" gradientUnits="userSpaceOnUse">
<stop stop-color="#3742F5"/>
<stop offset="1" stop-color="#3742F5" stop-opacity="0"/>
</linearGradient>
<linearGradient id="paint32_linear_194_5856" x1="43.5923" y1="0" x2="43.5923" y2="117.807" gradientUnits="userSpaceOnUse">
<stop stop-color="#3742F5" stop-opacity="0.24"/>
<stop offset="0.432292" stop-color="#3742F5"/>
<stop offset="1" stop-color="#3742F5" stop-opacity="0.24"/>
</linearGradient>
<linearGradient id="paint33_linear_194_5856" x1="750.5" y1="0.900879" x2="750.5" y2="837.065" gradientUnits="userSpaceOnUse">
<stop stop-color="#3742F5" stop-opacity="0.24"/>
<stop offset="0.432292" stop-color="#3742F5"/>
<stop offset="0.6875" stop-color="#D6357F"/>
<stop offset="1" stop-color="#D6357F" stop-opacity="0.2"/>
</linearGradient>
<linearGradient id="paint34_linear_194_5856" x1="43.6141" y1="0" x2="43.6141" y2="117.866" gradientUnits="userSpaceOnUse">
<stop stop-color="#202020"/>
<stop offset="0.49" stop-color="#808080" stop-opacity="0.24"/>
<stop offset="1" stop-color="#202020" stop-opacity="0.51"/>
</linearGradient>
<linearGradient id="paint35_linear_194_5856" x1="43.6141" y1="0" x2="43.6141" y2="117.866" gradientUnits="userSpaceOnUse">
<stop offset="1" stop-color="#35D675" stop-opacity="0"/>
<stop stop-color="#35D675"/>
</linearGradient>
<linearGradient id="paint36_linear_194_5856" x1="43.6141" y1="0" x2="43.6141" y2="117.866" gradientUnits="userSpaceOnUse">
<stop stop-color="#35D675" stop-opacity="0.2"/>
<stop offset="0.6875" stop-color="#35D675"/>
<stop offset="1" stop-color="#35D675" stop-opacity="0.2"/>
</linearGradient>
<linearGradient id="paint37_linear_194_5856" x1="32.1346" y1="15.0201" x2="32.1346" y2="117.866" gradientUnits="userSpaceOnUse">
<stop stop-color="#F5D737"/>
<stop offset="1" stop-color="#F5D737" stop-opacity="0.2"/>
</linearGradient>
<linearGradient id="paint38_linear_194_5856" x1="32.1346" y1="15.0201" x2="32.1346" y2="117.866" gradientUnits="userSpaceOnUse">
<stop stop-color="#F5D737" stop-opacity="0.24"/>
<stop offset="0.58" stop-color="#F5D737"/>
<stop offset="1" stop-color="#F5D737" stop-opacity="0.2"/>
</linearGradient>
<linearGradient id="paint39_linear_194_5856" x1="43.6141" y1="0" x2="43.6141" y2="117.866" gradientUnits="userSpaceOnUse">
<stop offset="1" stop-color="#D6357F" stop-opacity="0"/>
<stop stop-color="#D6357F"/>
</linearGradient>
<linearGradient id="paint40_linear_194_5856" x1="43.6141" y1="0" x2="43.6141" y2="117.866" gradientUnits="userSpaceOnUse">
<stop stop-color="#D6357F" stop-opacity="0.2"/>
<stop offset="0.567708" stop-color="#D6357F"/>
<stop offset="1" stop-color="#D6357F" stop-opacity="0.24"/>
</linearGradient>
<linearGradient id="paint41_linear_194_5856" x1="43.6141" y1="0" x2="43.6141" y2="117.866" gradientUnits="userSpaceOnUse">
<stop stop-color="#3742F5"/>
<stop offset="1" stop-color="#3742F5" stop-opacity="0"/>
</linearGradient>
<linearGradient id="paint42_linear_194_5856" x1="43.6141" y1="0" x2="43.6141" y2="117.866" gradientUnits="userSpaceOnUse">
<stop stop-color="#3742F5" stop-opacity="0.24"/>
<stop offset="0.432292" stop-color="#3742F5"/>
<stop offset="1" stop-color="#3742F5" stop-opacity="0.24"/>
</linearGradient>
<linearGradient id="paint43_linear_194_5856" x1="43.6141" y1="0" x2="43.6141" y2="117.866" gradientUnits="userSpaceOnUse">
<stop stop-color="#202020"/>
<stop offset="0.49" stop-color="#808080" stop-opacity="0.24"/>
<stop offset="1" stop-color="#202020" stop-opacity="0.51"/>
</linearGradient>
<linearGradient id="paint44_linear_194_5856" x1="881.747" y1="670.899" x2="811.753" y2="670.048" gradientUnits="userSpaceOnUse">
<stop stop-color="#9B9B9B"/>
<stop offset="1" stop-color="#393939"/>
</linearGradient>
<linearGradient id="paint45_linear_194_5856" x1="881.747" y1="670.899" x2="811.753" y2="670.048" gradientUnits="userSpaceOnUse">
<stop stop-color="#959595" stop-opacity="0"/>
<stop offset="0.432292" stop-color="#797979"/>
<stop offset="0.6875" stop-color="#555555"/>
<stop offset="1" stop-color="#4D4D4D" stop-opacity="0.2"/>
</linearGradient>
<linearGradient id="paint46_linear_194_5856" x1="881.747" y1="680.44" x2="811.753" y2="679.589" gradientUnits="userSpaceOnUse">
<stop stop-color="#9B9B9B"/>
<stop offset="1" stop-color="#515151"/>
</linearGradient>
<linearGradient id="paint47_linear_194_5856" x1="881.747" y1="680.44" x2="811.753" y2="679.589" gradientUnits="userSpaceOnUse">
<stop stop-color="#959595" stop-opacity="0"/>
<stop offset="0.432292" stop-color="#797979"/>
<stop offset="0.6875" stop-color="#555555"/>
<stop offset="1" stop-color="#4D4D4D" stop-opacity="0.2"/>
</linearGradient>
<linearGradient id="paint48_linear_194_5856" x1="881.747" y1="689.981" x2="811.753" y2="689.13" gradientUnits="userSpaceOnUse">
<stop stop-color="#959595" stop-opacity="0"/>
<stop offset="0.432292" stop-color="#797979"/>
<stop offset="0.6875" stop-color="#555555"/>
<stop offset="1" stop-color="#4D4D4D" stop-opacity="0.2"/>
</linearGradient>
<linearGradient id="paint49_linear_194_5856" x1="963.244" y1="642.278" x2="893.25" y2="641.426" gradientUnits="userSpaceOnUse">
<stop stop-color="#9B9B9B"/>
<stop offset="1" stop-color="#393939"/>
</linearGradient>
<linearGradient id="paint50_linear_194_5856" x1="963.244" y1="642.278" x2="893.25" y2="641.426" gradientUnits="userSpaceOnUse">
<stop stop-color="#959595" stop-opacity="0"/>
<stop offset="0.432292" stop-color="#797979"/>
<stop offset="0.6875" stop-color="#555555"/>
<stop offset="1" stop-color="#4D4D4D" stop-opacity="0.2"/>
</linearGradient>
<linearGradient id="paint51_linear_194_5856" x1="963.244" y1="651.819" x2="893.25" y2="650.967" gradientUnits="userSpaceOnUse">
<stop stop-color="#9B9B9B"/>
<stop offset="1" stop-color="#515151"/>
</linearGradient>
<linearGradient id="paint52_linear_194_5856" x1="963.244" y1="651.819" x2="893.25" y2="650.967" gradientUnits="userSpaceOnUse">
<stop stop-color="#959595" stop-opacity="0"/>
<stop offset="0.432292" stop-color="#797979"/>
<stop offset="0.6875" stop-color="#555555"/>
<stop offset="1" stop-color="#4D4D4D" stop-opacity="0.2"/>
</linearGradient>
<linearGradient id="paint53_linear_194_5856" x1="963.244" y1="661.359" x2="893.25" y2="660.508" gradientUnits="userSpaceOnUse">
<stop stop-color="#959595" stop-opacity="0"/>
<stop offset="0.432292" stop-color="#797979"/>
<stop offset="0.6875" stop-color="#555555"/>
<stop offset="1" stop-color="#4D4D4D" stop-opacity="0.2"/>
</linearGradient>
<linearGradient id="paint54_linear_194_5856" x1="963.244" y1="670.9" x2="893.25" y2="670.048" gradientUnits="userSpaceOnUse">
<stop stop-color="#959595" stop-opacity="0"/>
<stop offset="0.432292" stop-color="#797979"/>
<stop offset="0.6875" stop-color="#555555"/>
<stop offset="1" stop-color="#4D4D4D" stop-opacity="0.2"/>
</linearGradient>
<linearGradient id="paint55_linear_194_5856" x1="963.244" y1="680.44" x2="893.25" y2="679.589" gradientUnits="userSpaceOnUse">
<stop stop-color="#959595" stop-opacity="0"/>
<stop offset="0.432292" stop-color="#797979"/>
<stop offset="0.6875" stop-color="#555555"/>
<stop offset="1" stop-color="#4D4D4D" stop-opacity="0.2"/>
</linearGradient>
<linearGradient id="paint56_linear_194_5856" x1="963.244" y1="689.981" x2="893.25" y2="689.13" gradientUnits="userSpaceOnUse">
<stop stop-color="#959595" stop-opacity="0"/>
<stop offset="0.432292" stop-color="#797979"/>
<stop offset="0.6875" stop-color="#555555"/>
<stop offset="1" stop-color="#4D4D4D" stop-opacity="0.2"/>
</linearGradient>
<linearGradient id="paint57_linear_194_5856" x1="608.247" y1="613.292" x2="538.253" y2="612.441" gradientUnits="userSpaceOnUse">
<stop stop-color="#3742F5"/>
<stop offset="1" stop-color="#D6357F"/>
</linearGradient>
<linearGradient id="paint58_linear_194_5856" x1="608.247" y1="613.292" x2="538.253" y2="612.441" gradientUnits="userSpaceOnUse">
<stop stop-color="#3742F5" stop-opacity="0.24"/>
<stop offset="0.432292" stop-color="#3742F5"/>
<stop offset="0.6875" stop-color="#D6357F"/>
<stop offset="1" stop-color="#D6357F" stop-opacity="0.2"/>
</linearGradient>
<linearGradient id="paint59_linear_194_5856" x1="608.247" y1="622.833" x2="538.253" y2="621.982" gradientUnits="userSpaceOnUse">
<stop stop-color="#3742F5"/>
<stop offset="1" stop-color="#D6357F"/>
</linearGradient>
<linearGradient id="paint60_linear_194_5856" x1="608.247" y1="622.833" x2="538.253" y2="621.982" gradientUnits="userSpaceOnUse">
<stop stop-color="#3742F5" stop-opacity="0.24"/>
<stop offset="0.432292" stop-color="#3742F5"/>
<stop offset="0.6875" stop-color="#D6357F"/>
<stop offset="1" stop-color="#D6357F" stop-opacity="0.2"/>
</linearGradient>
<linearGradient id="paint61_linear_194_5856" x1="608.247" y1="632.374" x2="538.253" y2="631.523" gradientUnits="userSpaceOnUse">
<stop stop-color="#3742F5"/>
<stop offset="1" stop-color="#D6357F"/>
</linearGradient>
<linearGradient id="paint62_linear_194_5856" x1="608.247" y1="632.374" x2="538.253" y2="631.523" gradientUnits="userSpaceOnUse">
<stop stop-color="#3742F5" stop-opacity="0.24"/>
<stop offset="0.432292" stop-color="#3742F5"/>
<stop offset="0.6875" stop-color="#D6357F"/>
<stop offset="1" stop-color="#D6357F" stop-opacity="0.2"/>
</linearGradient>
<linearGradient id="paint63_linear_194_5856" x1="608.247" y1="641.914" x2="538.253" y2="641.063" gradientUnits="userSpaceOnUse">
<stop stop-color="#3742F5" stop-opacity="0.24"/>
<stop offset="0.432292" stop-color="#3742F5"/>
<stop offset="0.6875" stop-color="#D6357F"/>
<stop offset="1" stop-color="#D6357F" stop-opacity="0.2"/>
</linearGradient>
<linearGradient id="paint64_linear_194_5856" x1="608.247" y1="651.455" x2="538.253" y2="650.604" gradientUnits="userSpaceOnUse">
<stop stop-color="#3742F5" stop-opacity="0.24"/>
<stop offset="0.432292" stop-color="#3742F5"/>
<stop offset="0.6875" stop-color="#D6357F"/>
<stop offset="1" stop-color="#D6357F" stop-opacity="0.2"/>
</linearGradient>
<linearGradient id="paint65_linear_194_5856" x1="608.247" y1="660.996" x2="538.253" y2="660.144" gradientUnits="userSpaceOnUse">
<stop stop-color="#3742F5" stop-opacity="0.24"/>
<stop offset="0.432292" stop-color="#3742F5"/>
<stop offset="0.6875" stop-color="#D6357F"/>
<stop offset="1" stop-color="#D6357F" stop-opacity="0.2"/>
</linearGradient>
<linearGradient id="paint66_linear_194_5856" x1="608.247" y1="670.536" x2="538.253" y2="669.685" gradientUnits="userSpaceOnUse">
<stop stop-color="#3742F5" stop-opacity="0.24"/>
<stop offset="0.432292" stop-color="#3742F5"/>
<stop offset="0.6875" stop-color="#D6357F"/>
<stop offset="1" stop-color="#D6357F" stop-opacity="0.2"/>
</linearGradient>
<linearGradient id="paint67_linear_194_5856" x1="608.247" y1="680.077" x2="538.253" y2="679.225" gradientUnits="userSpaceOnUse">
<stop stop-color="#3742F5" stop-opacity="0.24"/>
<stop offset="0.432292" stop-color="#3742F5"/>
<stop offset="0.6875" stop-color="#D6357F"/>
<stop offset="1" stop-color="#D6357F" stop-opacity="0.2"/>
</linearGradient>
<linearGradient id="paint68_linear_194_5856" x1="608.247" y1="689.617" x2="538.253" y2="688.766" gradientUnits="userSpaceOnUse">
<stop stop-color="#3742F5" stop-opacity="0.24"/>
<stop offset="0.432292" stop-color="#3742F5"/>
<stop offset="0.6875" stop-color="#D6357F"/>
<stop offset="1" stop-color="#D6357F" stop-opacity="0.2"/>
</linearGradient>
<linearGradient id="paint69_linear_194_5856" x1="689.744" y1="651.455" x2="619.75" y2="650.604" gradientUnits="userSpaceOnUse">
<stop stop-color="#3742F5"/>
<stop offset="1" stop-color="#D6357F"/>
</linearGradient>
<linearGradient id="paint70_linear_194_5856" x1="689.744" y1="651.455" x2="619.75" y2="650.604" gradientUnits="userSpaceOnUse">
<stop stop-color="#3742F5" stop-opacity="0.24"/>
<stop offset="0.432292" stop-color="#3742F5"/>
<stop offset="0.6875" stop-color="#D6357F"/>
<stop offset="1" stop-color="#D6357F" stop-opacity="0.2"/>
</linearGradient>
<linearGradient id="paint71_linear_194_5856" x1="689.744" y1="660.996" x2="619.75" y2="660.145" gradientUnits="userSpaceOnUse">
<stop stop-color="#3742F5"/>
<stop offset="1" stop-color="#D6357F"/>
</linearGradient>
<linearGradient id="paint72_linear_194_5856" x1="689.744" y1="660.996" x2="619.75" y2="660.145" gradientUnits="userSpaceOnUse">
<stop stop-color="#3742F5" stop-opacity="0.24"/>
<stop offset="0.432292" stop-color="#3742F5"/>
<stop offset="0.6875" stop-color="#D6357F"/>
<stop offset="1" stop-color="#D6357F" stop-opacity="0.2"/>
</linearGradient>
<linearGradient id="paint73_linear_194_5856" x1="689.744" y1="670.537" x2="619.75" y2="669.685" gradientUnits="userSpaceOnUse">
<stop stop-color="#3742F5"/>
<stop offset="1" stop-color="#D6357F"/>
</linearGradient>
<linearGradient id="paint74_linear_194_5856" x1="689.744" y1="670.537" x2="619.75" y2="669.685" gradientUnits="userSpaceOnUse">
<stop stop-color="#3742F5" stop-opacity="0.24"/>
<stop offset="0.432292" stop-color="#3742F5"/>
<stop offset="0.6875" stop-color="#D6357F"/>
<stop offset="1" stop-color="#D6357F" stop-opacity="0.2"/>
</linearGradient>
<linearGradient id="paint75_linear_194_5856" x1="689.744" y1="680.077" x2="619.75" y2="679.226" gradientUnits="userSpaceOnUse">
<stop stop-color="#3742F5" stop-opacity="0.24"/>
<stop offset="0.432292" stop-color="#3742F5"/>
<stop offset="0.6875" stop-color="#D6357F"/>
<stop offset="1" stop-color="#D6357F" stop-opacity="0.2"/>
</linearGradient>
<linearGradient id="paint76_linear_194_5856" x1="689.744" y1="689.618" x2="619.75" y2="688.766" gradientUnits="userSpaceOnUse">
<stop stop-color="#3742F5" stop-opacity="0.24"/>
<stop offset="0.432292" stop-color="#3742F5"/>
<stop offset="0.6875" stop-color="#D6357F"/>
<stop offset="1" stop-color="#D6357F" stop-opacity="0.2"/>
</linearGradient>
<clipPath id="clip0_194_5856">
<rect width="16" height="16" fill="white" transform="translate(849.5 772.122)"/>
</clipPath>
<clipPath id="clip1_194_5856">
<rect width="16" height="16" fill="white" transform="translate(569 772.122)"/>
</clipPath>
</defs>
</svg>
