<svg width="296" height="322" viewBox="0 0 296 322" fill="none" xmlns="http://www.w3.org/2000/svg">
<mask id="mask0_193_4485" style="mask-type:alpha" maskUnits="userSpaceOnUse" x="0" y="0" width="296" height="322">
<rect width="296" height="321.671" fill="url(#paint0_linear_193_4485)"/>
</mask>
<g mask="url(#mask0_193_4485)">
<path d="M41.9598 306.518L26.8016 319.759H214.763L227.268 313.506L219.31 303.576L235.984 280.772L193.163 264.59L204.91 250.613L249.248 247.939L209.458 242.522L240.153 200.594V186.985L256.827 179.997L275.396 164.182L232.953 140.276L272.743 136.49L221.205 134.391L133.288 93.566L147.309 86.4741L180.657 84.739L148.446 82.6881L143.899 81.4288L147.309 77.3831L162.846 73.3374L157.92 70.0273L193.92 66.3494L180.657 64.8782L177.625 60.0969L197.71 50.5343L153.751 40.9717L186.341 31.409L120.403 22.9498L141.625 18.1685L128.74 13.3872H125.33L135.94 18.1685L108.277 24.0532L176.11 31.409L141.625 41.7072L176.11 53.1088L152.993 58.9935L157.92 64.1426H146.172L108.277 78.6423L95.442 80.5374L110.551 81.4288L116.993 87.6813L98.045 95.6128L74.1709 98.1395L104.487 99.3988L160.951 125.564L141.625 128.506L173.457 131.449L185.205 139.172L209.458 161.608H193.163L170.425 176.687L131.393 189.192L117.318 200.434L90.8449 201.065L47.6441 201.697L77.2026 205.271L113.961 211.26L110.551 218.248L123.056 238.844L108.277 258.337L90.8449 263.118L98.045 273.049L68.1077 278.198L51.8126 294.381L47.6441 297.323L41.9598 306.518Z" fill="url(#paint1_linear_193_4485)" fill-opacity="0.2"/>
<path fill-rule="evenodd" clip-rule="evenodd" d="M26.8016 319.759L41.9598 306.518L47.6441 297.324L51.8126 294.381L68.1077 278.198L98.045 273.049L90.8449 263.119L108.277 258.338L123.056 238.844L110.551 218.248L113.961 211.26L77.2026 205.271L47.6441 201.697L90.8449 201.066L117.318 200.434L131.393 189.192L170.425 176.688L192.343 162.151H210.644V240.902L209.458 242.522L210.644 242.684V250.268L204.91 250.614L193.163 264.59L210.644 271.196V319.759H26.8016Z" fill="url(#paint2_linear_193_4485)"/>
<path fill-rule="evenodd" clip-rule="evenodd" d="M26.8016 319.759L41.9598 306.518L47.6441 297.323L51.8126 294.381L68.1077 278.198L98.045 273.049L90.8449 263.119L108.277 258.337L122.773 239.218H123.766V319.759H26.8016Z" fill="#2B2754"/>
<path fill-rule="evenodd" clip-rule="evenodd" d="M193.722 264.801H192.422V319.759H214.763L227.268 313.506L219.31 303.576L235.984 280.773L193.722 264.801Z" fill="url(#paint3_linear_193_4485)"/>
<path fill-rule="evenodd" clip-rule="evenodd" d="M213.025 243.008H209.017V250.366L249.248 247.939L213.025 243.008Z" fill="url(#paint4_linear_193_4485)"/>
<path fill-rule="evenodd" clip-rule="evenodd" d="M235.412 140.042H231.469V212.456L240.153 200.594V186.986L256.827 179.998L275.396 164.182L232.953 140.276L235.412 140.042Z" fill="url(#paint5_linear_193_4485)"/>
<path fill-rule="evenodd" clip-rule="evenodd" d="M116.406 87.9272L98.0451 95.613L74.171 98.1398L104.487 99.399L118.56 105.92V87.9272H116.406Z" fill="#2B2754"/>
<path d="M128.74 13.3872H125.33L135.94 18.1685L108.277 24.0532L176.11 31.409L141.625 41.7072L176.11 53.1088L152.993 58.9935L157.92 64.1426H146.172L108.277 78.6423L95.442 80.5374L110.551 81.4289L116.993 87.6813L98.045 95.6128L74.1709 98.1395L104.487 99.3987L160.951 125.564L141.625 128.506L173.457 131.449L185.205 139.172L209.458 161.608H193.163L170.425 176.687L131.393 189.192L117.318 200.434L90.8449 201.065L47.6441 201.697L77.2026 205.271L113.961 211.26L110.551 218.248L123.056 238.844L108.277 258.337L90.8449 263.118L98.045 273.049L68.1077 278.198L51.8126 294.381L47.6441 297.323L41.9598 306.518L26.8016 319.759H214.763" stroke="url(#paint6_linear_193_4485)" stroke-width="3"/>
<path d="M128.849 13.3872L141.734 18.1685L120.512 22.9498L186.451 31.409L153.86 40.9717L197.819 50.5343L177.735 60.0969L180.766 64.8782L194.03 66.3494L158.029 70.0273L162.955 73.3374L147.418 77.3831L144.008 81.4289L148.555 82.6881L180.766 84.739L147.418 86.4741L133.397 93.566L221.314 134.391L272.852 136.49L233.062 140.276L275.505 164.182L256.936 179.997L240.262 186.985V200.594L209.567 242.522L249.357 247.939L205.019 250.613L193.272 264.59L236.094 280.772L219.42 303.576L227.378 313.506L214.872 319.759" stroke="url(#paint7_linear_193_4485)" stroke-width="3"/>
</g>
<defs>
<linearGradient id="paint0_linear_193_4485" x1="148" y1="228.306" x2="148" y2="321.671" gradientUnits="userSpaceOnUse">
<stop/>
<stop offset="1" stop-color="#737373" stop-opacity="0"/>
</linearGradient>
<linearGradient id="paint1_linear_193_4485" x1="151.099" y1="13.3872" x2="151.099" y2="319.759" gradientUnits="userSpaceOnUse">
<stop stop-color="#3742F5"/>
<stop offset="1" stop-color="#D6357F"/>
</linearGradient>
<linearGradient id="paint2_linear_193_4485" x1="119.211" y1="162.151" x2="119.211" y2="319.759" gradientUnits="userSpaceOnUse">
<stop offset="0.33" stop-color="#2B2754"/>
<stop offset="1" stop-color="#141414"/>
</linearGradient>
<linearGradient id="paint3_linear_193_4485" x1="214.041" y1="264.17" x2="214.041" y2="319.759" gradientUnits="userSpaceOnUse">
<stop stop-color="#622B4C"/>
<stop offset="1" stop-color="#141414"/>
</linearGradient>
<linearGradient id="paint4_linear_193_4485" x1="228.644" y1="243.008" x2="228.644" y2="319.759" gradientUnits="userSpaceOnUse">
<stop stop-color="#622B4C"/>
<stop offset="1" stop-color="#703557"/>
</linearGradient>
<linearGradient id="paint5_linear_193_4485" x1="252.781" y1="139.726" x2="252.781" y2="214.234" gradientUnits="userSpaceOnUse">
<stop stop-color="#622B4C"/>
<stop offset="1" stop-color="#141414"/>
</linearGradient>
<linearGradient id="paint6_linear_193_4485" x1="120.782" y1="13.3872" x2="120.782" y2="319.759" gradientUnits="userSpaceOnUse">
<stop stop-color="#753EC8" stop-opacity="0.5"/>
<stop offset="0.33" stop-color="#3742F5"/>
</linearGradient>
<linearGradient id="paint7_linear_193_4485" x1="198.009" y1="13.3872" x2="198.009" y2="319.759" gradientUnits="userSpaceOnUse">
<stop stop-color="#753EC8" stop-opacity="0.5"/>
<stop offset="0.34" stop-color="#D6357F"/>
</linearGradient>
</defs>
</svg>
