<svg width="1504" height="1380" viewBox="0 0 1504 1380" fill="none" xmlns="http://www.w3.org/2000/svg">
<path d="M1094.97 227.895C1318.74 387.85 1391.35 683.592 1273.75 933.054M1220.42 1023.71C1050.84 1259.68 724.972 1332.67 466.449 1183.47C191.161 1024.61 95.9644 673.676 253.957 400.146C391.456 162.095 675.633 60.7344 928.501 143.166M939.664 857.604C861.202 941.987 732.12 964.311 628.119 904.293C507.254 834.542 465.806 679.865 535.601 559.03C587.065 469.932 684.711 423.99 780.908 433.965M929.212 502.529C1003.48 573.333 1028.17 683.863 988.88 780.378M624.9 621.566L532.709 568.363M482.292 539.268L384.948 485.011M341.969 458.288C341.969 458.288 259.017 410.417 257.577 409.586M562.367 926.94C444.554 833.475 409.783 665.227 487.242 531.123C562.01 401.679 717.598 347.409 855.8 393.944C860.457 395.513 862.461 400.941 860.059 405.227L751.927 598.177C751.795 598.412 751.449 598.385 751.356 598.133V598.133C751.309 598.008 751.189 597.926 751.055 597.928C721.579 598.384 693.662 614.072 677.991 641.203C653.584 683.458 668.078 737.547 710.343 761.938C752.609 786.33 806.72 771.832 831.127 729.577C854.142 689.73 842.565 639.358 806.414 614.052C802.774 611.504 801.406 606.611 803.63 602.764L1091.42 104.85C1093.61 101.069 1092.36 96.229 1088.59 94.0264C1010.2 48.247 927.661 20.819 842.021 11.1567C576.132 -24.7493 297.016 113.12 165.874 347.542C113.303 438.261 82.0095 541.167 75.6098 645.828C56.0313 911.203 207.77 1179.2 446.715 1297.18C686.21 1423.61 998.575 1385.74 1202.1 1207.51C1403.69 1038.57 1490.19 747.82 1412.81 496.389C1371.92 350.092 1277.86 222.42 1155.49 134.234C1151.67 131.486 1146.33 132.671 1143.99 136.743L1045.39 307.76C1043.39 311.221 1044.27 315.628 1047.39 318.123C1225.68 460.764 1279.82 715.563 1161.58 920.278C1042.06 1127.19 788.553 1208.9 573.707 1119.14M992.521 488.698C1072.27 585.201 1088.14 724.924 1021.87 839.656C946.22 970.636 788.814 1025.22 651.186 976.218M481.049 1067.57C286.42 928.705 225.507 661.774 347.54 450.501C458.125 259.047 683.425 174.788 886.671 234.369M316.963 393.937C458.369 181.403 727.195 104.518 959.001 205.621M1111.32 299.014C1288.16 461.964 1335.22 731.29 1209.94 948.186C1064.78 1199.49 742.963 1285.72 491.595 1140.65C255.854 1004.61 165.381 713.215 274.775 470.221M394.729 1199.91C219.655 1076.94 113.515 861.047 128.906 647.256C134.6 551.265 163.185 456.929 211.352 373.811C331.494 159.019 587.85 33.0589 832.359 66.4728C872.135 71.0272 952.476 88.6999 1005.04 111.617C1009.32 113.482 1010.92 118.649 1008.59 122.696L907.85 298.086C907.658 298.42 907.158 298.356 907.056 297.984V297.984C907.02 297.854 906.925 297.747 906.8 297.697C716.419 220.832 494.803 293.458 389.955 474.979C274.777 674.385 343.911 930.064 544.271 1045.69C727.275 1151.3 956.77 1103.73 1082.92 942.749M1160.44 210.547C1253.8 289.136 1324.85 394.183 1357.93 512.532C1428.83 742.909 1349.57 1009.31 1164.86 1164.11C983.104 1323.27 706.614 1360.26 489.541 1254.78M963.223 324.132C1153.18 433.753 1224.27 670.485 1131.13 865.039M609.693 551.904C659.58 497.729 736.111 476.011 806.792 495.456M931.693 599.193C959.275 656.007 959.108 725.063 925.157 783.841C870.777 877.988 750.215 910.291 656.044 855.946C578.73 811.328 543.123 722.109 562.947 639.498M415.897 550.516C349.738 715.952 413.443 909.329 572.268 1000.99C746.521 1101.55 969.609 1041.77 1070.23 867.564C1159.24 713.477 1122.77 521.218 994.178 410.459C990.421 407.223 984.667 408.298 982.225 412.615L873.532 604.794C873.457 604.925 873.259 604.888 873.237 604.739V604.739C873.212 604.574 873.426 604.489 873.522 604.625C903.906 647.924 908.222 707.732 879.485 757.484C848.724 810.741 789.041 836.974 731.688 827.808M457.852 473.706C565.552 322.536 772.834 275.14 936.849 369.793M642.477 776.243C605.967 731.185 598.905 666.492 629.632 613.295C651.306 575.772 687.336 551.664 726.793 543.9M711.166 762.814L655.446 856.93M628.82 905.379L574.979 1003.29M1294.92 1010.08L1206.47 956.321M1156.4 930.142L1067.94 876.378M1013.8 847.848L925.339 794.084M549.914 1050.65L495.845 1144.26M470.891 1187.46L416.822 1281.07" stroke="url(#paint0_linear_194_6021)" stroke-width="3"/>
<path d="M480.236 488.074C573.457 363.1 739.56 316.29 883.864 373.012C892.588 376.441 895.989 386.818 891.411 394.997L785.398 584.413" stroke="#3742F5" stroke-width="5"/>
<path d="M434.427 452.797C543.405 302.099 744.022 247.882 914.228 322.772C921.911 326.152 931.01 323.399 935.208 316.131L988.125 224.516" stroke="#3742F5" stroke-width="5"/>
<path d="M387.905 1226.62C105.487 1036.39 15.4284 657.273 188.328 357.933C361.316 58.4392 736.043 -52.2222 1042.17 97.492C1050.35 101.493 1053.32 111.621 1048.76 119.507L983.968 231.686" stroke="url(#paint1_linear_194_6021)" stroke-width="5"/>
<path d="M416.465 1184.4C428.304 1191.69 431.919 1207.31 424.54 1219.27C417.161 1231.24 401.582 1235.03 389.744 1227.74L386.948 1226.02" stroke="#262C85" stroke-width="5"/>
<path d="M417.596 1183.08C157.782 1008.08 74.4123 659.378 233.474 383.997C384.611 122.333 703.139 17.351 976.028 125.427" stroke="url(#paint2_linear_194_6021)" stroke-width="5"/>
<path d="M482.368 484.692C474.566 498.2 457.096 502.72 443.349 494.787C429.602 486.854 424.783 469.471 432.586 455.963L434.429 452.772" stroke="#3742F5" stroke-width="5"/>
<g filter="url(#filter0_d_194_6021)">
<ellipse cx="22.99" cy="22.9899" rx="22.99" ry="22.9899" transform="matrix(-0.866123 -0.499831 0.500169 -0.865928 793.3 615.929)" fill="#3742F5"/>
</g>
<g filter="url(#filter1_d_194_6021)">
<ellipse cx="15.1253" cy="15.1252" rx="15.1253" ry="15.1252" transform="matrix(-0.866123 -0.499831 0.500169 -0.865928 790.422 605.187)" fill="url(#paint3_radial_194_6021)"/>
</g>
<ellipse cx="146.875" cy="147.499" rx="146.875" ry="147.499" transform="matrix(1.00015 -8.45566e-05 -8.46202e-05 0.999853 609.145 537.831)" fill="#141414"/>
<g filter="url(#filter2_d_194_6021)">
<ellipse cx="22.9903" cy="22.9897" rx="22.9903" ry="22.9897" transform="matrix(-0.866121 -0.499834 0.500166 -0.865929 818.849 576.339)" fill="#3742F5"/>
</g>
<g filter="url(#filter3_d_194_6021)">
<ellipse cx="15.1254" cy="15.125" rx="15.1254" ry="15.125" transform="matrix(-0.866121 -0.499834 0.500166 -0.865929 815.97 565.598)" fill="url(#paint4_radial_194_6021)"/>
</g>
<rect x="0.000119627" y="-1.41394" width="97.815" height="132.874" rx="15" transform="matrix(-0.707185 -0.706909 0.707305 -0.707028 776.518 769.839)" fill="url(#paint5_linear_194_6021)" fill-opacity="0.6" stroke="url(#paint6_linear_194_6021)" stroke-width="2"/>
<rect x="0.000119627" y="-1.41394" width="97.815" height="132.874" rx="15" transform="matrix(-0.707185 -0.706909 0.707305 -0.707028 727.974 769.839)" fill="url(#paint7_linear_194_6021)" fill-opacity="0.6" stroke="url(#paint8_linear_194_6021)" stroke-width="2"/>
<mask id="path-15-inside-1_194_6021" fill="white">
<path d="M785.919 540.898C749.688 533.344 711.949 539.798 680.248 558.97C648.547 578.141 625.219 608.617 614.927 644.305C604.636 679.993 608.139 718.263 624.737 751.466C641.335 784.668 669.805 810.356 704.455 823.394C739.104 836.431 777.381 835.859 811.633 821.79C845.885 807.721 873.588 781.192 889.205 747.508C904.821 713.823 907.199 675.465 895.865 640.1C884.53 604.736 860.318 574.972 828.068 556.757L826.031 560.392C857.369 578.092 880.897 607.014 891.91 641.379C902.924 675.743 900.613 713.017 885.438 745.749C870.264 778.481 843.344 804.259 810.061 817.93C776.777 831.601 739.583 832.157 705.913 819.488C672.243 806.819 644.579 781.858 628.45 749.594C612.321 717.331 608.917 680.143 618.917 645.464C628.918 610.785 651.586 581.171 682.391 562.542C713.196 543.913 749.867 537.642 785.074 544.981L785.919 540.898Z"/>
</mask>
<path d="M785.919 540.898C749.688 533.344 711.949 539.798 680.248 558.97C648.547 578.141 625.219 608.617 614.927 644.305C604.636 679.993 608.139 718.263 624.737 751.466C641.335 784.668 669.805 810.356 704.455 823.394C739.104 836.431 777.381 835.859 811.633 821.79C845.885 807.721 873.588 781.192 889.205 747.508C904.821 713.823 907.199 675.465 895.865 640.1C884.53 604.736 860.318 574.972 828.068 556.757L826.031 560.392C857.369 578.092 880.897 607.014 891.91 641.379C902.924 675.743 900.613 713.017 885.438 745.749C870.264 778.481 843.344 804.259 810.061 817.93C776.777 831.601 739.583 832.157 705.913 819.488C672.243 806.819 644.579 781.858 628.45 749.594C612.321 717.331 608.917 680.143 618.917 645.464C628.918 610.785 651.586 581.171 682.391 562.542C713.196 543.913 749.867 537.642 785.074 544.981L785.919 540.898Z" fill="#141414" stroke="url(#paint9_linear_194_6021)" stroke-width="6" mask="url(#path-15-inside-1_194_6021)"/>
<defs>
<filter id="filter0_d_194_6021" x="729.889" y="529.54" width="109.995" height="109.979" filterUnits="userSpaceOnUse" color-interpolation-filters="sRGB">
<feFlood flood-opacity="0" result="BackgroundImageFix"/>
<feColorMatrix in="SourceAlpha" type="matrix" values="0 0 0 0 0 0 0 0 0 0 0 0 0 0 0 0 0 0 127 0" result="hardAlpha"/>
<feOffset/>
<feGaussianBlur stdDeviation="16"/>
<feComposite in2="hardAlpha" operator="out"/>
<feColorMatrix type="matrix" values="0 0 0 0 0.215686 0 0 0 0 0.258824 0 0 0 0 0.960784 0 0 0 1 0"/>
<feBlend mode="normal" in2="BackgroundImageFix" result="effect1_dropShadow_194_6021"/>
<feBlend mode="normal" in="SourceGraphic" in2="effect1_dropShadow_194_6021" result="shape"/>
</filter>
<filter id="filter1_d_194_6021" x="737.757" y="537.404" width="94.2598" height="94.25" filterUnits="userSpaceOnUse" color-interpolation-filters="sRGB">
<feFlood flood-opacity="0" result="BackgroundImageFix"/>
<feColorMatrix in="SourceAlpha" type="matrix" values="0 0 0 0 0 0 0 0 0 0 0 0 0 0 0 0 0 0 127 0" result="hardAlpha"/>
<feOffset/>
<feGaussianBlur stdDeviation="16"/>
<feComposite in2="hardAlpha" operator="out"/>
<feColorMatrix type="matrix" values="0 0 0 0 0.215686 0 0 0 0 0.258824 0 0 0 0 0.960784 0 0 0 1 0"/>
<feBlend mode="normal" in2="BackgroundImageFix" result="effect1_dropShadow_194_6021"/>
<feBlend mode="normal" in="SourceGraphic" in2="effect1_dropShadow_194_6021" result="shape"/>
</filter>
<filter id="filter2_d_194_6021" x="755.438" y="489.95" width="109.995" height="109.979" filterUnits="userSpaceOnUse" color-interpolation-filters="sRGB">
<feFlood flood-opacity="0" result="BackgroundImageFix"/>
<feColorMatrix in="SourceAlpha" type="matrix" values="0 0 0 0 0 0 0 0 0 0 0 0 0 0 0 0 0 0 127 0" result="hardAlpha"/>
<feOffset/>
<feGaussianBlur stdDeviation="16"/>
<feComposite in2="hardAlpha" operator="out"/>
<feColorMatrix type="matrix" values="0 0 0 0 0.215686 0 0 0 0 0.258824 0 0 0 0 0.960784 0 0 0 1 0"/>
<feBlend mode="normal" in2="BackgroundImageFix" result="effect1_dropShadow_194_6021"/>
<feBlend mode="normal" in="SourceGraphic" in2="effect1_dropShadow_194_6021" result="shape"/>
</filter>
<filter id="filter3_d_194_6021" x="763.304" y="497.815" width="94.2607" height="94.25" filterUnits="userSpaceOnUse" color-interpolation-filters="sRGB">
<feFlood flood-opacity="0" result="BackgroundImageFix"/>
<feColorMatrix in="SourceAlpha" type="matrix" values="0 0 0 0 0 0 0 0 0 0 0 0 0 0 0 0 0 0 127 0" result="hardAlpha"/>
<feOffset/>
<feGaussianBlur stdDeviation="16"/>
<feComposite in2="hardAlpha" operator="out"/>
<feColorMatrix type="matrix" values="0 0 0 0 0.215686 0 0 0 0 0.258824 0 0 0 0 0.960784 0 0 0 1 0"/>
<feBlend mode="normal" in2="BackgroundImageFix" result="effect1_dropShadow_194_6021"/>
<feBlend mode="normal" in="SourceGraphic" in2="effect1_dropShadow_194_6021" result="shape"/>
</filter>
<linearGradient id="paint0_linear_194_6021" x1="415.672" y1="1280.76" x2="1097.55" y2="99.1889" gradientUnits="userSpaceOnUse">
<stop stop-color="#3742F5" stop-opacity="0"/>
<stop offset="0.432292" stop-color="#3742F5" stop-opacity="0.5"/>
<stop offset="0.6875" stop-color="#D6357F"/>
<stop offset="1" stop-color="#D6357F" stop-opacity="0.2"/>
</linearGradient>
<linearGradient id="paint1_linear_194_6021" x1="786.099" y1="-51.3647" x2="133.354" y2="1079.72" gradientUnits="userSpaceOnUse">
<stop stop-color="#3742F5"/>
<stop offset="1" stop-color="#3742F5" stop-opacity="0.5"/>
</linearGradient>
<linearGradient id="paint2_linear_194_6021" x1="783.4" y1="7.45749" x2="182.899" y2="1048.01" gradientUnits="userSpaceOnUse">
<stop stop-color="#262C85" stop-opacity="0"/>
<stop offset="1" stop-color="#262C85"/>
</linearGradient>
<radialGradient id="paint3_radial_194_6021" cx="0" cy="0" r="1" gradientUnits="userSpaceOnUse" gradientTransform="translate(15.1253 15.1252) rotate(-90) scale(15.1252 15.1253)">
<stop offset="0.33" stop-color="white"/>
<stop offset="1" stop-color="#3843F5"/>
</radialGradient>
<radialGradient id="paint4_radial_194_6021" cx="0" cy="0" r="1" gradientUnits="userSpaceOnUse" gradientTransform="translate(15.1254 15.125) rotate(-90) scale(15.125 15.1254)">
<stop offset="0.33" stop-color="white"/>
<stop offset="1" stop-color="#3843F5"/>
</radialGradient>
<linearGradient id="paint5_linear_194_6021" x1="49.9075" y1="0" x2="49.9075" y2="134.874" gradientUnits="userSpaceOnUse">
<stop offset="1" stop-color="#D6357F" stop-opacity="0"/>
<stop stop-color="#D6357F"/>
</linearGradient>
<linearGradient id="paint6_linear_194_6021" x1="49.9075" y1="0" x2="49.9075" y2="134.874" gradientUnits="userSpaceOnUse">
<stop stop-color="#D6357F" stop-opacity="0.2"/>
<stop offset="0.567708" stop-color="#D6357F"/>
<stop offset="1" stop-color="#D6357F" stop-opacity="0.24"/>
</linearGradient>
<linearGradient id="paint7_linear_194_6021" x1="49.9075" y1="0" x2="49.9075" y2="134.874" gradientUnits="userSpaceOnUse">
<stop stop-color="#3742F5"/>
<stop offset="1" stop-color="#3742F5" stop-opacity="0"/>
</linearGradient>
<linearGradient id="paint8_linear_194_6021" x1="49.9075" y1="0" x2="49.9075" y2="134.874" gradientUnits="userSpaceOnUse">
<stop stop-color="#3742F5" stop-opacity="0.24"/>
<stop offset="0.432292" stop-color="#3742F5"/>
<stop offset="1" stop-color="#3742F5" stop-opacity="0.24"/>
</linearGradient>
<linearGradient id="paint9_linear_194_6021" x1="807.773" y1="547.39" x2="680.123" y2="808.572" gradientUnits="userSpaceOnUse">
<stop stop-color="#8E3591"/>
<stop offset="0.48" stop-color="#432F8E"/>
<stop offset="1" stop-color="#242979"/>
</linearGradient>
</defs>
</svg>
