<svg width="2341" height="1380" viewBox="0 0 2341 1380" fill="none" xmlns="http://www.w3.org/2000/svg">
<path d="M1842.97 227.895C2066.74 387.85 2139.35 683.592 2021.75 933.054M1968.42 1023.71C1798.84 1259.68 1472.97 1332.67 1214.45 1183.47C939.161 1024.61 843.964 673.676 1001.96 400.146C1139.46 162.095 1423.63 60.7344 1676.5 143.166M1687.66 857.604C1609.2 941.987 1480.12 964.311 1376.12 904.293C1255.25 834.542 1213.81 679.865 1283.6 559.03C1335.06 469.932 1432.71 423.99 1528.91 433.965M1677.21 502.529C1751.48 573.333 1776.17 683.863 1736.88 780.378M1372.9 621.566L1280.71 568.363M1230.29 539.268L1132.95 485.011M1089.97 458.288C1089.97 458.288 1007.02 410.417 1005.58 409.586M1310.37 926.94C1192.55 833.475 1157.78 665.227 1235.24 531.123C1310.01 401.679 1465.6 347.409 1603.8 393.944C1608.46 395.513 1610.46 400.941 1608.06 405.227L1499.93 598.177C1499.8 598.412 1499.45 598.385 1499.36 598.133V598.133C1499.31 598.008 1499.19 597.926 1499.06 597.928C1469.58 598.384 1441.66 614.072 1425.99 641.203C1401.58 683.458 1416.08 737.547 1458.34 761.938C1500.61 786.33 1554.72 771.832 1579.13 729.577C1602.14 689.73 1590.56 639.358 1554.41 614.052C1550.77 611.504 1549.41 606.611 1551.63 602.764L1839.42 104.85C1841.61 101.069 1840.36 96.229 1836.59 94.0264C1758.2 48.247 1675.66 20.819 1590.02 11.1567C1324.13 -24.7493 1045.02 113.12 913.874 347.542C861.303 438.261 830.01 541.167 823.61 645.828C804.031 911.203 955.77 1179.2 1194.72 1297.18C1434.21 1423.61 1746.57 1385.74 1950.1 1207.51C2151.69 1038.57 2238.19 747.82 2160.81 496.389C2119.92 350.092 2025.86 222.42 1903.49 134.234C1899.67 131.486 1894.33 132.671 1891.99 136.743L1793.39 307.76C1791.39 311.221 1792.27 315.628 1795.39 318.123C1973.68 460.764 2027.82 715.563 1909.58 920.278C1790.06 1127.19 1536.55 1208.9 1321.71 1119.14M1740.52 488.698C1820.27 585.201 1836.14 724.924 1769.87 839.656C1694.22 970.636 1536.81 1025.22 1399.19 976.218M1229.05 1067.57C1034.42 928.705 973.507 661.774 1095.54 450.501C1206.12 259.047 1431.42 174.788 1634.67 234.369M1064.96 393.937C1206.37 181.403 1475.19 104.518 1707 205.621M1859.32 299.014C2036.16 461.964 2083.22 731.29 1957.94 948.186C1812.78 1199.49 1490.96 1285.72 1239.59 1140.65C1003.85 1004.61 913.381 713.215 1022.78 470.221M1142.73 1199.91C967.655 1076.94 861.515 861.047 876.906 647.256C882.6 551.265 911.185 456.929 959.352 373.811C1079.49 159.019 1335.85 33.0589 1580.36 66.4728C1620.13 71.0272 1700.48 88.6999 1753.04 111.617C1757.32 113.482 1758.92 118.649 1756.59 122.696L1655.85 298.086C1655.66 298.42 1655.16 298.356 1655.06 297.984V297.984C1655.02 297.854 1654.93 297.747 1654.8 297.697C1464.42 220.832 1242.8 293.458 1137.96 474.979C1022.78 674.385 1091.91 930.064 1292.27 1045.69C1475.28 1151.3 1704.77 1103.73 1830.92 942.749M1908.44 210.547C2001.8 289.136 2072.85 394.183 2105.93 512.532C2176.83 742.909 2097.57 1009.31 1912.86 1164.11C1731.1 1323.27 1454.61 1360.26 1237.54 1254.78M1711.22 324.132C1901.18 433.753 1972.27 670.485 1879.13 865.039M1357.69 551.904C1407.58 497.729 1484.11 476.011 1554.79 495.456M1679.69 599.193C1707.28 656.007 1707.11 725.063 1673.16 783.841C1618.78 877.988 1498.21 910.291 1404.04 855.946C1326.73 811.328 1291.12 722.109 1310.95 639.498M1163.9 550.516C1097.74 715.952 1161.44 909.329 1320.27 1000.99C1494.52 1101.55 1717.61 1041.77 1818.23 867.564C1907.24 713.477 1870.77 521.218 1742.18 410.459C1738.42 407.223 1732.67 408.298 1730.23 412.615L1621.53 604.794C1621.46 604.925 1621.26 604.888 1621.24 604.739V604.739C1621.21 604.574 1621.43 604.489 1621.52 604.625C1651.91 647.924 1656.22 707.732 1627.49 757.484C1596.72 810.741 1537.04 836.974 1479.69 827.808M1205.85 473.706C1313.55 322.536 1520.83 275.14 1684.85 369.793M1390.48 776.243C1353.97 731.185 1346.91 666.492 1377.63 613.295C1399.31 575.772 1435.34 551.664 1474.79 543.9M1459.17 762.814L1403.45 856.93M1376.82 905.379L1322.98 1003.29M2042.92 1010.08L1954.47 956.321M1904.4 930.142L1815.94 876.378M1761.8 847.848L1673.34 794.084M1297.91 1050.65L1243.85 1144.26M1218.89 1187.46L1164.82 1281.07" stroke="url(#paint0_linear_193_2124)" stroke-width="3"/>
<path d="M1228.24 488.074C1321.46 363.1 1487.56 316.29 1631.86 373.012C1640.59 376.441 1643.99 386.818 1639.41 394.997L1533.4 584.413" stroke="#3742F5" stroke-width="5"/>
<path d="M1182.43 452.797C1291.4 302.099 1492.02 247.882 1662.23 322.772C1669.91 326.152 1679.01 323.399 1683.21 316.131L1736.12 224.516" stroke="#3742F5" stroke-width="5"/>
<path d="M1135.9 1226.62C853.486 1036.39 763.427 657.273 936.327 357.933C1109.32 58.4392 1484.04 -52.2222 1790.17 97.492C1798.35 101.493 1801.32 111.621 1796.76 119.507L1731.97 231.686" stroke="url(#paint1_linear_193_2124)" stroke-width="5"/>
<path d="M1164.46 1184.4C1176.3 1191.69 1179.92 1207.31 1172.54 1219.27C1165.16 1231.24 1149.58 1235.03 1137.74 1227.74L1134.95 1226.02" stroke="#262C85" stroke-width="5"/>
<path d="M1165.59 1183.08C905.781 1008.08 822.411 659.378 981.473 383.997C1132.61 122.333 1451.14 17.351 1724.03 125.427" stroke="url(#paint2_linear_193_2124)" stroke-width="5"/>
<path d="M1230.37 484.692C1222.56 498.2 1205.1 502.72 1191.35 494.787C1177.6 486.854 1172.78 469.471 1180.59 455.963L1182.43 452.772" stroke="#3742F5" stroke-width="5"/>
<g filter="url(#filter0_d_193_2124)">
<ellipse cx="22.99" cy="22.9899" rx="22.99" ry="22.9899" transform="matrix(-0.866123 -0.499831 0.500169 -0.865928 1541.3 615.929)" fill="#3742F5"/>
</g>
<g filter="url(#filter1_d_193_2124)">
<ellipse cx="15.1253" cy="15.1252" rx="15.1253" ry="15.1252" transform="matrix(-0.866123 -0.499831 0.500169 -0.865928 1538.42 605.187)" fill="url(#paint3_radial_193_2124)"/>
</g>
<ellipse cx="146.875" cy="147.499" rx="146.875" ry="147.499" transform="matrix(1.00015 -8.45566e-05 -8.46202e-05 0.999853 1357.14 537.831)" fill="#141414"/>
<g filter="url(#filter2_d_193_2124)">
<ellipse cx="22.9903" cy="22.9897" rx="22.9903" ry="22.9897" transform="matrix(-0.866121 -0.499834 0.500166 -0.865929 1566.85 576.339)" fill="#3742F5"/>
</g>
<g filter="url(#filter3_d_193_2124)">
<ellipse cx="15.1254" cy="15.125" rx="15.1254" ry="15.125" transform="matrix(-0.866121 -0.499834 0.500166 -0.865929 1563.97 565.598)" fill="url(#paint4_radial_193_2124)"/>
</g>
<rect x="0.000119627" y="-1.41394" width="97.815" height="132.874" rx="15" transform="matrix(-0.707185 -0.706909 0.707305 -0.707028 1524.52 769.839)" fill="url(#paint5_linear_193_2124)" fill-opacity="0.6" stroke="url(#paint6_linear_193_2124)" stroke-width="2"/>
<rect x="0.000119627" y="-1.41394" width="97.815" height="132.874" rx="15" transform="matrix(-0.707185 -0.706909 0.707305 -0.707028 1475.97 769.839)" fill="url(#paint7_linear_193_2124)" fill-opacity="0.6" stroke="url(#paint8_linear_193_2124)" stroke-width="2"/>
<mask id="path-15-inside-1_193_2124" fill="white">
<path d="M1533.92 540.898C1497.69 533.344 1459.95 539.798 1428.25 558.97C1396.55 578.141 1373.22 608.617 1362.93 644.305C1352.64 679.993 1356.14 718.263 1372.74 751.466C1389.34 784.668 1417.8 810.356 1452.45 823.394C1487.1 836.431 1525.38 835.859 1559.63 821.79C1593.89 807.721 1621.59 781.192 1637.2 747.508C1652.82 713.823 1655.2 675.465 1643.86 640.1C1632.53 604.736 1608.32 574.972 1576.07 556.757L1574.03 560.392C1605.37 578.092 1628.9 607.014 1639.91 641.379C1650.92 675.743 1648.61 713.017 1633.44 745.749C1618.26 778.481 1591.34 804.259 1558.06 817.93C1524.78 831.601 1487.58 832.157 1453.91 819.488C1420.24 806.819 1392.58 781.858 1376.45 749.594C1360.32 717.331 1356.92 680.143 1366.92 645.464C1376.92 610.785 1399.59 581.171 1430.39 562.542C1461.2 543.913 1497.87 537.642 1533.07 544.981L1533.92 540.898Z"/>
</mask>
<path d="M1533.92 540.898C1497.69 533.344 1459.95 539.798 1428.25 558.97C1396.55 578.141 1373.22 608.617 1362.93 644.305C1352.64 679.993 1356.14 718.263 1372.74 751.466C1389.34 784.668 1417.8 810.356 1452.45 823.394C1487.1 836.431 1525.38 835.859 1559.63 821.79C1593.89 807.721 1621.59 781.192 1637.2 747.508C1652.82 713.823 1655.2 675.465 1643.86 640.1C1632.53 604.736 1608.32 574.972 1576.07 556.757L1574.03 560.392C1605.37 578.092 1628.9 607.014 1639.91 641.379C1650.92 675.743 1648.61 713.017 1633.44 745.749C1618.26 778.481 1591.34 804.259 1558.06 817.93C1524.78 831.601 1487.58 832.157 1453.91 819.488C1420.24 806.819 1392.58 781.858 1376.45 749.594C1360.32 717.331 1356.92 680.143 1366.92 645.464C1376.92 610.785 1399.59 581.171 1430.39 562.542C1461.2 543.913 1497.87 537.642 1533.07 544.981L1533.92 540.898Z" fill="#141414" stroke="url(#paint9_linear_193_2124)" stroke-width="6" mask="url(#path-15-inside-1_193_2124)"/>
<defs>
<filter id="filter0_d_193_2124" x="1477.89" y="529.54" width="109.995" height="109.979" filterUnits="userSpaceOnUse" color-interpolation-filters="sRGB">
<feFlood flood-opacity="0" result="BackgroundImageFix"/>
<feColorMatrix in="SourceAlpha" type="matrix" values="0 0 0 0 0 0 0 0 0 0 0 0 0 0 0 0 0 0 127 0" result="hardAlpha"/>
<feOffset/>
<feGaussianBlur stdDeviation="16"/>
<feComposite in2="hardAlpha" operator="out"/>
<feColorMatrix type="matrix" values="0 0 0 0 0.215686 0 0 0 0 0.258824 0 0 0 0 0.960784 0 0 0 1 0"/>
<feBlend mode="normal" in2="BackgroundImageFix" result="effect1_dropShadow_193_2124"/>
<feBlend mode="normal" in="SourceGraphic" in2="effect1_dropShadow_193_2124" result="shape"/>
</filter>
<filter id="filter1_d_193_2124" x="1485.76" y="537.404" width="94.2598" height="94.25" filterUnits="userSpaceOnUse" color-interpolation-filters="sRGB">
<feFlood flood-opacity="0" result="BackgroundImageFix"/>
<feColorMatrix in="SourceAlpha" type="matrix" values="0 0 0 0 0 0 0 0 0 0 0 0 0 0 0 0 0 0 127 0" result="hardAlpha"/>
<feOffset/>
<feGaussianBlur stdDeviation="16"/>
<feComposite in2="hardAlpha" operator="out"/>
<feColorMatrix type="matrix" values="0 0 0 0 0.215686 0 0 0 0 0.258824 0 0 0 0 0.960784 0 0 0 1 0"/>
<feBlend mode="normal" in2="BackgroundImageFix" result="effect1_dropShadow_193_2124"/>
<feBlend mode="normal" in="SourceGraphic" in2="effect1_dropShadow_193_2124" result="shape"/>
</filter>
<filter id="filter2_d_193_2124" x="1503.44" y="489.95" width="109.995" height="109.979" filterUnits="userSpaceOnUse" color-interpolation-filters="sRGB">
<feFlood flood-opacity="0" result="BackgroundImageFix"/>
<feColorMatrix in="SourceAlpha" type="matrix" values="0 0 0 0 0 0 0 0 0 0 0 0 0 0 0 0 0 0 127 0" result="hardAlpha"/>
<feOffset/>
<feGaussianBlur stdDeviation="16"/>
<feComposite in2="hardAlpha" operator="out"/>
<feColorMatrix type="matrix" values="0 0 0 0 0.215686 0 0 0 0 0.258824 0 0 0 0 0.960784 0 0 0 1 0"/>
<feBlend mode="normal" in2="BackgroundImageFix" result="effect1_dropShadow_193_2124"/>
<feBlend mode="normal" in="SourceGraphic" in2="effect1_dropShadow_193_2124" result="shape"/>
</filter>
<filter id="filter3_d_193_2124" x="1511.3" y="497.815" width="94.2607" height="94.25" filterUnits="userSpaceOnUse" color-interpolation-filters="sRGB">
<feFlood flood-opacity="0" result="BackgroundImageFix"/>
<feColorMatrix in="SourceAlpha" type="matrix" values="0 0 0 0 0 0 0 0 0 0 0 0 0 0 0 0 0 0 127 0" result="hardAlpha"/>
<feOffset/>
<feGaussianBlur stdDeviation="16"/>
<feComposite in2="hardAlpha" operator="out"/>
<feColorMatrix type="matrix" values="0 0 0 0 0.215686 0 0 0 0 0.258824 0 0 0 0 0.960784 0 0 0 1 0"/>
<feBlend mode="normal" in2="BackgroundImageFix" result="effect1_dropShadow_193_2124"/>
<feBlend mode="normal" in="SourceGraphic" in2="effect1_dropShadow_193_2124" result="shape"/>
</filter>
<linearGradient id="paint0_linear_193_2124" x1="1163.67" y1="1280.76" x2="1845.55" y2="99.1889" gradientUnits="userSpaceOnUse">
<stop stop-color="#3742F5" stop-opacity="0"/>
<stop offset="0.432292" stop-color="#3742F5" stop-opacity="0.5"/>
<stop offset="0.6875" stop-color="#D6357F"/>
<stop offset="1" stop-color="#D6357F" stop-opacity="0.2"/>
</linearGradient>
<linearGradient id="paint1_linear_193_2124" x1="1534.1" y1="-51.3647" x2="881.353" y2="1079.72" gradientUnits="userSpaceOnUse">
<stop stop-color="#3742F5"/>
<stop offset="1" stop-color="#3742F5" stop-opacity="0.5"/>
</linearGradient>
<linearGradient id="paint2_linear_193_2124" x1="1531.4" y1="7.45749" x2="930.898" y2="1048.01" gradientUnits="userSpaceOnUse">
<stop stop-color="#262C85" stop-opacity="0"/>
<stop offset="1" stop-color="#262C85"/>
</linearGradient>
<radialGradient id="paint3_radial_193_2124" cx="0" cy="0" r="1" gradientUnits="userSpaceOnUse" gradientTransform="translate(15.1253 15.1252) rotate(-90) scale(15.1252 15.1253)">
<stop offset="0.33" stop-color="white"/>
<stop offset="1" stop-color="#3843F5"/>
</radialGradient>
<radialGradient id="paint4_radial_193_2124" cx="0" cy="0" r="1" gradientUnits="userSpaceOnUse" gradientTransform="translate(15.1254 15.125) rotate(-90) scale(15.125 15.1254)">
<stop offset="0.33" stop-color="white"/>
<stop offset="1" stop-color="#3843F5"/>
</radialGradient>
<linearGradient id="paint5_linear_193_2124" x1="49.9075" y1="0" x2="49.9075" y2="134.874" gradientUnits="userSpaceOnUse">
<stop offset="1" stop-color="#D6357F" stop-opacity="0"/>
<stop stop-color="#D6357F"/>
</linearGradient>
<linearGradient id="paint6_linear_193_2124" x1="49.9075" y1="0" x2="49.9075" y2="134.874" gradientUnits="userSpaceOnUse">
<stop stop-color="#D6357F" stop-opacity="0.2"/>
<stop offset="0.567708" stop-color="#D6357F"/>
<stop offset="1" stop-color="#D6357F" stop-opacity="0.24"/>
</linearGradient>
<linearGradient id="paint7_linear_193_2124" x1="49.9075" y1="0" x2="49.9075" y2="134.874" gradientUnits="userSpaceOnUse">
<stop stop-color="#3742F5"/>
<stop offset="1" stop-color="#3742F5" stop-opacity="0"/>
</linearGradient>
<linearGradient id="paint8_linear_193_2124" x1="49.9075" y1="0" x2="49.9075" y2="134.874" gradientUnits="userSpaceOnUse">
<stop stop-color="#3742F5" stop-opacity="0.24"/>
<stop offset="0.432292" stop-color="#3742F5"/>
<stop offset="1" stop-color="#3742F5" stop-opacity="0.24"/>
</linearGradient>
<linearGradient id="paint9_linear_193_2124" x1="1555.77" y1="547.39" x2="1428.12" y2="808.572" gradientUnits="userSpaceOnUse">
<stop stop-color="#8E3591"/>
<stop offset="0.48" stop-color="#432F8E"/>
<stop offset="1" stop-color="#242979"/>
</linearGradient>
</defs>
</svg>
