<svg width="288" height="412" viewBox="0 0 288 412" fill="none" xmlns="http://www.w3.org/2000/svg">
<rect width="249" height="412" rx="32" fill="url(#paint0_linear_722_29401)"/>
<rect x="0.5" y="-0.5" width="129.995" height="176.006" rx="31.5" transform="matrix(1 0 0 -1 157.004 364.542)" stroke="url(#paint1_linear_722_29401)" stroke-opacity="0.4"/>
<rect x="0.5" y="-0.5" width="129.995" height="176.006" rx="31.5" transform="matrix(1 0 0 -1 136.435 343.431)" stroke="url(#paint2_linear_722_29401)" stroke-opacity="0.4"/>
<rect x="0.5" y="-0.5" width="129.995" height="176.006" rx="31.5" transform="matrix(1 0 0 -1 147.261 354.257)" stroke="url(#paint3_linear_722_29401)" stroke-opacity="0.4"/>
<rect x="0.5" y="-0.5" width="129.995" height="176.006" rx="31.5" transform="matrix(1 0 0 -1 125.068 332.063)" stroke="url(#paint4_linear_722_29401)" stroke-opacity="0.4"/>
<rect x="0.5" y="-0.5" width="129.995" height="176.006" rx="31.5" transform="matrix(1 0 0 -1 104.498 310.953)" stroke="url(#paint5_linear_722_29401)" stroke-opacity="0.4"/>
<rect x="0.5" y="-0.5" width="129.995" height="176.006" rx="31.5" transform="matrix(1 0 0 -1 115.324 321.779)" stroke="url(#paint6_linear_722_29401)" stroke-opacity="0.4"/>
<rect x="0.5" y="-0.5" width="129.995" height="176.006" rx="31.5" transform="matrix(1 0 0 -1 92.0483 300.668)" stroke="url(#paint7_linear_722_29401)" stroke-opacity="0.4"/>
<rect x="0.5" y="-0.5" width="129.995" height="176.006" rx="31.5" transform="matrix(1 0 0 -1 71.4785 279.558)" stroke="url(#paint8_linear_722_29401)" stroke-opacity="0.4"/>
<rect x="0.5" y="-0.5" width="129.995" height="176.006" rx="31.5" transform="matrix(1 0 0 -1 82.3052 290.384)" stroke="url(#paint9_linear_722_29401)" stroke-opacity="0.4"/>
<rect x="0.5" y="-0.5" width="129.995" height="176.006" rx="31.5" transform="matrix(1 0 0 -1 59.5703 265.483)" stroke="url(#paint10_linear_722_29401)" stroke-opacity="0.4"/>
<rect x="0.5" y="-0.5" width="129.995" height="176.006" rx="31.5" transform="matrix(1 0 0 -1 39 244.373)" stroke="url(#paint11_linear_722_29401)" stroke-opacity="0.4"/>
<rect x="0.5" y="-0.5" width="129.995" height="176.006" rx="31.5" transform="matrix(1 0 0 -1 49.8262 255.199)" stroke="url(#paint12_linear_722_29401)" stroke-opacity="0.4"/>
<defs>
<linearGradient id="paint0_linear_722_29401" x1="4.95797" y1="22.6789" x2="336.863" y2="123.902" gradientUnits="userSpaceOnUse">
<stop stop-color="#3742F5"/>
<stop offset="1" stop-color="#D6357F" stop-opacity="0"/>
</linearGradient>
<linearGradient id="paint1_linear_722_29401" x1="65.4976" y1="0" x2="65.4976" y2="177.006" gradientUnits="userSpaceOnUse">
<stop stop-color="white"/>
<stop offset="1" stop-color="white" stop-opacity="0"/>
</linearGradient>
<linearGradient id="paint2_linear_722_29401" x1="65.4976" y1="0" x2="65.4976" y2="177.006" gradientUnits="userSpaceOnUse">
<stop stop-color="white"/>
<stop offset="1" stop-color="white" stop-opacity="0"/>
</linearGradient>
<linearGradient id="paint3_linear_722_29401" x1="65.4976" y1="0" x2="65.4976" y2="177.006" gradientUnits="userSpaceOnUse">
<stop stop-color="white"/>
<stop offset="1" stop-color="white" stop-opacity="0"/>
</linearGradient>
<linearGradient id="paint4_linear_722_29401" x1="65.4976" y1="0" x2="65.4976" y2="177.006" gradientUnits="userSpaceOnUse">
<stop stop-color="white"/>
<stop offset="1" stop-color="white" stop-opacity="0"/>
</linearGradient>
<linearGradient id="paint5_linear_722_29401" x1="65.4976" y1="0" x2="65.4976" y2="177.006" gradientUnits="userSpaceOnUse">
<stop stop-color="white"/>
<stop offset="1" stop-color="white" stop-opacity="0"/>
</linearGradient>
<linearGradient id="paint6_linear_722_29401" x1="65.4976" y1="0" x2="65.4976" y2="177.006" gradientUnits="userSpaceOnUse">
<stop stop-color="white"/>
<stop offset="1" stop-color="white" stop-opacity="0"/>
</linearGradient>
<linearGradient id="paint7_linear_722_29401" x1="65.4976" y1="0" x2="65.4976" y2="177.006" gradientUnits="userSpaceOnUse">
<stop stop-color="white"/>
<stop offset="1" stop-color="white" stop-opacity="0"/>
</linearGradient>
<linearGradient id="paint8_linear_722_29401" x1="65.4976" y1="0" x2="65.4976" y2="177.006" gradientUnits="userSpaceOnUse">
<stop stop-color="white"/>
<stop offset="1" stop-color="white" stop-opacity="0"/>
</linearGradient>
<linearGradient id="paint9_linear_722_29401" x1="65.4976" y1="0" x2="65.4976" y2="177.006" gradientUnits="userSpaceOnUse">
<stop stop-color="white"/>
<stop offset="1" stop-color="white" stop-opacity="0"/>
</linearGradient>
<linearGradient id="paint10_linear_722_29401" x1="65.4976" y1="0" x2="65.4976" y2="177.006" gradientUnits="userSpaceOnUse">
<stop stop-color="white"/>
<stop offset="1" stop-color="white" stop-opacity="0"/>
</linearGradient>
<linearGradient id="paint11_linear_722_29401" x1="65.4976" y1="0" x2="65.4976" y2="177.006" gradientUnits="userSpaceOnUse">
<stop stop-color="white"/>
<stop offset="1" stop-color="white" stop-opacity="0"/>
</linearGradient>
<linearGradient id="paint12_linear_722_29401" x1="65.4976" y1="0" x2="65.4976" y2="177.006" gradientUnits="userSpaceOnUse">
<stop stop-color="white"/>
<stop offset="1" stop-color="white" stop-opacity="0"/>
</linearGradient>
</defs>
</svg>
