<svg width="288" height="412" viewBox="0 0 288 412" fill="none" xmlns="http://www.w3.org/2000/svg">
<rect width="249" height="412" rx="32" fill="url(#paint0_linear_722_29381)"/>
<rect x="0.5" y="-0.5" width="135.126" height="182.939" rx="31.5" transform="matrix(1 0 0 -1 151.874 359.815)" stroke="url(#paint1_linear_722_29381)"/>
<rect x="0.5" y="-0.5" width="135.126" height="182.939" rx="31.5" transform="matrix(1 0 0 -1 130.499 337.877)" stroke="url(#paint2_linear_722_29381)"/>
<rect x="0.5" y="-0.5" width="135.126" height="182.939" rx="31.5" transform="matrix(1 0 0 -1 141.749 349.127)" stroke="url(#paint3_linear_722_29381)"/>
<rect x="0.5" y="-0.5" width="135.126" height="182.939" rx="31.5" transform="matrix(1 0 0 -1 118.686 326.064)" stroke="url(#paint4_linear_722_29381)"/>
<rect x="0.5" y="-0.5" width="135.126" height="182.939" rx="31.5" transform="matrix(1 0 0 -1 97.3101 304.127)" stroke="url(#paint5_linear_722_29381)"/>
<rect x="0.5" y="-0.5" width="135.126" height="182.939" rx="31.5" transform="matrix(1 0 0 -1 108.56 315.377)" stroke="url(#paint6_linear_722_29381)"/>
<rect x="0.5" y="-0.5" width="135.126" height="182.939" rx="31.5" transform="matrix(1 0 0 -1 84.3735 293.44)" stroke="url(#paint7_linear_722_29381)"/>
<rect x="0.5" y="-0.5" width="135.126" height="182.939" rx="31.5" transform="matrix(1 0 0 -1 62.998 271.502)" stroke="url(#paint8_linear_722_29381)"/>
<rect x="0.5" y="-0.5" width="135.126" height="182.939" rx="31.5" transform="matrix(1 0 0 -1 74.2485 282.752)" stroke="url(#paint9_linear_722_29381)"/>
<rect x="0.5" y="-0.5" width="135.126" height="182.939" rx="31.5" transform="matrix(1 0 0 -1 50.623 256.876)" stroke="url(#paint10_linear_722_29381)"/>
<rect x="0.5" y="-0.5" width="135.126" height="182.939" rx="31.5" transform="matrix(1 0 0 -1 29.2471 234.939)" stroke="url(#paint11_linear_722_29381)"/>
<rect x="0.5" y="-0.5" width="135.126" height="182.939" rx="31.5" transform="matrix(1 0 0 -1 40.4976 246.189)" stroke="url(#paint12_linear_722_29381)"/>
<defs>
<linearGradient id="paint0_linear_722_29381" x1="4.95797" y1="22.6789" x2="336.863" y2="123.902" gradientUnits="userSpaceOnUse">
<stop stop-color="#3742F5"/>
<stop offset="1" stop-color="#D6357F" stop-opacity="0"/>
</linearGradient>
<linearGradient id="paint1_linear_722_29381" x1="68.063" y1="0" x2="68.063" y2="183.939" gradientUnits="userSpaceOnUse">
<stop stop-color="white" stop-opacity="0.03"/>
<stop offset="1" stop-color="white" stop-opacity="0.83"/>
</linearGradient>
<linearGradient id="paint2_linear_722_29381" x1="68.063" y1="0" x2="68.063" y2="183.939" gradientUnits="userSpaceOnUse">
<stop stop-color="white" stop-opacity="0.03"/>
<stop offset="1" stop-color="white" stop-opacity="0.83"/>
</linearGradient>
<linearGradient id="paint3_linear_722_29381" x1="68.063" y1="0" x2="68.063" y2="183.939" gradientUnits="userSpaceOnUse">
<stop stop-color="white" stop-opacity="0.03"/>
<stop offset="1" stop-color="white" stop-opacity="0.83"/>
</linearGradient>
<linearGradient id="paint4_linear_722_29381" x1="68.063" y1="0" x2="68.063" y2="183.939" gradientUnits="userSpaceOnUse">
<stop stop-color="white" stop-opacity="0.03"/>
<stop offset="1" stop-color="white" stop-opacity="0.83"/>
</linearGradient>
<linearGradient id="paint5_linear_722_29381" x1="68.063" y1="0" x2="68.063" y2="183.939" gradientUnits="userSpaceOnUse">
<stop stop-color="white" stop-opacity="0.03"/>
<stop offset="1" stop-color="white" stop-opacity="0.83"/>
</linearGradient>
<linearGradient id="paint6_linear_722_29381" x1="68.063" y1="0" x2="68.063" y2="183.939" gradientUnits="userSpaceOnUse">
<stop stop-color="white" stop-opacity="0.03"/>
<stop offset="1" stop-color="white" stop-opacity="0.83"/>
</linearGradient>
<linearGradient id="paint7_linear_722_29381" x1="68.063" y1="0" x2="68.063" y2="183.939" gradientUnits="userSpaceOnUse">
<stop stop-color="white" stop-opacity="0.03"/>
<stop offset="1" stop-color="white" stop-opacity="0.83"/>
</linearGradient>
<linearGradient id="paint8_linear_722_29381" x1="68.063" y1="0" x2="68.063" y2="183.939" gradientUnits="userSpaceOnUse">
<stop stop-color="white" stop-opacity="0.03"/>
<stop offset="1" stop-color="white" stop-opacity="0.83"/>
</linearGradient>
<linearGradient id="paint9_linear_722_29381" x1="68.063" y1="0" x2="68.063" y2="183.939" gradientUnits="userSpaceOnUse">
<stop stop-color="white" stop-opacity="0.03"/>
<stop offset="1" stop-color="white" stop-opacity="0.83"/>
</linearGradient>
<linearGradient id="paint10_linear_722_29381" x1="68.063" y1="0" x2="68.063" y2="183.939" gradientUnits="userSpaceOnUse">
<stop stop-color="white" stop-opacity="0.03"/>
<stop offset="1" stop-color="white" stop-opacity="0.83"/>
</linearGradient>
<linearGradient id="paint11_linear_722_29381" x1="68.063" y1="0" x2="68.063" y2="183.939" gradientUnits="userSpaceOnUse">
<stop stop-color="white" stop-opacity="0.03"/>
<stop offset="1" stop-color="white" stop-opacity="0.83"/>
</linearGradient>
<linearGradient id="paint12_linear_722_29381" x1="68.063" y1="0" x2="68.063" y2="183.939" gradientUnits="userSpaceOnUse">
<stop stop-color="white" stop-opacity="0.03"/>
<stop offset="1" stop-color="white" stop-opacity="0.83"/>
</linearGradient>
</defs>
</svg>
