<svg width="759" height="815" viewBox="0 0 759 815" fill="none" xmlns="http://www.w3.org/2000/svg">
<rect x="-0.707107" width="275.268" height="372.305" rx="31.5" transform="matrix(-0.707107 -0.707107 -0.707107 0.707107 637.49 194.851)" stroke="url(#paint0_linear_162_10304)"/>
<rect x="-0.707107" width="275.268" height="372.305" rx="31.5" transform="matrix(-0.707107 -0.707107 -0.707107 0.707107 636.683 257.008)" stroke="url(#paint1_linear_162_10304)"/>
<rect x="-0.707107" width="275.268" height="372.305" rx="31.5" transform="matrix(-0.707107 -0.707107 -0.707107 0.707107 636.683 224.719)" stroke="url(#paint2_linear_162_10304)"/>
<rect x="-0.707107" width="275.268" height="372.305" rx="31.5" transform="matrix(-0.707107 -0.707107 -0.707107 0.707107 636.683 290.912)" fill="url(#paint3_linear_162_10304)" fill-opacity="0.2" stroke="url(#paint4_linear_162_10304)"/>
<rect x="-0.707107" width="275.268" height="372.305" rx="31.5" transform="matrix(-0.707107 -0.707107 -0.707107 0.707107 635.876 353.07)" fill="url(#paint5_linear_162_10304)" fill-opacity="0.2" stroke="url(#paint6_linear_162_10304)"/>
<rect x="-0.707107" width="275.268" height="372.305" rx="31.5" transform="matrix(-0.707107 -0.707107 -0.707107 0.707107 635.876 320.78)" fill="url(#paint7_linear_162_10304)" fill-opacity="0.2" stroke="url(#paint8_linear_162_10304)"/>
<rect x="-0.707107" width="275.268" height="372.305" rx="31.5" transform="matrix(-0.707107 -0.707107 -0.707107 0.707107 639.105 386.974)" stroke="url(#paint9_linear_162_10304)"/>
<rect x="-0.707107" width="275.268" height="372.305" rx="31.5" transform="matrix(-0.707107 -0.707107 -0.707107 0.707107 638.298 449.131)" stroke="url(#paint10_linear_162_10304)"/>
<rect x="-0.707107" width="275.268" height="372.305" rx="31.5" transform="matrix(-0.707107 -0.707107 -0.707107 0.707107 638.298 416.841)" stroke="url(#paint11_linear_162_10304)"/>
<rect x="-0.707107" width="275.268" height="372.305" rx="31.5" transform="matrix(-0.707107 -0.707107 -0.707107 0.707107 635.069 487.878)" stroke="url(#paint12_linear_162_10304)"/>
<rect x="-0.707107" width="275.268" height="372.305" rx="31.5" transform="matrix(-0.707107 -0.707107 -0.707107 0.707107 634.261 550.035)" stroke="url(#paint13_linear_162_10304)"/>
<rect x="-0.707107" width="275.268" height="372.305" rx="31.5" transform="matrix(-0.707107 -0.707107 -0.707107 0.707107 634.261 517.746)" stroke="url(#paint14_linear_162_10304)"/>
<defs>
<linearGradient id="paint0_linear_162_10304" x1="138.134" y1="0" x2="138.134" y2="373.305" gradientUnits="userSpaceOnUse">
<stop stop-color="#3742F5" stop-opacity="0.24"/>
<stop offset="0.432292" stop-color="#3742F5"/>
<stop offset="0.6875" stop-color="#D6357F"/>
<stop offset="1" stop-color="#D6357F" stop-opacity="0.2"/>
</linearGradient>
<linearGradient id="paint1_linear_162_10304" x1="138.134" y1="0" x2="138.134" y2="373.305" gradientUnits="userSpaceOnUse">
<stop stop-color="#3742F5" stop-opacity="0.24"/>
<stop offset="0.432292" stop-color="#3742F5"/>
<stop offset="0.6875" stop-color="#D6357F"/>
<stop offset="1" stop-color="#D6357F" stop-opacity="0.2"/>
</linearGradient>
<linearGradient id="paint2_linear_162_10304" x1="138.134" y1="0" x2="138.134" y2="373.305" gradientUnits="userSpaceOnUse">
<stop stop-color="#3742F5" stop-opacity="0.24"/>
<stop offset="0.432292" stop-color="#3742F5"/>
<stop offset="0.6875" stop-color="#D6357F"/>
<stop offset="1" stop-color="#D6357F" stop-opacity="0.2"/>
</linearGradient>
<linearGradient id="paint3_linear_162_10304" x1="138.134" y1="0" x2="138.134" y2="373.305" gradientUnits="userSpaceOnUse">
<stop stop-color="#3742F5"/>
<stop offset="1" stop-color="#D6357F"/>
</linearGradient>
<linearGradient id="paint4_linear_162_10304" x1="138.134" y1="0" x2="138.134" y2="373.305" gradientUnits="userSpaceOnUse">
<stop stop-color="#3742F5" stop-opacity="0.24"/>
<stop offset="0.432292" stop-color="#3742F5"/>
<stop offset="0.6875" stop-color="#D6357F"/>
<stop offset="1" stop-color="#D6357F" stop-opacity="0.2"/>
</linearGradient>
<linearGradient id="paint5_linear_162_10304" x1="138.134" y1="0" x2="138.134" y2="373.305" gradientUnits="userSpaceOnUse">
<stop stop-color="#3742F5"/>
<stop offset="1" stop-color="#D6357F"/>
</linearGradient>
<linearGradient id="paint6_linear_162_10304" x1="138.134" y1="0" x2="138.134" y2="373.305" gradientUnits="userSpaceOnUse">
<stop stop-color="#3742F5" stop-opacity="0.24"/>
<stop offset="0.432292" stop-color="#3742F5"/>
<stop offset="0.6875" stop-color="#D6357F"/>
<stop offset="1" stop-color="#D6357F" stop-opacity="0.2"/>
</linearGradient>
<linearGradient id="paint7_linear_162_10304" x1="138.134" y1="0" x2="138.134" y2="373.305" gradientUnits="userSpaceOnUse">
<stop stop-color="#3742F5"/>
<stop offset="1" stop-color="#D6357F"/>
</linearGradient>
<linearGradient id="paint8_linear_162_10304" x1="138.134" y1="0" x2="138.134" y2="373.305" gradientUnits="userSpaceOnUse">
<stop stop-color="#3742F5" stop-opacity="0.24"/>
<stop offset="0.432292" stop-color="#3742F5"/>
<stop offset="0.6875" stop-color="#D6357F"/>
<stop offset="1" stop-color="#D6357F" stop-opacity="0.2"/>
</linearGradient>
<linearGradient id="paint9_linear_162_10304" x1="138.134" y1="0" x2="138.134" y2="373.305" gradientUnits="userSpaceOnUse">
<stop stop-color="#3742F5" stop-opacity="0.24"/>
<stop offset="0.432292" stop-color="#3742F5"/>
<stop offset="0.6875" stop-color="#D6357F"/>
<stop offset="1" stop-color="#D6357F" stop-opacity="0.2"/>
</linearGradient>
<linearGradient id="paint10_linear_162_10304" x1="138.134" y1="0" x2="138.134" y2="373.305" gradientUnits="userSpaceOnUse">
<stop stop-color="#3742F5" stop-opacity="0.24"/>
<stop offset="0.432292" stop-color="#3742F5"/>
<stop offset="0.6875" stop-color="#D6357F"/>
<stop offset="1" stop-color="#D6357F" stop-opacity="0.2"/>
</linearGradient>
<linearGradient id="paint11_linear_162_10304" x1="138.134" y1="0" x2="138.134" y2="373.305" gradientUnits="userSpaceOnUse">
<stop stop-color="#3742F5" stop-opacity="0.24"/>
<stop offset="0.432292" stop-color="#3742F5"/>
<stop offset="0.6875" stop-color="#D6357F"/>
<stop offset="1" stop-color="#D6357F" stop-opacity="0.2"/>
</linearGradient>
<linearGradient id="paint12_linear_162_10304" x1="138.134" y1="0" x2="138.134" y2="373.305" gradientUnits="userSpaceOnUse">
<stop stop-color="#3742F5" stop-opacity="0.24"/>
<stop offset="0.432292" stop-color="#3742F5"/>
<stop offset="0.6875" stop-color="#D6357F"/>
<stop offset="1" stop-color="#D6357F" stop-opacity="0.2"/>
</linearGradient>
<linearGradient id="paint13_linear_162_10304" x1="138.134" y1="0" x2="138.134" y2="373.305" gradientUnits="userSpaceOnUse">
<stop stop-color="#3742F5" stop-opacity="0.24"/>
<stop offset="0.432292" stop-color="#3742F5"/>
<stop offset="0.6875" stop-color="#D6357F"/>
<stop offset="1" stop-color="#D6357F" stop-opacity="0.2"/>
</linearGradient>
<linearGradient id="paint14_linear_162_10304" x1="138.134" y1="0" x2="138.134" y2="373.305" gradientUnits="userSpaceOnUse">
<stop stop-color="#3742F5" stop-opacity="0.24"/>
<stop offset="0.432292" stop-color="#3742F5"/>
<stop offset="0.6875" stop-color="#D6357F"/>
<stop offset="1" stop-color="#D6357F" stop-opacity="0.2"/>
</linearGradient>
</defs>
</svg>
