<svg width="610" height="610" viewBox="0 0 610 610" fill="none" xmlns="http://www.w3.org/2000/svg">
<rect x="-2.98023e-08" y="0.707107" width="205.604" height="278.171" rx="31.5" transform="matrix(-0.707107 0.707107 0.707107 0.707107 146.286 131.811)" stroke="url(#paint0_linear_246_7228)" stroke-opacity="0.5"/>
<rect x="-2.98023e-08" y="0.707107" width="205.604" height="278.171" rx="31.5" transform="matrix(-0.707107 0.707107 0.707107 0.707107 192.769 132.414)" stroke="url(#paint1_linear_246_7228)" stroke-opacity="0.5"/>
<rect x="-2.98023e-08" y="0.707107" width="205.604" height="278.171" rx="31.5" transform="matrix(-0.707107 0.707107 0.707107 0.707107 168.622 132.414)" stroke="url(#paint2_linear_246_7228)" stroke-opacity="0.5"/>
<rect x="-2.98023e-08" y="0.707107" width="205.604" height="278.171" rx="31.5" transform="matrix(-0.707107 0.707107 0.707107 0.707107 218.124 132.413)" stroke="url(#paint3_linear_246_7228)" stroke-opacity="0.5"/>
<rect x="-2.98023e-08" y="0.707107" width="205.604" height="278.171" rx="31.5" transform="matrix(-0.707107 0.707107 0.707107 0.707107 264.607 133.016)" stroke="url(#paint4_linear_246_7228)" stroke-opacity="0.5"/>
<rect x="-2.98023e-08" y="0.707107" width="205.604" height="278.171" rx="31.5" transform="matrix(-0.707107 0.707107 0.707107 0.707107 240.46 133.016)" stroke="url(#paint5_linear_246_7228)" stroke-opacity="0.5"/>
<rect x="-2.98023e-08" y="0.707107" width="205.604" height="278.171" rx="31.5" transform="matrix(-0.707107 0.707107 0.707107 0.707107 289.961 130.601)" stroke="url(#paint6_linear_246_7228)" stroke-opacity="0.5"/>
<rect x="-2.98023e-08" y="0.707107" width="205.604" height="278.171" rx="31.5" transform="matrix(-0.707107 0.707107 0.707107 0.707107 336.445 131.204)" stroke="url(#paint7_linear_246_7228)" stroke-opacity="0.5"/>
<rect x="-2.98023e-08" y="0.707107" width="205.604" height="278.171" rx="31.5" transform="matrix(-0.707107 0.707107 0.707107 0.707107 312.298 131.204)" stroke="url(#paint8_linear_246_7228)" stroke-opacity="0.5"/>
<rect x="-2.98023e-08" y="0.707107" width="205.604" height="278.171" rx="31.5" transform="matrix(-0.707107 0.707107 0.707107 0.707107 365.422 133.62)" stroke="url(#paint9_linear_246_7228)" stroke-opacity="0.5"/>
<rect x="-2.98023e-08" y="0.707107" width="205.604" height="278.171" rx="31.5" transform="matrix(-0.707107 0.707107 0.707107 0.707107 411.906 134.223)" stroke="url(#paint10_linear_246_7228)" stroke-opacity="0.5"/>
<rect x="-2.98023e-08" y="0.707107" width="205.604" height="278.171" rx="31.5" transform="matrix(-0.707107 0.707107 0.707107 0.707107 387.758 134.223)" stroke="url(#paint11_linear_246_7228)" stroke-opacity="0.5"/>
<defs>
<linearGradient id="paint0_linear_246_7228" x1="103.302" y1="0" x2="103.302" y2="279.171" gradientUnits="userSpaceOnUse">
<stop stop-color="#3742F5" stop-opacity="0.24"/>
<stop offset="0.432292" stop-color="#3742F5"/>
<stop offset="0.6875" stop-color="#D6357F"/>
<stop offset="1" stop-color="#D6357F" stop-opacity="0.2"/>
</linearGradient>
<linearGradient id="paint1_linear_246_7228" x1="103.302" y1="0" x2="103.302" y2="279.171" gradientUnits="userSpaceOnUse">
<stop stop-color="#3742F5" stop-opacity="0.24"/>
<stop offset="0.432292" stop-color="#3742F5"/>
<stop offset="0.6875" stop-color="#D6357F"/>
<stop offset="1" stop-color="#D6357F" stop-opacity="0.2"/>
</linearGradient>
<linearGradient id="paint2_linear_246_7228" x1="103.302" y1="0" x2="103.302" y2="279.171" gradientUnits="userSpaceOnUse">
<stop stop-color="#3742F5" stop-opacity="0.24"/>
<stop offset="0.432292" stop-color="#3742F5"/>
<stop offset="0.6875" stop-color="#D6357F"/>
<stop offset="1" stop-color="#D6357F" stop-opacity="0.2"/>
</linearGradient>
<linearGradient id="paint3_linear_246_7228" x1="103.302" y1="0" x2="103.302" y2="279.171" gradientUnits="userSpaceOnUse">
<stop stop-color="#3742F5" stop-opacity="0.24"/>
<stop offset="0.432292" stop-color="#3742F5"/>
<stop offset="0.6875" stop-color="#D6357F"/>
<stop offset="1" stop-color="#D6357F" stop-opacity="0.2"/>
</linearGradient>
<linearGradient id="paint4_linear_246_7228" x1="103.302" y1="0" x2="103.302" y2="279.171" gradientUnits="userSpaceOnUse">
<stop stop-color="#3742F5" stop-opacity="0.24"/>
<stop offset="0.432292" stop-color="#3742F5"/>
<stop offset="0.6875" stop-color="#D6357F"/>
<stop offset="1" stop-color="#D6357F" stop-opacity="0.2"/>
</linearGradient>
<linearGradient id="paint5_linear_246_7228" x1="103.302" y1="0" x2="103.302" y2="279.171" gradientUnits="userSpaceOnUse">
<stop stop-color="#3742F5" stop-opacity="0.24"/>
<stop offset="0.432292" stop-color="#3742F5"/>
<stop offset="0.6875" stop-color="#D6357F"/>
<stop offset="1" stop-color="#D6357F" stop-opacity="0.2"/>
</linearGradient>
<linearGradient id="paint6_linear_246_7228" x1="103.302" y1="0" x2="103.302" y2="279.171" gradientUnits="userSpaceOnUse">
<stop stop-color="#3742F5" stop-opacity="0.24"/>
<stop offset="0.432292" stop-color="#3742F5"/>
<stop offset="0.6875" stop-color="#D6357F"/>
<stop offset="1" stop-color="#D6357F" stop-opacity="0.2"/>
</linearGradient>
<linearGradient id="paint7_linear_246_7228" x1="103.302" y1="0" x2="103.302" y2="279.171" gradientUnits="userSpaceOnUse">
<stop stop-color="#3742F5" stop-opacity="0.24"/>
<stop offset="0.432292" stop-color="#3742F5"/>
<stop offset="0.6875" stop-color="#D6357F"/>
<stop offset="1" stop-color="#D6357F" stop-opacity="0.2"/>
</linearGradient>
<linearGradient id="paint8_linear_246_7228" x1="103.302" y1="0" x2="103.302" y2="279.171" gradientUnits="userSpaceOnUse">
<stop stop-color="#3742F5" stop-opacity="0.24"/>
<stop offset="0.432292" stop-color="#3742F5"/>
<stop offset="0.6875" stop-color="#D6357F"/>
<stop offset="1" stop-color="#D6357F" stop-opacity="0.2"/>
</linearGradient>
<linearGradient id="paint9_linear_246_7228" x1="103.302" y1="0" x2="103.302" y2="279.171" gradientUnits="userSpaceOnUse">
<stop stop-color="#3742F5" stop-opacity="0.24"/>
<stop offset="0.432292" stop-color="#3742F5"/>
<stop offset="0.6875" stop-color="#D6357F"/>
<stop offset="1" stop-color="#D6357F" stop-opacity="0.2"/>
</linearGradient>
<linearGradient id="paint10_linear_246_7228" x1="103.302" y1="0" x2="103.302" y2="279.171" gradientUnits="userSpaceOnUse">
<stop stop-color="#3742F5" stop-opacity="0.24"/>
<stop offset="0.432292" stop-color="#3742F5"/>
<stop offset="0.6875" stop-color="#D6357F"/>
<stop offset="1" stop-color="#D6357F" stop-opacity="0.2"/>
</linearGradient>
<linearGradient id="paint11_linear_246_7228" x1="103.302" y1="0" x2="103.302" y2="279.171" gradientUnits="userSpaceOnUse">
<stop stop-color="#3742F5" stop-opacity="0.24"/>
<stop offset="0.432292" stop-color="#3742F5"/>
<stop offset="0.6875" stop-color="#D6357F"/>
<stop offset="1" stop-color="#D6357F" stop-opacity="0.2"/>
</linearGradient>
</defs>
</svg>
