<svg width="1146" height="1016" viewBox="0 0 1146 1016" fill="none" xmlns="http://www.w3.org/2000/svg">
<rect x="-0.00543246" y="0.707086" width="537.403" height="726.512" rx="31.5" transform="matrix(-0.712518 0.701653 0.701653 0.712518 383.117 8.51443)" stroke="url(#paint0_linear_246_7356)" stroke-opacity="0.2"/>
<rect x="-0.00543246" y="0.707086" width="537.403" height="726.512" rx="31.5" transform="matrix(-0.712518 0.701653 0.701653 0.712518 504.236 11.0183)" stroke="url(#paint1_linear_246_7356)" stroke-opacity="0.2"/>
<rect x="-0.00543246" y="0.707086" width="537.403" height="726.512" rx="31.5" transform="matrix(-0.712518 0.701653 0.701653 0.712518 441.31 10.535)" stroke="url(#paint2_linear_246_7356)" stroke-opacity="0.2"/>
<rect x="-0.00543246" y="0.707086" width="537.403" height="726.512" rx="31.5" transform="matrix(-0.712518 0.701653 0.701653 0.712518 570.306 11.5264)" stroke="url(#paint3_linear_246_7356)" stroke-opacity="0.2"/>
<rect x="-0.00543246" y="0.707086" width="537.403" height="726.512" rx="31.5" transform="matrix(-0.712518 0.701653 0.701653 0.712518 691.425 14.0301)" stroke="url(#paint4_linear_246_7356)" stroke-opacity="0.2"/>
<rect x="-0.00543246" y="0.707086" width="537.403" height="726.512" rx="31.5" transform="matrix(-0.712518 0.701653 0.701653 0.712518 628.5 13.5464)" stroke="url(#paint5_linear_246_7356)" stroke-opacity="0.2"/>
<rect x="-0.00543246" y="0.707086" width="537.403" height="726.512" rx="31.5" transform="matrix(-0.712518 0.701653 0.701653 0.712518 757.545 8.24465)" stroke="url(#paint6_linear_246_7356)" stroke-opacity="0.2"/>
<rect x="-0.00543246" y="0.707086" width="537.403" height="726.512" rx="31.5" transform="matrix(-0.712518 0.701653 0.701653 0.712518 878.664 10.7484)" stroke="url(#paint7_linear_246_7356)" stroke-opacity="0.2"/>
<rect x="-0.00543246" y="0.707086" width="537.403" height="726.512" rx="31.5" transform="matrix(-0.712518 0.701653 0.701653 0.712518 815.739 10.2649)" stroke="url(#paint8_linear_246_7356)" stroke-opacity="0.2"/>
<rect x="-0.00543246" y="0.707086" width="537.403" height="726.512" rx="31.5" transform="matrix(-0.712518 0.701653 0.701653 0.712518 954.126 17.6209)" stroke="url(#paint9_linear_246_7356)" stroke-opacity="0.2"/>
<rect x="-0.00543246" y="0.707086" width="537.403" height="726.512" rx="31.5" transform="matrix(-0.712518 0.701653 0.701653 0.712518 1075.25 20.1249)" stroke="url(#paint10_linear_246_7356)" stroke-opacity="0.2"/>
<rect x="-0.00543246" y="0.707086" width="537.403" height="726.512" rx="31.5" transform="matrix(-0.712518 0.701653 0.701653 0.712518 1012.32 19.6413)" stroke="url(#paint11_linear_246_7356)" stroke-opacity="0.2"/>
<defs>
<linearGradient id="paint0_linear_246_7356" x1="269.202" y1="0" x2="269.202" y2="727.512" gradientUnits="userSpaceOnUse">
<stop stop-color="#3742F5" stop-opacity="0.24"/>
<stop offset="0.432292" stop-color="#3742F5"/>
<stop offset="0.6875" stop-color="#D6357F"/>
<stop offset="1" stop-color="#D6357F" stop-opacity="0.2"/>
</linearGradient>
<linearGradient id="paint1_linear_246_7356" x1="269.202" y1="0" x2="269.202" y2="727.512" gradientUnits="userSpaceOnUse">
<stop stop-color="#3742F5" stop-opacity="0.24"/>
<stop offset="0.432292" stop-color="#3742F5"/>
<stop offset="0.6875" stop-color="#D6357F"/>
<stop offset="1" stop-color="#D6357F" stop-opacity="0.2"/>
</linearGradient>
<linearGradient id="paint2_linear_246_7356" x1="269.202" y1="0" x2="269.202" y2="727.512" gradientUnits="userSpaceOnUse">
<stop stop-color="#3742F5" stop-opacity="0.24"/>
<stop offset="0.432292" stop-color="#3742F5"/>
<stop offset="0.6875" stop-color="#D6357F"/>
<stop offset="1" stop-color="#D6357F" stop-opacity="0.2"/>
</linearGradient>
<linearGradient id="paint3_linear_246_7356" x1="269.202" y1="0" x2="269.202" y2="727.512" gradientUnits="userSpaceOnUse">
<stop stop-color="#3742F5" stop-opacity="0.24"/>
<stop offset="0.432292" stop-color="#3742F5"/>
<stop offset="0.6875" stop-color="#D6357F"/>
<stop offset="1" stop-color="#D6357F" stop-opacity="0.2"/>
</linearGradient>
<linearGradient id="paint4_linear_246_7356" x1="269.202" y1="0" x2="269.202" y2="727.512" gradientUnits="userSpaceOnUse">
<stop stop-color="#3742F5" stop-opacity="0.24"/>
<stop offset="0.432292" stop-color="#3742F5"/>
<stop offset="0.6875" stop-color="#D6357F"/>
<stop offset="1" stop-color="#D6357F" stop-opacity="0.2"/>
</linearGradient>
<linearGradient id="paint5_linear_246_7356" x1="269.202" y1="0" x2="269.202" y2="727.512" gradientUnits="userSpaceOnUse">
<stop stop-color="#3742F5" stop-opacity="0.24"/>
<stop offset="0.432292" stop-color="#3742F5"/>
<stop offset="0.6875" stop-color="#D6357F"/>
<stop offset="1" stop-color="#D6357F" stop-opacity="0.2"/>
</linearGradient>
<linearGradient id="paint6_linear_246_7356" x1="269.202" y1="0" x2="269.202" y2="727.512" gradientUnits="userSpaceOnUse">
<stop stop-color="#3742F5" stop-opacity="0.24"/>
<stop offset="0.432292" stop-color="#3742F5"/>
<stop offset="0.6875" stop-color="#D6357F"/>
<stop offset="1" stop-color="#D6357F" stop-opacity="0.2"/>
</linearGradient>
<linearGradient id="paint7_linear_246_7356" x1="269.202" y1="0" x2="269.202" y2="727.512" gradientUnits="userSpaceOnUse">
<stop stop-color="#3742F5" stop-opacity="0.24"/>
<stop offset="0.432292" stop-color="#3742F5"/>
<stop offset="0.6875" stop-color="#D6357F"/>
<stop offset="1" stop-color="#D6357F" stop-opacity="0.2"/>
</linearGradient>
<linearGradient id="paint8_linear_246_7356" x1="269.202" y1="0" x2="269.202" y2="727.512" gradientUnits="userSpaceOnUse">
<stop stop-color="#3742F5" stop-opacity="0.24"/>
<stop offset="0.432292" stop-color="#3742F5"/>
<stop offset="0.6875" stop-color="#D6357F"/>
<stop offset="1" stop-color="#D6357F" stop-opacity="0.2"/>
</linearGradient>
<linearGradient id="paint9_linear_246_7356" x1="269.202" y1="0" x2="269.202" y2="727.512" gradientUnits="userSpaceOnUse">
<stop stop-color="#3742F5" stop-opacity="0.24"/>
<stop offset="0.432292" stop-color="#3742F5"/>
<stop offset="0.6875" stop-color="#D6357F"/>
<stop offset="1" stop-color="#D6357F" stop-opacity="0.2"/>
</linearGradient>
<linearGradient id="paint10_linear_246_7356" x1="269.202" y1="0" x2="269.202" y2="727.512" gradientUnits="userSpaceOnUse">
<stop stop-color="#3742F5" stop-opacity="0.24"/>
<stop offset="0.432292" stop-color="#3742F5"/>
<stop offset="0.6875" stop-color="#D6357F"/>
<stop offset="1" stop-color="#D6357F" stop-opacity="0.2"/>
</linearGradient>
<linearGradient id="paint11_linear_246_7356" x1="269.202" y1="0" x2="269.202" y2="727.512" gradientUnits="userSpaceOnUse">
<stop stop-color="#3742F5" stop-opacity="0.24"/>
<stop offset="0.432292" stop-color="#3742F5"/>
<stop offset="0.6875" stop-color="#D6357F"/>
<stop offset="1" stop-color="#D6357F" stop-opacity="0.2"/>
</linearGradient>
</defs>
</svg>
