<svg width="767" height="643" viewBox="0 0 767 643" fill="none" xmlns="http://www.w3.org/2000/svg">
<rect x="-0.5" y="-0.5" width="337.095" height="455.848" rx="31.5" transform="matrix(-4.37114e-08 -1 -1 4.37114e-08 766 337.095)" stroke="url(#paint0_linear_246_7280)" stroke-opacity="0.5"/>
<rect x="-0.5" y="-0.5" width="337.095" height="455.848" rx="31.5" transform="matrix(-4.37114e-08 -1 -1 4.37114e-08 711.514 390.185)" stroke="url(#paint1_linear_246_7280)" stroke-opacity="0.5"/>
<rect x="-0.5" y="-0.5" width="337.095" height="455.848" rx="31.5" transform="matrix(-4.37114e-08 -1 -1 4.37114e-08 739.456 362.243)" stroke="url(#paint2_linear_246_7280)" stroke-opacity="0.5"/>
<rect x="-0.5" y="-0.5" width="337.095" height="455.848" rx="31.5" transform="matrix(-4.37114e-08 -1 -1 4.37114e-08 682.175 419.523)" stroke="url(#paint3_linear_246_7280)" stroke-opacity="0.5"/>
<rect x="-0.5" y="-0.5" width="337.095" height="455.848" rx="31.5" transform="matrix(-4.37114e-08 -1 -1 4.37114e-08 627.689 472.613)" stroke="url(#paint4_linear_246_7280)" stroke-opacity="0.5"/>
<rect x="-0.5" y="-0.5" width="337.095" height="455.848" rx="31.5" transform="matrix(-4.37114e-08 -1 -1 4.37114e-08 655.631 444.671)" stroke="url(#paint5_linear_246_7280)" stroke-opacity="0.5"/>
<rect x="-0.5" y="-0.5" width="337.095" height="455.848" rx="31.5" transform="matrix(-4.37114e-08 -1 -1 4.37114e-08 601.145 504.746)" stroke="url(#paint6_linear_246_7280)" stroke-opacity="0.5"/>
<rect x="-0.5" y="-0.5" width="337.095" height="455.848" rx="31.5" transform="matrix(-4.37114e-08 -1 -1 4.37114e-08 546.659 557.836)" stroke="url(#paint7_linear_246_7280)" stroke-opacity="0.5"/>
<rect x="-0.5" y="-0.5" width="337.095" height="455.848" rx="31.5" transform="matrix(-4.37114e-08 -1 -1 4.37114e-08 574.601 529.893)" stroke="url(#paint8_linear_246_7280)" stroke-opacity="0.5"/>
<rect x="-0.5" y="-0.5" width="337.095" height="455.848" rx="31.5" transform="matrix(-4.37114e-08 -1 -1 4.37114e-08 510.334 588.571)" stroke="url(#paint9_linear_246_7280)" stroke-opacity="0.5"/>
<rect x="-0.5" y="-0.5" width="337.095" height="455.848" rx="31.5" transform="matrix(-4.37114e-08 -1 -1 4.37114e-08 455.848 641.662)" stroke="url(#paint10_linear_246_7280)" stroke-opacity="0.5"/>
<rect x="-0.5" y="-0.5" width="337.095" height="455.848" rx="31.5" transform="matrix(-4.37114e-08 -1 -1 4.37114e-08 483.789 613.72)" stroke="url(#paint11_linear_246_7280)" stroke-opacity="0.5"/>
<defs>
<linearGradient id="paint0_linear_246_7280" x1="169.048" y1="0" x2="169.048" y2="456.848" gradientUnits="userSpaceOnUse">
<stop stop-color="#3742F5" stop-opacity="0.24"/>
<stop offset="0.432292" stop-color="#3742F5"/>
<stop offset="0.6875" stop-color="#D6357F"/>
<stop offset="1" stop-color="#D6357F" stop-opacity="0.2"/>
</linearGradient>
<linearGradient id="paint1_linear_246_7280" x1="169.048" y1="0" x2="169.048" y2="456.848" gradientUnits="userSpaceOnUse">
<stop stop-color="#3742F5" stop-opacity="0.24"/>
<stop offset="0.432292" stop-color="#3742F5"/>
<stop offset="0.6875" stop-color="#D6357F"/>
<stop offset="1" stop-color="#D6357F" stop-opacity="0.2"/>
</linearGradient>
<linearGradient id="paint2_linear_246_7280" x1="169.048" y1="0" x2="169.048" y2="456.848" gradientUnits="userSpaceOnUse">
<stop stop-color="#3742F5" stop-opacity="0.24"/>
<stop offset="0.432292" stop-color="#3742F5"/>
<stop offset="0.6875" stop-color="#D6357F"/>
<stop offset="1" stop-color="#D6357F" stop-opacity="0.2"/>
</linearGradient>
<linearGradient id="paint3_linear_246_7280" x1="169.048" y1="0" x2="169.048" y2="456.848" gradientUnits="userSpaceOnUse">
<stop stop-color="#3742F5" stop-opacity="0.24"/>
<stop offset="0.432292" stop-color="#3742F5"/>
<stop offset="0.6875" stop-color="#D6357F"/>
<stop offset="1" stop-color="#D6357F" stop-opacity="0.2"/>
</linearGradient>
<linearGradient id="paint4_linear_246_7280" x1="169.048" y1="0" x2="169.048" y2="456.848" gradientUnits="userSpaceOnUse">
<stop stop-color="#3742F5" stop-opacity="0.24"/>
<stop offset="0.432292" stop-color="#3742F5"/>
<stop offset="0.6875" stop-color="#D6357F"/>
<stop offset="1" stop-color="#D6357F" stop-opacity="0.2"/>
</linearGradient>
<linearGradient id="paint5_linear_246_7280" x1="169.048" y1="0" x2="169.048" y2="456.848" gradientUnits="userSpaceOnUse">
<stop stop-color="#3742F5" stop-opacity="0.24"/>
<stop offset="0.432292" stop-color="#3742F5"/>
<stop offset="0.6875" stop-color="#D6357F"/>
<stop offset="1" stop-color="#D6357F" stop-opacity="0.2"/>
</linearGradient>
<linearGradient id="paint6_linear_246_7280" x1="169.048" y1="0" x2="169.048" y2="456.848" gradientUnits="userSpaceOnUse">
<stop stop-color="#3742F5" stop-opacity="0.24"/>
<stop offset="0.432292" stop-color="#3742F5"/>
<stop offset="0.6875" stop-color="#D6357F"/>
<stop offset="1" stop-color="#D6357F" stop-opacity="0.2"/>
</linearGradient>
<linearGradient id="paint7_linear_246_7280" x1="169.048" y1="0" x2="169.048" y2="456.848" gradientUnits="userSpaceOnUse">
<stop stop-color="#3742F5" stop-opacity="0.24"/>
<stop offset="0.432292" stop-color="#3742F5"/>
<stop offset="0.6875" stop-color="#D6357F"/>
<stop offset="1" stop-color="#D6357F" stop-opacity="0.2"/>
</linearGradient>
<linearGradient id="paint8_linear_246_7280" x1="169.048" y1="0" x2="169.048" y2="456.848" gradientUnits="userSpaceOnUse">
<stop stop-color="#3742F5" stop-opacity="0.24"/>
<stop offset="0.432292" stop-color="#3742F5"/>
<stop offset="0.6875" stop-color="#D6357F"/>
<stop offset="1" stop-color="#D6357F" stop-opacity="0.2"/>
</linearGradient>
<linearGradient id="paint9_linear_246_7280" x1="169.048" y1="0" x2="169.048" y2="456.848" gradientUnits="userSpaceOnUse">
<stop stop-color="#3742F5" stop-opacity="0.24"/>
<stop offset="0.432292" stop-color="#3742F5"/>
<stop offset="0.6875" stop-color="#D6357F"/>
<stop offset="1" stop-color="#D6357F" stop-opacity="0.2"/>
</linearGradient>
<linearGradient id="paint10_linear_246_7280" x1="169.048" y1="0" x2="169.048" y2="456.848" gradientUnits="userSpaceOnUse">
<stop stop-color="#3742F5" stop-opacity="0.24"/>
<stop offset="0.432292" stop-color="#3742F5"/>
<stop offset="0.6875" stop-color="#D6357F"/>
<stop offset="1" stop-color="#D6357F" stop-opacity="0.2"/>
</linearGradient>
<linearGradient id="paint11_linear_246_7280" x1="169.048" y1="0" x2="169.048" y2="456.848" gradientUnits="userSpaceOnUse">
<stop stop-color="#3742F5" stop-opacity="0.24"/>
<stop offset="0.432292" stop-color="#3742F5"/>
<stop offset="0.6875" stop-color="#D6357F"/>
<stop offset="1" stop-color="#D6357F" stop-opacity="0.2"/>
</linearGradient>
</defs>
</svg>
