<svg width="77" height="80" viewBox="0 0 77 80" fill="none" xmlns="http://www.w3.org/2000/svg">
<path d="M55.7636 39.4464C48.6624 39.4464 43.4872 30.3867 43.4345 30.2768C43.2765 29.996 42.9545 29.9411 42.6852 30.057C42.4159 30.2219 42.3632 30.5577 42.4744 30.8324C42.6325 31.1681 45.9987 36.9434 51.1738 39.4464L20.5327 39.4464C20.2108 39.4464 20 39.6662 20 40.002C20 40.3378 20.2108 40.5575 20.5327 40.5575L51.1738 40.5575C45.9987 43.0606 42.6325 48.8358 42.4744 49.1716C42.3691 49.4524 42.4217 49.7821 42.6852 49.9469C42.9545 50.0568 43.2706 50.0019 43.4345 49.7272C43.4872 49.6173 48.6682 40.5575 55.7636 40.5575C56.0855 40.5575 56.2963 40.3378 56.2963 40.002C56.2963 39.6662 56.0855 39.4464 55.7636 39.4464Z" fill="white"/>
<rect x="0.5" y="0.5" width="75.2963" height="79" rx="37.6481" stroke="white"/>
</svg>
