<?xml version="1.0" encoding="UTF-8"?>
<svg id="Warstwa_2" data-name="Warstwa 2" xmlns="http://www.w3.org/2000/svg" xmlns:xlink="http://www.w3.org/1999/xlink" viewBox="0 0 328 428.33">
  <defs>
    <style>
      .cls-1 {
        clip-path: url(#clippath);
      }

      .cls-2 {
        fill: #f5f5f6;
      }

      .cls-2, .cls-3, .cls-4, .cls-5, .cls-6 {
        stroke-width: 0px;
      }

      .cls-3 {
        fill: #333741;
      }

      .cls-4 {
        fill: #3742f5;
      }

      .cls-5 {
        clip-rule: evenodd;
        fill: none;
      }

      .cls-6 {
        fill: #cecfd2;
      }
    </style>
    <clipPath id="clippath">
      <path class="cls-5" d="M0,242.33h264c35.35,0,64,28.65,64,64v122H64c-35.35,0-64-28.65-64-64v-122Z"/>
    </clipPath>
  </defs>
  <g id="Warstwa_1-2" data-name="Warstwa 1">
    <g>
      <path class="cls-3" d="M0,242.33h264c35.35,0,64,28.65,64,64v122H64c-35.35,0-64-28.65-64-64v-122Z"/>
      <g class="cls-1">
        <path class="cls-4" d="M328,242.33v186-186ZM64,428.33c-38.11,0-69-30.89-69-69v-117H5v122c0,35.35,26.42,64,59,64ZM328,428.33H0h328ZM0,242.33h328H0Z"/>
      </g>
      <path class="cls-2" d="M111.76,282.65h-2.14v-1.99l4.51-4.15h-7.3v-2.71h11.14v2.45l-4.27,3.94c2.69.53,4.78,2.5,4.78,5.59,0,3.6-2.81,5.88-6.36,5.88s-6.1-2.11-6.1-5.9h3.02c0,2.02,1.25,3.17,3.12,3.17s3.19-1.25,3.19-3.19c0-1.78-1.15-3.07-3.6-3.07ZM92.46,281.52c-1.73,0-2.78.94-3.07,2.71h5.95c0-1.63-1.13-2.71-2.88-2.71ZM92.53,291.65c-3.53,0-6-2.57-6-6.24s2.42-6.29,5.9-6.29,5.81,2.38,5.81,6.07v.89l-8.93.02c.22,2.09,1.32,3.14,3.26,3.14,1.61,0,2.66-.62,3-1.75h2.71c-.5,2.59-2.66,4.15-5.76,4.15ZM75.21,287.73h2.78c.02,1.03.79,1.68,2.14,1.68s2.11-.55,2.11-1.42c0-.6-.31-1.03-1.37-1.27l-2.14-.5c-2.14-.48-3.17-1.49-3.17-3.38,0-2.33,1.97-3.72,4.7-3.72s4.46,1.54,4.49,3.84h-2.78c-.02-1.01-.7-1.66-1.82-1.66s-1.82.53-1.82,1.42c0,.67.53,1.1,1.54,1.34l2.14.5c1.99.46,3,1.37,3,3.19,0,2.4-2.04,3.89-4.97,3.89s-4.82-1.58-4.82-3.91ZM67.46,289.44c1.8,0,2.95-1.08,2.95-2.9v-.62l-2.47.19c-1.82.17-2.52.77-2.52,1.73,0,1.08.72,1.61,2.04,1.61ZM66.5,291.65c-2.52,0-4.06-1.46-4.06-3.7s1.58-3.55,4.39-3.77l3.55-.26v-.26c0-1.61-.96-2.26-2.45-2.26-1.73,0-2.69.72-2.69,1.97h-2.5c0-2.57,2.11-4.25,5.33-4.25s5.16,1.73,5.16,5.02v7.2h-2.57l-.22-1.75c-.5,1.22-2.11,2.06-3.96,2.06ZM51.77,291.33h-2.93v-17.86h2.95v7.54c.74-1.15,2.14-1.9,3.84-1.9,2.93,0,4.46,1.85,4.46,4.92v7.3h-2.93v-6.6c0-1.99-.98-2.95-2.47-2.95-1.85,0-2.93,1.3-2.93,3.07v6.48ZM40.28,276.53h-3.26v6.02h3.22c2.11,0,3.24-1.13,3.24-3.05s-1.15-2.98-3.19-2.98ZM40.88,285.29h-3.86v6.05h-3.07v-17.54h6.94c3.53,0,5.81,2.3,5.81,5.74s-2.3,5.76-5.81,5.76Z"/>
      <path class="cls-6" d="M117.32,334.41c.61,0,1.13-.14,1.55-.43.43-.29.75-.7.97-1.24.22-.54.33-1.19.33-1.94s-.11-1.38-.33-1.94c-.22-.56-.54-.99-.96-1.31-.42-.32-.94-.48-1.56-.48s-1.17.17-1.6.5c-.43.33-.75.77-.97,1.34-.21.56-.32,1.19-.32,1.89s.11,1.34.33,1.88c.22.54.54.96.97,1.26.43.3.96.45,1.59.45ZM117.34,340.65c-.87,0-1.61-.11-2.24-.34-.62-.23-1.13-.53-1.52-.9s-.69-.78-.88-1.23l1.83-.75c.13.21.3.43.51.66.22.24.51.44.88.6.37.17.85.25,1.44.25.8,0,1.47-.2,2-.59.53-.39.79-1.01.79-1.86v-2.14h-.13c-.13.23-.31.49-.55.77-.24.28-.56.53-.98.74-.42.21-.96.31-1.63.31-.86,0-1.64-.2-2.33-.6-.69-.41-1.23-1.01-1.63-1.8-.4-.8-.6-1.77-.6-2.93s.2-2.15.59-2.98c.4-.83.94-1.46,1.63-1.9.69-.45,1.47-.67,2.35-.67.68,0,1.22.11,1.64.34.42.22.74.48.97.78.24.3.42.56.55.79h.16v-1.77h2.08v11.15c0,.94-.22,1.71-.65,2.31-.44.6-1.03,1.05-1.77,1.34-.74.29-1.57.43-2.5.43ZM102.93,329.86v6.48h-2.12v-10.91h2.04v1.78h.13c.25-.58.64-1.04,1.18-1.39.54-.35,1.22-.53,2.04-.53.74,0,1.39.16,1.95.47.56.31.99.77,1.3,1.38.31.61.46,1.37.46,2.27v6.94h-2.12v-6.68c0-.79-.21-1.41-.62-1.85-.41-.45-.98-.67-1.7-.67-.49,0-.93.11-1.31.32-.38.21-.68.53-.9.94-.22.41-.33.9-.33,1.48ZM96.9,323.74c-.37,0-.69-.12-.95-.37-.26-.25-.39-.55-.39-.89s.13-.65.39-.89c.27-.25.58-.38.95-.38s.68.13.94.38c.27.25.4.54.4.89s-.13.64-.4.89c-.26.25-.58.37-.94.37ZM95.83,336.33v-10.91h2.12v10.91h-2.12ZM89.12,322.81h2.12v10.32c0,.41.06.72.18.93.12.2.28.34.48.42.2.07.41.11.65.11.17,0,.32-.01.45-.04.13-.02.23-.04.3-.06l.38,1.75c-.12.05-.3.09-.53.14-.23.05-.51.08-.85.09-.56,0-1.08-.09-1.56-.3-.48-.21-.87-.53-1.17-.97-.3-.44-.45-.98-.45-1.64v-10.76ZM93.48,325.42v1.7h-5.96v-1.7h5.96ZM80.94,334.77c.66,0,1.21-.18,1.65-.53.44-.35.76-.82.97-1.4.21-.58.32-1.22.32-1.92s-.11-1.34-.32-1.92c-.21-.59-.53-1.06-.97-1.41-.44-.36-.98-.53-1.65-.53s-1.22.18-1.66.53c-.44.36-.76.83-.97,1.41-.21.58-.31,1.22-.31,1.92s.1,1.34.31,1.92c.21.58.54,1.05.97,1.4.44.35.99.53,1.66.53ZM80.93,336.55c-1.02,0-1.92-.23-2.68-.7-.76-.47-1.35-1.12-1.78-1.97-.42-.84-.63-1.83-.63-2.95s.21-2.12.63-2.97c.42-.85,1.01-1.51,1.78-1.97.76-.47,1.65-.7,2.68-.7s1.92.23,2.68.7c.76.47,1.35,1.13,1.78,1.97.42.85.63,1.84.63,2.97s-.21,2.11-.63,2.95c-.42.84-1.01,1.5-1.78,1.97-.76.47-1.65.7-2.68.7ZM64.87,321.79l4.05,11.85h.16l4.05-11.85h2.37l-5.23,14.55h-2.54l-5.23-14.55h2.37ZM47.01,333.66c-.57,0-1.1-.14-1.57-.42-.47-.28-.85-.66-1.14-1.14-.28-.47-.42-1-.42-1.57s.14-1.1.42-1.57c.28-.47.66-.85,1.14-1.13.47-.28,1-.43,1.57-.43s1.1.14,1.57.43c.47.28.85.66,1.13,1.13.28.47.43.99.43,1.57s-.14,1.1-.43,1.57c-.28.47-.66.85-1.13,1.14-.47.28-.99.42-1.57.42Z"/>
      <path class="cls-6" d="M230,352.81h2.12v10.32c0,.41.06.72.18.93.12.2.28.34.48.42.2.07.41.11.65.11.17,0,.32-.01.45-.04s.23-.04.3-.06l.38,1.75c-.12.05-.3.09-.53.14-.23.05-.51.08-.85.09-.56,0-1.08-.09-1.56-.3-.48-.21-.87-.53-1.17-.97-.3-.44-.45-.98-.45-1.64v-10.76ZM234.36,355.42v1.7h-5.96v-1.7h5.96ZM220.95,366.33v-10.91h2.05v1.73h.11c.2-.59.55-1.05,1.05-1.38.51-.34,1.08-.51,1.72-.51.13,0,.29,0,.47.01.18,0,.33.02.43.04v2.03c-.09-.02-.24-.05-.45-.08-.22-.03-.44-.05-.65-.05-.5,0-.95.11-1.34.32-.39.21-.7.5-.92.87-.23.37-.34.79-.34,1.26v6.66h-2.12ZM213.5,364.77c.66,0,1.21-.18,1.65-.53s.76-.82.97-1.4c.21-.58.32-1.22.32-1.92s-.11-1.34-.32-1.92c-.21-.59-.53-1.06-.97-1.41-.44-.36-.98-.53-1.65-.53s-1.22.18-1.66.53c-.44.36-.76.83-.97,1.41-.21.58-.31,1.22-.31,1.92s.1,1.34.31,1.92c.21.58.54,1.05.97,1.4.44.35.99.53,1.66.53ZM213.49,366.55c-1.02,0-1.92-.23-2.68-.7-.76-.47-1.35-1.12-1.78-1.97s-.63-1.83-.63-2.95.21-2.12.63-2.97,1.01-1.51,1.78-1.97c.76-.47,1.65-.7,2.68-.7s1.92.23,2.68.7c.76.47,1.35,1.13,1.78,1.97s.63,1.84.63,2.97-.21,2.11-.63,2.95-1.01,1.5-1.78,1.97c-.76.47-1.65.7-2.68.7ZM198.63,360.88c0,.77.11,1.44.33,2.02s.54,1.03.97,1.36c.42.32.94.48,1.55.48s1.16-.17,1.59-.5c.43-.34.75-.8.97-1.38.22-.58.33-1.24.33-1.97s-.11-1.37-.33-1.94c-.21-.57-.54-1.03-.97-1.36-.43-.33-.96-.5-1.6-.5s-1.14.16-1.56.48c-.42.32-.74.76-.96,1.33-.22.57-.33,1.23-.33,1.99ZM196.55,370.42v-15h2.07v1.77h.18c.12-.23.3-.49.53-.79.23-.3.55-.56.97-.78.41-.23.96-.34,1.63-.34.88,0,1.67.22,2.36.67.69.45,1.23,1.09,1.63,1.92.4.84.6,1.85.6,3.03s-.2,2.19-.59,3.03c-.39.84-.93,1.48-1.62,1.94-.69.45-1.47.67-2.35.67-.66,0-1.21-.11-1.63-.33-.42-.22-.74-.48-.98-.78-.24-.3-.42-.56-.55-.8h-.13v5.79h-2.12ZM186.29,360.88c0,.77.11,1.44.33,2.02s.54,1.03.97,1.36c.42.32.94.48,1.55.48s1.16-.17,1.59-.5c.43-.34.75-.8.97-1.38.22-.58.33-1.24.33-1.97s-.11-1.37-.33-1.94c-.21-.57-.54-1.03-.97-1.36-.43-.33-.96-.5-1.6-.5s-1.14.16-1.56.48c-.42.32-.74.76-.96,1.33-.22.57-.33,1.23-.33,1.99ZM184.21,370.42v-15h2.07v1.77h.18c.12-.23.3-.49.53-.79.23-.3.55-.56.97-.78.41-.23.96-.34,1.63-.34.88,0,1.67.22,2.36.67.69.45,1.23,1.09,1.63,1.92.4.84.6,1.85.6,3.03s-.2,2.19-.59,3.03c-.39.84-.93,1.48-1.62,1.94-.69.45-1.47.67-2.35.67-.66,0-1.21-.11-1.63-.33-.42-.22-.74-.48-.98-.78-.24-.3-.42-.56-.55-.8h-.13v5.79h-2.12ZM179.22,361.81v-6.38h2.13v10.91h-2.09v-1.89h-.11c-.25.58-.65,1.07-1.21,1.46-.55.38-1.23.58-2.05.58-.7,0-1.32-.15-1.86-.46-.54-.31-.96-.77-1.26-1.38-.3-.61-.45-1.37-.45-2.27v-6.94h2.12v6.68c0,.74.21,1.34.62,1.78.41.44.95.66,1.61.66.4,0,.79-.1,1.19-.3.4-.2.73-.5.99-.9.27-.4.4-.91.39-1.53ZM169.77,358.09l-1.92.34c-.08-.25-.21-.48-.38-.7-.17-.22-.4-.4-.7-.55s-.66-.21-1.1-.21c-.6,0-1.1.13-1.51.4-.4.27-.6.61-.6,1.03,0,.36.13.66.4.88.27.22.71.4,1.31.55l1.73.4c1,.23,1.75.59,2.24,1.07.49.48.74,1.11.74,1.88,0,.65-.19,1.24-.57,1.75-.37.51-.9.9-1.57,1.19-.67.29-1.44.43-2.32.43-1.22,0-2.22-.26-2.99-.78-.77-.53-1.25-1.27-1.42-2.24l2.05-.31c.13.54.39.94.79,1.21.4.27.92.4,1.56.4.7,0,1.25-.14,1.67-.43.42-.29.62-.65.62-1.07,0-.34-.13-.63-.38-.86-.25-.23-.64-.41-1.16-.53l-1.85-.4c-1.02-.23-1.77-.6-2.26-1.11-.48-.51-.72-1.15-.72-1.92,0-.64.18-1.21.54-1.69s.86-.86,1.49-1.13c.63-.27,1.36-.41,2.18-.41,1.18,0,2.11.26,2.78.77.68.51,1.12,1.19,1.34,2.04ZM146.47,359.86v6.48h-2.12v-10.91h2.04v1.78h.13c.25-.58.64-1.04,1.18-1.39.54-.35,1.22-.53,2.04-.53.74,0,1.39.16,1.95.47.56.31.99.77,1.3,1.38.31.61.46,1.37.46,2.27v6.94h-2.12v-6.68c0-.79-.21-1.41-.62-1.85-.41-.45-.98-.67-1.7-.67-.49,0-.93.11-1.31.32-.38.21-.68.53-.9.94-.22.41-.33.9-.33,1.48ZM140.44,353.74c-.37,0-.69-.12-.95-.37-.26-.25-.39-.55-.39-.89s.13-.65.39-.89c.27-.25.58-.38.95-.38s.68.13.94.38c.27.25.4.54.4.89s-.13.64-.4.89c-.26.25-.58.37-.94.37ZM139.37,366.33v-10.91h2.12v10.91h-2.12ZM131.92,364.77c.66,0,1.21-.18,1.65-.53s.76-.82.97-1.4c.21-.58.32-1.22.32-1.92s-.11-1.34-.32-1.92c-.21-.59-.53-1.06-.97-1.41-.44-.36-.98-.53-1.65-.53s-1.22.18-1.66.53c-.44.36-.76.83-.97,1.41-.21.58-.31,1.22-.31,1.92s.1,1.34.31,1.92c.21.58.54,1.05.97,1.4.44.35.99.53,1.66.53ZM131.91,366.55c-1.02,0-1.92-.23-2.68-.7-.76-.47-1.35-1.12-1.78-1.97-.42-.84-.63-1.83-.63-2.95s.21-2.12.63-2.97c.42-.85,1.01-1.51,1.78-1.97.76-.47,1.65-.7,2.68-.7s1.92.23,2.68.7c.76.47,1.35,1.13,1.78,1.97.42.85.63,1.84.63,2.97s-.21,2.11-.63,2.95c-.42.84-1.01,1.5-1.78,1.97-.76.47-1.65.7-2.68.7ZM120.56,366.55c-1.06,0-1.96-.24-2.73-.72-.76-.48-1.34-1.15-1.75-2-.41-.85-.61-1.82-.61-2.91s.21-2.09.62-2.93c.42-.85,1-1.52,1.76-2,.76-.48,1.65-.72,2.68-.72.83,0,1.57.15,2.22.46.65.3,1.17.73,1.57,1.28.4.55.64,1.19.72,1.92h-2.07c-.11-.51-.37-.95-.78-1.32-.4-.37-.94-.55-1.62-.55-.59,0-1.11.16-1.56.47-.44.31-.78.75-1.03,1.32-.25.57-.37,1.24-.37,2.02s.12,1.48.36,2.06c.24.58.58,1.03,1.02,1.34.45.32.97.48,1.57.48.4,0,.77-.07,1.09-.22.33-.15.61-.37.83-.65.23-.28.39-.62.48-1.01h2.07c-.08.71-.31,1.34-.69,1.89-.38.55-.9.99-1.54,1.31-.64.32-1.39.48-2.25.48ZM106.77,353.74c-.37,0-.69-.12-.95-.37-.26-.25-.39-.55-.39-.89s.13-.65.39-.89c.27-.25.58-.38.95-.38s.68.13.94.38c.27.25.4.54.4.89s-.13.64-.4.89c-.26.25-.58.37-.94.37ZM105.69,366.33v-10.91h2.12v10.91h-2.12ZM98.98,352.81h2.12v10.32c0,.41.06.72.18.93.12.2.28.34.48.42.2.07.41.11.65.11.17,0,.32-.01.45-.04s.23-.04.3-.06l.38,1.75c-.12.05-.3.09-.53.14-.23.05-.51.08-.85.09-.56,0-1.08-.09-1.56-.3-.48-.21-.87-.53-1.17-.97-.3-.44-.45-.98-.45-1.64v-10.76ZM103.34,355.42v1.7h-5.96v-1.7h5.96ZM95.39,351.79v14.55h-2.12v-14.55h2.12ZM88.29,361.81v-6.38h2.13v10.91h-2.09v-1.89h-.11c-.25.58-.65,1.07-1.21,1.46-.55.38-1.23.58-2.05.58-.7,0-1.32-.15-1.86-.46-.54-.31-.96-.77-1.26-1.38-.3-.61-.45-1.37-.45-2.27v-6.94h2.12v6.68c0,.74.21,1.34.62,1.78.41.44.95.66,1.61.66.4,0,.79-.1,1.19-.3.4-.2.73-.5.99-.9.27-.4.4-.91.39-1.53ZM63.6,351.79h2.66l4.63,11.31h.17l4.63-11.31h2.66v14.55h-2.09v-10.53h-.13l-4.29,10.5h-1.73l-4.29-10.51h-.13v10.53h-2.09v-14.55ZM47.01,363.66c-.57,0-1.1-.14-1.57-.42-.47-.28-.85-.66-1.14-1.14-.28-.47-.42-1-.42-1.57s.14-1.1.42-1.57c.28-.47.66-.85,1.14-1.13.47-.28,1-.43,1.57-.43s1.1.14,1.57.43c.47.28.85.66,1.13,1.13.28.47.43.99.43,1.57s-.14,1.1-.43,1.57c-.28.47-.66.85-1.13,1.14-.47.28-.99.42-1.57.42Z"/>
      <path class="cls-6" d="M127.75,394.41c.61,0,1.13-.14,1.55-.43.43-.29.75-.7.97-1.24.22-.54.33-1.19.33-1.94s-.11-1.38-.33-1.94c-.22-.56-.54-.99-.96-1.31-.42-.32-.94-.48-1.56-.48s-1.17.17-1.6.5c-.43.33-.75.77-.97,1.34-.21.56-.32,1.19-.32,1.89s.11,1.34.33,1.88c.22.54.54.96.97,1.26.43.3.96.45,1.59.45ZM127.77,400.65c-.87,0-1.61-.11-2.24-.34-.62-.23-1.13-.53-1.52-.9s-.69-.78-.88-1.23l1.83-.75c.13.21.3.43.51.66.22.24.51.44.88.6.37.17.85.25,1.44.25.8,0,1.47-.2,2-.59.53-.39.79-1.01.79-1.86v-2.14h-.13c-.13.23-.31.49-.55.77-.24.28-.56.53-.98.74-.42.21-.96.31-1.63.31-.86,0-1.64-.2-2.33-.6-.69-.41-1.23-1.01-1.63-1.8-.4-.8-.6-1.77-.6-2.93s.2-2.15.59-2.98c.4-.83.94-1.46,1.63-1.9.69-.45,1.47-.67,2.35-.67.68,0,1.22.11,1.64.34.42.22.74.48.97.78.24.3.42.56.55.79h.16v-1.77h2.08v11.15c0,.94-.22,1.71-.65,2.31-.44.6-1.03,1.05-1.77,1.34-.74.29-1.57.43-2.5.43ZM113.36,389.86v6.48h-2.12v-10.91h2.04v1.78h.13c.25-.58.64-1.04,1.18-1.39.54-.35,1.22-.53,2.04-.53.74,0,1.39.16,1.95.47.56.31.99.77,1.3,1.38.31.61.46,1.37.46,2.27v6.94h-2.12v-6.68c0-.79-.21-1.41-.62-1.85-.41-.45-.98-.67-1.7-.67-.49,0-.93.11-1.31.32-.38.21-.68.53-.9.94-.22.41-.33.9-.33,1.48ZM107.33,383.74c-.37,0-.69-.12-.95-.37-.26-.25-.39-.55-.39-.89s.13-.65.39-.89c.27-.25.58-.38.95-.38s.68.13.94.38c.27.25.4.54.4.89s-.13.64-.4.89c-.26.25-.58.37-.94.37ZM106.26,396.33v-10.91h2.12v10.91h-2.12ZM102.02,396.33l-3.91-5.18,1.46-1.48,5.05,6.67h-2.61ZM95.13,396.33v-14.55h2.12v14.55h-2.12ZM97.08,392.63v-2.59s.36,0,.36,0l4.35-4.62h2.54l-4.96,5.26h-.33l-1.95,1.95ZM87.38,394.87c.59,0,1.09-.12,1.51-.35.42-.23.74-.54.96-.91.22-.38.33-.78.33-1.21v-1.41c-.08.08-.22.15-.44.21-.21.06-.46.12-.73.16-.27.04-.54.08-.8.12-.26.03-.48.06-.65.09-.41.05-.79.14-1.13.26-.34.12-.61.3-.81.53-.2.23-.3.53-.3.91,0,.53.19.92.58,1.19.39.27.88.4,1.48.4ZM86.91,396.57c-.69,0-1.32-.13-1.88-.38-.56-.26-1-.64-1.33-1.13-.32-.49-.48-1.1-.48-1.81,0-.62.12-1.12.36-1.52s.56-.71.96-.94.85-.41,1.35-.53c.5-.12,1-.21,1.52-.27.65-.08,1.18-.14,1.59-.18.41-.05.7-.13.89-.25.18-.11.28-.3.28-.55v-.05c0-.62-.18-1.1-.53-1.44-.35-.34-.86-.51-1.55-.51s-1.28.16-1.69.48c-.41.31-.69.66-.85,1.04l-2-.45c.24-.66.58-1.2,1.04-1.61.46-.41.99-.71,1.58-.89.6-.19,1.22-.28,1.88-.28.44,0,.9.05,1.38.16.49.1.95.28,1.38.55.43.27.78.66,1.06,1.16.27.5.41,1.14.41,1.94v7.24h-2.07v-1.49h-.09c-.14.27-.34.54-.62.81s-.63.49-1.06.66c-.43.18-.95.26-1.55.26ZM77.03,382.81h2.12v10.32c0,.41.06.72.18.93.12.2.28.34.48.42.2.07.41.11.65.11.17,0,.32-.01.45-.04s.23-.04.3-.06l.38,1.75c-.12.05-.3.09-.53.14-.23.05-.51.08-.85.09-.56,0-1.08-.09-1.56-.3-.48-.21-.87-.53-1.17-.97-.3-.44-.45-.98-.45-1.64v-10.76ZM81.39,385.42v1.7h-5.96v-1.7h5.96ZM71.53,385.61c-.08-.67-.39-1.19-.94-1.56-.55-.37-1.24-.56-2.07-.56-.6,0-1.11.09-1.55.28-.44.18-.77.44-1.02.77-.24.32-.36.69-.36,1.1,0,.35.08.64.24.89.17.25.38.46.65.63.27.17.56.31.87.42.31.11.6.2.89.27l1.42.37c.46.11.94.27,1.43.46.49.19.94.45,1.36.77s.75.71,1.01,1.18c.26.47.39,1.03.39,1.68,0,.82-.21,1.56-.64,2.19-.42.64-1.03,1.14-1.84,1.51-.8.37-1.77.55-2.9.55s-2.03-.17-2.83-.52c-.8-.35-1.42-.84-1.87-1.47-.45-.64-.7-1.4-.75-2.27h2.2c.04.53.21.96.51,1.31.3.35.69.6,1.16.77.47.17.99.25,1.56.25.62,0,1.17-.1,1.65-.29.49-.2.87-.47,1.15-.82.28-.36.42-.77.42-1.24,0-.43-.12-.78-.37-1.06-.24-.27-.57-.5-.99-.68-.41-.18-.88-.34-1.4-.48l-1.72-.47c-1.16-.32-2.09-.78-2.77-1.4-.68-.62-1.02-1.43-1.02-2.44,0-.84.23-1.57.68-2.19.45-.62,1.07-1.11,1.85-1.46.78-.35,1.65-.53,2.63-.53s1.85.17,2.61.52c.76.35,1.35.82,1.79,1.43.44.6.66,1.29.68,2.07h-2.12ZM47.01,393.66c-.57,0-1.1-.14-1.57-.42-.47-.28-.85-.66-1.14-1.14-.28-.47-.42-1-.42-1.57s.14-1.1.42-1.57c.28-.47.66-.85,1.14-1.13.47-.28,1-.43,1.57-.43s1.1.14,1.57.43c.47.28.85.66,1.13,1.13.28.47.43.99.43,1.57s-.14,1.1-.43,1.57c-.28.47-.66.85-1.13,1.14-.47.28-.99.42-1.57.42Z"/>
      <path class="cls-4" d="M5.5,21.33c0-3.04,2.46-5.5,5.5-5.5v-5C5.2,10.83.5,15.53.5,21.33h5ZM11,15.83h82v-5H11v5ZM5.5,242.33V21.33H.5v221h5ZM79.67,13.33c0,7.36,5.97,13.33,13.33,13.33s13.33-5.97,13.33-13.33S100.36,0,93,0s-13.33,5.97-13.33,13.33Z"/>
    </g>
  </g>
</svg>