<?xml version="1.0" encoding="UTF-8"?>
<svg id="Warstwa_2" data-name="Warstwa 2" xmlns="http://www.w3.org/2000/svg" xmlns:xlink="http://www.w3.org/1999/xlink" viewBox="0 0 328 273.33">
  <defs>
    <style>
      .cls-1 {
        clip-path: url(#clippath);
      }

      .cls-2 {
        fill: #f5f5f6;
      }

      .cls-2, .cls-3, .cls-4, .cls-5, .cls-6 {
        stroke-width: 0px;
      }

      .cls-3 {
        fill: #333741;
      }

      .cls-4 {
        fill: #3742f5;
      }

      .cls-5 {
        clip-rule: evenodd;
        fill: none;
      }

      .cls-6 {
        fill: #cecfd2;
      }
    </style>
    <clipPath id="clippath">
      <path class="cls-5" d="M0,57.33h264c35.35,0,64,28.65,64,64v152H64C28.65,273.33,0,244.68,0,209.33V57.33Z"/>
    </clipPath>
  </defs>
  <g id="Warstwa_1-2" data-name="Warstwa 1">
    <g>
      <path class="cls-3" d="M0,57.33h264c35.35,0,64,28.65,64,64v152H64C28.65,273.33,0,244.68,0,209.33V57.33Z"/>
      <g class="cls-1">
        <path class="cls-4" d="M328,57.33v216V57.33ZM64,273.33c-38.11,0-69-30.89-69-69V57.33H5v152c0,35.35,26.42,64,59,64ZM328,273.33H0h328ZM0,57.33h328H0Z"/>
      </g>
      <path class="cls-2" d="M109.55,100.29c0,2.14,1.42,3.62,3.48,3.62s3.43-1.49,3.43-3.62-1.42-3.58-3.43-3.58-3.48,1.46-3.48,3.58ZM109.07,93.95l3.79-5.16h3.5l-4.2,5.59c.43-.12.89-.19,1.32-.19,3.62,0,6.07,2.54,6.07,6.1,0,3.74-2.78,6.36-6.53,6.36s-6.62-2.78-6.62-6.38c0-2.11.7-3.65,2.66-6.31ZM92.46,96.52c-1.73,0-2.78.94-3.07,2.71h5.95c0-1.63-1.13-2.71-2.88-2.71ZM92.53,106.65c-3.53,0-6-2.57-6-6.24s2.42-6.29,5.9-6.29,5.81,2.38,5.81,6.07v.89l-8.93.02c.22,2.09,1.32,3.14,3.26,3.14,1.61,0,2.66-.62,3-1.75h2.71c-.5,2.59-2.66,4.15-5.76,4.15ZM75.21,102.73h2.78c.02,1.03.79,1.68,2.14,1.68s2.11-.55,2.11-1.42c0-.6-.31-1.03-1.37-1.27l-2.14-.5c-2.14-.48-3.17-1.49-3.17-3.38,0-2.33,1.97-3.72,4.7-3.72s4.46,1.54,4.49,3.84h-2.78c-.02-1.01-.7-1.66-1.82-1.66s-1.82.53-1.82,1.42c0,.67.53,1.1,1.54,1.34l2.14.5c1.99.46,3,1.37,3,3.19,0,2.4-2.04,3.89-4.97,3.89s-4.82-1.58-4.82-3.91ZM67.46,104.44c1.8,0,2.95-1.08,2.95-2.9v-.62l-2.47.19c-1.82.17-2.52.77-2.52,1.73,0,1.08.72,1.61,2.04,1.61ZM66.5,106.65c-2.52,0-4.06-1.46-4.06-3.7s1.58-3.55,4.39-3.77l3.55-.26v-.26c0-1.61-.96-2.26-2.45-2.26-1.73,0-2.69.72-2.69,1.97h-2.5c0-2.57,2.11-4.25,5.33-4.25s5.16,1.73,5.16,5.02v7.2h-2.57l-.22-1.75c-.5,1.22-2.11,2.06-3.96,2.06ZM51.77,106.33h-2.93v-17.86h2.95v7.54c.74-1.15,2.14-1.9,3.84-1.9,2.93,0,4.46,1.85,4.46,4.92v7.3h-2.93v-6.6c0-1.99-.98-2.95-2.47-2.95-1.85,0-2.93,1.3-2.93,3.07v6.48ZM40.28,91.53h-3.26v6.02h3.22c2.11,0,3.24-1.13,3.24-3.05s-1.15-2.98-3.19-2.98ZM40.88,100.29h-3.86v6.05h-3.07v-17.54h6.94c3.53,0,5.81,2.3,5.81,5.74s-2.3,5.76-5.81,5.76Z"/>
      <path class="cls-6" d="M241.37,137.81h2.12v10.32c0,.41.06.72.18.93.12.2.28.34.48.42.2.07.41.11.65.11.17,0,.32-.01.45-.04.13-.02.23-.04.3-.06l.38,1.75c-.12.05-.3.09-.53.14-.23.05-.51.08-.85.09-.56,0-1.08-.09-1.56-.3-.48-.21-.87-.53-1.17-.97-.3-.44-.45-.98-.45-1.64v-10.76ZM245.73,140.42v1.7h-5.96v-1.7h5.96ZM232.31,151.33v-10.91h2.05v1.73h.11c.2-.59.55-1.05,1.05-1.38.51-.34,1.08-.51,1.72-.51.13,0,.29,0,.47.01.18,0,.33.02.43.04v2.03c-.09-.02-.24-.05-.45-.08-.22-.03-.44-.05-.65-.05-.5,0-.95.11-1.34.32-.39.21-.7.5-.92.87-.23.37-.34.79-.34,1.26v6.66h-2.12ZM224.87,149.77c.66,0,1.21-.18,1.65-.53.44-.35.76-.82.97-1.4.21-.58.32-1.22.32-1.92s-.11-1.34-.32-1.92c-.21-.59-.53-1.06-.97-1.41-.44-.36-.98-.53-1.65-.53s-1.22.18-1.66.53c-.44.36-.76.83-.97,1.41-.21.58-.31,1.22-.31,1.92s.1,1.34.31,1.92c.21.58.54,1.05.97,1.4.44.35.99.53,1.66.53ZM224.86,151.55c-1.02,0-1.92-.23-2.68-.7-.76-.47-1.35-1.12-1.78-1.97s-.63-1.83-.63-2.95.21-2.12.63-2.97,1.01-1.51,1.78-1.97c.76-.47,1.65-.7,2.68-.7s1.92.23,2.68.7c.76.47,1.35,1.13,1.78,1.97s.63,1.84.63,2.97-.21,2.11-.63,2.95-1.01,1.5-1.78,1.97c-.76.47-1.65.7-2.68.7ZM210,145.88c0,.77.11,1.44.33,2.02.22.58.54,1.03.97,1.36.42.32.94.48,1.55.48s1.16-.17,1.59-.5c.43-.34.75-.8.97-1.38.22-.58.33-1.24.33-1.97s-.11-1.37-.33-1.94c-.21-.57-.53-1.03-.97-1.36-.43-.33-.96-.5-1.6-.5s-1.14.16-1.56.48c-.42.32-.74.76-.96,1.33-.22.57-.33,1.23-.33,1.99ZM207.92,155.42v-15h2.07v1.77h.18c.12-.23.3-.49.53-.79.23-.3.55-.56.97-.78.41-.23.96-.34,1.63-.34.88,0,1.67.22,2.36.67.69.45,1.23,1.09,1.63,1.92.4.84.6,1.85.6,3.03s-.2,2.19-.59,3.03c-.39.84-.93,1.48-1.62,1.94-.69.45-1.47.67-2.35.67-.66,0-1.2-.11-1.63-.33-.42-.22-.74-.48-.98-.78s-.42-.56-.55-.8h-.13v5.79h-2.12ZM197.66,145.88c0,.77.11,1.44.33,2.02.22.58.54,1.03.97,1.36.42.32.94.48,1.55.48s1.16-.17,1.59-.5c.43-.34.75-.8.97-1.38.22-.58.33-1.24.33-1.97s-.11-1.37-.33-1.94c-.21-.57-.53-1.03-.97-1.36-.43-.33-.96-.5-1.6-.5s-1.14.16-1.56.48c-.42.32-.74.76-.96,1.33-.22.57-.33,1.23-.33,1.99ZM195.58,155.42v-15h2.07v1.77h.18c.12-.23.3-.49.53-.79.23-.3.55-.56.97-.78.41-.23.96-.34,1.63-.34.88,0,1.67.22,2.36.67.69.45,1.23,1.09,1.63,1.92.4.84.6,1.85.6,3.03s-.2,2.19-.59,3.03c-.39.84-.93,1.48-1.62,1.94-.69.45-1.47.67-2.35.67-.66,0-1.2-.11-1.63-.33-.42-.22-.74-.48-.98-.78s-.42-.56-.55-.8h-.13v5.79h-2.12ZM190.59,146.81v-6.38h2.13v10.91h-2.09v-1.89h-.11c-.25.58-.65,1.07-1.21,1.46-.55.38-1.23.58-2.05.58-.7,0-1.32-.15-1.86-.46-.53-.31-.96-.77-1.26-1.38-.3-.61-.45-1.37-.45-2.27v-6.94h2.12v6.68c0,.74.21,1.34.62,1.78.41.44.95.66,1.61.66.4,0,.79-.1,1.19-.3.4-.2.73-.5.99-.9.27-.4.4-.91.39-1.53ZM181.13,143.09l-1.92.34c-.08-.25-.21-.48-.38-.7-.17-.22-.4-.4-.7-.55s-.66-.21-1.1-.21c-.6,0-1.1.13-1.51.4-.4.27-.6.61-.6,1.03,0,.36.13.66.4.88.27.22.71.4,1.31.55l1.73.4c1,.23,1.75.59,2.24,1.07s.74,1.11.74,1.88c0,.65-.19,1.24-.57,1.75-.37.51-.9.9-1.57,1.19-.67.29-1.44.43-2.32.43-1.22,0-2.22-.26-2.99-.78-.77-.53-1.25-1.27-1.42-2.24l2.05-.31c.13.54.39.94.79,1.21.4.27.92.4,1.56.4.7,0,1.25-.14,1.67-.43.42-.29.62-.65.62-1.07,0-.34-.13-.63-.38-.86-.25-.23-.64-.41-1.16-.53l-1.85-.4c-1.02-.23-1.77-.6-2.26-1.11-.48-.51-.72-1.15-.72-1.92,0-.64.18-1.21.54-1.69s.86-.86,1.49-1.13c.63-.27,1.36-.41,2.18-.41,1.18,0,2.11.26,2.78.77.68.51,1.12,1.19,1.34,2.04ZM157.84,144.86v6.48h-2.12v-10.91h2.04v1.78h.13c.25-.58.64-1.04,1.18-1.39.54-.35,1.22-.53,2.04-.53.74,0,1.39.16,1.95.47.56.31.99.77,1.3,1.38s.46,1.37.46,2.27v6.94h-2.12v-6.68c0-.79-.21-1.41-.62-1.85-.41-.45-.98-.67-1.7-.67-.49,0-.93.11-1.31.32-.38.21-.68.53-.9.94-.22.41-.33.9-.33,1.48ZM151.8,138.74c-.37,0-.69-.12-.95-.37-.26-.25-.39-.55-.39-.89s.13-.65.39-.89c.27-.25.58-.38.95-.38s.68.13.94.38c.27.25.4.54.4.89s-.13.64-.4.89c-.26.25-.58.37-.94.37ZM150.73,151.33v-10.91h2.12v10.91h-2.12ZM142.98,149.87c.59,0,1.09-.12,1.51-.35.42-.23.74-.54.96-.91.22-.38.33-.78.33-1.21v-1.41c-.08.08-.22.15-.44.21-.21.06-.46.12-.73.16-.27.04-.54.08-.8.12-.26.03-.48.06-.65.09-.41.05-.79.14-1.13.26-.34.12-.61.3-.81.53-.2.23-.3.53-.3.91,0,.53.19.92.58,1.19.39.27.88.4,1.48.4ZM142.52,151.57c-.69,0-1.32-.13-1.88-.38-.56-.26-1-.64-1.33-1.13-.32-.49-.48-1.1-.48-1.81,0-.62.12-1.12.36-1.52.24-.4.56-.71.96-.94s.85-.41,1.35-.53c.5-.12,1-.21,1.52-.27.65-.08,1.18-.14,1.59-.18.41-.05.7-.13.89-.25.18-.11.28-.3.28-.55v-.05c0-.62-.18-1.1-.53-1.44-.35-.34-.86-.51-1.55-.51s-1.28.16-1.69.48c-.41.31-.69.66-.85,1.04l-2-.45c.24-.66.58-1.2,1.04-1.61.46-.41.99-.71,1.58-.89.6-.19,1.22-.28,1.88-.28.44,0,.9.05,1.39.16.49.1.95.28,1.38.55.43.27.78.66,1.06,1.16.27.5.41,1.14.41,1.94v7.24h-2.07v-1.49h-.09c-.14.27-.34.54-.62.81-.27.27-.63.49-1.06.66-.43.18-.95.26-1.55.26ZM129.44,144.86v6.48h-2.12v-14.55h2.1v5.41h.14c.26-.59.65-1.05,1.17-1.4.53-.35,1.21-.52,2.06-.52.75,0,1.4.15,1.96.46.56.31,1,.77,1.31,1.38.31.61.47,1.36.47,2.27v6.94h-2.12v-6.68c0-.8-.21-1.42-.62-1.86-.41-.45-.98-.67-1.72-.67-.5,0-.95.11-1.35.32-.39.21-.7.53-.93.94-.22.41-.33.9-.33,1.48ZM120.56,151.55c-1.06,0-1.96-.24-2.73-.72-.76-.48-1.34-1.15-1.75-2-.41-.85-.61-1.82-.61-2.91s.21-2.09.62-2.93c.42-.85,1-1.52,1.76-2,.76-.48,1.65-.72,2.68-.72.83,0,1.57.15,2.22.46.65.3,1.17.73,1.57,1.28.4.55.64,1.19.72,1.92h-2.07c-.11-.51-.37-.95-.78-1.32-.4-.37-.94-.55-1.62-.55-.59,0-1.11.16-1.56.47-.44.31-.78.75-1.03,1.32-.25.57-.37,1.24-.37,2.02s.12,1.48.36,2.06.58,1.03,1.02,1.34c.45.32.97.48,1.57.48.4,0,.77-.07,1.09-.22.33-.15.61-.37.83-.65.23-.28.39-.62.48-1.01h2.07c-.08.71-.31,1.34-.69,1.89s-.9.99-1.54,1.31c-.64.32-1.39.48-2.25.48ZM106.77,138.74c-.37,0-.69-.12-.95-.37-.26-.25-.39-.55-.39-.89s.13-.65.39-.89c.27-.25.58-.38.95-.38s.68.13.94.38c.27.25.4.54.4.89s-.13.64-.4.89c-.26.25-.58.37-.94.37ZM105.69,151.33v-10.91h2.12v10.91h-2.12ZM98.98,137.81h2.12v10.32c0,.41.06.72.18.93.12.2.28.34.48.42.2.07.41.11.65.11.17,0,.32-.01.45-.04.13-.02.23-.04.3-.06l.38,1.75c-.12.05-.3.09-.53.14-.23.05-.51.08-.85.09-.56,0-1.08-.09-1.56-.3-.48-.21-.87-.53-1.17-.97-.3-.44-.45-.98-.45-1.64v-10.76ZM103.34,140.42v1.7h-5.96v-1.7h5.96ZM95.39,136.79v14.55h-2.12v-14.55h2.12ZM88.29,146.81v-6.38h2.13v10.91h-2.09v-1.89h-.11c-.25.58-.65,1.07-1.21,1.46-.55.38-1.23.58-2.05.58-.7,0-1.32-.15-1.86-.46-.54-.31-.96-.77-1.26-1.38-.3-.61-.45-1.37-.45-2.27v-6.94h2.12v6.68c0,.74.21,1.34.62,1.78.41.44.95.66,1.61.66.4,0,.79-.1,1.19-.3.4-.2.73-.5.99-.9.27-.4.4-.91.39-1.53ZM63.6,136.79h2.66l4.63,11.31h.17l4.63-11.31h2.66v14.55h-2.09v-10.53h-.13l-4.29,10.5h-1.73l-4.29-10.51h-.14v10.53h-2.09v-14.55ZM47.01,148.66c-.57,0-1.1-.14-1.57-.42-.47-.28-.85-.66-1.14-1.14-.28-.47-.42-1-.42-1.57s.14-1.1.42-1.57c.28-.47.66-.85,1.14-1.13.47-.28,1-.43,1.57-.43s1.1.14,1.57.43c.47.28.85.66,1.13,1.13.28.47.43.99.43,1.57s-.14,1.1-.43,1.57c-.28.47-.66.85-1.13,1.14-.47.28-.99.42-1.57.42Z"/>
      <path class="cls-6" d="M165.72,173.09l-1.92.34c-.08-.25-.21-.48-.38-.7-.17-.22-.4-.4-.7-.55s-.66-.21-1.1-.21c-.6,0-1.1.13-1.51.4-.4.27-.6.61-.6,1.03,0,.36.13.66.4.88.27.22.71.4,1.31.55l1.73.4c1,.23,1.75.59,2.24,1.07s.74,1.11.74,1.88c0,.65-.19,1.24-.57,1.75-.37.51-.9.9-1.57,1.19-.67.29-1.44.43-2.32.43-1.22,0-2.22-.26-2.99-.78-.77-.53-1.25-1.27-1.42-2.24l2.05-.31c.13.54.39.94.79,1.21.4.27.92.4,1.56.4.7,0,1.25-.14,1.67-.43.42-.29.62-.65.62-1.07,0-.34-.13-.63-.38-.86-.25-.23-.64-.41-1.16-.53l-1.85-.4c-1.02-.23-1.77-.6-2.26-1.11-.48-.51-.72-1.15-.72-1.92,0-.64.18-1.21.54-1.69s.86-.86,1.49-1.13c.63-.27,1.36-.41,2.18-.41,1.18,0,2.11.26,2.78.77.68.51,1.12,1.19,1.34,2.04ZM154.69,166.79v14.55h-2.12v-14.55h2.12ZM145.12,179.77c.66,0,1.21-.18,1.65-.53.44-.35.76-.82.97-1.4.21-.58.32-1.22.32-1.92s-.11-1.34-.32-1.92c-.21-.59-.53-1.06-.97-1.41-.44-.36-.98-.53-1.65-.53s-1.22.18-1.66.53c-.44.36-.76.83-.97,1.41-.21.58-.31,1.22-.31,1.92s.1,1.34.31,1.92c.21.58.54,1.05.97,1.4.44.35.99.53,1.66.53ZM145.11,181.55c-1.02,0-1.92-.23-2.68-.7-.76-.47-1.35-1.12-1.78-1.97s-.63-1.83-.63-2.95.21-2.12.63-2.97,1.01-1.51,1.78-1.97c.76-.47,1.65-.7,2.68-.7s1.92.23,2.68.7,1.35,1.13,1.78,1.97.63,1.84.63,2.97-.21,2.11-.63,2.95-1.01,1.5-1.78,1.97-1.65.7-2.68.7ZM133.07,179.77c.66,0,1.21-.18,1.65-.53.44-.35.76-.82.97-1.4.21-.58.32-1.22.32-1.92s-.11-1.34-.32-1.92c-.21-.59-.53-1.06-.97-1.41-.44-.36-.98-.53-1.65-.53s-1.22.18-1.66.53c-.44.36-.76.83-.97,1.41-.21.58-.31,1.22-.31,1.92s.1,1.34.31,1.92c.21.58.54,1.05.97,1.4.44.35.99.53,1.66.53ZM133.06,181.55c-1.02,0-1.92-.23-2.68-.7-.76-.47-1.35-1.12-1.78-1.97s-.63-1.83-.63-2.95.21-2.12.63-2.97,1.01-1.51,1.78-1.97c.76-.47,1.65-.7,2.68-.7s1.92.23,2.68.7,1.35,1.13,1.78,1.97.63,1.84.63,2.97-.21,2.11-.63,2.95-1.01,1.5-1.78,1.97-1.65.7-2.68.7ZM118.2,175.88c0,.77.11,1.44.33,2.02s.54,1.03.97,1.36c.42.32.94.48,1.55.48s1.16-.17,1.59-.5c.43-.34.75-.8.97-1.38.22-.58.33-1.24.33-1.97s-.11-1.37-.33-1.94c-.21-.57-.54-1.03-.97-1.36-.43-.33-.96-.5-1.6-.5s-1.14.16-1.56.48c-.42.32-.74.76-.96,1.33-.22.57-.33,1.23-.33,1.99ZM116.12,185.42v-15h2.07v1.77h.18c.12-.23.3-.49.53-.79.23-.3.55-.56.97-.78.41-.23.96-.34,1.63-.34.88,0,1.67.22,2.36.67.69.45,1.23,1.09,1.63,1.92.4.84.6,1.85.6,3.03s-.2,2.19-.59,3.03c-.39.84-.93,1.48-1.62,1.94-.69.45-1.47.67-2.35.67-.66,0-1.21-.11-1.63-.33-.42-.22-.74-.48-.98-.78-.24-.3-.42-.56-.55-.8h-.13v5.79h-2.12ZM102.86,179.74c.61,0,1.13-.16,1.55-.48.43-.33.75-.78.97-1.36.22-.58.33-1.25.33-2.02s-.11-1.42-.33-1.99c-.22-.57-.54-1.01-.96-1.33-.42-.32-.94-.48-1.56-.48s-1.17.17-1.6.5-.75.78-.97,1.36c-.21.57-.32,1.22-.32,1.94s.11,1.38.33,1.97c.22.58.54,1.04.97,1.38.43.34.96.5,1.59.5ZM102.39,181.55c-.88,0-1.67-.22-2.36-.67-.69-.45-1.23-1.1-1.62-1.94-.39-.84-.58-1.85-.58-3.03s.2-2.19.59-3.03c.4-.84.94-1.48,1.63-1.92.69-.45,1.47-.67,2.35-.67.68,0,1.22.11,1.63.34.42.22.74.48.97.78.23.3.41.56.54.79h.13v-5.4h2.12v14.55h-2.07v-1.7h-.18c-.13.23-.31.5-.55.8-.24.3-.56.56-.98.78-.42.22-.96.33-1.62.33ZM88.48,174.86v6.48h-2.12v-10.91h2.04v1.78h.13c.25-.58.64-1.04,1.18-1.39.54-.35,1.22-.53,2.04-.53.74,0,1.39.16,1.95.47.56.31.99.77,1.3,1.38s.46,1.37.46,2.27v6.94h-2.12v-6.68c0-.79-.21-1.41-.62-1.85-.41-.45-.98-.67-1.7-.67-.49,0-.93.11-1.31.32-.38.21-.68.53-.9.94-.22.41-.33.9-.33,1.48ZM81.37,176.81v-6.38h2.13v10.91h-2.09v-1.89h-.11c-.25.58-.65,1.07-1.21,1.46-.55.38-1.23.58-2.05.58-.7,0-1.32-.15-1.86-.46-.54-.31-.96-.77-1.26-1.38-.3-.61-.45-1.37-.45-2.27v-6.94h2.12v6.68c0,.74.21,1.34.62,1.78.41.44.95.66,1.61.66.4,0,.79-.1,1.19-.3.4-.2.73-.5.99-.9.27-.4.4-.91.39-1.53ZM63.6,181.33v-14.55h9.02v1.89h-6.83v4.43h6.18v1.88h-6.18v6.34h-2.19ZM47.01,178.66c-.57,0-1.1-.14-1.57-.42-.47-.28-.85-.66-1.14-1.14-.28-.47-.42-1-.42-1.57s.14-1.1.42-1.57c.28-.47.66-.85,1.14-1.13.47-.28,1-.43,1.57-.43s1.1.14,1.57.43c.47.28.85.66,1.13,1.13.28.47.43.99.43,1.57s-.14,1.1-.43,1.57c-.28.47-.66.85-1.13,1.14-.47.28-.99.42-1.57.42Z"/>
      <path class="cls-6" d="M131.83,227.81h2.12v10.32c0,.41.06.72.18.93.12.2.28.34.48.42.2.07.41.11.65.11.17,0,.32-.01.45-.04.13-.02.23-.04.3-.06l.38,1.75c-.12.05-.3.09-.53.14-.23.05-.51.08-.85.09-.56,0-1.08-.09-1.56-.3-.48-.21-.87-.53-1.17-.97-.3-.44-.45-.98-.45-1.64v-10.76ZM136.2,230.42v1.7h-5.96v-1.7h5.96ZM122.78,241.33v-10.91h2.05v1.73h.11c.2-.59.55-1.05,1.05-1.38.51-.34,1.08-.51,1.72-.51.13,0,.29,0,.47.01.18,0,.33.02.43.04v2.03c-.09-.02-.24-.05-.45-.08-.22-.03-.44-.05-.65-.05-.5,0-.95.11-1.34.32-.39.21-.7.5-.92.87-.23.37-.34.79-.34,1.26v6.66h-2.12ZM115.33,239.77c.66,0,1.21-.18,1.65-.53.44-.35.76-.82.97-1.4.21-.58.32-1.22.32-1.92s-.11-1.34-.32-1.92c-.21-.59-.53-1.06-.97-1.41-.44-.36-.98-.53-1.65-.53s-1.22.18-1.66.53c-.44.36-.76.83-.97,1.41-.21.58-.31,1.22-.31,1.92s.1,1.34.31,1.92c.21.58.54,1.05.97,1.4.44.35.99.53,1.66.53ZM115.33,241.55c-1.02,0-1.92-.23-2.68-.7-.76-.47-1.35-1.12-1.78-1.97-.42-.84-.63-1.83-.63-2.95s.21-2.12.63-2.97,1.01-1.51,1.78-1.97c.76-.47,1.65-.7,2.68-.7s1.92.23,2.68.7,1.35,1.13,1.78,1.97.63,1.84.63,2.97-.21,2.11-.63,2.95c-.42.84-1.01,1.5-1.78,1.97s-1.65.7-2.68.7ZM100.47,235.88c0,.77.11,1.44.33,2.02s.54,1.03.97,1.36c.42.32.94.48,1.55.48s1.16-.17,1.59-.5c.43-.34.75-.8.97-1.38.22-.58.33-1.24.33-1.97s-.11-1.37-.33-1.94c-.21-.57-.54-1.03-.97-1.36-.43-.33-.96-.5-1.6-.5s-1.14.16-1.56.48c-.42.32-.74.76-.96,1.33-.22.57-.33,1.23-.33,1.99ZM98.39,245.42v-15h2.07v1.77h.18c.12-.23.3-.49.53-.79.23-.3.55-.56.97-.78.41-.23.96-.34,1.63-.34.88,0,1.67.22,2.36.67s1.23,1.09,1.63,1.92c.4.84.6,1.85.6,3.03s-.2,2.19-.59,3.03c-.39.84-.93,1.48-1.62,1.94-.69.45-1.47.67-2.35.67-.66,0-1.21-.11-1.63-.33-.42-.22-.74-.48-.98-.78-.24-.3-.42-.56-.55-.8h-.13v5.79h-2.12ZM88.13,235.88c0,.77.11,1.44.33,2.02s.54,1.03.97,1.36c.42.32.94.48,1.55.48s1.16-.17,1.59-.5c.43-.34.75-.8.97-1.38.22-.58.33-1.24.33-1.97s-.11-1.37-.33-1.94c-.21-.57-.54-1.03-.97-1.36-.43-.33-.96-.5-1.6-.5s-1.14.16-1.56.48c-.42.32-.74.76-.96,1.33-.22.57-.33,1.23-.33,1.99ZM86.04,245.42v-15h2.07v1.77h.18c.12-.23.3-.49.53-.79.23-.3.55-.56.97-.78.41-.23.96-.34,1.63-.34.88,0,1.67.22,2.36.67s1.23,1.09,1.63,1.92c.4.84.6,1.85.6,3.03s-.2,2.19-.59,3.03c-.39.84-.93,1.48-1.62,1.94-.69.45-1.47.67-2.35.67-.66,0-1.21-.11-1.63-.33-.42-.22-.74-.48-.98-.78-.24-.3-.42-.56-.55-.8h-.13v5.79h-2.12ZM81.06,236.81v-6.38h2.13v10.91h-2.09v-1.89h-.11c-.25.58-.65,1.07-1.21,1.46-.55.38-1.23.58-2.05.58-.7,0-1.32-.15-1.86-.46-.54-.31-.96-.77-1.26-1.38-.3-.61-.45-1.37-.45-2.27v-6.94h2.12v6.68c0,.74.21,1.34.62,1.78.41.44.95.66,1.61.66.4,0,.79-.1,1.19-.3.4-.2.73-.5.99-.9.27-.4.4-.91.39-1.53ZM71.6,233.09l-1.92.34c-.08-.25-.21-.48-.38-.7-.17-.22-.4-.4-.7-.55s-.66-.21-1.1-.21c-.6,0-1.1.13-1.51.4-.4.27-.6.61-.6,1.03,0,.36.13.66.4.88.27.22.71.4,1.31.55l1.73.4c1,.23,1.75.59,2.24,1.07.49.48.74,1.11.74,1.88,0,.65-.19,1.24-.57,1.75-.37.51-.9.9-1.57,1.19-.67.29-1.44.43-2.32.43-1.22,0-2.22-.26-2.99-.78-.77-.53-1.25-1.27-1.42-2.24l2.05-.31c.13.54.39.94.79,1.21.4.27.92.4,1.56.4.7,0,1.25-.14,1.67-.43.42-.29.62-.65.62-1.07,0-.34-.13-.63-.38-.86-.25-.23-.64-.41-1.16-.53l-1.85-.4c-1.02-.23-1.77-.6-2.26-1.11-.48-.51-.72-1.15-.72-1.92,0-.64.18-1.21.54-1.69.36-.48.86-.86,1.49-1.13.63-.27,1.36-.41,2.18-.41,1.18,0,2.11.26,2.78.77.68.51,1.12,1.19,1.34,2.04ZM269.11,204.86v6.48h-2.12v-10.91h2.04v1.78h.14c.25-.58.64-1.04,1.18-1.39.54-.35,1.22-.53,2.04-.53.74,0,1.39.16,1.95.47.56.31.99.77,1.3,1.38s.46,1.37.46,2.27v6.94h-2.12v-6.68c0-.79-.21-1.41-.62-1.85-.41-.45-.98-.67-1.7-.67-.49,0-.93.11-1.31.32-.38.21-.68.53-.9.94-.22.41-.33.9-.33,1.48ZM259.53,209.77c.66,0,1.21-.18,1.65-.53.44-.35.76-.82.97-1.4.21-.58.32-1.22.32-1.92s-.11-1.34-.32-1.92c-.21-.59-.53-1.06-.97-1.41-.44-.36-.98-.53-1.65-.53s-1.22.18-1.66.53c-.44.36-.76.83-.97,1.41-.21.58-.31,1.22-.31,1.92s.1,1.34.31,1.92c.21.58.54,1.05.97,1.4.44.35.99.53,1.66.53ZM259.53,211.55c-1.02,0-1.92-.23-2.68-.7-.76-.47-1.35-1.12-1.78-1.97s-.63-1.83-.63-2.95.21-2.12.63-2.97,1.01-1.51,1.78-1.97c.76-.47,1.65-.7,2.68-.7s1.92.23,2.68.7c.76.47,1.35,1.13,1.78,1.97s.63,1.84.63,2.97-.21,2.11-.63,2.95-1.01,1.5-1.78,1.97c-.76.47-1.65.7-2.68.7ZM251.02,198.74c-.37,0-.69-.12-.95-.37-.26-.25-.39-.55-.39-.89s.13-.65.39-.89c.27-.25.58-.38.95-.38s.68.13.94.38c.27.25.4.54.4.89s-.13.64-.4.89c-.26.25-.58.37-.94.37ZM249.95,211.33v-10.91h2.12v10.91h-2.12ZM243.24,197.81h2.12v10.32c0,.41.06.72.18.93.12.2.28.34.48.42.2.07.41.11.65.11.17,0,.32-.01.45-.04.13-.02.23-.04.3-.06l.38,1.75c-.12.05-.3.09-.53.14-.23.05-.51.08-.85.09-.56,0-1.08-.09-1.56-.3-.48-.21-.87-.53-1.17-.97-.3-.44-.45-.98-.45-1.64v-10.76ZM247.6,200.42v1.7h-5.96v-1.7h5.96ZM234.76,209.87c.59,0,1.09-.12,1.51-.35.42-.23.74-.54.96-.91.22-.38.33-.78.33-1.21v-1.41c-.08.08-.22.15-.44.21-.21.06-.46.12-.73.16-.27.04-.54.08-.8.12-.26.03-.48.06-.65.09-.41.05-.79.14-1.13.26-.34.12-.61.3-.81.53-.2.23-.3.53-.3.91,0,.53.19.92.58,1.19.39.27.88.4,1.48.4ZM234.3,211.57c-.69,0-1.32-.13-1.88-.38-.56-.26-1-.64-1.33-1.13-.32-.49-.48-1.1-.48-1.81,0-.62.12-1.12.35-1.52.24-.4.56-.71.96-.94.4-.23.85-.41,1.35-.53.5-.12,1-.21,1.52-.27.65-.08,1.18-.14,1.59-.18.41-.05.7-.13.89-.25.18-.11.28-.3.28-.55v-.05c0-.62-.18-1.1-.53-1.44-.35-.34-.86-.51-1.55-.51s-1.28.16-1.69.48c-.41.31-.69.66-.84,1.04l-2-.45c.24-.66.58-1.2,1.04-1.61.46-.41.99-.71,1.58-.89.6-.19,1.22-.28,1.88-.28.44,0,.9.05,1.38.16.49.1.95.28,1.38.55.43.27.78.66,1.06,1.16.27.5.41,1.14.41,1.94v7.24h-2.07v-1.49h-.09c-.14.27-.34.54-.62.81s-.63.49-1.06.66c-.43.18-.95.26-1.55.26ZM219.86,211.33v-1.46l5.91-7.51v-.1h-5.72v-1.85h8.37v1.55l-5.68,7.41v.1h5.88v1.85h-8.76ZM216.18,198.74c-.37,0-.69-.12-.95-.37-.26-.25-.39-.55-.39-.89s.13-.65.39-.89c.27-.25.58-.38.95-.38s.68.13.94.38c.27.25.4.54.4.89s-.13.64-.4.89c-.26.25-.58.37-.94.37ZM215.11,211.33v-10.91h2.12v10.91h-2.12ZM212.25,196.79v14.55h-2.12v-14.55h2.12ZM202.38,209.87c.59,0,1.09-.12,1.51-.35.42-.23.74-.54.96-.91.22-.38.33-.78.33-1.21v-1.41c-.08.08-.22.15-.44.21-.21.06-.46.12-.73.16-.27.04-.54.08-.8.12-.26.03-.48.06-.65.09-.41.05-.79.14-1.13.26-.34.12-.61.3-.81.53-.2.23-.3.53-.3.91,0,.53.19.92.58,1.19.39.27.88.4,1.48.4ZM201.91,211.57c-.69,0-1.32-.13-1.88-.38-.56-.26-1-.64-1.33-1.13-.32-.49-.48-1.1-.48-1.81,0-.62.12-1.12.35-1.52.24-.4.56-.71.96-.94.4-.23.85-.41,1.35-.53.5-.12,1-.21,1.52-.27.65-.08,1.18-.14,1.59-.18.41-.05.7-.13.89-.25.18-.11.28-.3.28-.55v-.05c0-.62-.18-1.1-.53-1.44-.35-.34-.86-.51-1.55-.51s-1.28.16-1.69.48c-.41.31-.69.66-.84,1.04l-2-.45c.24-.66.58-1.2,1.04-1.61.46-.41.99-.71,1.58-.89.6-.19,1.22-.28,1.88-.28.44,0,.9.05,1.38.16.49.1.95.28,1.38.55.43.27.78.66,1.06,1.16.27.5.41,1.14.41,1.94v7.24h-2.07v-1.49h-.09c-.14.27-.34.54-.62.81s-.63.49-1.06.66c-.43.18-.95.26-1.55.26ZM191.16,211.33v-10.91h2.05v1.73h.11c.2-.59.55-1.05,1.05-1.38.51-.34,1.08-.51,1.72-.51.13,0,.29,0,.47.01.18,0,.33.02.43.04v2.03c-.09-.02-.24-.05-.45-.08-.22-.03-.44-.05-.65-.05-.5,0-.95.11-1.34.32-.39.21-.7.5-.92.87-.23.37-.34.79-.34,1.26v6.66h-2.12ZM184.13,211.55c-1.07,0-2-.23-2.78-.69-.77-.46-1.37-1.12-1.79-1.95-.42-.84-.62-1.83-.62-2.96s.21-2.1.62-2.95c.42-.85,1.01-1.52,1.76-2,.76-.48,1.64-.72,2.66-.72.62,0,1.21.1,1.79.31s1.1.52,1.56.96c.46.44.82,1,1.09,1.7.27.69.4,1.53.4,2.52v.75h-8.67v-1.59h6.59c0-.56-.11-1.05-.34-1.48-.23-.44-.55-.78-.96-1.03-.41-.25-.89-.38-1.43-.38-.6,0-1.12.15-1.56.44-.44.29-.78.67-1.02,1.14-.24.46-.36.97-.36,1.51v1.24c0,.73.13,1.35.38,1.86.26.51.62.9,1.09,1.17.46.27,1.01.4,1.63.4.4,0,.77-.06,1.1-.17.33-.12.62-.29.86-.53.24-.23.43-.52.55-.86l2.01.36c-.16.59-.45,1.11-.87,1.56-.41.44-.93.78-1.56,1.03-.62.24-1.33.36-2.12.36ZM172.83,197.81h2.12v10.32c0,.41.06.72.18.93.12.2.28.34.48.42.2.07.41.11.65.11.17,0,.32-.01.45-.04.13-.02.23-.04.3-.06l.38,1.75c-.12.05-.3.09-.53.14-.23.05-.51.08-.85.09-.56,0-1.08-.09-1.56-.3-.48-.21-.87-.53-1.17-.97-.3-.44-.45-.98-.45-1.64v-10.76ZM177.19,200.42v1.7h-5.96v-1.7h5.96ZM164.35,209.87c.59,0,1.09-.12,1.51-.35.42-.23.74-.54.96-.91.22-.38.33-.78.33-1.21v-1.41c-.08.08-.22.15-.44.21-.21.06-.46.12-.73.16-.27.04-.54.08-.8.12-.26.03-.48.06-.65.09-.41.05-.79.14-1.13.26-.34.12-.61.3-.81.53-.2.23-.3.53-.3.91,0,.53.19.92.58,1.19.39.27.88.4,1.48.4ZM163.89,211.57c-.69,0-1.32-.13-1.88-.38-.56-.26-1-.64-1.33-1.13-.32-.49-.48-1.1-.48-1.81,0-.62.12-1.12.35-1.52.24-.4.56-.71.96-.94s.85-.41,1.35-.53c.5-.12,1-.21,1.52-.27.65-.08,1.18-.14,1.59-.18.41-.05.7-.13.89-.25.18-.11.28-.3.28-.55v-.05c0-.62-.18-1.1-.53-1.44-.35-.34-.86-.51-1.55-.51s-1.28.16-1.69.48c-.41.31-.69.66-.85,1.04l-2-.45c.24-.66.58-1.2,1.04-1.61.46-.41.99-.71,1.58-.89.6-.19,1.22-.28,1.88-.28.44,0,.9.05,1.39.16.49.1.95.28,1.38.55.43.27.78.66,1.06,1.16.27.5.41,1.14.41,1.94v7.24h-2.07v-1.49h-.09c-.14.27-.34.54-.62.81-.27.27-.63.49-1.06.66-.43.18-.95.26-1.55.26ZM157.86,196.79v14.55h-2.12v-14.55h2.12ZM152.88,196.79v14.55h-2.12v-14.55h2.12ZM143.3,209.77c.66,0,1.21-.18,1.65-.53.44-.35.76-.82.97-1.4.21-.58.32-1.22.32-1.92s-.11-1.34-.32-1.92c-.21-.59-.53-1.06-.97-1.41-.44-.36-.98-.53-1.65-.53s-1.22.18-1.66.53c-.44.36-.76.83-.97,1.41-.21.58-.31,1.22-.31,1.92s.1,1.34.31,1.92c.21.58.54,1.05.97,1.4.44.35.99.53,1.66.53ZM143.3,211.55c-1.02,0-1.92-.23-2.68-.7-.76-.47-1.35-1.12-1.78-1.97s-.63-1.83-.63-2.95.21-2.12.63-2.97,1.01-1.51,1.78-1.97c.76-.47,1.65-.7,2.68-.7s1.92.23,2.68.7,1.35,1.13,1.78,1.97.63,1.84.63,2.97-.21,2.11-.63,2.95-1.01,1.5-1.78,1.97-1.65.7-2.68.7ZM131.95,211.55c-1.06,0-1.96-.24-2.73-.72-.76-.48-1.34-1.15-1.75-2-.41-.85-.61-1.82-.61-2.91s.21-2.09.62-2.93c.42-.85,1-1.52,1.76-2s1.65-.72,2.68-.72c.83,0,1.57.15,2.22.46.65.3,1.17.73,1.57,1.28.4.55.64,1.19.72,1.92h-2.07c-.11-.51-.37-.95-.78-1.32-.4-.37-.94-.55-1.62-.55-.59,0-1.11.16-1.56.47-.44.31-.78.75-1.03,1.32-.25.57-.37,1.24-.37,2.02s.12,1.48.36,2.06c.24.58.58,1.03,1.02,1.34.45.32.97.48,1.57.48.4,0,.77-.07,1.09-.22.33-.15.61-.37.83-.65.23-.28.39-.62.48-1.01h2.07c-.08.71-.31,1.34-.69,1.89s-.9.99-1.54,1.31c-.64.32-1.39.48-2.25.48ZM114.38,211.33v-10.91h2.05v1.73h.11c.2-.59.55-1.05,1.05-1.38.51-.34,1.08-.51,1.72-.51.13,0,.29,0,.47.01.18,0,.33.02.43.04v2.03c-.09-.02-.24-.05-.45-.08-.22-.03-.44-.05-.65-.05-.5,0-.95.11-1.34.32-.39.21-.7.5-.92.87-.23.37-.34.79-.34,1.26v6.66h-2.12ZM107.35,211.55c-1.07,0-2-.23-2.78-.69-.77-.46-1.37-1.12-1.79-1.95-.42-.84-.62-1.83-.62-2.96s.21-2.1.62-2.95c.42-.85,1.01-1.52,1.76-2,.76-.48,1.64-.72,2.66-.72.62,0,1.21.1,1.79.31s1.1.52,1.56.96c.46.44.82,1,1.09,1.7.27.69.4,1.53.4,2.52v.75h-8.67v-1.59h6.59c0-.56-.11-1.05-.34-1.48-.23-.44-.55-.78-.96-1.03-.41-.25-.89-.38-1.43-.38-.6,0-1.12.15-1.56.44-.44.29-.78.67-1.02,1.14-.24.46-.36.97-.36,1.51v1.24c0,.73.13,1.35.38,1.86.26.51.62.9,1.09,1.17.46.27,1.01.4,1.63.4.4,0,.77-.06,1.1-.17.33-.12.62-.29.86-.53.24-.23.43-.52.55-.86l2.01.36c-.16.59-.45,1.11-.87,1.56-.41.44-.93.78-1.56,1.03-.62.24-1.33.36-2.12.36ZM94.68,209.74c.61,0,1.13-.16,1.55-.48.43-.33.75-.78.97-1.36.22-.58.33-1.25.33-2.02s-.11-1.42-.33-1.99c-.22-.57-.54-1.01-.96-1.33s-.94-.48-1.56-.48-1.17.17-1.6.5-.75.78-.97,1.36c-.21.57-.32,1.22-.32,1.94s.11,1.38.33,1.97c.22.58.54,1.04.97,1.38.43.34.96.5,1.59.5ZM94.21,211.55c-.88,0-1.67-.22-2.36-.67-.69-.45-1.23-1.1-1.62-1.94-.39-.84-.58-1.85-.58-3.03s.2-2.19.59-3.03c.4-.84.94-1.48,1.63-1.92s1.47-.67,2.35-.67c.68,0,1.22.11,1.63.34.42.22.74.48.97.78.23.3.41.56.54.79h.13v-5.4h2.12v14.55h-2.07v-1.7h-.18c-.13.23-.31.5-.55.8-.24.3-.56.56-.98.78-.42.22-.96.33-1.62.33ZM80.3,204.86v6.48h-2.12v-10.91h2.04v1.78h.13c.25-.58.64-1.04,1.18-1.39.54-.35,1.22-.53,2.04-.53.74,0,1.39.16,1.95.47.56.31.99.77,1.3,1.38s.46,1.37.46,2.27v6.94h-2.12v-6.68c0-.79-.21-1.41-.62-1.85-.41-.45-.98-.67-1.7-.67-.49,0-.93.11-1.31.32-.38.21-.68.53-.9.94-.22.41-.33.9-.33,1.48ZM72.95,196.79h2.2v9.57c0,1.02-.24,1.92-.72,2.71-.48.78-1.15,1.4-2.02,1.85-.87.45-1.88.67-3.05.67s-2.17-.22-3.04-.67c-.87-.45-1.54-1.07-2.02-1.85-.48-.79-.72-1.69-.72-2.71v-9.57h2.19v9.39c0,.66.14,1.24.43,1.75.29.51.71.91,1.24,1.21.54.29,1.17.43,1.9.43s1.38-.14,1.91-.43c.54-.29.95-.7,1.24-1.21.29-.51.43-1.1.43-1.75v-9.39ZM47.01,208.66c-.57,0-1.1-.14-1.57-.42-.47-.28-.85-.66-1.14-1.14-.28-.47-.42-1-.42-1.57s.14-1.1.42-1.57c.28-.47.66-.85,1.14-1.13.47-.28,1-.43,1.57-.43s1.1.14,1.57.43c.47.28.85.66,1.13,1.13.28.47.43.99.43,1.57s-.14,1.1-.43,1.57c-.28.47-.66.85-1.13,1.14-.47.28-.99.42-1.57.42Z"/>
      <path class="cls-4" d="M5.5,21.33c0-3.04,2.46-5.5,5.5-5.5v-5C5.2,10.83.5,15.53.5,21.33h5ZM11,15.83h130v-5H11v5ZM5.5,72.33V21.33H.5v51h5ZM127.67,13.33c0,7.36,5.97,13.33,13.33,13.33s13.33-5.97,13.33-13.33-5.97-13.33-13.33-13.33-13.33,5.97-13.33,13.33Z"/>
    </g>
  </g>
</svg>