<svg width="1076" height="726" viewBox="0 0 1076 726" fill="none" xmlns="http://www.w3.org/2000/svg">
<rect x="-0.00543246" y="0.707086" width="537.403" height="726.512" rx="31.5" transform="matrix(-0.712518 0.701653 0.701653 0.712518 383.117 -19.4853)" stroke="url(#paint0_linear_389_1717)" stroke-opacity="0.5"/>
<rect x="-0.00543246" y="0.707086" width="537.403" height="726.512" rx="31.5" transform="matrix(-0.712518 0.701653 0.701653 0.712518 464.236 -16.9814)" stroke="url(#paint1_linear_389_1717)" stroke-opacity="0.5"/>
<rect x="-0.00543246" y="0.707086" width="537.403" height="726.512" rx="31.5" transform="matrix(-0.712518 0.701653 0.701653 0.712518 401.31 -17.4648)" stroke="url(#paint2_linear_389_1717)" stroke-opacity="0.5"/>
<rect x="-0.00543246" y="0.707086" width="537.403" height="726.512" rx="31.5" transform="matrix(-0.712518 0.701653 0.701653 0.712518 530.306 -16.4726)" stroke="url(#paint3_linear_389_1717)" stroke-opacity="0.5"/>
<rect x="-0.00543246" y="0.707086" width="537.403" height="726.512" rx="31.5" transform="matrix(-0.712518 0.701653 0.701653 0.712518 611.425 -13.9687)" stroke="url(#paint4_linear_389_1717)" stroke-opacity="0.5"/>
<rect x="-0.00543246" y="0.707086" width="537.403" height="726.512" rx="31.5" transform="matrix(-0.712518 0.701653 0.701653 0.712518 548.499 -14.4521)" stroke="url(#paint5_linear_389_1717)" stroke-opacity="0.5"/>
<rect x="-0.00543246" y="0.707086" width="537.403" height="726.512" rx="31.5" transform="matrix(-0.712518 0.701653 0.701653 0.712518 637.545 -19.7558)" stroke="url(#paint6_linear_389_1717)" stroke-opacity="0.5"/>
<rect x="-0.00543246" y="0.707086" width="537.403" height="726.512" rx="31.5" transform="matrix(-0.712518 0.701653 0.701653 0.712518 758.664 -17.2519)" stroke="url(#paint7_linear_389_1717)" stroke-opacity="0.5"/>
<rect x="-0.00543246" y="0.707086" width="537.403" height="726.512" rx="31.5" transform="matrix(-0.712518 0.701653 0.701653 0.712518 695.739 -17.7353)" stroke="url(#paint8_linear_389_1717)" stroke-opacity="0.5"/>
<rect x="-0.00543246" y="0.707086" width="537.403" height="726.512" rx="31.5" transform="matrix(-0.712518 0.701653 0.701653 0.712518 794.126 -10.3798)" stroke="url(#paint9_linear_389_1717)" stroke-opacity="0.5"/>
<rect x="-0.00543249" y="0.707086" width="537.403" height="726.512" rx="31.5" transform="matrix(-0.712518 0.701653 0.701653 0.712518 875.245 -7.87495)" stroke="url(#paint10_linear_389_1717)" stroke-opacity="0.5"/>
<rect x="-0.00543246" y="0.707086" width="537.403" height="726.512" rx="31.5" transform="matrix(-0.712518 0.701653 0.701653 0.712518 852.32 -8.35932)" stroke="url(#paint11_linear_389_1717)" stroke-opacity="0.5"/>
<defs>
<linearGradient id="paint0_linear_389_1717" x1="269.202" y1="0" x2="269.202" y2="727.512" gradientUnits="userSpaceOnUse">
<stop stop-color="#3742F5" stop-opacity="0.24"/>
<stop offset="0.432292" stop-color="#3742F5"/>
<stop offset="0.6875" stop-color="#D6357F"/>
<stop offset="1" stop-color="#D6357F" stop-opacity="0.2"/>
</linearGradient>
<linearGradient id="paint1_linear_389_1717" x1="269.202" y1="0" x2="269.202" y2="727.512" gradientUnits="userSpaceOnUse">
<stop stop-color="#3742F5" stop-opacity="0.24"/>
<stop offset="0.432292" stop-color="#3742F5"/>
<stop offset="0.6875" stop-color="#D6357F"/>
<stop offset="1" stop-color="#D6357F" stop-opacity="0.2"/>
</linearGradient>
<linearGradient id="paint2_linear_389_1717" x1="269.202" y1="0" x2="269.202" y2="727.512" gradientUnits="userSpaceOnUse">
<stop stop-color="#3742F5" stop-opacity="0.24"/>
<stop offset="0.432292" stop-color="#3742F5"/>
<stop offset="0.6875" stop-color="#D6357F"/>
<stop offset="1" stop-color="#D6357F" stop-opacity="0.2"/>
</linearGradient>
<linearGradient id="paint3_linear_389_1717" x1="269.202" y1="0" x2="269.202" y2="727.512" gradientUnits="userSpaceOnUse">
<stop stop-color="#3742F5" stop-opacity="0.24"/>
<stop offset="0.432292" stop-color="#3742F5"/>
<stop offset="0.6875" stop-color="#D6357F"/>
<stop offset="1" stop-color="#D6357F" stop-opacity="0.2"/>
</linearGradient>
<linearGradient id="paint4_linear_389_1717" x1="269.202" y1="0" x2="269.202" y2="727.512" gradientUnits="userSpaceOnUse">
<stop stop-color="#3742F5" stop-opacity="0.24"/>
<stop offset="0.432292" stop-color="#3742F5"/>
<stop offset="0.6875" stop-color="#D6357F"/>
<stop offset="1" stop-color="#D6357F" stop-opacity="0.2"/>
</linearGradient>
<linearGradient id="paint5_linear_389_1717" x1="269.202" y1="0" x2="269.202" y2="727.512" gradientUnits="userSpaceOnUse">
<stop stop-color="#3742F5" stop-opacity="0.24"/>
<stop offset="0.432292" stop-color="#3742F5"/>
<stop offset="0.6875" stop-color="#D6357F"/>
<stop offset="1" stop-color="#D6357F" stop-opacity="0.2"/>
</linearGradient>
<linearGradient id="paint6_linear_389_1717" x1="269.202" y1="0" x2="269.202" y2="727.512" gradientUnits="userSpaceOnUse">
<stop stop-color="#3742F5" stop-opacity="0.24"/>
<stop offset="0.432292" stop-color="#3742F5"/>
<stop offset="0.6875" stop-color="#D6357F"/>
<stop offset="1" stop-color="#D6357F" stop-opacity="0.2"/>
</linearGradient>
<linearGradient id="paint7_linear_389_1717" x1="269.202" y1="0" x2="269.202" y2="727.512" gradientUnits="userSpaceOnUse">
<stop stop-color="#3742F5" stop-opacity="0.24"/>
<stop offset="0.432292" stop-color="#3742F5"/>
<stop offset="0.6875" stop-color="#D6357F"/>
<stop offset="1" stop-color="#D6357F" stop-opacity="0.2"/>
</linearGradient>
<linearGradient id="paint8_linear_389_1717" x1="269.202" y1="0" x2="269.202" y2="727.512" gradientUnits="userSpaceOnUse">
<stop stop-color="#3742F5" stop-opacity="0.24"/>
<stop offset="0.432292" stop-color="#3742F5"/>
<stop offset="0.6875" stop-color="#D6357F"/>
<stop offset="1" stop-color="#D6357F" stop-opacity="0.2"/>
</linearGradient>
<linearGradient id="paint9_linear_389_1717" x1="269.202" y1="0" x2="269.202" y2="727.512" gradientUnits="userSpaceOnUse">
<stop stop-color="#3742F5" stop-opacity="0.24"/>
<stop offset="0.432292" stop-color="#3742F5"/>
<stop offset="0.6875" stop-color="#D6357F"/>
<stop offset="1" stop-color="#D6357F" stop-opacity="0.2"/>
</linearGradient>
<linearGradient id="paint10_linear_389_1717" x1="269.202" y1="0" x2="269.202" y2="727.512" gradientUnits="userSpaceOnUse">
<stop stop-color="#3742F5" stop-opacity="0.24"/>
<stop offset="0.432292" stop-color="#3742F5"/>
<stop offset="0.6875" stop-color="#D6357F"/>
<stop offset="1" stop-color="#D6357F" stop-opacity="0.2"/>
</linearGradient>
<linearGradient id="paint11_linear_389_1717" x1="269.202" y1="0" x2="269.202" y2="727.512" gradientUnits="userSpaceOnUse">
<stop stop-color="#3742F5" stop-opacity="0.24"/>
<stop offset="0.432292" stop-color="#3742F5"/>
<stop offset="0.6875" stop-color="#D6357F"/>
<stop offset="1" stop-color="#D6357F" stop-opacity="0.2"/>
</linearGradient>
</defs>
</svg>
