<svg width="360" height="1271" viewBox="0 0 360 1271" fill="none" xmlns="http://www.w3.org/2000/svg">
<rect x="-0.00543246" y="0.707086" width="537.403" height="726.512" rx="31.5" transform="matrix(-0.712518 0.701653 0.701653 0.712518 -230.083 22.5145)" stroke="url(#paint0_linear_193_4142)" stroke-opacity="0.5"/>
<rect x="-0.00543246" y="0.707086" width="537.403" height="726.512" rx="31.5" transform="matrix(-0.712518 0.701653 0.701653 0.712518 -108.964 25.0184)" stroke="url(#paint1_linear_193_4142)" stroke-opacity="0.5"/>
<rect x="-0.00543246" y="0.707086" width="537.403" height="726.512" rx="31.5" transform="matrix(-0.712518 0.701653 0.701653 0.712518 -171.889 24.535)" stroke="url(#paint2_linear_193_4142)" stroke-opacity="0.5"/>
<rect x="-0.00543246" y="0.707086" width="537.403" height="726.512" rx="31.5" transform="matrix(-0.712518 0.701653 0.701653 0.712518 -42.893 25.5262)" stroke="url(#paint3_linear_193_4142)" stroke-opacity="0.5"/>
<rect x="-0.00543246" y="0.707086" width="537.403" height="726.512" rx="31.5" transform="matrix(-0.712518 0.701653 0.701653 0.712518 78.226 28.0301)" stroke="url(#paint4_linear_193_4142)" stroke-opacity="0.5"/>
<rect x="-0.00543246" y="0.707086" width="537.403" height="726.512" rx="31.5" transform="matrix(-0.712518 0.701653 0.701653 0.712518 15.3002 27.5462)" stroke="url(#paint5_linear_193_4142)" stroke-opacity="0.5"/>
<rect x="-0.00543246" y="0.707086" width="537.403" height="726.512" rx="31.5" transform="matrix(-0.712518 0.701653 0.701653 0.712518 144.345 22.2444)" stroke="url(#paint6_linear_193_4142)" stroke-opacity="0.5"/>
<rect x="-0.00543246" y="0.707086" width="537.403" height="726.512" rx="31.5" transform="matrix(-0.712518 0.701653 0.701653 0.712518 265.464 24.7483)" stroke="url(#paint7_linear_193_4142)" stroke-opacity="0.5"/>
<rect x="-0.00543246" y="0.707086" width="537.403" height="726.512" rx="31.5" transform="matrix(-0.712518 0.701653 0.701653 0.712518 202.539 24.2647)" stroke="url(#paint8_linear_193_4142)" stroke-opacity="0.5"/>
<rect x="-0.00543246" y="0.707086" width="537.403" height="726.512" rx="31.5" transform="matrix(-0.712518 0.701653 0.701653 0.712518 340.927 31.6209)" stroke="url(#paint9_linear_193_4142)" stroke-opacity="0.5"/>
<rect x="-0.00543246" y="0.707086" width="537.403" height="726.512" rx="31.5" transform="matrix(-0.712518 0.701653 0.701653 0.712518 462.046 34.1248)" stroke="url(#paint10_linear_193_4142)" stroke-opacity="0.5"/>
<rect x="-0.00543246" y="0.707086" width="537.403" height="726.512" rx="31.5" transform="matrix(-0.712518 0.701653 0.701653 0.712518 399.122 33.6412)" stroke="url(#paint11_linear_193_4142)" stroke-opacity="0.5"/>
<defs>
<linearGradient id="paint0_linear_193_4142" x1="269.202" y1="0" x2="269.202" y2="727.512" gradientUnits="userSpaceOnUse">
<stop stop-color="#3742F5" stop-opacity="0.24"/>
<stop offset="0.432292" stop-color="#3742F5"/>
<stop offset="0.6875" stop-color="#D6357F"/>
<stop offset="1" stop-color="#D6357F" stop-opacity="0.2"/>
</linearGradient>
<linearGradient id="paint1_linear_193_4142" x1="269.202" y1="0" x2="269.202" y2="727.512" gradientUnits="userSpaceOnUse">
<stop stop-color="#3742F5" stop-opacity="0.24"/>
<stop offset="0.432292" stop-color="#3742F5"/>
<stop offset="0.6875" stop-color="#D6357F"/>
<stop offset="1" stop-color="#D6357F" stop-opacity="0.2"/>
</linearGradient>
<linearGradient id="paint2_linear_193_4142" x1="269.202" y1="0" x2="269.202" y2="727.512" gradientUnits="userSpaceOnUse">
<stop stop-color="#3742F5" stop-opacity="0.24"/>
<stop offset="0.432292" stop-color="#3742F5"/>
<stop offset="0.6875" stop-color="#D6357F"/>
<stop offset="1" stop-color="#D6357F" stop-opacity="0.2"/>
</linearGradient>
<linearGradient id="paint3_linear_193_4142" x1="269.202" y1="0" x2="269.202" y2="727.512" gradientUnits="userSpaceOnUse">
<stop stop-color="#3742F5" stop-opacity="0.24"/>
<stop offset="0.432292" stop-color="#3742F5"/>
<stop offset="0.6875" stop-color="#D6357F"/>
<stop offset="1" stop-color="#D6357F" stop-opacity="0.2"/>
</linearGradient>
<linearGradient id="paint4_linear_193_4142" x1="269.202" y1="0" x2="269.202" y2="727.512" gradientUnits="userSpaceOnUse">
<stop stop-color="#3742F5" stop-opacity="0.24"/>
<stop offset="0.432292" stop-color="#3742F5"/>
<stop offset="0.6875" stop-color="#D6357F"/>
<stop offset="1" stop-color="#D6357F" stop-opacity="0.2"/>
</linearGradient>
<linearGradient id="paint5_linear_193_4142" x1="269.202" y1="0" x2="269.202" y2="727.512" gradientUnits="userSpaceOnUse">
<stop stop-color="#3742F5" stop-opacity="0.24"/>
<stop offset="0.432292" stop-color="#3742F5"/>
<stop offset="0.6875" stop-color="#D6357F"/>
<stop offset="1" stop-color="#D6357F" stop-opacity="0.2"/>
</linearGradient>
<linearGradient id="paint6_linear_193_4142" x1="269.202" y1="0" x2="269.202" y2="727.512" gradientUnits="userSpaceOnUse">
<stop stop-color="#3742F5" stop-opacity="0.24"/>
<stop offset="0.432292" stop-color="#3742F5"/>
<stop offset="0.6875" stop-color="#D6357F"/>
<stop offset="1" stop-color="#D6357F" stop-opacity="0.2"/>
</linearGradient>
<linearGradient id="paint7_linear_193_4142" x1="269.202" y1="0" x2="269.202" y2="727.512" gradientUnits="userSpaceOnUse">
<stop stop-color="#3742F5" stop-opacity="0.24"/>
<stop offset="0.432292" stop-color="#3742F5"/>
<stop offset="0.6875" stop-color="#D6357F"/>
<stop offset="1" stop-color="#D6357F" stop-opacity="0.2"/>
</linearGradient>
<linearGradient id="paint8_linear_193_4142" x1="269.202" y1="0" x2="269.202" y2="727.512" gradientUnits="userSpaceOnUse">
<stop stop-color="#3742F5" stop-opacity="0.24"/>
<stop offset="0.432292" stop-color="#3742F5"/>
<stop offset="0.6875" stop-color="#D6357F"/>
<stop offset="1" stop-color="#D6357F" stop-opacity="0.2"/>
</linearGradient>
<linearGradient id="paint9_linear_193_4142" x1="269.202" y1="0" x2="269.202" y2="727.512" gradientUnits="userSpaceOnUse">
<stop stop-color="#3742F5" stop-opacity="0.24"/>
<stop offset="0.432292" stop-color="#3742F5"/>
<stop offset="0.6875" stop-color="#D6357F"/>
<stop offset="1" stop-color="#D6357F" stop-opacity="0.2"/>
</linearGradient>
<linearGradient id="paint10_linear_193_4142" x1="269.202" y1="0" x2="269.202" y2="727.512" gradientUnits="userSpaceOnUse">
<stop stop-color="#3742F5" stop-opacity="0.24"/>
<stop offset="0.432292" stop-color="#3742F5"/>
<stop offset="0.6875" stop-color="#D6357F"/>
<stop offset="1" stop-color="#D6357F" stop-opacity="0.2"/>
</linearGradient>
<linearGradient id="paint11_linear_193_4142" x1="269.202" y1="0" x2="269.202" y2="727.512" gradientUnits="userSpaceOnUse">
<stop stop-color="#3742F5" stop-opacity="0.24"/>
<stop offset="0.432292" stop-color="#3742F5"/>
<stop offset="0.6875" stop-color="#D6357F"/>
<stop offset="1" stop-color="#D6357F" stop-opacity="0.2"/>
</linearGradient>
</defs>
</svg>
