<svg width="101" height="101" viewBox="0 0 101 101" fill="none" xmlns="http://www.w3.org/2000/svg">
<mask id="path-1-inside-1_702_14307" fill="white">
<path fill-rule="evenodd" clip-rule="evenodd" d="M49.1649 12.6432C49.1649 12.0661 49.6327 11.5949 50.2131 11.5949C50.7936 11.5949 51.2614 12.0661 51.2614 12.6432V18.5811C51.2614 19.1616 50.7936 19.6328 50.2131 19.6328C49.6327 19.6328 49.1649 19.1615 49.1649 18.5811V12.6432ZM28.7462 20.8347C28.5379 20.6264 28.4286 20.3396 28.4423 20.0459C28.4559 19.7523 28.5891 19.4791 28.8145 19.2913C29.0432 19.1001 29.3369 19.0147 29.6271 19.0557C29.9174 19.0933 30.1803 19.2537 30.3476 19.4928L34.1651 24.0375C34.3734 24.2458 34.4826 24.5326 34.469 24.8263C34.4553 25.1199 34.3187 25.3931 34.0934 25.5809C33.868 25.7687 33.5744 25.854 33.2841 25.8165C32.9939 25.7789 32.731 25.6219 32.5637 25.3794L28.7462 20.8347ZM18.3695 40.2394C18.0827 40.2121 17.8164 40.0618 17.6388 39.8296C17.4647 39.5974 17.393 39.3038 17.4442 39.017C17.492 38.7301 17.6593 38.4741 17.9051 38.317C18.1476 38.1565 18.448 38.1087 18.7315 38.177L24.5806 39.2082V39.2116C25.1132 39.3448 25.4547 39.8672 25.3591 40.4067C25.2635 40.9496 24.7684 41.3252 24.2186 41.2706L18.3695 40.2394ZM81.6989 38.177H81.6955C81.9789 38.1087 82.2794 38.1565 82.5218 38.317C82.7677 38.474 82.935 38.7301 82.9828 39.0169C83.034 39.3038 82.9623 39.5974 82.7881 39.8296C82.6106 40.0618 82.3443 40.212 82.0574 40.2394L76.2083 41.2706C75.6586 41.3252 75.1635 40.9496 75.0678 40.4067C74.9722 39.8672 75.3137 39.3448 75.8464 39.2116L81.6955 38.1804L81.6989 38.177ZM70.0792 19.4925C70.2465 19.2535 70.5094 19.093 70.7996 19.0555C71.0899 19.0145 71.3835 19.0999 71.6123 19.2911C71.8377 19.4789 71.9708 19.752 71.9845 20.0457C71.9982 20.3393 71.8889 20.6262 71.6806 20.8345L67.8631 25.3792C67.6958 25.6182 67.4329 25.7787 67.1426 25.8163C66.8524 25.8538 66.5588 25.7685 66.3334 25.5807C66.108 25.3929 65.9715 25.1197 65.9578 24.826C65.9441 24.5324 66.0534 24.2456 66.2617 24.0373L70.0792 19.4925ZM55.9262 83.239H44.5014V85.7043C44.5082 87.0667 45.6077 88.1662 46.9701 88.173H53.4612H53.4578C54.8202 88.1661 55.9197 87.0667 55.9265 85.7043L55.9262 83.239ZM59.3134 78.7727H59.4022H59.3988C60.6076 78.7727 61.5875 77.7927 61.5909 76.584V71.8446C61.5909 71.7387 61.5739 71.6363 61.5466 71.5373C60.3378 66.6647 62.5027 65.053 65.1831 63.0556C68.8537 60.3205 73.3472 56.9709 73.3472 46.1395L73.3507 46.1361C73.3507 37.8729 68.939 30.2349 61.7825 26.1029C54.6222 21.9678 45.8061 21.9678 38.6453 26.1029C31.4884 30.2345 27.0771 37.873 27.0771 46.1361C27.0771 56.9709 31.5706 60.317 35.2413 63.0521C37.9251 65.0497 40.0899 66.6647 38.8778 71.5373L38.8812 71.5407C38.8539 71.6397 38.8368 71.7421 38.8368 71.8446V76.584C38.8368 77.1781 39.0792 77.7483 39.5095 78.1615C39.9397 78.5747 40.5201 78.7966 41.1143 78.7727V81.3234C41.1211 82.1395 41.6401 82.86 42.4084 83.1297V85.7043C42.4153 88.2208 44.4537 90.2593 46.9703 90.2662H53.4614H53.458C55.9745 90.2593 58.013 88.2209 58.0199 85.7043V83.1297C58.7881 82.86 59.3072 82.1395 59.314 81.3234L59.3134 78.7727ZM43.2103 78.7727H57.2199V81.1458H43.2068V78.7727H43.2103ZM50.3058 72.886H59.4981V76.5806L59.4025 76.6762L41.0283 76.6796L40.9327 76.584L40.9293 72.886H50.3058ZM60.4946 54.6902C58.7702 58.2072 55.4854 61.3588 51.4526 60.5189H51.4492C52.0092 58.0843 53.136 55.8137 54.7442 53.9015C56.5301 51.8971 58.9851 50.5519 61.7748 51.1186L61.7782 51.1221C61.4777 52.3513 61.0478 53.5498 60.4946 54.6902ZM36.0191 48.8684C37.8117 47.8542 39.9697 47.7075 41.8852 48.4757C44.7125 49.4899 47.1436 51.8937 48.851 54.6834C46.4949 56.4078 44.4257 57.4594 42.0595 54.6356C39.7717 51.9005 37.5727 52.1771 36.0226 48.865L36.0191 48.8684ZM52.4876 38.0616C53.2456 38.8196 53.5734 39.9055 53.3651 40.9571C53.1568 42.0088 52.4364 42.8897 51.4427 43.2995C50.4525 43.7093 49.3223 43.6 48.4311 43.0024C47.54 42.4083 47.0039 41.4045 47.0004 40.3323C47.0004 39.0347 47.7824 37.8601 48.9843 37.365C50.1862 36.8665 51.5656 37.1396 52.4876 38.0616ZM50.2135 35.0226C52.9417 35.0192 55.226 37.0884 55.4958 39.803C55.769 42.5176 53.9353 44.9931 51.2617 45.5326V55.2608C52.17 53.5706 53.4163 52.0818 54.9221 50.8901C57.203 49.0326 60.2659 48.4351 63.076 49.3058C63.1546 49.3297 63.2297 49.357 63.3082 49.3843V49.3809C63.8306 49.5346 64.1482 50.0604 64.0423 50.5931C63.4482 53.953 61.9117 57.0773 59.6069 59.5939C57.5138 61.9466 54.3757 63.0802 51.2617 62.609V70.8005H59.2551C58.3468 65.5455 60.8702 63.6674 63.9433 61.3765C67.2315 58.9283 71.2573 55.9269 71.2573 46.137C71.2573 38.6216 67.2452 31.6729 60.7372 27.9168C54.2257 24.1573 46.2049 24.1573 39.6935 27.9168C33.1854 31.6728 29.1734 38.6213 29.1734 46.137C29.1734 55.9264 33.1992 58.9281 36.4874 61.3765C39.5605 63.6677 42.0804 65.5457 41.1756 70.8005H49.1656V56.9989C46.253 58.9213 43.3029 59.3823 40.4482 55.9711C38.2868 53.3897 35.5825 53.7209 33.7386 48.8484C33.5679 48.3908 33.7386 47.8718 34.1484 47.6055L35.1488 46.9601V46.9567C37.44 45.724 40.158 45.5601 42.5789 46.5094C45.191 47.5338 47.4685 49.2649 49.1621 51.5049V45.5362C46.4748 45.007 44.6344 42.5212 44.9075 39.7998C45.1807 37.0784 47.4784 35.0089 50.2135 35.0226Z"/>
</mask>
<path fill-rule="evenodd" clip-rule="evenodd" d="M49.1649 12.6432C49.1649 12.0661 49.6327 11.5949 50.2131 11.5949C50.7936 11.5949 51.2614 12.0661 51.2614 12.6432V18.5811C51.2614 19.1616 50.7936 19.6328 50.2131 19.6328C49.6327 19.6328 49.1649 19.1615 49.1649 18.5811V12.6432ZM28.7462 20.8347C28.5379 20.6264 28.4286 20.3396 28.4423 20.0459C28.4559 19.7523 28.5891 19.4791 28.8145 19.2913C29.0432 19.1001 29.3369 19.0147 29.6271 19.0557C29.9174 19.0933 30.1803 19.2537 30.3476 19.4928L34.1651 24.0375C34.3734 24.2458 34.4826 24.5326 34.469 24.8263C34.4553 25.1199 34.3187 25.3931 34.0934 25.5809C33.868 25.7687 33.5744 25.854 33.2841 25.8165C32.9939 25.7789 32.731 25.6219 32.5637 25.3794L28.7462 20.8347ZM18.3695 40.2394C18.0827 40.2121 17.8164 40.0618 17.6388 39.8296C17.4647 39.5974 17.393 39.3038 17.4442 39.017C17.492 38.7301 17.6593 38.4741 17.9051 38.317C18.1476 38.1565 18.448 38.1087 18.7315 38.177L24.5806 39.2082V39.2116C25.1132 39.3448 25.4547 39.8672 25.3591 40.4067C25.2635 40.9496 24.7684 41.3252 24.2186 41.2706L18.3695 40.2394ZM81.6989 38.177H81.6955C81.9789 38.1087 82.2794 38.1565 82.5218 38.317C82.7677 38.474 82.935 38.7301 82.9828 39.0169C83.034 39.3038 82.9623 39.5974 82.7881 39.8296C82.6106 40.0618 82.3443 40.212 82.0574 40.2394L76.2083 41.2706C75.6586 41.3252 75.1635 40.9496 75.0678 40.4067C74.9722 39.8672 75.3137 39.3448 75.8464 39.2116L81.6955 38.1804L81.6989 38.177ZM70.0792 19.4925C70.2465 19.2535 70.5094 19.093 70.7996 19.0555C71.0899 19.0145 71.3835 19.0999 71.6123 19.2911C71.8377 19.4789 71.9708 19.752 71.9845 20.0457C71.9982 20.3393 71.8889 20.6262 71.6806 20.8345L67.8631 25.3792C67.6958 25.6182 67.4329 25.7787 67.1426 25.8163C66.8524 25.8538 66.5588 25.7685 66.3334 25.5807C66.108 25.3929 65.9715 25.1197 65.9578 24.826C65.9441 24.5324 66.0534 24.2456 66.2617 24.0373L70.0792 19.4925ZM55.9262 83.239H44.5014V85.7043C44.5082 87.0667 45.6077 88.1662 46.9701 88.173H53.4612H53.4578C54.8202 88.1661 55.9197 87.0667 55.9265 85.7043L55.9262 83.239ZM59.3134 78.7727H59.4022H59.3988C60.6076 78.7727 61.5875 77.7927 61.5909 76.584V71.8446C61.5909 71.7387 61.5739 71.6363 61.5466 71.5373C60.3378 66.6647 62.5027 65.053 65.1831 63.0556C68.8537 60.3205 73.3472 56.9709 73.3472 46.1395L73.3507 46.1361C73.3507 37.8729 68.939 30.2349 61.7825 26.1029C54.6222 21.9678 45.8061 21.9678 38.6453 26.1029C31.4884 30.2345 27.0771 37.873 27.0771 46.1361C27.0771 56.9709 31.5706 60.317 35.2413 63.0521C37.9251 65.0497 40.0899 66.6647 38.8778 71.5373L38.8812 71.5407C38.8539 71.6397 38.8368 71.7421 38.8368 71.8446V76.584C38.8368 77.1781 39.0792 77.7483 39.5095 78.1615C39.9397 78.5747 40.5201 78.7966 41.1143 78.7727V81.3234C41.1211 82.1395 41.6401 82.86 42.4084 83.1297V85.7043C42.4153 88.2208 44.4537 90.2593 46.9703 90.2662H53.4614H53.458C55.9745 90.2593 58.013 88.2209 58.0199 85.7043V83.1297C58.7881 82.86 59.3072 82.1395 59.314 81.3234L59.3134 78.7727ZM43.2103 78.7727H57.2199V81.1458H43.2068V78.7727H43.2103ZM50.3058 72.886H59.4981V76.5806L59.4025 76.6762L41.0283 76.6796L40.9327 76.584L40.9293 72.886H50.3058ZM60.4946 54.6902C58.7702 58.2072 55.4854 61.3588 51.4526 60.5189H51.4492C52.0092 58.0843 53.136 55.8137 54.7442 53.9015C56.5301 51.8971 58.9851 50.5519 61.7748 51.1186L61.7782 51.1221C61.4777 52.3513 61.0478 53.5498 60.4946 54.6902ZM36.0191 48.8684C37.8117 47.8542 39.9697 47.7075 41.8852 48.4757C44.7125 49.4899 47.1436 51.8937 48.851 54.6834C46.4949 56.4078 44.4257 57.4594 42.0595 54.6356C39.7717 51.9005 37.5727 52.1771 36.0226 48.865L36.0191 48.8684ZM52.4876 38.0616C53.2456 38.8196 53.5734 39.9055 53.3651 40.9571C53.1568 42.0088 52.4364 42.8897 51.4427 43.2995C50.4525 43.7093 49.3223 43.6 48.4311 43.0024C47.54 42.4083 47.0039 41.4045 47.0004 40.3323C47.0004 39.0347 47.7824 37.8601 48.9843 37.365C50.1862 36.8665 51.5656 37.1396 52.4876 38.0616ZM50.2135 35.0226C52.9417 35.0192 55.226 37.0884 55.4958 39.803C55.769 42.5176 53.9353 44.9931 51.2617 45.5326V55.2608C52.17 53.5706 53.4163 52.0818 54.9221 50.8901C57.203 49.0326 60.2659 48.4351 63.076 49.3058C63.1546 49.3297 63.2297 49.357 63.3082 49.3843V49.3809C63.8306 49.5346 64.1482 50.0604 64.0423 50.5931C63.4482 53.953 61.9117 57.0773 59.6069 59.5939C57.5138 61.9466 54.3757 63.0802 51.2617 62.609V70.8005H59.2551C58.3468 65.5455 60.8702 63.6674 63.9433 61.3765C67.2315 58.9283 71.2573 55.9269 71.2573 46.137C71.2573 38.6216 67.2452 31.6729 60.7372 27.9168C54.2257 24.1573 46.2049 24.1573 39.6935 27.9168C33.1854 31.6728 29.1734 38.6213 29.1734 46.137C29.1734 55.9264 33.1992 58.9281 36.4874 61.3765C39.5605 63.6677 42.0804 65.5457 41.1756 70.8005H49.1656V56.9989C46.253 58.9213 43.3029 59.3823 40.4482 55.9711C38.2868 53.3897 35.5825 53.7209 33.7386 48.8484C33.5679 48.3908 33.7386 47.8718 34.1484 47.6055L35.1488 46.9601V46.9567C37.44 45.724 40.158 45.5601 42.5789 46.5094C45.191 47.5338 47.4685 49.2649 49.1621 51.5049V45.5362C46.4748 45.007 44.6344 42.5212 44.9075 39.7998C45.1807 37.0784 47.4784 35.0089 50.2135 35.0226Z" fill="black" fill-opacity="0.3"/>
<path d="M18.3729 39.2394H18.3695V41.2394H18.3729V39.2394ZM28.7462 20.8347L30.2776 19.5483L30.2218 19.4818L30.1604 19.4205L28.7462 20.8347ZM28.4423 20.0459L26.4444 19.953L26.4444 19.953L28.4423 20.0459ZM28.8145 19.2913L30.0948 20.8277L30.0971 20.8259L28.8145 19.2913ZM29.6271 19.0557L29.3475 21.0361L29.359 21.0377L29.3704 21.0392L29.6271 19.0557ZM30.3476 19.4928L28.7091 20.6397L28.7596 20.7118L28.8162 20.7791L30.3476 19.4928ZM34.1651 24.0375L32.6336 25.3239L32.6895 25.3903L32.7509 25.4517L34.1651 24.0375ZM34.469 24.8263L36.4668 24.9192L36.4668 24.9192L34.469 24.8263ZM33.2841 25.8165L33.5408 23.833L33.5408 23.833L33.2841 25.8165ZM32.5637 25.3794L34.2097 24.2434L34.1559 24.1655L34.0951 24.0931L32.5637 25.3794ZM18.3695 40.2394L18.7168 38.2697L18.6384 38.2559L18.5591 38.2484L18.3695 40.2394ZM17.6388 39.8296L16.0388 41.0296L16.0444 41.0371L16.0501 41.0445L17.6388 39.8296ZM17.4442 39.017L19.413 39.3685L19.4151 39.3572L19.417 39.3458L17.4442 39.017ZM17.9051 38.317L18.9819 40.0024L18.9956 39.9936L19.0091 39.9847L17.9051 38.317ZM18.7315 38.177L18.263 40.1213L18.3232 40.1358L18.3842 40.1466L18.7315 38.177ZM24.5806 39.2082H26.5806V37.5299L24.9278 37.2386L24.5806 39.2082ZM24.5806 39.2116H22.5806V40.7732L24.0955 41.1519L24.5806 39.2116ZM25.3591 40.4067L23.3898 40.0577L23.3894 40.0598L25.3591 40.4067ZM24.2186 41.2706L23.8714 43.2402L23.9457 43.2533L24.0208 43.2608L24.2186 41.2706ZM81.6989 38.177L83.1076 39.5967L86.5541 36.177H81.6989V38.177ZM81.6955 38.177L81.227 36.2326L81.6955 40.177V38.177ZM82.5218 38.317L81.4178 39.9847L81.4314 39.9936L81.445 40.0023L82.5218 38.317ZM82.9828 39.0169L81.01 39.3457L81.0119 39.3571L81.0139 39.3685L82.9828 39.0169ZM82.7881 39.8296L84.3769 41.0445L84.3825 41.0371L84.3881 41.0296L82.7881 39.8296ZM82.0574 40.2394L81.8678 38.2484L81.7886 38.2559L81.7102 38.2697L82.0574 40.2394ZM76.2083 41.2706L76.4061 43.2608L76.4812 43.2533L76.5556 43.2402L76.2083 41.2706ZM75.0678 40.4067L77.0375 40.0597L77.0372 40.0577L75.0678 40.4067ZM75.8464 39.2116L75.4991 37.242L75.4296 37.2542L75.3611 37.2713L75.8464 39.2116ZM81.6955 38.1804L82.0427 40.15L82.6596 40.0412L83.1042 39.6001L81.6955 38.1804ZM70.0792 19.4925L71.6106 20.7789L71.6672 20.7115L71.7176 20.6395L70.0792 19.4925ZM70.7996 19.0555L71.0563 21.0389L71.0678 21.0375L71.0792 21.0358L70.7996 19.0555ZM71.6123 19.2911L70.3297 20.8257L70.3319 20.8275L71.6123 19.2911ZM71.9845 20.0457L69.9867 20.1386V20.1386L71.9845 20.0457ZM71.6806 20.8345L70.2664 19.4202L70.205 19.4816L70.1492 19.5481L71.6806 20.8345ZM67.8631 25.3792L66.3317 24.0928L66.2751 24.1602L66.2247 24.2323L67.8631 25.3792ZM67.1426 25.8163L67.3993 27.7997H67.3993L67.1426 25.8163ZM66.3334 25.5807L67.6138 24.0442L67.6138 24.0442L66.3334 25.5807ZM65.9578 24.826L63.96 24.919L63.96 24.919L65.9578 24.826ZM66.2617 24.0373L67.6759 25.4515L67.7373 25.3901L67.7931 25.3237L66.2617 24.0373ZM55.9262 83.239L57.9262 83.2388L57.926 81.239H55.9262V83.239ZM44.5014 83.239V81.239H42.5014V83.239H44.5014ZM44.5014 85.7043H42.5014L42.5014 85.7143L44.5014 85.7043ZM46.9701 88.173L46.9601 90.173H46.9701V88.173ZM53.4578 88.173L53.4477 86.173L53.4578 90.173V88.173ZM55.9265 85.7043L57.9265 85.7143L57.9265 85.7041L55.9265 85.7043ZM59.3134 78.7727V76.7727H57.313L57.3134 78.7732L59.3134 78.7727ZM61.5909 76.584L63.5909 76.5896V76.584H61.5909ZM61.5466 71.5373L59.6054 72.0188L59.6117 72.0441L59.6186 72.0691L61.5466 71.5373ZM65.1831 63.0556L63.9881 61.4518L63.988 61.4519L65.1831 63.0556ZM73.3472 46.1395L71.933 44.7253L71.3472 45.3111V46.1395H73.3472ZM73.3507 46.1361L74.7649 47.5503L75.3507 46.9645V46.1361H73.3507ZM61.7825 26.1029L60.7823 27.8348L60.7825 27.8349L61.7825 26.1029ZM38.6453 26.1029L39.6452 27.835L39.6454 27.8349L38.6453 26.1029ZM35.2413 63.0521L34.0462 64.6559L34.0471 64.6565L35.2413 63.0521ZM38.8778 71.5373L36.9369 71.0544L36.6639 72.1519L37.4636 72.9515L38.8778 71.5373ZM38.8812 71.5407L40.8092 72.0725L41.1189 70.9499L40.2954 70.1265L38.8812 71.5407ZM39.5095 78.1615L38.1241 79.604L38.1242 79.6041L39.5095 78.1615ZM41.1143 78.7727H43.1143V76.6907L41.0339 76.7744L41.1143 78.7727ZM41.1143 81.3234H39.1143V81.3318L39.1144 81.3402L41.1143 81.3234ZM42.4084 83.1297H44.4084V81.7122L43.071 81.2427L42.4084 83.1297ZM42.4084 85.7043H40.4084L40.4084 85.7097L42.4084 85.7043ZM46.9703 90.2662L46.9648 92.2662H46.9703V90.2662ZM53.458 90.2662L53.4525 88.2662L53.458 92.2662V90.2662ZM58.0199 85.7043L60.0199 85.7098V85.7043H58.0199ZM58.0199 83.1297L57.3573 81.2427L56.0199 81.7122V83.1297H58.0199ZM59.314 81.3234L61.3139 81.3401L61.314 81.3316L61.314 81.323L59.314 81.3234ZM57.2199 78.7727H59.2199V76.7727H57.2199V78.7727ZM57.2199 81.1458V83.1458H59.2199V81.1458H57.2199ZM43.2068 81.1458H41.2068V83.1458H43.2068V81.1458ZM43.2068 78.7727V76.7727H41.2068V78.7727H43.2068ZM59.4981 72.886H61.4981V70.886H59.4981V72.886ZM59.4981 76.5806L60.9123 77.9948L61.4981 77.409V76.5806H59.4981ZM59.4025 76.6762L59.4028 78.6762L60.2311 78.676L60.8167 78.0904L59.4025 76.6762ZM41.0283 76.6796L39.6141 78.0938L40.2001 78.6798L41.0287 78.6796L41.0283 76.6796ZM40.9327 76.584L38.9327 76.5858L38.9335 77.4132L39.5185 77.9982L40.9327 76.584ZM40.9293 72.886V70.886H38.9275L38.9293 72.8879L40.9293 72.886ZM60.4946 54.6902L62.2903 55.5707L62.294 55.5631L60.4946 54.6902ZM51.4526 60.5189L51.8604 58.5609L51.6587 58.5189H51.4526V60.5189ZM51.4492 60.5189L49.5001 60.0706L48.937 62.5189H51.4492V60.5189ZM54.7442 53.9015L53.2509 52.571L53.232 52.5923L53.2136 52.6142L54.7442 53.9015ZM61.7748 51.1186L63.1883 49.7037L62.7627 49.2785L62.173 49.1587L61.7748 51.1186ZM61.7782 51.1221L63.721 51.597L63.9884 50.5031L63.1917 49.7072L61.7782 51.1221ZM36.0191 48.8684L34.622 47.4372L37.0039 50.6091L36.0191 48.8684ZM41.8852 48.4757L41.1408 50.332L41.1751 50.3458L41.21 50.3583L41.8852 48.4757ZM48.851 54.6834L50.0322 56.2973L51.518 55.2098L50.5568 53.6394L48.851 54.6834ZM42.0595 54.6356L40.5254 55.9188L40.5265 55.9201L42.0595 54.6356ZM36.0226 48.865L37.834 48.0172L36.6404 45.4669L34.6255 47.4338L36.0226 48.865ZM52.4876 38.0616L53.9018 36.6474L53.9018 36.6474L52.4876 38.0616ZM51.4427 43.2995L50.6802 41.4506L50.678 41.4515L51.4427 43.2995ZM48.4311 43.0024L49.5449 41.3413L49.5406 41.3384L48.4311 43.0024ZM47.0004 40.3323H45.0004L45.0005 40.3386L47.0004 40.3323ZM48.9843 37.365L49.746 39.2143L49.7505 39.2124L48.9843 37.365ZM50.2135 35.0226L50.2034 37.0226L50.216 37.0226L50.2135 35.0226ZM55.4958 39.803L53.5056 40.0008L53.5058 40.0033L55.4958 39.803ZM51.2617 45.5326L50.8661 43.5722L49.2617 43.8959V45.5326H51.2617ZM51.2617 55.2608H49.2617L53.0234 56.2075L51.2617 55.2608ZM54.9221 50.8901L56.1632 52.4585L56.1742 52.4498L56.185 52.441L54.9221 50.8901ZM63.076 49.3058L62.4841 51.2162L62.4937 51.2191L63.076 49.3058ZM63.3082 49.3843L62.6512 51.2733L65.3082 52.1976V49.3843H63.3082ZM63.3082 49.3809L63.8725 47.4622L61.3082 46.708V49.3809H63.3082ZM64.0423 50.5931L62.0807 50.2032L62.0766 50.224L62.0729 50.2448L64.0423 50.5931ZM59.6069 59.5939L58.1319 58.2431L58.1222 58.2538L58.1126 58.2645L59.6069 59.5939ZM51.2617 62.609L51.5609 60.6315L49.2617 60.2835V62.609H51.2617ZM51.2617 70.8005H49.2617V72.8005H51.2617V70.8005ZM59.2551 70.8005V72.8005H61.6305L61.2259 70.4598L59.2551 70.8005ZM63.9433 61.3765L62.7489 59.7724L62.748 59.7731L63.9433 61.3765ZM60.7372 27.9168L59.7372 29.6488L59.7374 29.649L60.7372 27.9168ZM39.6935 27.9168L40.6932 29.649L40.6935 29.6488L39.6935 27.9168ZM36.4874 61.3765L37.6828 59.7731L37.6818 59.7724L36.4874 61.3765ZM41.1756 70.8005L39.2046 70.4611L38.8018 72.8005H41.1756V70.8005ZM49.1656 70.8005V72.8005H51.1656V70.8005H49.1656ZM49.1656 56.9989H51.1656V53.2825L48.0639 55.3297L49.1656 56.9989ZM40.4482 55.9711L41.982 54.6876L41.9817 54.6871L40.4482 55.9711ZM33.7386 48.8484L31.8648 49.5476L31.8681 49.5563L33.7386 48.8484ZM34.1484 47.6055L33.0642 45.9248L33.0584 45.9286L34.1484 47.6055ZM35.1488 46.9601L36.2329 48.6408L37.1488 48.05V46.9601H35.1488ZM35.1488 46.9567L34.2012 45.1954L33.1488 45.7617V46.9567H35.1488ZM42.5789 46.5094L43.309 44.6475L43.309 44.6474L42.5789 46.5094ZM49.1621 51.5049L47.5667 52.711L51.1621 57.4664V51.5049H49.1621ZM49.1621 45.5362H51.1621V43.8917L49.5486 43.5739L49.1621 45.5362ZM51.1649 12.6432C51.1649 13.1665 50.7414 13.5949 50.2131 13.5949V9.59491C48.5239 9.59491 47.1649 10.9657 47.1649 12.6432H51.1649ZM50.2131 13.5949C49.6848 13.5949 49.2614 13.1665 49.2614 12.6432H53.2614C53.2614 10.9658 51.9024 9.59491 50.2131 9.59491V13.5949ZM49.2614 12.6432V18.5811H53.2614V12.6432H49.2614ZM49.2614 18.5811C49.2614 18.0654 49.6806 17.6328 50.2131 17.6328V21.6328C51.9066 21.6328 53.2614 20.2577 53.2614 18.5811H49.2614ZM50.2131 17.6328C50.7457 17.6328 51.1649 18.0654 51.1649 18.5811H47.1649C47.1649 20.2576 48.5196 21.6328 50.2131 21.6328V17.6328ZM51.1649 18.5811V12.6432H47.1649V18.5811H51.1649ZM30.1604 19.4205C30.3556 19.6157 30.4522 19.8783 30.4401 20.1388L26.4444 19.953C26.405 20.8008 26.7202 21.6371 27.332 22.2489L30.1604 19.4205ZM30.4401 20.1388C30.4283 20.3932 30.3101 20.6484 30.0948 20.8277L27.5341 17.7549C26.8681 18.3098 26.4836 19.1114 26.4444 19.953L30.4401 20.1388ZM30.0971 20.8259C29.9015 20.9893 29.6303 21.076 29.3475 21.0361L29.9067 17.0753C29.0435 16.9535 28.1849 17.2109 27.5318 17.7567L30.0971 20.8259ZM29.3704 21.0392C29.0982 21.0039 28.8616 20.8575 28.7091 20.6397L31.9861 18.3458C31.499 17.65 30.7365 17.1826 29.8838 17.0722L29.3704 21.0392ZM28.8162 20.7791L32.6336 25.3239L35.6965 22.7511L31.879 18.2064L28.8162 20.7791ZM32.7509 25.4517C32.5557 25.2565 32.459 24.9939 32.4711 24.7334L36.4668 24.9192C36.5062 24.0713 36.1911 23.2351 35.5793 22.6233L32.7509 25.4517ZM32.4711 24.7333C32.4837 24.4634 32.6097 24.2139 32.813 24.0444L35.3737 27.1173C36.0278 26.5723 36.4269 25.7764 36.4668 24.9192L32.4711 24.7333ZM32.813 24.0444C33.015 23.8761 33.2783 23.7991 33.5408 23.833L33.0274 27.7999C33.8704 27.909 34.721 27.6613 35.3737 27.1173L32.813 24.0444ZM33.5408 23.833C33.8006 23.8666 34.048 24.0091 34.2097 24.2434L30.9176 26.5155C31.414 27.2346 32.1872 27.6912 33.0274 27.7999L33.5408 23.833ZM34.0951 24.0931L30.2776 19.5483L27.2147 22.121L31.0322 26.6658L34.0951 24.0931ZM18.5591 38.2484C18.8416 38.2753 19.0764 38.4171 19.2275 38.6147L16.0501 41.0445C16.5563 41.7065 17.3238 42.1488 18.1799 42.2304L18.5591 38.2484ZM19.2388 38.6296C19.3924 38.8345 19.4607 39.1013 19.413 39.3685L15.4753 38.6654C15.3252 39.5063 15.5369 40.3604 16.0388 41.0296L19.2388 38.6296ZM19.417 39.3458C19.3728 39.6109 19.2191 39.8508 18.9819 40.0024L16.8283 36.6316C16.0995 37.0973 15.6112 37.8494 15.4714 38.6882L19.417 39.3458ZM19.0091 39.9847C18.7669 40.145 18.4937 40.1769 18.263 40.1213L19.1999 36.2326C18.4024 36.0405 17.5282 36.168 16.8012 36.6493L19.0091 39.9847ZM18.3842 40.1466L24.2333 41.1778L24.9278 37.2386L19.0787 36.2074L18.3842 40.1466ZM22.5806 39.2082V39.2116H26.5806V39.2082H22.5806ZM24.0955 41.1519C23.6182 41.0326 23.3004 40.5621 23.3898 40.0577L27.3284 40.7557C27.609 39.1723 26.6083 37.657 25.0656 37.2713L24.0955 41.1519ZM23.3894 40.0598C23.4754 39.5716 23.9258 39.2316 24.4165 39.2804L24.0208 43.2608C25.6109 43.4188 27.0516 42.3276 27.3288 40.7536L23.3894 40.0598ZM24.5659 39.301L18.7168 38.2697L18.0223 42.209L23.8714 43.2402L24.5659 39.301ZM81.6989 36.177H81.6955V40.177H81.6989V36.177ZM82.164 40.1213C81.9333 40.1769 81.66 40.145 81.4178 39.9847L83.6258 36.6493C82.8988 36.168 82.0245 36.0404 81.227 36.2326L82.164 40.1213ZM81.445 40.0023C81.2079 39.8509 81.0542 39.6109 81.01 39.3457L84.9556 38.6882C84.8158 37.8494 84.3274 37.0972 83.5986 36.6316L81.445 40.0023ZM81.0139 39.3685C80.9662 39.1012 81.0345 38.8344 81.1881 38.6296L84.3881 41.0296C84.8901 40.3604 85.1018 39.5063 84.9516 38.6654L81.0139 39.3685ZM81.1994 38.6147C81.3505 38.4171 81.5854 38.2753 81.8678 38.2484L82.247 42.2303C83.1031 42.1488 83.8707 41.7065 84.3769 41.0445L81.1994 38.6147ZM81.7102 38.2697L75.8611 39.3009L76.5556 43.2402L82.4047 42.209L81.7102 38.2697ZM76.0105 39.2804C76.5011 39.2316 76.9515 39.5716 77.0375 40.0597L73.0982 40.7536C73.3754 42.3276 74.816 43.4188 76.4061 43.2608L76.0105 39.2804ZM77.0372 40.0577C77.1266 40.5622 76.8086 41.0325 76.3316 41.1518L75.3611 37.2713C73.8188 37.6571 72.8179 39.1721 73.0985 40.7557L77.0372 40.0577ZM76.1936 41.1812L82.0427 40.15L81.3482 36.2107L75.4991 37.242L76.1936 41.1812ZM83.1042 39.6001L83.1076 39.5967L80.2902 36.7572L80.2868 36.7607L83.1042 39.6001ZM71.7176 20.6395C71.5652 20.8573 71.3285 21.0037 71.0563 21.0389L70.543 17.072C69.6903 17.1824 68.9278 17.6498 68.4407 18.3456L71.7176 20.6395ZM71.0792 21.0358C70.7965 21.0758 70.5252 20.9891 70.3297 20.8257L72.8949 17.7565C72.2418 17.2106 71.3833 16.9532 70.5201 17.0751L71.0792 21.0358ZM70.3319 20.8275C70.1167 20.6482 69.9985 20.393 69.9867 20.1386L73.9823 19.9528C73.9432 19.1111 73.5586 18.3096 72.8927 17.7546L70.3319 20.8275ZM69.9867 20.1386C69.9745 19.878 70.0712 19.6154 70.2664 19.4202L73.0948 22.2487C73.7065 21.6369 74.0218 20.8007 73.9823 19.9528L69.9867 20.1386ZM70.1492 19.5481L66.3317 24.0928L69.3946 26.6656L73.212 22.1208L70.1492 19.5481ZM66.2247 24.2323C66.3771 24.0145 66.6138 23.868 66.886 23.8328L67.3993 27.7997C68.252 27.6894 69.0145 27.222 69.5016 26.5261L66.2247 24.2323ZM66.886 23.8328C67.1485 23.7988 67.4118 23.8759 67.6138 24.0442L65.053 27.1171C65.7058 27.6611 66.5563 27.9088 67.3993 27.7997L66.886 23.8328ZM67.6138 24.0442C67.8171 24.2137 67.9431 24.4632 67.9556 24.7331L63.96 24.919C63.9998 25.7762 64.399 26.5721 65.053 27.1171L67.6138 24.0442ZM67.9556 24.7331C67.9678 24.9937 67.8711 25.2563 67.6759 25.4515L64.8475 22.6231C64.2357 23.2348 63.9205 24.0711 63.96 24.919L67.9556 24.7331ZM67.7931 25.3237L71.6106 20.7789L68.5477 18.2062L64.7303 22.7509L67.7931 25.3237ZM55.9262 81.239H44.5014V85.239H55.9262V81.239ZM42.5014 83.239V85.7043H46.5014V83.239H42.5014ZM42.5014 85.7143C42.5138 88.1734 44.5009 90.1606 46.9601 90.173L46.9801 86.173C46.7145 86.1717 46.5027 85.9599 46.5014 85.6942L42.5014 85.7143ZM46.9701 90.173H53.4612V86.173H46.9701V90.173ZM53.4612 86.173H53.4578V90.173H53.4612V86.173ZM53.4678 90.173C55.9269 90.1606 57.9141 88.1734 57.9264 85.7143L53.9265 85.6943C53.9252 85.9599 53.7134 86.1717 53.4477 86.173L53.4678 90.173ZM57.9265 85.7041L57.9262 83.2388L53.9262 83.2392L53.9265 85.7045L57.9265 85.7041ZM59.3134 80.7727H59.4022V76.7727H59.3134V80.7727ZM59.4022 76.7727H59.3988V80.7727H59.4022V76.7727ZM59.3988 80.7727C61.7132 80.7727 63.5844 78.8975 63.5909 76.5896L59.591 76.5784C59.5906 76.688 59.5019 76.7727 59.3988 76.7727V80.7727ZM63.5909 76.584V71.8446H59.5909V76.584H63.5909ZM63.5909 71.8446C63.5909 71.5225 63.5389 71.2386 63.4745 71.0054L59.6186 72.0691C59.6089 72.034 59.5909 71.9549 59.5909 71.8446H63.5909ZM63.4877 71.0557C62.9684 68.9624 63.2435 67.9054 63.6404 67.2149C64.1206 66.3793 64.9578 65.7177 66.3782 64.6592L63.988 61.4519C62.728 62.3909 61.1425 63.5339 60.1724 65.2216C59.1189 67.0545 58.9159 69.2396 59.6054 72.0188L63.4877 71.0557ZM66.3781 64.6593C68.2034 63.2992 70.5339 61.5816 72.338 58.6931C74.1602 55.7756 75.3472 51.8427 75.3472 46.1395H71.3472C71.3472 51.2676 70.2875 54.4253 68.9453 56.5741C67.585 58.7521 65.8334 60.0769 63.9881 61.4518L66.3781 64.6593ZM74.7615 47.5537L74.7649 47.5503L71.9364 44.7219L71.933 44.7253L74.7615 47.5537ZM75.3507 46.1361C75.3507 37.158 70.5575 28.8599 62.7825 24.3708L60.7825 27.8349C67.3205 31.6098 71.3507 38.5877 71.3507 46.1361H75.3507ZM62.7827 24.3709C55.0034 19.8785 45.4248 19.8785 37.6451 24.3709L39.6454 27.8349C46.1874 24.0572 54.2409 24.0572 60.7823 27.8348L62.7827 24.3709ZM37.6453 24.3708C29.8698 28.8596 25.0771 37.1582 25.0771 46.1361H29.0771C29.0771 38.5877 33.107 31.6095 39.6452 27.835L37.6453 24.3708ZM25.0771 46.1361C25.0771 51.8409 26.2641 55.7739 28.0865 58.6911C29.8906 61.5792 32.2213 63.296 34.0462 64.6559L36.4363 61.4484C34.5906 60.0731 32.8392 58.7493 31.4789 56.5718C30.1369 54.4235 29.0771 51.2661 29.0771 46.1361H25.0771ZM34.0471 64.6565C35.4684 65.7143 36.3062 66.3769 36.7862 67.2127C37.1831 67.9036 37.4577 68.9612 36.9369 71.0544L40.8186 72.0201C41.51 69.2408 41.3083 67.0546 40.2548 65.2204C39.2845 63.5312 37.698 62.3875 36.4354 61.4478L34.0471 64.6565ZM37.4636 72.9515L37.467 72.9549L40.2954 70.1265L40.292 70.1231L37.4636 72.9515ZM36.9532 71.0088C36.8899 71.2385 36.8368 71.523 36.8368 71.8446H40.8368C40.8368 71.9613 40.8179 72.0409 40.8092 72.0725L36.9532 71.0088ZM36.8368 71.8446V76.584H40.8368V71.8446H36.8368ZM36.8368 76.584C36.8368 77.7225 37.3012 78.8137 38.1241 79.604L40.8948 76.719C40.8573 76.683 40.8368 76.6337 40.8368 76.584H36.8368ZM38.1242 79.6041C38.9433 80.3907 40.0516 80.8171 41.1947 80.7711L41.0339 76.7744C40.9887 76.7762 40.9362 76.7587 40.8948 76.719L38.1242 79.6041ZM39.1143 78.7727V81.3234H43.1143V78.7727H39.1143ZM39.1144 81.3402C39.1283 83.0047 40.1873 84.4696 41.7459 85.0168L43.071 81.2427C43.0929 81.2504 43.1139 81.2743 43.1142 81.3067L39.1144 81.3402ZM40.4084 83.1297V85.7043H44.4084V83.1297H40.4084ZM40.4084 85.7097C40.4182 89.3266 43.348 92.2562 46.9648 92.2662L46.9758 88.2662C45.5594 88.2623 44.4123 87.115 44.4084 85.6989L40.4084 85.7097ZM46.9703 92.2662H53.4614V88.2662H46.9703V92.2662ZM53.4614 88.2662H53.458V92.2662H53.4614V88.2662ZM53.4634 92.2662C57.0803 92.2564 60.0099 89.3266 60.0198 85.7098L56.0199 85.6988C56.016 87.1152 54.8687 88.2623 53.4525 88.2662L53.4634 92.2662ZM60.0199 85.7043V83.1297H56.0199V85.7043H60.0199ZM58.6824 85.0168C60.2409 84.4696 61.3 83.0048 61.3139 81.3401L57.3141 81.3067C57.3143 81.2743 57.3354 81.2504 57.3573 81.2427L58.6824 85.0168ZM61.314 81.323L61.3134 78.7723L57.3134 78.7732L57.314 81.3239L61.314 81.323ZM43.2103 80.7727H57.2199V76.7727H43.2103V80.7727ZM55.2199 78.7727V81.1458H59.2199V78.7727H55.2199ZM57.2199 79.1458H43.2068V83.1458H57.2199V79.1458ZM45.2068 81.1458V78.7727H41.2068V81.1458H45.2068ZM43.2068 80.7727H43.2103V76.7727H43.2068V80.7727ZM50.3058 74.886H59.4981V70.886H50.3058V74.886ZM57.4981 72.886V76.5806H61.4981V72.886H57.4981ZM58.0838 75.1664L57.9882 75.262L60.8167 78.0904L60.9123 77.9948L58.0838 75.1664ZM59.4021 74.6762L41.028 74.6796L41.0287 78.6796L59.4028 78.6762L59.4021 74.6762ZM42.4426 75.2654L42.3469 75.1698L39.5185 77.9982L39.6141 78.0938L42.4426 75.2654ZM42.9327 76.5822L42.9293 72.8842L38.9293 72.8879L38.9327 76.5858L42.9327 76.5822ZM40.9293 74.886H50.3058V70.886H40.9293V74.886ZM58.6988 53.8098C57.0889 57.0931 54.4888 59.1084 51.8604 58.5609L51.0448 62.4769C56.482 63.6093 60.4514 59.3212 62.2903 55.5707L58.6988 53.8098ZM51.4526 58.5189H51.4492V62.5189H51.4526V58.5189ZM53.3983 60.9672C53.8879 58.8387 54.8724 56.8563 56.2748 55.1888L53.2136 52.6142C51.3996 54.771 50.1305 57.3298 49.5001 60.0706L53.3983 60.9672ZM56.2375 55.232C57.7462 53.5386 59.5322 52.7039 61.3766 53.0786L62.173 49.1587C58.4381 48.3999 55.3139 50.2557 53.2509 52.571L56.2375 55.232ZM60.3613 52.5335L60.3647 52.537L63.1917 49.7072L63.1883 49.7037L60.3613 52.5335ZM59.8354 50.6471C59.5682 51.7405 59.1859 52.8055 58.6951 53.8174L62.294 55.5631C62.9096 54.294 63.3873 52.962 63.721 51.597L59.8354 50.6471ZM37.0039 50.6091C38.2687 49.8936 39.7904 49.7904 41.1408 50.332L42.6297 46.6194C40.149 45.6245 37.3548 45.8149 35.0343 47.1276L37.0039 50.6091ZM41.21 50.3583C43.4648 51.1671 45.5817 53.1729 47.1451 55.7274L50.5568 53.6394C48.7056 50.6145 45.9602 47.8126 42.5605 46.5932L41.21 50.3583ZM47.6697 53.0695C46.4661 53.9504 45.7515 54.3191 45.2339 54.3778C44.9866 54.4058 44.4867 54.4183 43.5924 53.351L40.5265 55.9201C41.9985 57.6767 43.7163 58.5753 45.6842 58.3524C47.3817 58.1601 48.8798 57.1408 50.0322 56.2973L47.6697 53.0695ZM43.5935 53.3524C42.2191 51.7093 40.791 50.9144 39.8743 50.3029C39.0201 49.7331 38.3996 49.2257 37.834 48.0172L34.2111 49.7128C35.1957 51.8164 36.4498 52.8268 37.6545 53.6305C38.7968 54.3925 39.612 54.8268 40.5254 55.9188L43.5935 53.3524ZM34.6255 47.4338L34.622 47.4372L37.4161 50.2995L37.4196 50.2961L34.6255 47.4338ZM51.0734 39.4758C51.3574 39.7599 51.4824 40.1687 51.4032 40.5685L55.327 41.3457C55.6644 39.6422 55.1338 37.8794 53.9018 36.6474L51.0734 39.4758ZM51.4032 40.5685C51.3246 40.9658 51.0525 41.297 50.6802 41.4506L52.2053 45.1484C53.8202 44.4824 54.9891 43.0518 55.327 41.3457L51.4032 40.5685ZM50.678 41.4515C50.302 41.6071 49.8771 41.564 49.5449 41.3413L47.3173 44.6636C48.7674 45.6359 50.603 45.8114 52.2075 45.1475L50.678 41.4515ZM49.5406 41.3384C49.2076 41.1164 49.0017 40.7361 49.0004 40.3259L45.0005 40.3386C45.006 42.0728 45.8723 43.7002 47.3217 44.6665L49.5406 41.3384ZM49.0004 40.3323C49.0004 39.841 49.2971 39.3992 49.746 39.2143L48.2225 35.5158C46.2676 36.3211 45.0004 38.2284 45.0004 40.3323H49.0004ZM49.7505 39.2124C50.2051 39.0239 50.7238 39.1263 51.0734 39.4758L53.9018 36.6474C52.4075 35.153 50.1673 34.7092 48.218 35.5176L49.7505 39.2124ZM50.216 37.0226C51.9136 37.0205 53.3374 38.3085 53.5056 40.0008L57.486 39.6052C57.1147 35.8684 53.9698 33.0179 50.211 33.0226L50.216 37.0226ZM53.5058 40.0033C53.6757 41.6911 52.5356 43.2353 50.8661 43.5722L51.6573 47.4931C55.335 46.751 57.8622 43.3441 57.4857 39.6028L53.5058 40.0033ZM49.2617 45.5326V55.2608H53.2617V45.5326H49.2617ZM53.0234 56.2075C53.8026 54.7577 54.8717 53.4805 56.1632 52.4585L53.681 49.3218C51.9608 50.6832 50.5374 52.3835 49.5 54.314L53.0234 56.2075ZM56.185 52.441C57.9483 51.005 60.3153 50.5442 62.4841 51.2162L63.668 47.3954C60.2165 46.326 56.4578 47.0603 53.6592 49.3393L56.185 52.441ZM62.4937 51.2191C62.5227 51.228 62.5378 51.2339 62.6512 51.2733L63.9653 47.4953C63.9216 47.4802 63.7864 47.4314 63.6584 47.3924L62.4937 51.2191ZM65.3082 49.3843V49.3809H61.3082V49.3843H65.3082ZM62.7439 51.2996C62.273 51.1611 61.9849 50.6853 62.0807 50.2032L66.004 50.9829C66.3115 49.4355 65.3883 47.908 63.8725 47.4622L62.7439 51.2996ZM62.0729 50.2448C61.5447 53.232 60.1788 56.0082 58.1319 58.2431L61.0818 60.9447C63.6445 58.1465 65.3517 54.674 66.0118 50.9413L62.0729 50.2448ZM58.1126 58.2645C56.4694 60.1115 54.0062 61.0015 51.5609 60.6315L50.9624 64.5864C54.7453 65.1589 58.5581 63.7816 61.1011 60.9233L58.1126 58.2645ZM49.2617 62.609V70.8005H53.2617V62.609H49.2617ZM51.2617 72.8005H59.2551V68.8005H51.2617V72.8005ZM61.2259 70.4598C60.8389 68.2207 61.2101 66.965 61.7922 66.0528C62.4601 65.0061 63.5322 64.1776 65.1387 62.98L62.748 59.7731C61.2814 60.8664 59.5552 62.1223 58.4202 63.9012C57.1994 65.8144 56.7631 68.1253 57.2843 71.1411L61.2259 70.4598ZM65.1377 62.9807C66.7729 61.7632 68.8921 60.2035 70.5319 57.5658C72.1887 54.9007 73.2573 51.3161 73.2573 46.137H69.2573C69.2573 50.7479 68.313 53.5588 67.1348 55.454C65.9397 57.3765 64.4019 58.5416 62.7489 59.7724L65.1377 62.9807ZM73.2573 46.137C73.2573 37.9071 68.864 30.298 61.7369 26.1846L59.7374 29.649C65.6264 33.0478 69.2573 39.3361 69.2573 46.137H73.2573ZM61.7372 26.1847C54.6069 22.068 45.8237 22.068 38.6935 26.1847L40.6935 29.6488C46.5861 26.2467 53.8445 26.2467 59.7372 29.6488L61.7372 26.1847ZM38.6938 26.1846C31.5666 30.2979 27.1734 37.9068 27.1734 46.137H31.1734C31.1734 39.3358 34.8042 33.0477 40.6932 29.649L38.6938 26.1846ZM27.1734 46.137C27.1734 51.3158 28.242 54.9004 29.8988 57.5655C31.5385 60.2033 33.6577 61.7631 35.2929 62.9807L37.6818 59.7724C36.0289 58.5416 34.4911 57.3763 33.2959 55.4537C32.1177 53.5585 31.1734 50.7476 31.1734 46.137H27.1734ZM35.2919 62.9799C36.898 64.1774 37.9695 65.006 38.637 66.0526C39.219 66.9652 39.5902 68.2214 39.2046 70.4611L43.1466 71.1399C43.6657 68.1247 43.2294 65.8146 42.0094 63.9017C40.8749 62.1228 39.1498 60.8669 37.6828 59.7731L35.2919 62.9799ZM41.1756 72.8005H49.1656V68.8005H41.1756V72.8005ZM51.1656 70.8005V56.9989H47.1656V70.8005H51.1656ZM48.0639 55.3297C46.7674 56.1854 45.7311 56.5287 44.8822 56.4875C44.1198 56.4504 43.1509 56.0844 41.982 54.6876L38.9144 57.2547C40.6001 59.269 42.5337 60.3781 44.6881 60.4827C46.7562 60.5832 48.6512 59.7348 50.2673 58.6681L48.0639 55.3297ZM41.9817 54.6871C41.2887 53.8595 40.562 53.2807 39.8899 52.8129C39.5635 52.5857 39.2344 52.3744 38.9501 52.1899C38.6546 51.9983 38.3947 51.8275 38.1445 51.647C37.2558 51.0059 36.3798 50.1769 35.6092 48.1405L31.8681 49.5563C32.9413 52.3924 34.3394 53.8342 35.8042 54.8909C36.1423 55.1348 36.4757 55.3527 36.7731 55.5457C37.0816 55.7458 37.3448 55.915 37.6047 56.0959C38.1051 56.4442 38.5271 56.792 38.9148 57.2551L41.9817 54.6871ZM35.6124 48.1492C35.7688 48.5683 35.6153 49.0373 35.2384 49.2823L33.0584 45.9286C31.8619 46.7063 31.367 48.2134 31.8648 49.5476L35.6124 48.1492ZM35.2325 49.2861L36.2329 48.6408L34.0647 45.2795L33.0642 45.9248L35.2325 49.2861ZM37.1488 46.9601V46.9567H33.1488V46.9601H37.1488ZM36.0964 48.718C37.8708 47.7633 39.9753 47.6368 41.8487 48.3714L43.309 44.6474C40.3406 43.4835 37.0092 43.6847 34.2012 45.1954L36.0964 48.718ZM41.8487 48.3714C44.1156 49.2603 46.0944 50.7636 47.5667 52.711L50.7574 50.2987C48.8427 47.7662 46.2664 45.8073 43.309 44.6475L41.8487 48.3714ZM51.1621 51.5049V45.5362H47.1621V51.5049H51.1621ZM49.5486 43.5739C47.8743 43.2442 46.7273 41.6955 46.8975 39.9995L42.9175 39.6001C42.5414 43.3469 45.0754 46.7698 48.7756 47.4986L49.5486 43.5739ZM46.8975 39.9995C47.0678 38.3033 48.5001 37.014 50.2034 37.0226L50.2235 33.0226C46.4567 33.0037 43.2936 35.8534 42.9175 39.6001L46.8975 39.9995Z" fill="url(#paint0_linear_702_14307)" mask="url(#path-1-inside-1_702_14307)"/>
<defs>
<linearGradient id="paint0_linear_702_14307" x1="50.2135" y1="11.5949" x2="50.2135" y2="90.2662" gradientUnits="userSpaceOnUse">
<stop offset="0.39" stop-color="#D6357F"/>
<stop offset="1" stop-color="#D6357F" stop-opacity="0.2"/>
</linearGradient>
</defs>
</svg>
