<svg width="101" height="101" viewBox="0 0 101 101" fill="none" xmlns="http://www.w3.org/2000/svg">
<rect width="100" height="100" transform="translate(0.499756 0.930542)" fill="url(#paint0_radial_702_14294)"/>
<path d="M16.8453 71.9006C16.8453 73.1333 17.4133 74.387 18.6028 75.6149C19.7969 76.8476 21.5732 78.0033 23.8459 78.9956C28.3882 80.9789 34.7334 82.2306 41.7948 82.2306C48.8563 82.2306 55.2014 80.9789 59.7438 78.9956C62.0165 78.0033 63.7928 76.8476 64.9869 75.6149C66.1764 74.387 66.7444 73.1333 66.7444 71.9006C66.7444 70.6678 66.1764 69.4141 64.9869 68.1862C63.7928 66.9536 62.0165 65.7978 59.7438 64.8055C55.2014 62.8222 48.8563 61.5706 41.7948 61.5706C34.7334 61.5706 28.3882 62.8222 23.8459 64.8055C21.5732 65.7978 19.7969 66.9536 18.6028 68.1862C17.4133 69.4141 16.8453 70.6678 16.8453 71.9006Z" fill="black" fill-opacity="0.3" stroke="url(#paint1_linear_702_14294)" stroke-width="2"/>
<path d="M16.8453 62.2406C16.8453 63.4733 17.4133 64.727 18.6028 65.9549C19.7969 67.1876 21.5732 68.3433 23.8459 69.3356C28.3882 71.3189 34.7334 72.5706 41.7948 72.5706C48.8563 72.5706 55.2014 71.3189 59.7438 69.3356C62.0165 68.3433 63.7928 67.1876 64.9869 65.9549C66.1764 64.727 66.7444 63.4733 66.7444 62.2406C66.7444 61.0078 66.1764 59.7541 64.9869 58.5262C63.7928 57.2936 62.0165 56.1378 59.7438 55.1455C55.2014 53.1622 48.8563 51.9106 41.7948 51.9106C34.7334 51.9106 28.3882 53.1622 23.8459 55.1455C21.5732 56.1378 19.7969 57.2936 18.6028 58.5262C17.4133 59.7541 16.8453 61.0078 16.8453 62.2406Z" fill="black" fill-opacity="0.3" stroke="url(#paint2_linear_702_14294)" stroke-width="2"/>
<path d="M16.8453 52.5805C16.8453 53.8133 17.4133 55.067 18.6028 56.2949C19.7969 57.5275 21.5732 58.6833 23.8459 59.6756C28.3882 61.6589 34.7334 62.9105 41.7948 62.9105C48.8563 62.9105 55.2014 61.6589 59.7438 59.6756C62.0165 58.6833 63.7928 57.5275 64.9869 56.2949C66.1764 55.067 66.7444 53.8133 66.7444 52.5805C66.7444 51.3478 66.1764 50.0941 64.9869 48.8662C63.7928 47.6335 62.0165 46.4778 59.7438 45.4855C55.2014 43.5022 48.8563 42.2505 41.7948 42.2505C34.7334 42.2505 28.3882 43.5022 23.8459 45.4855C21.5732 46.4778 19.7969 47.6335 18.6028 48.8662C17.4133 50.0941 16.8453 51.3478 16.8453 52.5805Z" fill="black" fill-opacity="0.3" stroke="url(#paint3_linear_702_14294)" stroke-width="2"/>
<path d="M16.8453 42.9205C16.8453 44.1533 17.4133 45.407 18.6028 46.6349C19.7969 47.8675 21.5732 49.0233 23.8459 50.0156C28.3882 51.9989 34.7334 53.2505 41.7948 53.2505C48.8563 53.2505 55.2014 51.9989 59.7438 50.0156C62.0165 49.0233 63.7928 47.8675 64.9869 46.6349C66.1764 45.407 66.7444 44.1533 66.7444 42.9205C66.7444 41.6878 66.1764 40.4341 64.9869 39.2062C63.7928 37.9735 62.0165 36.8178 59.7438 35.8255C55.2014 33.8422 48.8563 32.5905 41.7948 32.5905C34.7334 32.5905 28.3882 33.8422 23.8459 35.8255C21.5732 36.8178 19.7969 37.9735 18.6028 39.2062C17.4133 40.4341 16.8453 41.6878 16.8453 42.9205Z" fill="black" fill-opacity="0.3" stroke="url(#paint4_linear_702_14294)" stroke-width="2"/>
<path d="M16.8453 33.2605C16.8453 34.4933 17.4133 35.747 18.6028 36.9749C19.7969 38.2075 21.5732 39.3633 23.8459 40.3556C28.3882 42.3389 34.7334 43.5905 41.7948 43.5905C48.8563 43.5905 55.2014 42.3389 59.7438 40.3556C62.0165 39.3633 63.7928 38.2075 64.9869 36.9749C66.1764 35.747 66.7444 34.4933 66.7444 33.2605C66.7444 32.0278 66.1764 30.7741 64.9869 29.5462C63.7928 28.3135 62.0165 27.1578 59.7438 26.1655C55.2014 24.1822 48.8563 22.9305 41.7948 22.9305C34.7334 22.9305 28.3882 24.1822 23.8459 26.1655C21.5732 27.1578 19.7969 28.3135 18.6028 29.5462C17.4133 30.7741 16.8453 32.0278 16.8453 33.2605Z" fill="black" fill-opacity="0.3" stroke="url(#paint5_linear_702_14294)" stroke-width="2"/>
<path d="M95.3572 19.4883L86.0675 9.5829L76.7778 19.4883" stroke="#D6357F" stroke-width="2" stroke-linecap="round"/>
<path opacity="0.7" d="M95.3572 31.836L86.0675 21.9306L76.7778 31.836" stroke="#D6357F" stroke-width="2" stroke-linecap="round"/>
<path opacity="0.3" d="M95.3572 46.2033L86.0675 36.2979L76.7778 46.2033" stroke="#D6357F" stroke-width="2" stroke-linecap="round"/>
<defs>
<radialGradient id="paint0_radial_702_14294" cx="0" cy="0" r="1" gradientUnits="userSpaceOnUse" gradientTransform="translate(50 50) rotate(90) scale(63.661)">
<stop/>
<stop offset="1" stop-color="#141414" stop-opacity="0"/>
</radialGradient>
<linearGradient id="paint1_linear_702_14294" x1="41.7948" y1="60.5706" x2="41.7948" y2="83.2306" gradientUnits="userSpaceOnUse">
<stop stop-color="#D6357F" stop-opacity="0.2"/>
<stop offset="0.61" stop-color="#D6357F"/>
</linearGradient>
<linearGradient id="paint2_linear_702_14294" x1="41.7948" y1="50.9106" x2="41.7948" y2="73.5706" gradientUnits="userSpaceOnUse">
<stop stop-color="#D6357F" stop-opacity="0.2"/>
<stop offset="0.61" stop-color="#D6357F"/>
</linearGradient>
<linearGradient id="paint3_linear_702_14294" x1="41.7948" y1="41.2505" x2="41.7948" y2="63.9105" gradientUnits="userSpaceOnUse">
<stop stop-color="#D6357F" stop-opacity="0.2"/>
<stop offset="0.61" stop-color="#D6357F"/>
</linearGradient>
<linearGradient id="paint4_linear_702_14294" x1="41.7948" y1="31.5905" x2="41.7948" y2="54.2505" gradientUnits="userSpaceOnUse">
<stop stop-color="#D6357F" stop-opacity="0.2"/>
<stop offset="0.61" stop-color="#D6357F"/>
</linearGradient>
<linearGradient id="paint5_linear_702_14294" x1="41.7948" y1="21.9305" x2="41.7948" y2="44.5905" gradientUnits="userSpaceOnUse">
<stop stop-color="#D6357F" stop-opacity="0.2"/>
<stop offset="0.61" stop-color="#D6357F"/>
</linearGradient>
</defs>
</svg>
